M48
; DRILL file {KiCad 8.0.5} date 2024-11-21T22:09:47+0100
; FORMAT={-:-/ absolute / metric / decimal}
; #@! TF.CreationDate,2024-11-21T22:09:47+01:00
; #@! TF.GenerationSoftware,Kicad,Pcbnew,8.0.5
; #@! TF.FileFunction,Plated,1,2,PTH
FMAT,2
METRIC
; #@! TA.AperFunction,Plated,PTH,ViaDrill
T1C0.300
; #@! TA.AperFunction,Plated,PTH,ComponentDrill
T2C0.750
; #@! TA.AperFunction,Plated,PTH,ComponentDrill
T3C1.100
; #@! TA.AperFunction,Plated,PTH,ComponentDrill
T4C1.200
; #@! TA.AperFunction,Plated,PTH,ComponentDrill
T5C2.200
%
G90
G05
T1
X76.003Y-102.574
X79.903Y-97.424
X82.903Y-88.824
X84.653Y-103.824
X85.653Y-52.324
X85.653Y-57.574
X85.653Y-71.324
X85.653Y-76.574
X85.653Y-88.074
X96.403Y-38.824
X100.153Y-53.074
X100.653Y-66.574
X100.653Y-80.074
X101.403Y-38.824
X101.903Y-48.324
X102.261Y-97.931
X103.903Y-115.574
X106.903Y-39.324
X106.903Y-48.324
X107.158Y-108.569
X107.903Y-56.574
X107.903Y-73.574
X108.153Y-41.074
X108.403Y-106.574
X110.153Y-43.074
X110.153Y-115.824
X110.903Y-59.074
X111.903Y-115.824
X112.903Y-58.324
X112.903Y-59.824
X113.403Y-96.574
X114.153Y-77.324
X115.903Y-124.624
X118.153Y-112.074
X118.153Y-115.074
X121.903Y-109.574
X122.903Y-55.574
X122.903Y-73.324
X122.903Y-91.824
X122.903Y-115.074
X124.653Y-116.824
X124.903Y-60.798
X125.153Y-112.074
X126.153Y-96.574
X127.653Y-39.074
X130.653Y-54.074
X132.153Y-53.324
X132.153Y-54.824
X132.403Y-107.324
X133.403Y-72.324
X137.403Y-107.324
X140.153Y-114.324
X140.153Y-116.574
X141.653Y-114.324
X141.903Y-50.574
X141.903Y-68.824
X141.903Y-86.574
X141.903Y-104.824
X142.653Y-91.824
X142.903Y-55.824
X143.403Y-57.324
X146.403Y-112.824
X146.403Y-116.824
X146.903Y-93.824
X146.903Y-95.324
X147.403Y-117.324
X147.403Y-119.824
X147.653Y-39.074
X148.903Y-60.074
X149.153Y-94.574
X149.903Y-117.324
X149.903Y-119.824
X150.303Y-121.824
X151.403Y-76.824
X152.403Y-58.074
X152.403Y-117.324
X153.503Y-117.424
X153.903Y-113.574
X158.903Y-67.074
X159.153Y-84.824
X160.603Y-121.824
X160.653Y-113.574
X160.903Y-55.324
X160.903Y-72.824
X160.903Y-91.324
X160.903Y-109.074
X161.903Y-40.824
X162.903Y-57.824
X163.203Y-119.624
X164.403Y-60.074
X164.403Y-96.324
X165.153Y-55.074
X165.153Y-117.024
X166.153Y-77.324
X166.403Y-79.574
X167.653Y-78.574
X168.403Y-58.574
X168.503Y-121.824
X169.203Y-121.824
X170.403Y-75.574
X170.903Y-58.574
X171.403Y-42.324
X171.653Y-78.324
X172.703Y-46.224
X176.103Y-124.024
X177.503Y-43.624
X178.703Y-116.524
X178.803Y-120.424
X179.203Y-93.824
X179.403Y-46.324
X179.716Y-72.886
X179.778Y-55.199
X179.903Y-91.324
X179.903Y-109.074
X179.903Y-112.824
X181.653Y-40.824
X181.903Y-60.074
X181.903Y-94.074
X182.153Y-116.574
X182.203Y-43.624
X182.203Y-49.224
X182.653Y-114.324
X183.403Y-58.824
X183.703Y-124.024
X183.903Y-76.574
X184.903Y-112.824
X184.903Y-113.574
X185.503Y-43.624
X185.503Y-46.524
X185.503Y-49.224
X187.003Y-114.724
X188.403Y-40.824
X189.903Y-123.267
X190.903Y-108.574
X193.003Y-45.624
X193.403Y-117.424
X196.203Y-118.424
X196.903Y-45.624
X198.653Y-116.074
X200.203Y-128.824
X201.603Y-127.624
X201.603Y-140.824
X202.403Y-77.324
X202.403Y-82.324
X202.403Y-87.324
X202.403Y-92.324
X202.703Y-124.524
X203.903Y-128.824
X206.056Y-129.171
X207.403Y-57.324
X207.403Y-77.324
X207.403Y-87.324
X207.403Y-92.324
X207.403Y-97.324
X207.403Y-102.324
X207.403Y-107.324
X207.403Y-112.324
X207.403Y-117.324
X207.403Y-122.324
X209.403Y-66.324
X212.403Y-57.324
X212.403Y-62.324
X212.403Y-67.324
X212.403Y-72.324
X212.403Y-77.324
X212.403Y-82.324
X212.403Y-107.324
X212.403Y-117.324
X212.403Y-122.324
X212.403Y-127.324
X217.803Y-140.224
X218.903Y-141.224
X220.503Y-140.124
T2
X194.63Y-102.034
X196.63Y-102.034
X198.63Y-102.034
X200.63Y-102.034
T3
X190.01Y-43.064
X190.01Y-45.604
X190.01Y-48.144
X190.01Y-50.684
X190.01Y-53.224
X190.01Y-55.764
X190.01Y-58.304
X190.01Y-60.844
X190.01Y-63.384
X190.01Y-65.924
X190.01Y-68.464
X190.01Y-71.004
X205.25Y-43.064
X205.25Y-45.604
X205.25Y-48.144
X205.25Y-50.684
X205.25Y-53.224
X205.25Y-55.764
X205.25Y-58.304
X205.25Y-60.844
X205.25Y-63.384
X205.25Y-65.924
X205.25Y-68.464
X205.25Y-71.004
T4
X99.893Y-124.978
X99.893Y-129.528
T5
X89.203Y-42.324
X89.203Y-128.294
X190.003Y-82.776
X203.542Y-111.775
X205.203Y-82.776
X211.542Y-49.775
M30
