G04 #@! TF.GenerationSoftware,KiCad,Pcbnew,8.0.5*
G04 #@! TF.CreationDate,2024-11-21T22:09:12+01:00*
G04 #@! TF.ProjectId,stellar,7374656c-6c61-4722-9e6b-696361645f70,rev?*
G04 #@! TF.SameCoordinates,Original*
G04 #@! TF.FileFunction,Legend,Bot*
G04 #@! TF.FilePolarity,Positive*
%FSLAX46Y46*%
G04 Gerber Fmt 4.6, Leading zero omitted, Abs format (unit mm)*
G04 Created by KiCad (PCBNEW 8.0.5) date 2024-11-21 22:09:12*
%MOMM*%
%LPD*%
G01*
G04 APERTURE LIST*
G04 Aperture macros list*
%AMRoundRect*
0 Rectangle with rounded corners*
0 $1 Rounding radius*
0 $2 $3 $4 $5 $6 $7 $8 $9 X,Y pos of 4 corners*
0 Add a 4 corners polygon primitive as box body*
4,1,4,$2,$3,$4,$5,$6,$7,$8,$9,$2,$3,0*
0 Add four circle primitives for the rounded corners*
1,1,$1+$1,$2,$3*
1,1,$1+$1,$4,$5*
1,1,$1+$1,$6,$7*
1,1,$1+$1,$8,$9*
0 Add four rect primitives between the rounded corners*
20,1,$1+$1,$2,$3,$4,$5,0*
20,1,$1+$1,$4,$5,$6,$7,0*
20,1,$1+$1,$6,$7,$8,$9,0*
20,1,$1+$1,$8,$9,$2,$3,0*%
G04 Aperture macros list end*
%ADD10C,0.150000*%
%ADD11C,0.100000*%
%ADD12C,0.120000*%
%ADD13C,1.801800*%
%ADD14C,3.100000*%
%ADD15C,3.529000*%
%ADD16RoundRect,0.050000X1.300000X1.300000X-1.300000X1.300000X-1.300000X-1.300000X1.300000X-1.300000X0*%
%ADD17C,3.600000*%
%ADD18RoundRect,0.270833X0.379167X0.654167X-0.379167X0.654167X-0.379167X-0.654167X0.379167X-0.654167X0*%
%ADD19O,1.300000X1.850000*%
%ADD20C,2.600000*%
%ADD21RoundRect,0.050000X1.181751X1.408356X-1.408356X1.181751X-1.181751X-1.408356X1.408356X-1.181751X0*%
%ADD22RoundRect,0.050000X1.831482X0.160234X-0.160234X1.831482X-1.831482X-0.160234X0.160234X-1.831482X0*%
%ADD23RoundRect,0.050000X1.666227X0.776974X-0.776974X1.666227X-1.666227X-0.776974X0.776974X-1.666227X0*%
%ADD24C,2.700000*%
%ADD25C,3.900000*%
%ADD26RoundRect,0.250000X0.400000X-0.250000X0.400000X0.250000X-0.400000X0.250000X-0.400000X-0.250000X0*%
%ADD27RoundRect,0.050000X0.850000X0.412500X-0.850000X0.412500X-0.850000X-0.412500X0.850000X-0.412500X0*%
%ADD28RoundRect,0.050000X-0.810814X-0.485013X0.882717X-0.336848X0.810814X0.485013X-0.882717X0.336848X0*%
%ADD29RoundRect,0.050000X-0.850000X-0.412500X0.850000X-0.412500X0.850000X0.412500X-0.850000X0.412500X0*%
%ADD30RoundRect,0.275000X0.275000X0.500000X-0.275000X0.500000X-0.275000X-0.500000X0.275000X-0.500000X0*%
%ADD31RoundRect,0.050000X-0.412500X0.850000X-0.412500X-0.850000X0.412500X-0.850000X0.412500X0.850000X0*%
%ADD32RoundRect,0.050000X-0.800000X0.800000X-0.800000X-0.800000X0.800000X-0.800000X0.800000X0.800000X0*%
%ADD33C,1.700000*%
%ADD34RoundRect,0.250000X-0.400000X0.250000X-0.400000X-0.250000X0.400000X-0.250000X0.400000X0.250000X0*%
%ADD35RoundRect,0.250000X0.420267X-0.214186X0.376689X0.283911X-0.420267X0.214186X-0.376689X-0.283911X0*%
%ADD36RoundRect,0.050000X0.810814X0.485013X-0.882717X0.336848X-0.810814X-0.485013X0.882717X-0.336848X0*%
%ADD37RoundRect,0.050000X0.939822X0.096906X-0.657655X0.678340X-0.939822X-0.096906X0.657655X-0.678340X0*%
%ADD38RoundRect,0.275000X-1.525000X0.275000X-1.525000X-0.275000X1.525000X-0.275000X1.525000X0.275000X0*%
%ADD39RoundRect,0.266667X-1.483333X0.533333X-1.483333X-0.533333X1.483333X-0.533333X1.483333X0.533333X0*%
%ADD40RoundRect,0.275000X-0.230376X-0.522065X0.317531X-0.474130X0.230376X0.522065X-0.317531X0.474130X0*%
%ADD41RoundRect,0.050000X0.450000X0.850000X-0.450000X0.850000X-0.450000X-0.850000X0.450000X-0.850000X0*%
%ADD42RoundRect,0.050000X0.916288X-0.230376X-0.385988X0.862363X-0.916288X0.230376X0.385988X-0.862363X0*%
%ADD43RoundRect,0.250000X-0.290372X0.371731X-0.461382X-0.098115X0.290372X-0.371731X0.461382X0.098115X0*%
%ADD44RoundRect,0.250000X-0.145721X0.448626X-0.467115X0.065604X0.145721X-0.448626X0.467115X-0.065604X0*%
%ADD45RoundRect,0.275000X-0.275000X-0.500000X0.275000X-0.500000X0.275000X0.500000X-0.275000X0.500000X0*%
G04 APERTURE END LIST*
D10*
X128473886Y-67977483D02*
X127473886Y-67977483D01*
X127473886Y-67977483D02*
X127473886Y-68215578D01*
X127473886Y-68215578D02*
X127521505Y-68358435D01*
X127521505Y-68358435D02*
X127616743Y-68453673D01*
X127616743Y-68453673D02*
X127711981Y-68501292D01*
X127711981Y-68501292D02*
X127902457Y-68548911D01*
X127902457Y-68548911D02*
X128045314Y-68548911D01*
X128045314Y-68548911D02*
X128235790Y-68501292D01*
X128235790Y-68501292D02*
X128331028Y-68453673D01*
X128331028Y-68453673D02*
X128426267Y-68358435D01*
X128426267Y-68358435D02*
X128473886Y-68215578D01*
X128473886Y-68215578D02*
X128473886Y-67977483D01*
X127902457Y-69120340D02*
X127854838Y-69025102D01*
X127854838Y-69025102D02*
X127807219Y-68977483D01*
X127807219Y-68977483D02*
X127711981Y-68929864D01*
X127711981Y-68929864D02*
X127664362Y-68929864D01*
X127664362Y-68929864D02*
X127569124Y-68977483D01*
X127569124Y-68977483D02*
X127521505Y-69025102D01*
X127521505Y-69025102D02*
X127473886Y-69120340D01*
X127473886Y-69120340D02*
X127473886Y-69310816D01*
X127473886Y-69310816D02*
X127521505Y-69406054D01*
X127521505Y-69406054D02*
X127569124Y-69453673D01*
X127569124Y-69453673D02*
X127664362Y-69501292D01*
X127664362Y-69501292D02*
X127711981Y-69501292D01*
X127711981Y-69501292D02*
X127807219Y-69453673D01*
X127807219Y-69453673D02*
X127854838Y-69406054D01*
X127854838Y-69406054D02*
X127902457Y-69310816D01*
X127902457Y-69310816D02*
X127902457Y-69120340D01*
X127902457Y-69120340D02*
X127950076Y-69025102D01*
X127950076Y-69025102D02*
X127997695Y-68977483D01*
X127997695Y-68977483D02*
X128092933Y-68929864D01*
X128092933Y-68929864D02*
X128283409Y-68929864D01*
X128283409Y-68929864D02*
X128378647Y-68977483D01*
X128378647Y-68977483D02*
X128426267Y-69025102D01*
X128426267Y-69025102D02*
X128473886Y-69120340D01*
X128473886Y-69120340D02*
X128473886Y-69310816D01*
X128473886Y-69310816D02*
X128426267Y-69406054D01*
X128426267Y-69406054D02*
X128378647Y-69453673D01*
X128378647Y-69453673D02*
X128283409Y-69501292D01*
X128283409Y-69501292D02*
X128092933Y-69501292D01*
X128092933Y-69501292D02*
X127997695Y-69453673D01*
X127997695Y-69453673D02*
X127950076Y-69406054D01*
X127950076Y-69406054D02*
X127902457Y-69310816D01*
X175643872Y-119052659D02*
X176120062Y-119052659D01*
X176120062Y-119052659D02*
X176120062Y-118052659D01*
X175310538Y-118528849D02*
X174977205Y-118528849D01*
X174834348Y-119052659D02*
X175310538Y-119052659D01*
X175310538Y-119052659D02*
X175310538Y-118052659D01*
X175310538Y-118052659D02*
X174834348Y-118052659D01*
X174405776Y-119052659D02*
X174405776Y-118052659D01*
X174405776Y-118052659D02*
X174167681Y-118052659D01*
X174167681Y-118052659D02*
X174024824Y-118100278D01*
X174024824Y-118100278D02*
X173929586Y-118195516D01*
X173929586Y-118195516D02*
X173881967Y-118290754D01*
X173881967Y-118290754D02*
X173834348Y-118481230D01*
X173834348Y-118481230D02*
X173834348Y-118624087D01*
X173834348Y-118624087D02*
X173881967Y-118814563D01*
X173881967Y-118814563D02*
X173929586Y-118909801D01*
X173929586Y-118909801D02*
X174024824Y-119005040D01*
X174024824Y-119005040D02*
X174167681Y-119052659D01*
X174167681Y-119052659D02*
X174405776Y-119052659D01*
X173453395Y-118147897D02*
X173405776Y-118100278D01*
X173405776Y-118100278D02*
X173310538Y-118052659D01*
X173310538Y-118052659D02*
X173072443Y-118052659D01*
X173072443Y-118052659D02*
X172977205Y-118100278D01*
X172977205Y-118100278D02*
X172929586Y-118147897D01*
X172929586Y-118147897D02*
X172881967Y-118243135D01*
X172881967Y-118243135D02*
X172881967Y-118338373D01*
X172881967Y-118338373D02*
X172929586Y-118481230D01*
X172929586Y-118481230D02*
X173501014Y-119052659D01*
X173501014Y-119052659D02*
X172881967Y-119052659D01*
X172548633Y-118052659D02*
X171929586Y-118052659D01*
X171929586Y-118052659D02*
X172262919Y-118433611D01*
X172262919Y-118433611D02*
X172120062Y-118433611D01*
X172120062Y-118433611D02*
X172024824Y-118481230D01*
X172024824Y-118481230D02*
X171977205Y-118528849D01*
X171977205Y-118528849D02*
X171929586Y-118624087D01*
X171929586Y-118624087D02*
X171929586Y-118862182D01*
X171929586Y-118862182D02*
X171977205Y-118957420D01*
X171977205Y-118957420D02*
X172024824Y-119005040D01*
X172024824Y-119005040D02*
X172120062Y-119052659D01*
X172120062Y-119052659D02*
X172405776Y-119052659D01*
X172405776Y-119052659D02*
X172501014Y-119005040D01*
X172501014Y-119005040D02*
X172548633Y-118957420D01*
X81407545Y-99426454D02*
X81881923Y-99384951D01*
X81881923Y-99384951D02*
X81794767Y-98388756D01*
X81029826Y-98933689D02*
X80697762Y-98962741D01*
X80601101Y-99497008D02*
X81075479Y-99455506D01*
X81075479Y-99455506D02*
X80988324Y-98459311D01*
X80988324Y-98459311D02*
X80513945Y-98500814D01*
X80174160Y-99534361D02*
X80087005Y-98538166D01*
X80087005Y-98538166D02*
X79849815Y-98558917D01*
X79849815Y-98558917D02*
X79711652Y-98618806D01*
X79711652Y-98618806D02*
X79625077Y-98721982D01*
X79625077Y-98721982D02*
X79585940Y-98821008D01*
X79585940Y-98821008D02*
X79555103Y-99014910D01*
X79555103Y-99014910D02*
X79567554Y-99157223D01*
X79567554Y-99157223D02*
X79631593Y-99342825D01*
X79631593Y-99342825D02*
X79687331Y-99433550D01*
X79687331Y-99433550D02*
X79790507Y-99520125D01*
X79790507Y-99520125D02*
X79936971Y-99555112D01*
X79936971Y-99555112D02*
X80174160Y-99534361D01*
X78656149Y-99667170D02*
X79225403Y-99617366D01*
X78940776Y-99642268D02*
X78853621Y-98646073D01*
X78853621Y-98646073D02*
X78960947Y-98780086D01*
X78960947Y-98780086D02*
X79064123Y-98866661D01*
X79064123Y-98866661D02*
X79163149Y-98905799D01*
X77715112Y-98745680D02*
X77904864Y-98729079D01*
X77904864Y-98729079D02*
X78003890Y-98768216D01*
X78003890Y-98768216D02*
X78055478Y-98811504D01*
X78055478Y-98811504D02*
X78162804Y-98945517D01*
X78162804Y-98945517D02*
X78226843Y-99131118D01*
X78226843Y-99131118D02*
X78260045Y-99510620D01*
X78260045Y-99510620D02*
X78220908Y-99609646D01*
X78220908Y-99609646D02*
X78177621Y-99661234D01*
X78177621Y-99661234D02*
X78086895Y-99716973D01*
X78086895Y-99716973D02*
X77897144Y-99733574D01*
X77897144Y-99733574D02*
X77798118Y-99694437D01*
X77798118Y-99694437D02*
X77746530Y-99651149D01*
X77746530Y-99651149D02*
X77690791Y-99560424D01*
X77690791Y-99560424D02*
X77670040Y-99323234D01*
X77670040Y-99323234D02*
X77709177Y-99224208D01*
X77709177Y-99224208D02*
X77752465Y-99172620D01*
X77752465Y-99172620D02*
X77843190Y-99116882D01*
X77843190Y-99116882D02*
X78032942Y-99100281D01*
X78032942Y-99100281D02*
X78131968Y-99139418D01*
X78131968Y-99139418D02*
X78183556Y-99182706D01*
X78183556Y-99182706D02*
X78239294Y-99273431D01*
X177643872Y-93552659D02*
X178120062Y-93552659D01*
X178120062Y-93552659D02*
X178120062Y-92552659D01*
X177310538Y-93028849D02*
X176977205Y-93028849D01*
X176834348Y-93552659D02*
X177310538Y-93552659D01*
X177310538Y-93552659D02*
X177310538Y-92552659D01*
X177310538Y-92552659D02*
X176834348Y-92552659D01*
X176405776Y-93552659D02*
X176405776Y-92552659D01*
X176405776Y-92552659D02*
X176167681Y-92552659D01*
X176167681Y-92552659D02*
X176024824Y-92600278D01*
X176024824Y-92600278D02*
X175929586Y-92695516D01*
X175929586Y-92695516D02*
X175881967Y-92790754D01*
X175881967Y-92790754D02*
X175834348Y-92981230D01*
X175834348Y-92981230D02*
X175834348Y-93124087D01*
X175834348Y-93124087D02*
X175881967Y-93314563D01*
X175881967Y-93314563D02*
X175929586Y-93409801D01*
X175929586Y-93409801D02*
X176024824Y-93505040D01*
X176024824Y-93505040D02*
X176167681Y-93552659D01*
X176167681Y-93552659D02*
X176405776Y-93552659D01*
X175453395Y-92647897D02*
X175405776Y-92600278D01*
X175405776Y-92600278D02*
X175310538Y-92552659D01*
X175310538Y-92552659D02*
X175072443Y-92552659D01*
X175072443Y-92552659D02*
X174977205Y-92600278D01*
X174977205Y-92600278D02*
X174929586Y-92647897D01*
X174929586Y-92647897D02*
X174881967Y-92743135D01*
X174881967Y-92743135D02*
X174881967Y-92838373D01*
X174881967Y-92838373D02*
X174929586Y-92981230D01*
X174929586Y-92981230D02*
X175501014Y-93552659D01*
X175501014Y-93552659D02*
X174881967Y-93552659D01*
X173929586Y-93552659D02*
X174501014Y-93552659D01*
X174215300Y-93552659D02*
X174215300Y-92552659D01*
X174215300Y-92552659D02*
X174310538Y-92695516D01*
X174310538Y-92695516D02*
X174405776Y-92790754D01*
X174405776Y-92790754D02*
X174501014Y-92838373D01*
X120167681Y-58052659D02*
X120643871Y-58052659D01*
X120643871Y-58052659D02*
X120643871Y-57052659D01*
X119834347Y-57528849D02*
X119501014Y-57528849D01*
X119358157Y-58052659D02*
X119834347Y-58052659D01*
X119834347Y-58052659D02*
X119834347Y-57052659D01*
X119834347Y-57052659D02*
X119358157Y-57052659D01*
X118929585Y-58052659D02*
X118929585Y-57052659D01*
X118929585Y-57052659D02*
X118691490Y-57052659D01*
X118691490Y-57052659D02*
X118548633Y-57100278D01*
X118548633Y-57100278D02*
X118453395Y-57195516D01*
X118453395Y-57195516D02*
X118405776Y-57290754D01*
X118405776Y-57290754D02*
X118358157Y-57481230D01*
X118358157Y-57481230D02*
X118358157Y-57624087D01*
X118358157Y-57624087D02*
X118405776Y-57814563D01*
X118405776Y-57814563D02*
X118453395Y-57909801D01*
X118453395Y-57909801D02*
X118548633Y-58005040D01*
X118548633Y-58005040D02*
X118691490Y-58052659D01*
X118691490Y-58052659D02*
X118929585Y-58052659D01*
X118024823Y-57052659D02*
X117358157Y-57052659D01*
X117358157Y-57052659D02*
X117786728Y-58052659D01*
X139643872Y-71052659D02*
X140120062Y-71052659D01*
X140120062Y-71052659D02*
X140120062Y-70052659D01*
X139310538Y-70528849D02*
X138977205Y-70528849D01*
X138834348Y-71052659D02*
X139310538Y-71052659D01*
X139310538Y-71052659D02*
X139310538Y-70052659D01*
X139310538Y-70052659D02*
X138834348Y-70052659D01*
X138405776Y-71052659D02*
X138405776Y-70052659D01*
X138405776Y-70052659D02*
X138167681Y-70052659D01*
X138167681Y-70052659D02*
X138024824Y-70100278D01*
X138024824Y-70100278D02*
X137929586Y-70195516D01*
X137929586Y-70195516D02*
X137881967Y-70290754D01*
X137881967Y-70290754D02*
X137834348Y-70481230D01*
X137834348Y-70481230D02*
X137834348Y-70624087D01*
X137834348Y-70624087D02*
X137881967Y-70814563D01*
X137881967Y-70814563D02*
X137929586Y-70909801D01*
X137929586Y-70909801D02*
X138024824Y-71005040D01*
X138024824Y-71005040D02*
X138167681Y-71052659D01*
X138167681Y-71052659D02*
X138405776Y-71052659D01*
X136881967Y-71052659D02*
X137453395Y-71052659D01*
X137167681Y-71052659D02*
X137167681Y-70052659D01*
X137167681Y-70052659D02*
X137262919Y-70195516D01*
X137262919Y-70195516D02*
X137358157Y-70290754D01*
X137358157Y-70290754D02*
X137453395Y-70338373D01*
X136548633Y-70052659D02*
X135929586Y-70052659D01*
X135929586Y-70052659D02*
X136262919Y-70433611D01*
X136262919Y-70433611D02*
X136120062Y-70433611D01*
X136120062Y-70433611D02*
X136024824Y-70481230D01*
X136024824Y-70481230D02*
X135977205Y-70528849D01*
X135977205Y-70528849D02*
X135929586Y-70624087D01*
X135929586Y-70624087D02*
X135929586Y-70862182D01*
X135929586Y-70862182D02*
X135977205Y-70957420D01*
X135977205Y-70957420D02*
X136024824Y-71005040D01*
X136024824Y-71005040D02*
X136120062Y-71052659D01*
X136120062Y-71052659D02*
X136405776Y-71052659D01*
X136405776Y-71052659D02*
X136501014Y-71005040D01*
X136501014Y-71005040D02*
X136548633Y-70957420D01*
X139167681Y-35052659D02*
X139643871Y-35052659D01*
X139643871Y-35052659D02*
X139643871Y-34052659D01*
X138834347Y-34528849D02*
X138501014Y-34528849D01*
X138358157Y-35052659D02*
X138834347Y-35052659D01*
X138834347Y-35052659D02*
X138834347Y-34052659D01*
X138834347Y-34052659D02*
X138358157Y-34052659D01*
X137929585Y-35052659D02*
X137929585Y-34052659D01*
X137929585Y-34052659D02*
X137691490Y-34052659D01*
X137691490Y-34052659D02*
X137548633Y-34100278D01*
X137548633Y-34100278D02*
X137453395Y-34195516D01*
X137453395Y-34195516D02*
X137405776Y-34290754D01*
X137405776Y-34290754D02*
X137358157Y-34481230D01*
X137358157Y-34481230D02*
X137358157Y-34624087D01*
X137358157Y-34624087D02*
X137405776Y-34814563D01*
X137405776Y-34814563D02*
X137453395Y-34909801D01*
X137453395Y-34909801D02*
X137548633Y-35005040D01*
X137548633Y-35005040D02*
X137691490Y-35052659D01*
X137691490Y-35052659D02*
X137929585Y-35052659D01*
X137024823Y-34052659D02*
X136405776Y-34052659D01*
X136405776Y-34052659D02*
X136739109Y-34433611D01*
X136739109Y-34433611D02*
X136596252Y-34433611D01*
X136596252Y-34433611D02*
X136501014Y-34481230D01*
X136501014Y-34481230D02*
X136453395Y-34528849D01*
X136453395Y-34528849D02*
X136405776Y-34624087D01*
X136405776Y-34624087D02*
X136405776Y-34862182D01*
X136405776Y-34862182D02*
X136453395Y-34957420D01*
X136453395Y-34957420D02*
X136501014Y-35005040D01*
X136501014Y-35005040D02*
X136596252Y-35052659D01*
X136596252Y-35052659D02*
X136881966Y-35052659D01*
X136881966Y-35052659D02*
X136977204Y-35005040D01*
X136977204Y-35005040D02*
X137024823Y-34957420D01*
X147473886Y-108001292D02*
X146473886Y-108001292D01*
X146473886Y-108001292D02*
X146473886Y-108239387D01*
X146473886Y-108239387D02*
X146521505Y-108382244D01*
X146521505Y-108382244D02*
X146616743Y-108477482D01*
X146616743Y-108477482D02*
X146711981Y-108525101D01*
X146711981Y-108525101D02*
X146902457Y-108572720D01*
X146902457Y-108572720D02*
X147045314Y-108572720D01*
X147045314Y-108572720D02*
X147235790Y-108525101D01*
X147235790Y-108525101D02*
X147331028Y-108477482D01*
X147331028Y-108477482D02*
X147426267Y-108382244D01*
X147426267Y-108382244D02*
X147473886Y-108239387D01*
X147473886Y-108239387D02*
X147473886Y-108001292D01*
X147473886Y-109525101D02*
X147473886Y-108953673D01*
X147473886Y-109239387D02*
X146473886Y-109239387D01*
X146473886Y-109239387D02*
X146616743Y-109144149D01*
X146616743Y-109144149D02*
X146711981Y-109048911D01*
X146711981Y-109048911D02*
X146759600Y-108953673D01*
X147473886Y-110001292D02*
X147473886Y-110191768D01*
X147473886Y-110191768D02*
X147426267Y-110287006D01*
X147426267Y-110287006D02*
X147378647Y-110334625D01*
X147378647Y-110334625D02*
X147235790Y-110429863D01*
X147235790Y-110429863D02*
X147045314Y-110477482D01*
X147045314Y-110477482D02*
X146664362Y-110477482D01*
X146664362Y-110477482D02*
X146569124Y-110429863D01*
X146569124Y-110429863D02*
X146521505Y-110382244D01*
X146521505Y-110382244D02*
X146473886Y-110287006D01*
X146473886Y-110287006D02*
X146473886Y-110096530D01*
X146473886Y-110096530D02*
X146521505Y-110001292D01*
X146521505Y-110001292D02*
X146569124Y-109953673D01*
X146569124Y-109953673D02*
X146664362Y-109906054D01*
X146664362Y-109906054D02*
X146902457Y-109906054D01*
X146902457Y-109906054D02*
X146997695Y-109953673D01*
X146997695Y-109953673D02*
X147045314Y-110001292D01*
X147045314Y-110001292D02*
X147092933Y-110096530D01*
X147092933Y-110096530D02*
X147092933Y-110287006D01*
X147092933Y-110287006D02*
X147045314Y-110382244D01*
X147045314Y-110382244D02*
X146997695Y-110429863D01*
X146997695Y-110429863D02*
X146902457Y-110477482D01*
X158643872Y-93552659D02*
X159120062Y-93552659D01*
X159120062Y-93552659D02*
X159120062Y-92552659D01*
X158310538Y-93028849D02*
X157977205Y-93028849D01*
X157834348Y-93552659D02*
X158310538Y-93552659D01*
X158310538Y-93552659D02*
X158310538Y-92552659D01*
X158310538Y-92552659D02*
X157834348Y-92552659D01*
X157405776Y-93552659D02*
X157405776Y-92552659D01*
X157405776Y-92552659D02*
X157167681Y-92552659D01*
X157167681Y-92552659D02*
X157024824Y-92600278D01*
X157024824Y-92600278D02*
X156929586Y-92695516D01*
X156929586Y-92695516D02*
X156881967Y-92790754D01*
X156881967Y-92790754D02*
X156834348Y-92981230D01*
X156834348Y-92981230D02*
X156834348Y-93124087D01*
X156834348Y-93124087D02*
X156881967Y-93314563D01*
X156881967Y-93314563D02*
X156929586Y-93409801D01*
X156929586Y-93409801D02*
X157024824Y-93505040D01*
X157024824Y-93505040D02*
X157167681Y-93552659D01*
X157167681Y-93552659D02*
X157405776Y-93552659D01*
X156453395Y-92647897D02*
X156405776Y-92600278D01*
X156405776Y-92600278D02*
X156310538Y-92552659D01*
X156310538Y-92552659D02*
X156072443Y-92552659D01*
X156072443Y-92552659D02*
X155977205Y-92600278D01*
X155977205Y-92600278D02*
X155929586Y-92647897D01*
X155929586Y-92647897D02*
X155881967Y-92743135D01*
X155881967Y-92743135D02*
X155881967Y-92838373D01*
X155881967Y-92838373D02*
X155929586Y-92981230D01*
X155929586Y-92981230D02*
X156501014Y-93552659D01*
X156501014Y-93552659D02*
X155881967Y-93552659D01*
X155262919Y-92552659D02*
X155167681Y-92552659D01*
X155167681Y-92552659D02*
X155072443Y-92600278D01*
X155072443Y-92600278D02*
X155024824Y-92647897D01*
X155024824Y-92647897D02*
X154977205Y-92743135D01*
X154977205Y-92743135D02*
X154929586Y-92933611D01*
X154929586Y-92933611D02*
X154929586Y-93171706D01*
X154929586Y-93171706D02*
X154977205Y-93362182D01*
X154977205Y-93362182D02*
X155024824Y-93457420D01*
X155024824Y-93457420D02*
X155072443Y-93505040D01*
X155072443Y-93505040D02*
X155167681Y-93552659D01*
X155167681Y-93552659D02*
X155262919Y-93552659D01*
X155262919Y-93552659D02*
X155358157Y-93505040D01*
X155358157Y-93505040D02*
X155405776Y-93457420D01*
X155405776Y-93457420D02*
X155453395Y-93362182D01*
X155453395Y-93362182D02*
X155501014Y-93171706D01*
X155501014Y-93171706D02*
X155501014Y-92933611D01*
X155501014Y-92933611D02*
X155453395Y-92743135D01*
X155453395Y-92743135D02*
X155405776Y-92647897D01*
X155405776Y-92647897D02*
X155358157Y-92600278D01*
X155358157Y-92600278D02*
X155262919Y-92552659D01*
X170099766Y-79253180D02*
X170147385Y-79300800D01*
X170147385Y-79300800D02*
X170290242Y-79348419D01*
X170290242Y-79348419D02*
X170385480Y-79348419D01*
X170385480Y-79348419D02*
X170528337Y-79300800D01*
X170528337Y-79300800D02*
X170623575Y-79205561D01*
X170623575Y-79205561D02*
X170671194Y-79110323D01*
X170671194Y-79110323D02*
X170718813Y-78919847D01*
X170718813Y-78919847D02*
X170718813Y-78776990D01*
X170718813Y-78776990D02*
X170671194Y-78586514D01*
X170671194Y-78586514D02*
X170623575Y-78491276D01*
X170623575Y-78491276D02*
X170528337Y-78396038D01*
X170528337Y-78396038D02*
X170385480Y-78348419D01*
X170385480Y-78348419D02*
X170290242Y-78348419D01*
X170290242Y-78348419D02*
X170147385Y-78396038D01*
X170147385Y-78396038D02*
X170099766Y-78443657D01*
X169766432Y-78348419D02*
X169147385Y-78348419D01*
X169147385Y-78348419D02*
X169480718Y-78729371D01*
X169480718Y-78729371D02*
X169337861Y-78729371D01*
X169337861Y-78729371D02*
X169242623Y-78776990D01*
X169242623Y-78776990D02*
X169195004Y-78824609D01*
X169195004Y-78824609D02*
X169147385Y-78919847D01*
X169147385Y-78919847D02*
X169147385Y-79157942D01*
X169147385Y-79157942D02*
X169195004Y-79253180D01*
X169195004Y-79253180D02*
X169242623Y-79300800D01*
X169242623Y-79300800D02*
X169337861Y-79348419D01*
X169337861Y-79348419D02*
X169623575Y-79348419D01*
X169623575Y-79348419D02*
X169718813Y-79300800D01*
X169718813Y-79300800D02*
X169766432Y-79253180D01*
X128473886Y-49977483D02*
X127473886Y-49977483D01*
X127473886Y-49977483D02*
X127473886Y-50215578D01*
X127473886Y-50215578D02*
X127521505Y-50358435D01*
X127521505Y-50358435D02*
X127616743Y-50453673D01*
X127616743Y-50453673D02*
X127711981Y-50501292D01*
X127711981Y-50501292D02*
X127902457Y-50548911D01*
X127902457Y-50548911D02*
X128045314Y-50548911D01*
X128045314Y-50548911D02*
X128235790Y-50501292D01*
X128235790Y-50501292D02*
X128331028Y-50453673D01*
X128331028Y-50453673D02*
X128426267Y-50358435D01*
X128426267Y-50358435D02*
X128473886Y-50215578D01*
X128473886Y-50215578D02*
X128473886Y-49977483D01*
X127473886Y-50882245D02*
X127473886Y-51501292D01*
X127473886Y-51501292D02*
X127854838Y-51167959D01*
X127854838Y-51167959D02*
X127854838Y-51310816D01*
X127854838Y-51310816D02*
X127902457Y-51406054D01*
X127902457Y-51406054D02*
X127950076Y-51453673D01*
X127950076Y-51453673D02*
X128045314Y-51501292D01*
X128045314Y-51501292D02*
X128283409Y-51501292D01*
X128283409Y-51501292D02*
X128378647Y-51453673D01*
X128378647Y-51453673D02*
X128426267Y-51406054D01*
X128426267Y-51406054D02*
X128473886Y-51310816D01*
X128473886Y-51310816D02*
X128473886Y-51025102D01*
X128473886Y-51025102D02*
X128426267Y-50929864D01*
X128426267Y-50929864D02*
X128378647Y-50882245D01*
X97437936Y-70117784D02*
X97912314Y-70076282D01*
X97912314Y-70076282D02*
X97825158Y-69080087D01*
X97060217Y-69625020D02*
X96728153Y-69654072D01*
X96631492Y-70188339D02*
X97105870Y-70146836D01*
X97105870Y-70146836D02*
X97018715Y-69150642D01*
X97018715Y-69150642D02*
X96544336Y-69192144D01*
X96204551Y-70225692D02*
X96117396Y-69229497D01*
X96117396Y-69229497D02*
X95880206Y-69250248D01*
X95880206Y-69250248D02*
X95742043Y-69310137D01*
X95742043Y-69310137D02*
X95655468Y-69413313D01*
X95655468Y-69413313D02*
X95616331Y-69512339D01*
X95616331Y-69512339D02*
X95585494Y-69706241D01*
X95585494Y-69706241D02*
X95597945Y-69848554D01*
X95597945Y-69848554D02*
X95661984Y-70034155D01*
X95661984Y-70034155D02*
X95717722Y-70124881D01*
X95717722Y-70124881D02*
X95820898Y-70211456D01*
X95820898Y-70211456D02*
X95967362Y-70246443D01*
X95967362Y-70246443D02*
X96204551Y-70225692D01*
X94694260Y-69354005D02*
X94884012Y-69337404D01*
X94884012Y-69337404D02*
X94983038Y-69376541D01*
X94983038Y-69376541D02*
X95034626Y-69419829D01*
X95034626Y-69419829D02*
X95141952Y-69553842D01*
X95141952Y-69553842D02*
X95205991Y-69739443D01*
X95205991Y-69739443D02*
X95239193Y-70118946D01*
X95239193Y-70118946D02*
X95200056Y-70217972D01*
X95200056Y-70217972D02*
X95156769Y-70269560D01*
X95156769Y-70269560D02*
X95066043Y-70325298D01*
X95066043Y-70325298D02*
X94876292Y-70341899D01*
X94876292Y-70341899D02*
X94777266Y-70302762D01*
X94777266Y-70302762D02*
X94725678Y-70259474D01*
X94725678Y-70259474D02*
X94669939Y-70168749D01*
X94669939Y-70168749D02*
X94649188Y-69931560D01*
X94649188Y-69931560D02*
X94688325Y-69832534D01*
X94688325Y-69832534D02*
X94731613Y-69780946D01*
X94731613Y-69780946D02*
X94822338Y-69725207D01*
X94822338Y-69725207D02*
X95012090Y-69708606D01*
X95012090Y-69708606D02*
X95111116Y-69747743D01*
X95111116Y-69747743D02*
X95162704Y-69791031D01*
X95162704Y-69791031D02*
X95218442Y-69881756D01*
X94177942Y-41085508D02*
X93511275Y-41085508D01*
X93177942Y-41085508D02*
X93225561Y-41037889D01*
X93225561Y-41037889D02*
X93273180Y-41085508D01*
X93273180Y-41085508D02*
X93225561Y-41133127D01*
X93225561Y-41133127D02*
X93177942Y-41085508D01*
X93177942Y-41085508D02*
X93273180Y-41085508D01*
X93511275Y-41561698D02*
X94177942Y-41561698D01*
X93606513Y-41561698D02*
X93558894Y-41609317D01*
X93558894Y-41609317D02*
X93511275Y-41704555D01*
X93511275Y-41704555D02*
X93511275Y-41847412D01*
X93511275Y-41847412D02*
X93558894Y-41942650D01*
X93558894Y-41942650D02*
X93654132Y-41990269D01*
X93654132Y-41990269D02*
X94177942Y-41990269D01*
X94177942Y-42895031D02*
X93177942Y-42895031D01*
X94130323Y-42895031D02*
X94177942Y-42799793D01*
X94177942Y-42799793D02*
X94177942Y-42609317D01*
X94177942Y-42609317D02*
X94130323Y-42514079D01*
X94130323Y-42514079D02*
X94082703Y-42466460D01*
X94082703Y-42466460D02*
X93987465Y-42418841D01*
X93987465Y-42418841D02*
X93701751Y-42418841D01*
X93701751Y-42418841D02*
X93606513Y-42466460D01*
X93606513Y-42466460D02*
X93558894Y-42514079D01*
X93558894Y-42514079D02*
X93511275Y-42609317D01*
X93511275Y-42609317D02*
X93511275Y-42799793D01*
X93511275Y-42799793D02*
X93558894Y-42895031D01*
X94177942Y-43847412D02*
X94177942Y-43371222D01*
X94177942Y-43371222D02*
X93177942Y-43371222D01*
X93654132Y-44180746D02*
X93654132Y-44514079D01*
X94177942Y-44656936D02*
X94177942Y-44180746D01*
X94177942Y-44180746D02*
X93177942Y-44180746D01*
X93177942Y-44180746D02*
X93177942Y-44656936D01*
X94177942Y-45085508D02*
X93177942Y-45085508D01*
X93177942Y-45085508D02*
X93177942Y-45323603D01*
X93177942Y-45323603D02*
X93225561Y-45466460D01*
X93225561Y-45466460D02*
X93320799Y-45561698D01*
X93320799Y-45561698D02*
X93416037Y-45609317D01*
X93416037Y-45609317D02*
X93606513Y-45656936D01*
X93606513Y-45656936D02*
X93749370Y-45656936D01*
X93749370Y-45656936D02*
X93939846Y-45609317D01*
X93939846Y-45609317D02*
X94035084Y-45561698D01*
X94035084Y-45561698D02*
X94130323Y-45466460D01*
X94130323Y-45466460D02*
X94177942Y-45323603D01*
X94177942Y-45323603D02*
X94177942Y-45085508D01*
X93177942Y-45990270D02*
X93177942Y-46609317D01*
X93177942Y-46609317D02*
X93558894Y-46275984D01*
X93558894Y-46275984D02*
X93558894Y-46418841D01*
X93558894Y-46418841D02*
X93606513Y-46514079D01*
X93606513Y-46514079D02*
X93654132Y-46561698D01*
X93654132Y-46561698D02*
X93749370Y-46609317D01*
X93749370Y-46609317D02*
X93987465Y-46609317D01*
X93987465Y-46609317D02*
X94082703Y-46561698D01*
X94082703Y-46561698D02*
X94130323Y-46514079D01*
X94130323Y-46514079D02*
X94177942Y-46418841D01*
X94177942Y-46418841D02*
X94177942Y-46133127D01*
X94177942Y-46133127D02*
X94130323Y-46037889D01*
X94130323Y-46037889D02*
X94082703Y-45990270D01*
X144857621Y-123633319D02*
X143857621Y-123633319D01*
X143857621Y-123633319D02*
X143857621Y-123871414D01*
X143857621Y-123871414D02*
X143905240Y-124014271D01*
X143905240Y-124014271D02*
X144000478Y-124109509D01*
X144000478Y-124109509D02*
X144095716Y-124157128D01*
X144095716Y-124157128D02*
X144286192Y-124204747D01*
X144286192Y-124204747D02*
X144429049Y-124204747D01*
X144429049Y-124204747D02*
X144619525Y-124157128D01*
X144619525Y-124157128D02*
X144714763Y-124109509D01*
X144714763Y-124109509D02*
X144810002Y-124014271D01*
X144810002Y-124014271D02*
X144857621Y-123871414D01*
X144857621Y-123871414D02*
X144857621Y-123633319D01*
X143952859Y-124585700D02*
X143905240Y-124633319D01*
X143905240Y-124633319D02*
X143857621Y-124728557D01*
X143857621Y-124728557D02*
X143857621Y-124966652D01*
X143857621Y-124966652D02*
X143905240Y-125061890D01*
X143905240Y-125061890D02*
X143952859Y-125109509D01*
X143952859Y-125109509D02*
X144048097Y-125157128D01*
X144048097Y-125157128D02*
X144143335Y-125157128D01*
X144143335Y-125157128D02*
X144286192Y-125109509D01*
X144286192Y-125109509D02*
X144857621Y-124538081D01*
X144857621Y-124538081D02*
X144857621Y-125157128D01*
X143952859Y-125538081D02*
X143905240Y-125585700D01*
X143905240Y-125585700D02*
X143857621Y-125680938D01*
X143857621Y-125680938D02*
X143857621Y-125919033D01*
X143857621Y-125919033D02*
X143905240Y-126014271D01*
X143905240Y-126014271D02*
X143952859Y-126061890D01*
X143952859Y-126061890D02*
X144048097Y-126109509D01*
X144048097Y-126109509D02*
X144143335Y-126109509D01*
X144143335Y-126109509D02*
X144286192Y-126061890D01*
X144286192Y-126061890D02*
X144857621Y-125490462D01*
X144857621Y-125490462D02*
X144857621Y-126109509D01*
X120643872Y-94052659D02*
X121120062Y-94052659D01*
X121120062Y-94052659D02*
X121120062Y-93052659D01*
X120310538Y-93528849D02*
X119977205Y-93528849D01*
X119834348Y-94052659D02*
X120310538Y-94052659D01*
X120310538Y-94052659D02*
X120310538Y-93052659D01*
X120310538Y-93052659D02*
X119834348Y-93052659D01*
X119405776Y-94052659D02*
X119405776Y-93052659D01*
X119405776Y-93052659D02*
X119167681Y-93052659D01*
X119167681Y-93052659D02*
X119024824Y-93100278D01*
X119024824Y-93100278D02*
X118929586Y-93195516D01*
X118929586Y-93195516D02*
X118881967Y-93290754D01*
X118881967Y-93290754D02*
X118834348Y-93481230D01*
X118834348Y-93481230D02*
X118834348Y-93624087D01*
X118834348Y-93624087D02*
X118881967Y-93814563D01*
X118881967Y-93814563D02*
X118929586Y-93909801D01*
X118929586Y-93909801D02*
X119024824Y-94005040D01*
X119024824Y-94005040D02*
X119167681Y-94052659D01*
X119167681Y-94052659D02*
X119405776Y-94052659D01*
X117881967Y-94052659D02*
X118453395Y-94052659D01*
X118167681Y-94052659D02*
X118167681Y-93052659D01*
X118167681Y-93052659D02*
X118262919Y-93195516D01*
X118262919Y-93195516D02*
X118358157Y-93290754D01*
X118358157Y-93290754D02*
X118453395Y-93338373D01*
X117310538Y-93481230D02*
X117405776Y-93433611D01*
X117405776Y-93433611D02*
X117453395Y-93385992D01*
X117453395Y-93385992D02*
X117501014Y-93290754D01*
X117501014Y-93290754D02*
X117501014Y-93243135D01*
X117501014Y-93243135D02*
X117453395Y-93147897D01*
X117453395Y-93147897D02*
X117405776Y-93100278D01*
X117405776Y-93100278D02*
X117310538Y-93052659D01*
X117310538Y-93052659D02*
X117120062Y-93052659D01*
X117120062Y-93052659D02*
X117024824Y-93100278D01*
X117024824Y-93100278D02*
X116977205Y-93147897D01*
X116977205Y-93147897D02*
X116929586Y-93243135D01*
X116929586Y-93243135D02*
X116929586Y-93290754D01*
X116929586Y-93290754D02*
X116977205Y-93385992D01*
X116977205Y-93385992D02*
X117024824Y-93433611D01*
X117024824Y-93433611D02*
X117120062Y-93481230D01*
X117120062Y-93481230D02*
X117310538Y-93481230D01*
X117310538Y-93481230D02*
X117405776Y-93528849D01*
X117405776Y-93528849D02*
X117453395Y-93576468D01*
X117453395Y-93576468D02*
X117501014Y-93671706D01*
X117501014Y-93671706D02*
X117501014Y-93862182D01*
X117501014Y-93862182D02*
X117453395Y-93957420D01*
X117453395Y-93957420D02*
X117405776Y-94005040D01*
X117405776Y-94005040D02*
X117310538Y-94052659D01*
X117310538Y-94052659D02*
X117120062Y-94052659D01*
X117120062Y-94052659D02*
X117024824Y-94005040D01*
X117024824Y-94005040D02*
X116977205Y-93957420D01*
X116977205Y-93957420D02*
X116929586Y-93862182D01*
X116929586Y-93862182D02*
X116929586Y-93671706D01*
X116929586Y-93671706D02*
X116977205Y-93576468D01*
X116977205Y-93576468D02*
X117024824Y-93528849D01*
X117024824Y-93528849D02*
X117120062Y-93481230D01*
X89612918Y-103374966D02*
X88616723Y-103462122D01*
X88616723Y-103462122D02*
X88637475Y-103699311D01*
X88637475Y-103699311D02*
X88697363Y-103837475D01*
X88697363Y-103837475D02*
X88800539Y-103924050D01*
X88800539Y-103924050D02*
X88899565Y-103963187D01*
X88899565Y-103963187D02*
X89093467Y-103994024D01*
X89093467Y-103994024D02*
X89235781Y-103981573D01*
X89235781Y-103981573D02*
X89421382Y-103917534D01*
X89421382Y-103917534D02*
X89512107Y-103861796D01*
X89512107Y-103861796D02*
X89598682Y-103758619D01*
X89598682Y-103758619D02*
X89633669Y-103612156D01*
X89633669Y-103612156D02*
X89612918Y-103374966D01*
X89745727Y-104892977D02*
X89695923Y-104323723D01*
X89720825Y-104608350D02*
X88724630Y-104695506D01*
X88724630Y-104695506D02*
X88858643Y-104588180D01*
X88858643Y-104588180D02*
X88945218Y-104485003D01*
X88945218Y-104485003D02*
X88984356Y-104385977D01*
X89828732Y-105841734D02*
X89778929Y-105272480D01*
X89803830Y-105557107D02*
X88807636Y-105644263D01*
X88807636Y-105644263D02*
X88941649Y-105536936D01*
X88941649Y-105536936D02*
X89028224Y-105433760D01*
X89028224Y-105433760D02*
X89067361Y-105334734D01*
X109473886Y-54977483D02*
X108473886Y-54977483D01*
X108473886Y-54977483D02*
X108473886Y-55215578D01*
X108473886Y-55215578D02*
X108521505Y-55358435D01*
X108521505Y-55358435D02*
X108616743Y-55453673D01*
X108616743Y-55453673D02*
X108711981Y-55501292D01*
X108711981Y-55501292D02*
X108902457Y-55548911D01*
X108902457Y-55548911D02*
X109045314Y-55548911D01*
X109045314Y-55548911D02*
X109235790Y-55501292D01*
X109235790Y-55501292D02*
X109331028Y-55453673D01*
X109331028Y-55453673D02*
X109426267Y-55358435D01*
X109426267Y-55358435D02*
X109473886Y-55215578D01*
X109473886Y-55215578D02*
X109473886Y-54977483D01*
X108569124Y-55929864D02*
X108521505Y-55977483D01*
X108521505Y-55977483D02*
X108473886Y-56072721D01*
X108473886Y-56072721D02*
X108473886Y-56310816D01*
X108473886Y-56310816D02*
X108521505Y-56406054D01*
X108521505Y-56406054D02*
X108569124Y-56453673D01*
X108569124Y-56453673D02*
X108664362Y-56501292D01*
X108664362Y-56501292D02*
X108759600Y-56501292D01*
X108759600Y-56501292D02*
X108902457Y-56453673D01*
X108902457Y-56453673D02*
X109473886Y-55882245D01*
X109473886Y-55882245D02*
X109473886Y-56501292D01*
X95869133Y-52186279D02*
X96343511Y-52144777D01*
X96343511Y-52144777D02*
X96256355Y-51148582D01*
X95491414Y-51693515D02*
X95159350Y-51722567D01*
X95062689Y-52256834D02*
X95537067Y-52215331D01*
X95537067Y-52215331D02*
X95449912Y-51219137D01*
X95449912Y-51219137D02*
X94975533Y-51260639D01*
X94635748Y-52294187D02*
X94548593Y-51297992D01*
X94548593Y-51297992D02*
X94311403Y-51318743D01*
X94311403Y-51318743D02*
X94173240Y-51378632D01*
X94173240Y-51378632D02*
X94086665Y-51481808D01*
X94086665Y-51481808D02*
X94047528Y-51580834D01*
X94047528Y-51580834D02*
X94016691Y-51774736D01*
X94016691Y-51774736D02*
X94029142Y-51917049D01*
X94029142Y-51917049D02*
X94093181Y-52102650D01*
X94093181Y-52102650D02*
X94148919Y-52193376D01*
X94148919Y-52193376D02*
X94252095Y-52279951D01*
X94252095Y-52279951D02*
X94398559Y-52314938D01*
X94398559Y-52314938D02*
X94635748Y-52294187D01*
X93078019Y-51426650D02*
X93552398Y-51385148D01*
X93552398Y-51385148D02*
X93641339Y-51855376D01*
X93641339Y-51855376D02*
X93589750Y-51812088D01*
X93589750Y-51812088D02*
X93490724Y-51772951D01*
X93490724Y-51772951D02*
X93253535Y-51793702D01*
X93253535Y-51793702D02*
X93162810Y-51849441D01*
X93162810Y-51849441D02*
X93119522Y-51901029D01*
X93119522Y-51901029D02*
X93080385Y-52000055D01*
X93080385Y-52000055D02*
X93101136Y-52237244D01*
X93101136Y-52237244D02*
X93156875Y-52327969D01*
X93156875Y-52327969D02*
X93208463Y-52371257D01*
X93208463Y-52371257D02*
X93307489Y-52410394D01*
X93307489Y-52410394D02*
X93544678Y-52389643D01*
X93544678Y-52389643D02*
X93635403Y-52333904D01*
X93635403Y-52333904D02*
X93678691Y-52282316D01*
X139643872Y-89052659D02*
X140120062Y-89052659D01*
X140120062Y-89052659D02*
X140120062Y-88052659D01*
X139310538Y-88528849D02*
X138977205Y-88528849D01*
X138834348Y-89052659D02*
X139310538Y-89052659D01*
X139310538Y-89052659D02*
X139310538Y-88052659D01*
X139310538Y-88052659D02*
X138834348Y-88052659D01*
X138405776Y-89052659D02*
X138405776Y-88052659D01*
X138405776Y-88052659D02*
X138167681Y-88052659D01*
X138167681Y-88052659D02*
X138024824Y-88100278D01*
X138024824Y-88100278D02*
X137929586Y-88195516D01*
X137929586Y-88195516D02*
X137881967Y-88290754D01*
X137881967Y-88290754D02*
X137834348Y-88481230D01*
X137834348Y-88481230D02*
X137834348Y-88624087D01*
X137834348Y-88624087D02*
X137881967Y-88814563D01*
X137881967Y-88814563D02*
X137929586Y-88909801D01*
X137929586Y-88909801D02*
X138024824Y-89005040D01*
X138024824Y-89005040D02*
X138167681Y-89052659D01*
X138167681Y-89052659D02*
X138405776Y-89052659D01*
X136881967Y-89052659D02*
X137453395Y-89052659D01*
X137167681Y-89052659D02*
X137167681Y-88052659D01*
X137167681Y-88052659D02*
X137262919Y-88195516D01*
X137262919Y-88195516D02*
X137358157Y-88290754D01*
X137358157Y-88290754D02*
X137453395Y-88338373D01*
X136405776Y-89052659D02*
X136215300Y-89052659D01*
X136215300Y-89052659D02*
X136120062Y-89005040D01*
X136120062Y-89005040D02*
X136072443Y-88957420D01*
X136072443Y-88957420D02*
X135977205Y-88814563D01*
X135977205Y-88814563D02*
X135929586Y-88624087D01*
X135929586Y-88624087D02*
X135929586Y-88243135D01*
X135929586Y-88243135D02*
X135977205Y-88147897D01*
X135977205Y-88147897D02*
X136024824Y-88100278D01*
X136024824Y-88100278D02*
X136120062Y-88052659D01*
X136120062Y-88052659D02*
X136310538Y-88052659D01*
X136310538Y-88052659D02*
X136405776Y-88100278D01*
X136405776Y-88100278D02*
X136453395Y-88147897D01*
X136453395Y-88147897D02*
X136501014Y-88243135D01*
X136501014Y-88243135D02*
X136501014Y-88481230D01*
X136501014Y-88481230D02*
X136453395Y-88576468D01*
X136453395Y-88576468D02*
X136405776Y-88624087D01*
X136405776Y-88624087D02*
X136310538Y-88671706D01*
X136310538Y-88671706D02*
X136120062Y-88671706D01*
X136120062Y-88671706D02*
X136024824Y-88624087D01*
X136024824Y-88624087D02*
X135977205Y-88576468D01*
X135977205Y-88576468D02*
X135929586Y-88481230D01*
X91181721Y-121306471D02*
X90185526Y-121393627D01*
X90185526Y-121393627D02*
X90206278Y-121630816D01*
X90206278Y-121630816D02*
X90266166Y-121768980D01*
X90266166Y-121768980D02*
X90369342Y-121855555D01*
X90369342Y-121855555D02*
X90468368Y-121894692D01*
X90468368Y-121894692D02*
X90662270Y-121925529D01*
X90662270Y-121925529D02*
X90804584Y-121913078D01*
X90804584Y-121913078D02*
X90990185Y-121849039D01*
X90990185Y-121849039D02*
X91080910Y-121793301D01*
X91080910Y-121793301D02*
X91167485Y-121690124D01*
X91167485Y-121690124D02*
X91202472Y-121543661D01*
X91202472Y-121543661D02*
X91181721Y-121306471D01*
X91314530Y-122824482D02*
X91264726Y-122255228D01*
X91289628Y-122539855D02*
X90293433Y-122627011D01*
X90293433Y-122627011D02*
X90427446Y-122519685D01*
X90427446Y-122519685D02*
X90514021Y-122416508D01*
X90514021Y-122416508D02*
X90553159Y-122317482D01*
X90393040Y-123765519D02*
X90376439Y-123575768D01*
X90376439Y-123575768D02*
X90415576Y-123476742D01*
X90415576Y-123476742D02*
X90458864Y-123425154D01*
X90458864Y-123425154D02*
X90592877Y-123317827D01*
X90592877Y-123317827D02*
X90778478Y-123253788D01*
X90778478Y-123253788D02*
X91157980Y-123220586D01*
X91157980Y-123220586D02*
X91257006Y-123259724D01*
X91257006Y-123259724D02*
X91308594Y-123303011D01*
X91308594Y-123303011D02*
X91364333Y-123393736D01*
X91364333Y-123393736D02*
X91380934Y-123583488D01*
X91380934Y-123583488D02*
X91341797Y-123682514D01*
X91341797Y-123682514D02*
X91298509Y-123734102D01*
X91298509Y-123734102D02*
X91207784Y-123789840D01*
X91207784Y-123789840D02*
X90970594Y-123810592D01*
X90970594Y-123810592D02*
X90871569Y-123771454D01*
X90871569Y-123771454D02*
X90819980Y-123728167D01*
X90819980Y-123728167D02*
X90764242Y-123637441D01*
X90764242Y-123637441D02*
X90747641Y-123447690D01*
X90747641Y-123447690D02*
X90786778Y-123348664D01*
X90786778Y-123348664D02*
X90830066Y-123297076D01*
X90830066Y-123297076D02*
X90920791Y-123241338D01*
X109473886Y-90501292D02*
X108473886Y-90501292D01*
X108473886Y-90501292D02*
X108473886Y-90739387D01*
X108473886Y-90739387D02*
X108521505Y-90882244D01*
X108521505Y-90882244D02*
X108616743Y-90977482D01*
X108616743Y-90977482D02*
X108711981Y-91025101D01*
X108711981Y-91025101D02*
X108902457Y-91072720D01*
X108902457Y-91072720D02*
X109045314Y-91072720D01*
X109045314Y-91072720D02*
X109235790Y-91025101D01*
X109235790Y-91025101D02*
X109331028Y-90977482D01*
X109331028Y-90977482D02*
X109426267Y-90882244D01*
X109426267Y-90882244D02*
X109473886Y-90739387D01*
X109473886Y-90739387D02*
X109473886Y-90501292D01*
X109473886Y-92025101D02*
X109473886Y-91453673D01*
X109473886Y-91739387D02*
X108473886Y-91739387D01*
X108473886Y-91739387D02*
X108616743Y-91644149D01*
X108616743Y-91644149D02*
X108711981Y-91548911D01*
X108711981Y-91548911D02*
X108759600Y-91453673D01*
X108569124Y-92406054D02*
X108521505Y-92453673D01*
X108521505Y-92453673D02*
X108473886Y-92548911D01*
X108473886Y-92548911D02*
X108473886Y-92787006D01*
X108473886Y-92787006D02*
X108521505Y-92882244D01*
X108521505Y-92882244D02*
X108569124Y-92929863D01*
X108569124Y-92929863D02*
X108664362Y-92977482D01*
X108664362Y-92977482D02*
X108759600Y-92977482D01*
X108759600Y-92977482D02*
X108902457Y-92929863D01*
X108902457Y-92929863D02*
X109473886Y-92358435D01*
X109473886Y-92358435D02*
X109473886Y-92977482D01*
X177643872Y-57552659D02*
X178120062Y-57552659D01*
X178120062Y-57552659D02*
X178120062Y-56552659D01*
X177310538Y-57028849D02*
X176977205Y-57028849D01*
X176834348Y-57552659D02*
X177310538Y-57552659D01*
X177310538Y-57552659D02*
X177310538Y-56552659D01*
X177310538Y-56552659D02*
X176834348Y-56552659D01*
X176405776Y-57552659D02*
X176405776Y-56552659D01*
X176405776Y-56552659D02*
X176167681Y-56552659D01*
X176167681Y-56552659D02*
X176024824Y-56600278D01*
X176024824Y-56600278D02*
X175929586Y-56695516D01*
X175929586Y-56695516D02*
X175881967Y-56790754D01*
X175881967Y-56790754D02*
X175834348Y-56981230D01*
X175834348Y-56981230D02*
X175834348Y-57124087D01*
X175834348Y-57124087D02*
X175881967Y-57314563D01*
X175881967Y-57314563D02*
X175929586Y-57409801D01*
X175929586Y-57409801D02*
X176024824Y-57505040D01*
X176024824Y-57505040D02*
X176167681Y-57552659D01*
X176167681Y-57552659D02*
X176405776Y-57552659D01*
X174881967Y-57552659D02*
X175453395Y-57552659D01*
X175167681Y-57552659D02*
X175167681Y-56552659D01*
X175167681Y-56552659D02*
X175262919Y-56695516D01*
X175262919Y-56695516D02*
X175358157Y-56790754D01*
X175358157Y-56790754D02*
X175453395Y-56838373D01*
X174262919Y-56552659D02*
X174167681Y-56552659D01*
X174167681Y-56552659D02*
X174072443Y-56600278D01*
X174072443Y-56600278D02*
X174024824Y-56647897D01*
X174024824Y-56647897D02*
X173977205Y-56743135D01*
X173977205Y-56743135D02*
X173929586Y-56933611D01*
X173929586Y-56933611D02*
X173929586Y-57171706D01*
X173929586Y-57171706D02*
X173977205Y-57362182D01*
X173977205Y-57362182D02*
X174024824Y-57457420D01*
X174024824Y-57457420D02*
X174072443Y-57505040D01*
X174072443Y-57505040D02*
X174167681Y-57552659D01*
X174167681Y-57552659D02*
X174262919Y-57552659D01*
X174262919Y-57552659D02*
X174358157Y-57505040D01*
X174358157Y-57505040D02*
X174405776Y-57457420D01*
X174405776Y-57457420D02*
X174453395Y-57362182D01*
X174453395Y-57362182D02*
X174501014Y-57171706D01*
X174501014Y-57171706D02*
X174501014Y-56933611D01*
X174501014Y-56933611D02*
X174453395Y-56743135D01*
X174453395Y-56743135D02*
X174405776Y-56647897D01*
X174405776Y-56647897D02*
X174358157Y-56600278D01*
X174358157Y-56600278D02*
X174262919Y-56552659D01*
X199224983Y-123773211D02*
X199672456Y-123936078D01*
X199672456Y-123936078D02*
X200014476Y-122996385D01*
X199090905Y-123166985D02*
X198777674Y-123052978D01*
X198464279Y-123496338D02*
X198911752Y-123659204D01*
X198911752Y-123659204D02*
X199253772Y-122719512D01*
X199253772Y-122719512D02*
X198806299Y-122556645D01*
X198061554Y-123349758D02*
X198403574Y-122410065D01*
X198403574Y-122410065D02*
X198179837Y-122328632D01*
X198179837Y-122328632D02*
X198029309Y-122324519D01*
X198029309Y-122324519D02*
X197907241Y-122381440D01*
X197907241Y-122381440D02*
X197829920Y-122454648D01*
X197829920Y-122454648D02*
X197720027Y-122617350D01*
X197720027Y-122617350D02*
X197671166Y-122751592D01*
X197671166Y-122751592D02*
X197650767Y-122946868D01*
X197650767Y-122946868D02*
X197662941Y-123052649D01*
X197662941Y-123052649D02*
X197719862Y-123174717D01*
X197719862Y-123174717D02*
X197837817Y-123268324D01*
X197837817Y-123268324D02*
X198061554Y-123349758D01*
X197476055Y-122173826D02*
X197447594Y-122112792D01*
X197447594Y-122112792D02*
X197374387Y-122035472D01*
X197374387Y-122035472D02*
X197150650Y-121954038D01*
X197150650Y-121954038D02*
X197044869Y-121966212D01*
X197044869Y-121966212D02*
X196983835Y-121994673D01*
X196983835Y-121994673D02*
X196906515Y-122067881D01*
X196906515Y-122067881D02*
X196873941Y-122157375D01*
X196873941Y-122157375D02*
X196869828Y-122307904D01*
X196869828Y-122307904D02*
X197211356Y-123040311D01*
X197211356Y-123040311D02*
X196629641Y-122828584D01*
X196052204Y-121908962D02*
X195824190Y-122535424D01*
X196406233Y-121632417D02*
X196385670Y-122385060D01*
X196385670Y-122385060D02*
X195803955Y-122173333D01*
X120167681Y-40052659D02*
X120643871Y-40052659D01*
X120643871Y-40052659D02*
X120643871Y-39052659D01*
X119834347Y-39528849D02*
X119501014Y-39528849D01*
X119358157Y-40052659D02*
X119834347Y-40052659D01*
X119834347Y-40052659D02*
X119834347Y-39052659D01*
X119834347Y-39052659D02*
X119358157Y-39052659D01*
X118929585Y-40052659D02*
X118929585Y-39052659D01*
X118929585Y-39052659D02*
X118691490Y-39052659D01*
X118691490Y-39052659D02*
X118548633Y-39100278D01*
X118548633Y-39100278D02*
X118453395Y-39195516D01*
X118453395Y-39195516D02*
X118405776Y-39290754D01*
X118405776Y-39290754D02*
X118358157Y-39481230D01*
X118358157Y-39481230D02*
X118358157Y-39624087D01*
X118358157Y-39624087D02*
X118405776Y-39814563D01*
X118405776Y-39814563D02*
X118453395Y-39909801D01*
X118453395Y-39909801D02*
X118548633Y-40005040D01*
X118548633Y-40005040D02*
X118691490Y-40052659D01*
X118691490Y-40052659D02*
X118929585Y-40052659D01*
X117501014Y-39385992D02*
X117501014Y-40052659D01*
X117739109Y-39005040D02*
X117977204Y-39719325D01*
X117977204Y-39719325D02*
X117358157Y-39719325D01*
X177643872Y-75552659D02*
X178120062Y-75552659D01*
X178120062Y-75552659D02*
X178120062Y-74552659D01*
X177310538Y-75028849D02*
X176977205Y-75028849D01*
X176834348Y-75552659D02*
X177310538Y-75552659D01*
X177310538Y-75552659D02*
X177310538Y-74552659D01*
X177310538Y-74552659D02*
X176834348Y-74552659D01*
X176405776Y-75552659D02*
X176405776Y-74552659D01*
X176405776Y-74552659D02*
X176167681Y-74552659D01*
X176167681Y-74552659D02*
X176024824Y-74600278D01*
X176024824Y-74600278D02*
X175929586Y-74695516D01*
X175929586Y-74695516D02*
X175881967Y-74790754D01*
X175881967Y-74790754D02*
X175834348Y-74981230D01*
X175834348Y-74981230D02*
X175834348Y-75124087D01*
X175834348Y-75124087D02*
X175881967Y-75314563D01*
X175881967Y-75314563D02*
X175929586Y-75409801D01*
X175929586Y-75409801D02*
X176024824Y-75505040D01*
X176024824Y-75505040D02*
X176167681Y-75552659D01*
X176167681Y-75552659D02*
X176405776Y-75552659D01*
X174881967Y-75552659D02*
X175453395Y-75552659D01*
X175167681Y-75552659D02*
X175167681Y-74552659D01*
X175167681Y-74552659D02*
X175262919Y-74695516D01*
X175262919Y-74695516D02*
X175358157Y-74790754D01*
X175358157Y-74790754D02*
X175453395Y-74838373D01*
X173929586Y-75552659D02*
X174501014Y-75552659D01*
X174215300Y-75552659D02*
X174215300Y-74552659D01*
X174215300Y-74552659D02*
X174310538Y-74695516D01*
X174310538Y-74695516D02*
X174405776Y-74790754D01*
X174405776Y-74790754D02*
X174501014Y-74838373D01*
X102197621Y-126344271D02*
X102911906Y-126344271D01*
X102911906Y-126344271D02*
X103054763Y-126296652D01*
X103054763Y-126296652D02*
X103150002Y-126201414D01*
X103150002Y-126201414D02*
X103197621Y-126058557D01*
X103197621Y-126058557D02*
X103197621Y-125963319D01*
X102292859Y-126772843D02*
X102245240Y-126820462D01*
X102245240Y-126820462D02*
X102197621Y-126915700D01*
X102197621Y-126915700D02*
X102197621Y-127153795D01*
X102197621Y-127153795D02*
X102245240Y-127249033D01*
X102245240Y-127249033D02*
X102292859Y-127296652D01*
X102292859Y-127296652D02*
X102388097Y-127344271D01*
X102388097Y-127344271D02*
X102483335Y-127344271D01*
X102483335Y-127344271D02*
X102626192Y-127296652D01*
X102626192Y-127296652D02*
X103197621Y-126725224D01*
X103197621Y-126725224D02*
X103197621Y-127344271D01*
X166473886Y-90001292D02*
X165473886Y-90001292D01*
X165473886Y-90001292D02*
X165473886Y-90239387D01*
X165473886Y-90239387D02*
X165521505Y-90382244D01*
X165521505Y-90382244D02*
X165616743Y-90477482D01*
X165616743Y-90477482D02*
X165711981Y-90525101D01*
X165711981Y-90525101D02*
X165902457Y-90572720D01*
X165902457Y-90572720D02*
X166045314Y-90572720D01*
X166045314Y-90572720D02*
X166235790Y-90525101D01*
X166235790Y-90525101D02*
X166331028Y-90477482D01*
X166331028Y-90477482D02*
X166426267Y-90382244D01*
X166426267Y-90382244D02*
X166473886Y-90239387D01*
X166473886Y-90239387D02*
X166473886Y-90001292D01*
X166473886Y-91525101D02*
X166473886Y-90953673D01*
X166473886Y-91239387D02*
X165473886Y-91239387D01*
X165473886Y-91239387D02*
X165616743Y-91144149D01*
X165616743Y-91144149D02*
X165711981Y-91048911D01*
X165711981Y-91048911D02*
X165759600Y-90953673D01*
X165473886Y-92429863D02*
X165473886Y-91953673D01*
X165473886Y-91953673D02*
X165950076Y-91906054D01*
X165950076Y-91906054D02*
X165902457Y-91953673D01*
X165902457Y-91953673D02*
X165854838Y-92048911D01*
X165854838Y-92048911D02*
X165854838Y-92287006D01*
X165854838Y-92287006D02*
X165902457Y-92382244D01*
X165902457Y-92382244D02*
X165950076Y-92429863D01*
X165950076Y-92429863D02*
X166045314Y-92477482D01*
X166045314Y-92477482D02*
X166283409Y-92477482D01*
X166283409Y-92477482D02*
X166378647Y-92429863D01*
X166378647Y-92429863D02*
X166426267Y-92382244D01*
X166426267Y-92382244D02*
X166473886Y-92287006D01*
X166473886Y-92287006D02*
X166473886Y-92048911D01*
X166473886Y-92048911D02*
X166426267Y-91953673D01*
X166426267Y-91953673D02*
X166378647Y-91906054D01*
X88085618Y-85917840D02*
X87089423Y-86004996D01*
X87089423Y-86004996D02*
X87110174Y-86242185D01*
X87110174Y-86242185D02*
X87170063Y-86380349D01*
X87170063Y-86380349D02*
X87273239Y-86466924D01*
X87273239Y-86466924D02*
X87372265Y-86506061D01*
X87372265Y-86506061D02*
X87566167Y-86536898D01*
X87566167Y-86536898D02*
X87708480Y-86524447D01*
X87708480Y-86524447D02*
X87894081Y-86460408D01*
X87894081Y-86460408D02*
X87984807Y-86404670D01*
X87984807Y-86404670D02*
X88071382Y-86301493D01*
X88071382Y-86301493D02*
X88106369Y-86155030D01*
X88106369Y-86155030D02*
X88085618Y-85917840D01*
X87213931Y-87428131D02*
X87197330Y-87238380D01*
X87197330Y-87238380D02*
X87236467Y-87139354D01*
X87236467Y-87139354D02*
X87279755Y-87087766D01*
X87279755Y-87087766D02*
X87413768Y-86980439D01*
X87413768Y-86980439D02*
X87599369Y-86916400D01*
X87599369Y-86916400D02*
X87978872Y-86883198D01*
X87978872Y-86883198D02*
X88077898Y-86922336D01*
X88077898Y-86922336D02*
X88129486Y-86965623D01*
X88129486Y-86965623D02*
X88185224Y-87056349D01*
X88185224Y-87056349D02*
X88201825Y-87246100D01*
X88201825Y-87246100D02*
X88162688Y-87345126D01*
X88162688Y-87345126D02*
X88119400Y-87396714D01*
X88119400Y-87396714D02*
X88028675Y-87452452D01*
X88028675Y-87452452D02*
X87791486Y-87473204D01*
X87791486Y-87473204D02*
X87692460Y-87434066D01*
X87692460Y-87434066D02*
X87640872Y-87390779D01*
X87640872Y-87390779D02*
X87585133Y-87300053D01*
X87585133Y-87300053D02*
X87568532Y-87110302D01*
X87568532Y-87110302D02*
X87607670Y-87011276D01*
X87607670Y-87011276D02*
X87650957Y-86959688D01*
X87650957Y-86959688D02*
X87741683Y-86903950D01*
X106163645Y-72599294D02*
X106215233Y-72642581D01*
X106215233Y-72642581D02*
X106361697Y-72677568D01*
X106361697Y-72677568D02*
X106456572Y-72669268D01*
X106456572Y-72669268D02*
X106594736Y-72609379D01*
X106594736Y-72609379D02*
X106681311Y-72506203D01*
X106681311Y-72506203D02*
X106720448Y-72407177D01*
X106720448Y-72407177D02*
X106751285Y-72213275D01*
X106751285Y-72213275D02*
X106738834Y-72070962D01*
X106738834Y-72070962D02*
X106674795Y-71885361D01*
X106674795Y-71885361D02*
X106619057Y-71794635D01*
X106619057Y-71794635D02*
X106515880Y-71708060D01*
X106515880Y-71708060D02*
X106369417Y-71673073D01*
X106369417Y-71673073D02*
X106274541Y-71681374D01*
X106274541Y-71681374D02*
X106136378Y-71741262D01*
X106136378Y-71741262D02*
X106093090Y-71792850D01*
X105713587Y-71826053D02*
X105661999Y-71782765D01*
X105661999Y-71782765D02*
X105562973Y-71743628D01*
X105562973Y-71743628D02*
X105325784Y-71764379D01*
X105325784Y-71764379D02*
X105235059Y-71820117D01*
X105235059Y-71820117D02*
X105191771Y-71871706D01*
X105191771Y-71871706D02*
X105152634Y-71970732D01*
X105152634Y-71970732D02*
X105160934Y-72065607D01*
X105160934Y-72065607D02*
X105220823Y-72203770D01*
X105220823Y-72203770D02*
X105839880Y-72723221D01*
X105839880Y-72723221D02*
X105223188Y-72777175D01*
X86516815Y-67986335D02*
X85520620Y-68073491D01*
X85520620Y-68073491D02*
X85541371Y-68310680D01*
X85541371Y-68310680D02*
X85601260Y-68448844D01*
X85601260Y-68448844D02*
X85704436Y-68535419D01*
X85704436Y-68535419D02*
X85803462Y-68574556D01*
X85803462Y-68574556D02*
X85997364Y-68605393D01*
X85997364Y-68605393D02*
X86139677Y-68592942D01*
X86139677Y-68592942D02*
X86325278Y-68528903D01*
X86325278Y-68528903D02*
X86416004Y-68473165D01*
X86416004Y-68473165D02*
X86502579Y-68369988D01*
X86502579Y-68369988D02*
X86537566Y-68223525D01*
X86537566Y-68223525D02*
X86516815Y-67986335D01*
X86649623Y-69504346D02*
X86599820Y-68935092D01*
X86624722Y-69219719D02*
X85628527Y-69306875D01*
X85628527Y-69306875D02*
X85762540Y-69199548D01*
X85762540Y-69199548D02*
X85849115Y-69096372D01*
X85849115Y-69096372D02*
X85888252Y-68997346D01*
X99481118Y-88007787D02*
X99955496Y-87966284D01*
X99955496Y-87966284D02*
X99868340Y-86970089D01*
X99103399Y-87515022D02*
X98771335Y-87544074D01*
X98674674Y-88078341D02*
X99149052Y-88036839D01*
X99149052Y-88036839D02*
X99061897Y-87040644D01*
X99061897Y-87040644D02*
X98587518Y-87082147D01*
X98247733Y-88115694D02*
X98160578Y-87119499D01*
X98160578Y-87119499D02*
X97923388Y-87140250D01*
X97923388Y-87140250D02*
X97785225Y-87200139D01*
X97785225Y-87200139D02*
X97698650Y-87303315D01*
X97698650Y-87303315D02*
X97659513Y-87402341D01*
X97659513Y-87402341D02*
X97628676Y-87596243D01*
X97628676Y-87596243D02*
X97641127Y-87738556D01*
X97641127Y-87738556D02*
X97705166Y-87924158D01*
X97705166Y-87924158D02*
X97760904Y-88014883D01*
X97760904Y-88014883D02*
X97864080Y-88101458D01*
X97864080Y-88101458D02*
X98010544Y-88136445D01*
X98010544Y-88136445D02*
X98247733Y-88115694D01*
X96729722Y-88248503D02*
X97298976Y-88198699D01*
X97014349Y-88223601D02*
X96927194Y-87227406D01*
X96927194Y-87227406D02*
X97034520Y-87361419D01*
X97034520Y-87361419D02*
X97137696Y-87447994D01*
X97137696Y-87447994D02*
X97236722Y-87487132D01*
X95741248Y-87331163D02*
X96215626Y-87289660D01*
X96215626Y-87289660D02*
X96304567Y-87759888D01*
X96304567Y-87759888D02*
X96252978Y-87716601D01*
X96252978Y-87716601D02*
X96153952Y-87677464D01*
X96153952Y-87677464D02*
X95916763Y-87698215D01*
X95916763Y-87698215D02*
X95826038Y-87753953D01*
X95826038Y-87753953D02*
X95782750Y-87805541D01*
X95782750Y-87805541D02*
X95743613Y-87904567D01*
X95743613Y-87904567D02*
X95764364Y-88141757D01*
X95764364Y-88141757D02*
X95820103Y-88232482D01*
X95820103Y-88232482D02*
X95871691Y-88275770D01*
X95871691Y-88275770D02*
X95970717Y-88314907D01*
X95970717Y-88314907D02*
X96207906Y-88294156D01*
X96207906Y-88294156D02*
X96298631Y-88238417D01*
X96298631Y-88238417D02*
X96341919Y-88186829D01*
X158167681Y-39552659D02*
X158643871Y-39552659D01*
X158643871Y-39552659D02*
X158643871Y-38552659D01*
X157834347Y-39028849D02*
X157501014Y-39028849D01*
X157358157Y-39552659D02*
X157834347Y-39552659D01*
X157834347Y-39552659D02*
X157834347Y-38552659D01*
X157834347Y-38552659D02*
X157358157Y-38552659D01*
X156929585Y-39552659D02*
X156929585Y-38552659D01*
X156929585Y-38552659D02*
X156691490Y-38552659D01*
X156691490Y-38552659D02*
X156548633Y-38600278D01*
X156548633Y-38600278D02*
X156453395Y-38695516D01*
X156453395Y-38695516D02*
X156405776Y-38790754D01*
X156405776Y-38790754D02*
X156358157Y-38981230D01*
X156358157Y-38981230D02*
X156358157Y-39124087D01*
X156358157Y-39124087D02*
X156405776Y-39314563D01*
X156405776Y-39314563D02*
X156453395Y-39409801D01*
X156453395Y-39409801D02*
X156548633Y-39505040D01*
X156548633Y-39505040D02*
X156691490Y-39552659D01*
X156691490Y-39552659D02*
X156929585Y-39552659D01*
X155977204Y-38647897D02*
X155929585Y-38600278D01*
X155929585Y-38600278D02*
X155834347Y-38552659D01*
X155834347Y-38552659D02*
X155596252Y-38552659D01*
X155596252Y-38552659D02*
X155501014Y-38600278D01*
X155501014Y-38600278D02*
X155453395Y-38647897D01*
X155453395Y-38647897D02*
X155405776Y-38743135D01*
X155405776Y-38743135D02*
X155405776Y-38838373D01*
X155405776Y-38838373D02*
X155453395Y-38981230D01*
X155453395Y-38981230D02*
X156024823Y-39552659D01*
X156024823Y-39552659D02*
X155405776Y-39552659D01*
X128473886Y-103501292D02*
X127473886Y-103501292D01*
X127473886Y-103501292D02*
X127473886Y-103739387D01*
X127473886Y-103739387D02*
X127521505Y-103882244D01*
X127521505Y-103882244D02*
X127616743Y-103977482D01*
X127616743Y-103977482D02*
X127711981Y-104025101D01*
X127711981Y-104025101D02*
X127902457Y-104072720D01*
X127902457Y-104072720D02*
X128045314Y-104072720D01*
X128045314Y-104072720D02*
X128235790Y-104025101D01*
X128235790Y-104025101D02*
X128331028Y-103977482D01*
X128331028Y-103977482D02*
X128426267Y-103882244D01*
X128426267Y-103882244D02*
X128473886Y-103739387D01*
X128473886Y-103739387D02*
X128473886Y-103501292D01*
X128473886Y-105025101D02*
X128473886Y-104453673D01*
X128473886Y-104739387D02*
X127473886Y-104739387D01*
X127473886Y-104739387D02*
X127616743Y-104644149D01*
X127616743Y-104644149D02*
X127711981Y-104548911D01*
X127711981Y-104548911D02*
X127759600Y-104453673D01*
X127902457Y-105596530D02*
X127854838Y-105501292D01*
X127854838Y-105501292D02*
X127807219Y-105453673D01*
X127807219Y-105453673D02*
X127711981Y-105406054D01*
X127711981Y-105406054D02*
X127664362Y-105406054D01*
X127664362Y-105406054D02*
X127569124Y-105453673D01*
X127569124Y-105453673D02*
X127521505Y-105501292D01*
X127521505Y-105501292D02*
X127473886Y-105596530D01*
X127473886Y-105596530D02*
X127473886Y-105787006D01*
X127473886Y-105787006D02*
X127521505Y-105882244D01*
X127521505Y-105882244D02*
X127569124Y-105929863D01*
X127569124Y-105929863D02*
X127664362Y-105977482D01*
X127664362Y-105977482D02*
X127711981Y-105977482D01*
X127711981Y-105977482D02*
X127807219Y-105929863D01*
X127807219Y-105929863D02*
X127854838Y-105882244D01*
X127854838Y-105882244D02*
X127902457Y-105787006D01*
X127902457Y-105787006D02*
X127902457Y-105596530D01*
X127902457Y-105596530D02*
X127950076Y-105501292D01*
X127950076Y-105501292D02*
X127997695Y-105453673D01*
X127997695Y-105453673D02*
X128092933Y-105406054D01*
X128092933Y-105406054D02*
X128283409Y-105406054D01*
X128283409Y-105406054D02*
X128378647Y-105453673D01*
X128378647Y-105453673D02*
X128426267Y-105501292D01*
X128426267Y-105501292D02*
X128473886Y-105596530D01*
X128473886Y-105596530D02*
X128473886Y-105787006D01*
X128473886Y-105787006D02*
X128426267Y-105882244D01*
X128426267Y-105882244D02*
X128378647Y-105929863D01*
X128378647Y-105929863D02*
X128283409Y-105977482D01*
X128283409Y-105977482D02*
X128092933Y-105977482D01*
X128092933Y-105977482D02*
X127997695Y-105929863D01*
X127997695Y-105929863D02*
X127950076Y-105882244D01*
X127950076Y-105882244D02*
X127902457Y-105787006D01*
X165614594Y-43433180D02*
X165662213Y-43480800D01*
X165662213Y-43480800D02*
X165805070Y-43528419D01*
X165805070Y-43528419D02*
X165900308Y-43528419D01*
X165900308Y-43528419D02*
X166043165Y-43480800D01*
X166043165Y-43480800D02*
X166138403Y-43385561D01*
X166138403Y-43385561D02*
X166186022Y-43290323D01*
X166186022Y-43290323D02*
X166233641Y-43099847D01*
X166233641Y-43099847D02*
X166233641Y-42956990D01*
X166233641Y-42956990D02*
X166186022Y-42766514D01*
X166186022Y-42766514D02*
X166138403Y-42671276D01*
X166138403Y-42671276D02*
X166043165Y-42576038D01*
X166043165Y-42576038D02*
X165900308Y-42528419D01*
X165900308Y-42528419D02*
X165805070Y-42528419D01*
X165805070Y-42528419D02*
X165662213Y-42576038D01*
X165662213Y-42576038D02*
X165614594Y-42623657D01*
X164757451Y-42528419D02*
X164947927Y-42528419D01*
X164947927Y-42528419D02*
X165043165Y-42576038D01*
X165043165Y-42576038D02*
X165090784Y-42623657D01*
X165090784Y-42623657D02*
X165186022Y-42766514D01*
X165186022Y-42766514D02*
X165233641Y-42956990D01*
X165233641Y-42956990D02*
X165233641Y-43337942D01*
X165233641Y-43337942D02*
X165186022Y-43433180D01*
X165186022Y-43433180D02*
X165138403Y-43480800D01*
X165138403Y-43480800D02*
X165043165Y-43528419D01*
X165043165Y-43528419D02*
X164852689Y-43528419D01*
X164852689Y-43528419D02*
X164757451Y-43480800D01*
X164757451Y-43480800D02*
X164709832Y-43433180D01*
X164709832Y-43433180D02*
X164662213Y-43337942D01*
X164662213Y-43337942D02*
X164662213Y-43099847D01*
X164662213Y-43099847D02*
X164709832Y-43004609D01*
X164709832Y-43004609D02*
X164757451Y-42956990D01*
X164757451Y-42956990D02*
X164852689Y-42909371D01*
X164852689Y-42909371D02*
X165043165Y-42909371D01*
X165043165Y-42909371D02*
X165138403Y-42956990D01*
X165138403Y-42956990D02*
X165186022Y-43004609D01*
X165186022Y-43004609D02*
X165233641Y-43099847D01*
X147473886Y-90001292D02*
X146473886Y-90001292D01*
X146473886Y-90001292D02*
X146473886Y-90239387D01*
X146473886Y-90239387D02*
X146521505Y-90382244D01*
X146521505Y-90382244D02*
X146616743Y-90477482D01*
X146616743Y-90477482D02*
X146711981Y-90525101D01*
X146711981Y-90525101D02*
X146902457Y-90572720D01*
X146902457Y-90572720D02*
X147045314Y-90572720D01*
X147045314Y-90572720D02*
X147235790Y-90525101D01*
X147235790Y-90525101D02*
X147331028Y-90477482D01*
X147331028Y-90477482D02*
X147426267Y-90382244D01*
X147426267Y-90382244D02*
X147473886Y-90239387D01*
X147473886Y-90239387D02*
X147473886Y-90001292D01*
X147473886Y-91525101D02*
X147473886Y-90953673D01*
X147473886Y-91239387D02*
X146473886Y-91239387D01*
X146473886Y-91239387D02*
X146616743Y-91144149D01*
X146616743Y-91144149D02*
X146711981Y-91048911D01*
X146711981Y-91048911D02*
X146759600Y-90953673D01*
X146807219Y-92382244D02*
X147473886Y-92382244D01*
X146426267Y-92144149D02*
X147140552Y-91906054D01*
X147140552Y-91906054D02*
X147140552Y-92525101D01*
X156643872Y-119052659D02*
X157120062Y-119052659D01*
X157120062Y-119052659D02*
X157120062Y-118052659D01*
X156310538Y-118528849D02*
X155977205Y-118528849D01*
X155834348Y-119052659D02*
X156310538Y-119052659D01*
X156310538Y-119052659D02*
X156310538Y-118052659D01*
X156310538Y-118052659D02*
X155834348Y-118052659D01*
X155405776Y-119052659D02*
X155405776Y-118052659D01*
X155405776Y-118052659D02*
X155167681Y-118052659D01*
X155167681Y-118052659D02*
X155024824Y-118100278D01*
X155024824Y-118100278D02*
X154929586Y-118195516D01*
X154929586Y-118195516D02*
X154881967Y-118290754D01*
X154881967Y-118290754D02*
X154834348Y-118481230D01*
X154834348Y-118481230D02*
X154834348Y-118624087D01*
X154834348Y-118624087D02*
X154881967Y-118814563D01*
X154881967Y-118814563D02*
X154929586Y-118909801D01*
X154929586Y-118909801D02*
X155024824Y-119005040D01*
X155024824Y-119005040D02*
X155167681Y-119052659D01*
X155167681Y-119052659D02*
X155405776Y-119052659D01*
X154453395Y-118147897D02*
X154405776Y-118100278D01*
X154405776Y-118100278D02*
X154310538Y-118052659D01*
X154310538Y-118052659D02*
X154072443Y-118052659D01*
X154072443Y-118052659D02*
X153977205Y-118100278D01*
X153977205Y-118100278D02*
X153929586Y-118147897D01*
X153929586Y-118147897D02*
X153881967Y-118243135D01*
X153881967Y-118243135D02*
X153881967Y-118338373D01*
X153881967Y-118338373D02*
X153929586Y-118481230D01*
X153929586Y-118481230D02*
X154501014Y-119052659D01*
X154501014Y-119052659D02*
X153881967Y-119052659D01*
X153501014Y-118147897D02*
X153453395Y-118100278D01*
X153453395Y-118100278D02*
X153358157Y-118052659D01*
X153358157Y-118052659D02*
X153120062Y-118052659D01*
X153120062Y-118052659D02*
X153024824Y-118100278D01*
X153024824Y-118100278D02*
X152977205Y-118147897D01*
X152977205Y-118147897D02*
X152929586Y-118243135D01*
X152929586Y-118243135D02*
X152929586Y-118338373D01*
X152929586Y-118338373D02*
X152977205Y-118481230D01*
X152977205Y-118481230D02*
X153548633Y-119052659D01*
X153548633Y-119052659D02*
X152929586Y-119052659D01*
X166473886Y-108001292D02*
X165473886Y-108001292D01*
X165473886Y-108001292D02*
X165473886Y-108239387D01*
X165473886Y-108239387D02*
X165521505Y-108382244D01*
X165521505Y-108382244D02*
X165616743Y-108477482D01*
X165616743Y-108477482D02*
X165711981Y-108525101D01*
X165711981Y-108525101D02*
X165902457Y-108572720D01*
X165902457Y-108572720D02*
X166045314Y-108572720D01*
X166045314Y-108572720D02*
X166235790Y-108525101D01*
X166235790Y-108525101D02*
X166331028Y-108477482D01*
X166331028Y-108477482D02*
X166426267Y-108382244D01*
X166426267Y-108382244D02*
X166473886Y-108239387D01*
X166473886Y-108239387D02*
X166473886Y-108001292D01*
X165569124Y-108953673D02*
X165521505Y-109001292D01*
X165521505Y-109001292D02*
X165473886Y-109096530D01*
X165473886Y-109096530D02*
X165473886Y-109334625D01*
X165473886Y-109334625D02*
X165521505Y-109429863D01*
X165521505Y-109429863D02*
X165569124Y-109477482D01*
X165569124Y-109477482D02*
X165664362Y-109525101D01*
X165664362Y-109525101D02*
X165759600Y-109525101D01*
X165759600Y-109525101D02*
X165902457Y-109477482D01*
X165902457Y-109477482D02*
X166473886Y-108906054D01*
X166473886Y-108906054D02*
X166473886Y-109525101D01*
X165473886Y-110144149D02*
X165473886Y-110239387D01*
X165473886Y-110239387D02*
X165521505Y-110334625D01*
X165521505Y-110334625D02*
X165569124Y-110382244D01*
X165569124Y-110382244D02*
X165664362Y-110429863D01*
X165664362Y-110429863D02*
X165854838Y-110477482D01*
X165854838Y-110477482D02*
X166092933Y-110477482D01*
X166092933Y-110477482D02*
X166283409Y-110429863D01*
X166283409Y-110429863D02*
X166378647Y-110382244D01*
X166378647Y-110382244D02*
X166426267Y-110334625D01*
X166426267Y-110334625D02*
X166473886Y-110239387D01*
X166473886Y-110239387D02*
X166473886Y-110144149D01*
X166473886Y-110144149D02*
X166426267Y-110048911D01*
X166426267Y-110048911D02*
X166378647Y-110001292D01*
X166378647Y-110001292D02*
X166283409Y-109953673D01*
X166283409Y-109953673D02*
X166092933Y-109906054D01*
X166092933Y-109906054D02*
X165854838Y-109906054D01*
X165854838Y-109906054D02*
X165664362Y-109953673D01*
X165664362Y-109953673D02*
X165569124Y-110001292D01*
X165569124Y-110001292D02*
X165521505Y-110048911D01*
X165521505Y-110048911D02*
X165473886Y-110144149D01*
X109473886Y-108501292D02*
X108473886Y-108501292D01*
X108473886Y-108501292D02*
X108473886Y-108739387D01*
X108473886Y-108739387D02*
X108521505Y-108882244D01*
X108521505Y-108882244D02*
X108616743Y-108977482D01*
X108616743Y-108977482D02*
X108711981Y-109025101D01*
X108711981Y-109025101D02*
X108902457Y-109072720D01*
X108902457Y-109072720D02*
X109045314Y-109072720D01*
X109045314Y-109072720D02*
X109235790Y-109025101D01*
X109235790Y-109025101D02*
X109331028Y-108977482D01*
X109331028Y-108977482D02*
X109426267Y-108882244D01*
X109426267Y-108882244D02*
X109473886Y-108739387D01*
X109473886Y-108739387D02*
X109473886Y-108501292D01*
X109473886Y-110025101D02*
X109473886Y-109453673D01*
X109473886Y-109739387D02*
X108473886Y-109739387D01*
X108473886Y-109739387D02*
X108616743Y-109644149D01*
X108616743Y-109644149D02*
X108711981Y-109548911D01*
X108711981Y-109548911D02*
X108759600Y-109453673D01*
X108473886Y-110358435D02*
X108473886Y-111025101D01*
X108473886Y-111025101D02*
X109473886Y-110596530D01*
D11*
X194303704Y-114684700D02*
X194160847Y-114732319D01*
X194160847Y-114732319D02*
X193922752Y-114732319D01*
X193922752Y-114732319D02*
X193827514Y-114684700D01*
X193827514Y-114684700D02*
X193779895Y-114637080D01*
X193779895Y-114637080D02*
X193732276Y-114541842D01*
X193732276Y-114541842D02*
X193732276Y-114446604D01*
X193732276Y-114446604D02*
X193779895Y-114351366D01*
X193779895Y-114351366D02*
X193827514Y-114303747D01*
X193827514Y-114303747D02*
X193922752Y-114256128D01*
X193922752Y-114256128D02*
X194113228Y-114208509D01*
X194113228Y-114208509D02*
X194208466Y-114160890D01*
X194208466Y-114160890D02*
X194256085Y-114113271D01*
X194256085Y-114113271D02*
X194303704Y-114018033D01*
X194303704Y-114018033D02*
X194303704Y-113922795D01*
X194303704Y-113922795D02*
X194256085Y-113827557D01*
X194256085Y-113827557D02*
X194208466Y-113779938D01*
X194208466Y-113779938D02*
X194113228Y-113732319D01*
X194113228Y-113732319D02*
X193875133Y-113732319D01*
X193875133Y-113732319D02*
X193732276Y-113779938D01*
X192779895Y-114732319D02*
X193351323Y-114732319D01*
X193065609Y-114732319D02*
X193065609Y-113732319D01*
X193065609Y-113732319D02*
X193160847Y-113875176D01*
X193160847Y-113875176D02*
X193256085Y-113970414D01*
X193256085Y-113970414D02*
X193351323Y-114018033D01*
D10*
X177167681Y-39552659D02*
X177643871Y-39552659D01*
X177643871Y-39552659D02*
X177643871Y-38552659D01*
X176834347Y-39028849D02*
X176501014Y-39028849D01*
X176358157Y-39552659D02*
X176834347Y-39552659D01*
X176834347Y-39552659D02*
X176834347Y-38552659D01*
X176834347Y-38552659D02*
X176358157Y-38552659D01*
X175929585Y-39552659D02*
X175929585Y-38552659D01*
X175929585Y-38552659D02*
X175691490Y-38552659D01*
X175691490Y-38552659D02*
X175548633Y-38600278D01*
X175548633Y-38600278D02*
X175453395Y-38695516D01*
X175453395Y-38695516D02*
X175405776Y-38790754D01*
X175405776Y-38790754D02*
X175358157Y-38981230D01*
X175358157Y-38981230D02*
X175358157Y-39124087D01*
X175358157Y-39124087D02*
X175405776Y-39314563D01*
X175405776Y-39314563D02*
X175453395Y-39409801D01*
X175453395Y-39409801D02*
X175548633Y-39505040D01*
X175548633Y-39505040D02*
X175691490Y-39552659D01*
X175691490Y-39552659D02*
X175929585Y-39552659D01*
X174405776Y-39552659D02*
X174977204Y-39552659D01*
X174691490Y-39552659D02*
X174691490Y-38552659D01*
X174691490Y-38552659D02*
X174786728Y-38695516D01*
X174786728Y-38695516D02*
X174881966Y-38790754D01*
X174881966Y-38790754D02*
X174977204Y-38838373D01*
X219769455Y-136274296D02*
X220134238Y-136580385D01*
X220134238Y-136580385D02*
X220777026Y-135814340D01*
X219850805Y-135658771D02*
X219595457Y-135444509D01*
X219149324Y-135753944D02*
X219514107Y-136060033D01*
X219514107Y-136060033D02*
X220156894Y-135293988D01*
X220156894Y-135293988D02*
X219792111Y-134987899D01*
X218821019Y-135478463D02*
X219463806Y-134712419D01*
X219463806Y-134712419D02*
X219281415Y-134559374D01*
X219281415Y-134559374D02*
X219141371Y-134504025D01*
X219141371Y-134504025D02*
X219007196Y-134515764D01*
X219007196Y-134515764D02*
X218909500Y-134558112D01*
X218909500Y-134558112D02*
X218750586Y-134673416D01*
X218750586Y-134673416D02*
X218658759Y-134782851D01*
X218658759Y-134782851D02*
X218572802Y-134959373D01*
X218572802Y-134959373D02*
X218548062Y-135062939D01*
X218548062Y-135062939D02*
X218559801Y-135197113D01*
X218559801Y-135197113D02*
X218638627Y-135325418D01*
X218638627Y-135325418D02*
X218821019Y-135478463D01*
X218673022Y-134173197D02*
X218667153Y-134106109D01*
X218667153Y-134106109D02*
X218624805Y-134008413D01*
X218624805Y-134008413D02*
X218442414Y-133855368D01*
X218442414Y-133855368D02*
X218338848Y-133830629D01*
X218338848Y-133830629D02*
X218271761Y-133836498D01*
X218271761Y-133836498D02*
X218174065Y-133878846D01*
X218174065Y-133878846D02*
X218112847Y-133951803D01*
X218112847Y-133951803D02*
X218057498Y-134091846D01*
X218057498Y-134091846D02*
X218127931Y-134896893D01*
X218127931Y-134896893D02*
X217653713Y-134498977D01*
X217603413Y-133151363D02*
X217968196Y-133457452D01*
X217968196Y-133457452D02*
X217698585Y-133852844D01*
X217698585Y-133852844D02*
X217692715Y-133785757D01*
X217692715Y-133785757D02*
X217650368Y-133688061D01*
X217650368Y-133688061D02*
X217467976Y-133535016D01*
X217467976Y-133535016D02*
X217364411Y-133510277D01*
X217364411Y-133510277D02*
X217297323Y-133516146D01*
X217297323Y-133516146D02*
X217199627Y-133558494D01*
X217199627Y-133558494D02*
X217046582Y-133740885D01*
X217046582Y-133740885D02*
X217021843Y-133844451D01*
X217021843Y-133844451D02*
X217027712Y-133911538D01*
X217027712Y-133911538D02*
X217070060Y-134009234D01*
X217070060Y-134009234D02*
X217252451Y-134162279D01*
X217252451Y-134162279D02*
X217356017Y-134187018D01*
X217356017Y-134187018D02*
X217423104Y-134181149D01*
X99177942Y-41085508D02*
X98511275Y-41085508D01*
X98177942Y-41085508D02*
X98225561Y-41037889D01*
X98225561Y-41037889D02*
X98273180Y-41085508D01*
X98273180Y-41085508D02*
X98225561Y-41133127D01*
X98225561Y-41133127D02*
X98177942Y-41085508D01*
X98177942Y-41085508D02*
X98273180Y-41085508D01*
X98511275Y-41561698D02*
X99177942Y-41561698D01*
X98606513Y-41561698D02*
X98558894Y-41609317D01*
X98558894Y-41609317D02*
X98511275Y-41704555D01*
X98511275Y-41704555D02*
X98511275Y-41847412D01*
X98511275Y-41847412D02*
X98558894Y-41942650D01*
X98558894Y-41942650D02*
X98654132Y-41990269D01*
X98654132Y-41990269D02*
X99177942Y-41990269D01*
X99177942Y-42895031D02*
X98177942Y-42895031D01*
X99130323Y-42895031D02*
X99177942Y-42799793D01*
X99177942Y-42799793D02*
X99177942Y-42609317D01*
X99177942Y-42609317D02*
X99130323Y-42514079D01*
X99130323Y-42514079D02*
X99082703Y-42466460D01*
X99082703Y-42466460D02*
X98987465Y-42418841D01*
X98987465Y-42418841D02*
X98701751Y-42418841D01*
X98701751Y-42418841D02*
X98606513Y-42466460D01*
X98606513Y-42466460D02*
X98558894Y-42514079D01*
X98558894Y-42514079D02*
X98511275Y-42609317D01*
X98511275Y-42609317D02*
X98511275Y-42799793D01*
X98511275Y-42799793D02*
X98558894Y-42895031D01*
X99177942Y-43847412D02*
X99177942Y-43371222D01*
X99177942Y-43371222D02*
X98177942Y-43371222D01*
X98654132Y-44180746D02*
X98654132Y-44514079D01*
X99177942Y-44656936D02*
X99177942Y-44180746D01*
X99177942Y-44180746D02*
X98177942Y-44180746D01*
X98177942Y-44180746D02*
X98177942Y-44656936D01*
X99177942Y-45085508D02*
X98177942Y-45085508D01*
X98177942Y-45085508D02*
X98177942Y-45323603D01*
X98177942Y-45323603D02*
X98225561Y-45466460D01*
X98225561Y-45466460D02*
X98320799Y-45561698D01*
X98320799Y-45561698D02*
X98416037Y-45609317D01*
X98416037Y-45609317D02*
X98606513Y-45656936D01*
X98606513Y-45656936D02*
X98749370Y-45656936D01*
X98749370Y-45656936D02*
X98939846Y-45609317D01*
X98939846Y-45609317D02*
X99035084Y-45561698D01*
X99035084Y-45561698D02*
X99130323Y-45466460D01*
X99130323Y-45466460D02*
X99177942Y-45323603D01*
X99177942Y-45323603D02*
X99177942Y-45085508D01*
X98273180Y-46037889D02*
X98225561Y-46085508D01*
X98225561Y-46085508D02*
X98177942Y-46180746D01*
X98177942Y-46180746D02*
X98177942Y-46418841D01*
X98177942Y-46418841D02*
X98225561Y-46514079D01*
X98225561Y-46514079D02*
X98273180Y-46561698D01*
X98273180Y-46561698D02*
X98368418Y-46609317D01*
X98368418Y-46609317D02*
X98463656Y-46609317D01*
X98463656Y-46609317D02*
X98606513Y-46561698D01*
X98606513Y-46561698D02*
X99177942Y-45990270D01*
X99177942Y-45990270D02*
X99177942Y-46609317D01*
X185976270Y-123477056D02*
X185036577Y-123135036D01*
X185036577Y-123135036D02*
X184955144Y-123358773D01*
X184955144Y-123358773D02*
X184951031Y-123509301D01*
X184951031Y-123509301D02*
X185007952Y-123631369D01*
X185007952Y-123631369D02*
X185081160Y-123708690D01*
X185081160Y-123708690D02*
X185243862Y-123818584D01*
X185243862Y-123818584D02*
X185378104Y-123867444D01*
X185378104Y-123867444D02*
X185573380Y-123887843D01*
X185573380Y-123887843D02*
X185679161Y-123875669D01*
X185679161Y-123875669D02*
X185801229Y-123818748D01*
X185801229Y-123818748D02*
X185894836Y-123700793D01*
X185894836Y-123700793D02*
X185976270Y-123477056D01*
X184800338Y-124062555D02*
X184739304Y-124091016D01*
X184739304Y-124091016D02*
X184661984Y-124164223D01*
X184661984Y-124164223D02*
X184580550Y-124387960D01*
X184580550Y-124387960D02*
X184592724Y-124493741D01*
X184592724Y-124493741D02*
X184621185Y-124554775D01*
X184621185Y-124554775D02*
X184694393Y-124632096D01*
X184694393Y-124632096D02*
X184783887Y-124664669D01*
X184783887Y-124664669D02*
X184934416Y-124668782D01*
X184934416Y-124668782D02*
X185666823Y-124327254D01*
X185666823Y-124327254D02*
X185455096Y-124908969D01*
X184535474Y-125486406D02*
X185161936Y-125714420D01*
X184258930Y-125132377D02*
X185011572Y-125152940D01*
X185011572Y-125152940D02*
X184799845Y-125734655D01*
X165614594Y-41233180D02*
X165662213Y-41280800D01*
X165662213Y-41280800D02*
X165805070Y-41328419D01*
X165805070Y-41328419D02*
X165900308Y-41328419D01*
X165900308Y-41328419D02*
X166043165Y-41280800D01*
X166043165Y-41280800D02*
X166138403Y-41185561D01*
X166138403Y-41185561D02*
X166186022Y-41090323D01*
X166186022Y-41090323D02*
X166233641Y-40899847D01*
X166233641Y-40899847D02*
X166233641Y-40756990D01*
X166233641Y-40756990D02*
X166186022Y-40566514D01*
X166186022Y-40566514D02*
X166138403Y-40471276D01*
X166138403Y-40471276D02*
X166043165Y-40376038D01*
X166043165Y-40376038D02*
X165900308Y-40328419D01*
X165900308Y-40328419D02*
X165805070Y-40328419D01*
X165805070Y-40328419D02*
X165662213Y-40376038D01*
X165662213Y-40376038D02*
X165614594Y-40423657D01*
X164662213Y-41328419D02*
X165233641Y-41328419D01*
X164947927Y-41328419D02*
X164947927Y-40328419D01*
X164947927Y-40328419D02*
X165043165Y-40471276D01*
X165043165Y-40471276D02*
X165138403Y-40566514D01*
X165138403Y-40566514D02*
X165233641Y-40614133D01*
X158167681Y-57552659D02*
X158643871Y-57552659D01*
X158643871Y-57552659D02*
X158643871Y-56552659D01*
X157834347Y-57028849D02*
X157501014Y-57028849D01*
X157358157Y-57552659D02*
X157834347Y-57552659D01*
X157834347Y-57552659D02*
X157834347Y-56552659D01*
X157834347Y-56552659D02*
X157358157Y-56552659D01*
X156929585Y-57552659D02*
X156929585Y-56552659D01*
X156929585Y-56552659D02*
X156691490Y-56552659D01*
X156691490Y-56552659D02*
X156548633Y-56600278D01*
X156548633Y-56600278D02*
X156453395Y-56695516D01*
X156453395Y-56695516D02*
X156405776Y-56790754D01*
X156405776Y-56790754D02*
X156358157Y-56981230D01*
X156358157Y-56981230D02*
X156358157Y-57124087D01*
X156358157Y-57124087D02*
X156405776Y-57314563D01*
X156405776Y-57314563D02*
X156453395Y-57409801D01*
X156453395Y-57409801D02*
X156548633Y-57505040D01*
X156548633Y-57505040D02*
X156691490Y-57552659D01*
X156691490Y-57552659D02*
X156929585Y-57552659D01*
X155881966Y-57552659D02*
X155691490Y-57552659D01*
X155691490Y-57552659D02*
X155596252Y-57505040D01*
X155596252Y-57505040D02*
X155548633Y-57457420D01*
X155548633Y-57457420D02*
X155453395Y-57314563D01*
X155453395Y-57314563D02*
X155405776Y-57124087D01*
X155405776Y-57124087D02*
X155405776Y-56743135D01*
X155405776Y-56743135D02*
X155453395Y-56647897D01*
X155453395Y-56647897D02*
X155501014Y-56600278D01*
X155501014Y-56600278D02*
X155596252Y-56552659D01*
X155596252Y-56552659D02*
X155786728Y-56552659D01*
X155786728Y-56552659D02*
X155881966Y-56600278D01*
X155881966Y-56600278D02*
X155929585Y-56647897D01*
X155929585Y-56647897D02*
X155977204Y-56743135D01*
X155977204Y-56743135D02*
X155977204Y-56981230D01*
X155977204Y-56981230D02*
X155929585Y-57076468D01*
X155929585Y-57076468D02*
X155881966Y-57124087D01*
X155881966Y-57124087D02*
X155786728Y-57171706D01*
X155786728Y-57171706D02*
X155596252Y-57171706D01*
X155596252Y-57171706D02*
X155501014Y-57124087D01*
X155501014Y-57124087D02*
X155453395Y-57076468D01*
X155453395Y-57076468D02*
X155405776Y-56981230D01*
X207479052Y-131398158D02*
X206713008Y-130755370D01*
X206713008Y-130755370D02*
X206559963Y-130937762D01*
X206559963Y-130937762D02*
X206504614Y-131077805D01*
X206504614Y-131077805D02*
X206516353Y-131211980D01*
X206516353Y-131211980D02*
X206558701Y-131309676D01*
X206558701Y-131309676D02*
X206674005Y-131468590D01*
X206674005Y-131468590D02*
X206783440Y-131560417D01*
X206783440Y-131560417D02*
X206959962Y-131646374D01*
X206959962Y-131646374D02*
X207063528Y-131671114D01*
X207063528Y-131671114D02*
X207197702Y-131659375D01*
X207197702Y-131659375D02*
X207326007Y-131580549D01*
X207326007Y-131580549D02*
X207479052Y-131398158D01*
X206173785Y-131546154D02*
X206106698Y-131552023D01*
X206106698Y-131552023D02*
X206009002Y-131594371D01*
X206009002Y-131594371D02*
X205855957Y-131776763D01*
X205855957Y-131776763D02*
X205831218Y-131880328D01*
X205831218Y-131880328D02*
X205837087Y-131947415D01*
X205837087Y-131947415D02*
X205879435Y-132045112D01*
X205879435Y-132045112D02*
X205952391Y-132106329D01*
X205952391Y-132106329D02*
X206092435Y-132161678D01*
X206092435Y-132161678D02*
X206897482Y-132091246D01*
X206897482Y-132091246D02*
X206499566Y-132565464D01*
X205151952Y-132615764D02*
X205458041Y-132250981D01*
X205458041Y-132250981D02*
X205853433Y-132520592D01*
X205853433Y-132520592D02*
X205786346Y-132526461D01*
X205786346Y-132526461D02*
X205688650Y-132568809D01*
X205688650Y-132568809D02*
X205535605Y-132751200D01*
X205535605Y-132751200D02*
X205510866Y-132854766D01*
X205510866Y-132854766D02*
X205516735Y-132921853D01*
X205516735Y-132921853D02*
X205559083Y-133019549D01*
X205559083Y-133019549D02*
X205741474Y-133172594D01*
X205741474Y-133172594D02*
X205845040Y-133197334D01*
X205845040Y-133197334D02*
X205912127Y-133191464D01*
X205912127Y-133191464D02*
X206009823Y-133149116D01*
X206009823Y-133149116D02*
X206162868Y-132966725D01*
X206162868Y-132966725D02*
X206187607Y-132863159D01*
X206187607Y-132863159D02*
X206181738Y-132796072D01*
X128473886Y-85501292D02*
X127473886Y-85501292D01*
X127473886Y-85501292D02*
X127473886Y-85739387D01*
X127473886Y-85739387D02*
X127521505Y-85882244D01*
X127521505Y-85882244D02*
X127616743Y-85977482D01*
X127616743Y-85977482D02*
X127711981Y-86025101D01*
X127711981Y-86025101D02*
X127902457Y-86072720D01*
X127902457Y-86072720D02*
X128045314Y-86072720D01*
X128045314Y-86072720D02*
X128235790Y-86025101D01*
X128235790Y-86025101D02*
X128331028Y-85977482D01*
X128331028Y-85977482D02*
X128426267Y-85882244D01*
X128426267Y-85882244D02*
X128473886Y-85739387D01*
X128473886Y-85739387D02*
X128473886Y-85501292D01*
X128473886Y-87025101D02*
X128473886Y-86453673D01*
X128473886Y-86739387D02*
X127473886Y-86739387D01*
X127473886Y-86739387D02*
X127616743Y-86644149D01*
X127616743Y-86644149D02*
X127711981Y-86548911D01*
X127711981Y-86548911D02*
X127759600Y-86453673D01*
X127473886Y-87358435D02*
X127473886Y-87977482D01*
X127473886Y-87977482D02*
X127854838Y-87644149D01*
X127854838Y-87644149D02*
X127854838Y-87787006D01*
X127854838Y-87787006D02*
X127902457Y-87882244D01*
X127902457Y-87882244D02*
X127950076Y-87929863D01*
X127950076Y-87929863D02*
X128045314Y-87977482D01*
X128045314Y-87977482D02*
X128283409Y-87977482D01*
X128283409Y-87977482D02*
X128378647Y-87929863D01*
X128378647Y-87929863D02*
X128426267Y-87882244D01*
X128426267Y-87882244D02*
X128473886Y-87787006D01*
X128473886Y-87787006D02*
X128473886Y-87501292D01*
X128473886Y-87501292D02*
X128426267Y-87406054D01*
X128426267Y-87406054D02*
X128378647Y-87358435D01*
X147473886Y-54477483D02*
X146473886Y-54477483D01*
X146473886Y-54477483D02*
X146473886Y-54715578D01*
X146473886Y-54715578D02*
X146521505Y-54858435D01*
X146521505Y-54858435D02*
X146616743Y-54953673D01*
X146616743Y-54953673D02*
X146711981Y-55001292D01*
X146711981Y-55001292D02*
X146902457Y-55048911D01*
X146902457Y-55048911D02*
X147045314Y-55048911D01*
X147045314Y-55048911D02*
X147235790Y-55001292D01*
X147235790Y-55001292D02*
X147331028Y-54953673D01*
X147331028Y-54953673D02*
X147426267Y-54858435D01*
X147426267Y-54858435D02*
X147473886Y-54715578D01*
X147473886Y-54715578D02*
X147473886Y-54477483D01*
X146807219Y-55906054D02*
X147473886Y-55906054D01*
X146426267Y-55667959D02*
X147140552Y-55429864D01*
X147140552Y-55429864D02*
X147140552Y-56048911D01*
X109473886Y-72977483D02*
X108473886Y-72977483D01*
X108473886Y-72977483D02*
X108473886Y-73215578D01*
X108473886Y-73215578D02*
X108521505Y-73358435D01*
X108521505Y-73358435D02*
X108616743Y-73453673D01*
X108616743Y-73453673D02*
X108711981Y-73501292D01*
X108711981Y-73501292D02*
X108902457Y-73548911D01*
X108902457Y-73548911D02*
X109045314Y-73548911D01*
X109045314Y-73548911D02*
X109235790Y-73501292D01*
X109235790Y-73501292D02*
X109331028Y-73453673D01*
X109331028Y-73453673D02*
X109426267Y-73358435D01*
X109426267Y-73358435D02*
X109473886Y-73215578D01*
X109473886Y-73215578D02*
X109473886Y-72977483D01*
X108473886Y-73882245D02*
X108473886Y-74548911D01*
X108473886Y-74548911D02*
X109473886Y-74120340D01*
X158643872Y-75552659D02*
X159120062Y-75552659D01*
X159120062Y-75552659D02*
X159120062Y-74552659D01*
X158310538Y-75028849D02*
X157977205Y-75028849D01*
X157834348Y-75552659D02*
X158310538Y-75552659D01*
X158310538Y-75552659D02*
X158310538Y-74552659D01*
X158310538Y-74552659D02*
X157834348Y-74552659D01*
X157405776Y-75552659D02*
X157405776Y-74552659D01*
X157405776Y-74552659D02*
X157167681Y-74552659D01*
X157167681Y-74552659D02*
X157024824Y-74600278D01*
X157024824Y-74600278D02*
X156929586Y-74695516D01*
X156929586Y-74695516D02*
X156881967Y-74790754D01*
X156881967Y-74790754D02*
X156834348Y-74981230D01*
X156834348Y-74981230D02*
X156834348Y-75124087D01*
X156834348Y-75124087D02*
X156881967Y-75314563D01*
X156881967Y-75314563D02*
X156929586Y-75409801D01*
X156929586Y-75409801D02*
X157024824Y-75505040D01*
X157024824Y-75505040D02*
X157167681Y-75552659D01*
X157167681Y-75552659D02*
X157405776Y-75552659D01*
X155881967Y-75552659D02*
X156453395Y-75552659D01*
X156167681Y-75552659D02*
X156167681Y-74552659D01*
X156167681Y-74552659D02*
X156262919Y-74695516D01*
X156262919Y-74695516D02*
X156358157Y-74790754D01*
X156358157Y-74790754D02*
X156453395Y-74838373D01*
X155501014Y-74647897D02*
X155453395Y-74600278D01*
X155453395Y-74600278D02*
X155358157Y-74552659D01*
X155358157Y-74552659D02*
X155120062Y-74552659D01*
X155120062Y-74552659D02*
X155024824Y-74600278D01*
X155024824Y-74600278D02*
X154977205Y-74647897D01*
X154977205Y-74647897D02*
X154929586Y-74743135D01*
X154929586Y-74743135D02*
X154929586Y-74838373D01*
X154929586Y-74838373D02*
X154977205Y-74981230D01*
X154977205Y-74981230D02*
X155548633Y-75552659D01*
X155548633Y-75552659D02*
X154929586Y-75552659D01*
X147473886Y-72477483D02*
X146473886Y-72477483D01*
X146473886Y-72477483D02*
X146473886Y-72715578D01*
X146473886Y-72715578D02*
X146521505Y-72858435D01*
X146521505Y-72858435D02*
X146616743Y-72953673D01*
X146616743Y-72953673D02*
X146711981Y-73001292D01*
X146711981Y-73001292D02*
X146902457Y-73048911D01*
X146902457Y-73048911D02*
X147045314Y-73048911D01*
X147045314Y-73048911D02*
X147235790Y-73001292D01*
X147235790Y-73001292D02*
X147331028Y-72953673D01*
X147331028Y-72953673D02*
X147426267Y-72858435D01*
X147426267Y-72858435D02*
X147473886Y-72715578D01*
X147473886Y-72715578D02*
X147473886Y-72477483D01*
X147473886Y-73525102D02*
X147473886Y-73715578D01*
X147473886Y-73715578D02*
X147426267Y-73810816D01*
X147426267Y-73810816D02*
X147378647Y-73858435D01*
X147378647Y-73858435D02*
X147235790Y-73953673D01*
X147235790Y-73953673D02*
X147045314Y-74001292D01*
X147045314Y-74001292D02*
X146664362Y-74001292D01*
X146664362Y-74001292D02*
X146569124Y-73953673D01*
X146569124Y-73953673D02*
X146521505Y-73906054D01*
X146521505Y-73906054D02*
X146473886Y-73810816D01*
X146473886Y-73810816D02*
X146473886Y-73620340D01*
X146473886Y-73620340D02*
X146521505Y-73525102D01*
X146521505Y-73525102D02*
X146569124Y-73477483D01*
X146569124Y-73477483D02*
X146664362Y-73429864D01*
X146664362Y-73429864D02*
X146902457Y-73429864D01*
X146902457Y-73429864D02*
X146997695Y-73477483D01*
X146997695Y-73477483D02*
X147045314Y-73525102D01*
X147045314Y-73525102D02*
X147092933Y-73620340D01*
X147092933Y-73620340D02*
X147092933Y-73810816D01*
X147092933Y-73810816D02*
X147045314Y-73906054D01*
X147045314Y-73906054D02*
X146997695Y-73953673D01*
X146997695Y-73953673D02*
X146902457Y-74001292D01*
X88469766Y-102200382D02*
X88517385Y-102248002D01*
X88517385Y-102248002D02*
X88660242Y-102295621D01*
X88660242Y-102295621D02*
X88755480Y-102295621D01*
X88755480Y-102295621D02*
X88898337Y-102248002D01*
X88898337Y-102248002D02*
X88993575Y-102152763D01*
X88993575Y-102152763D02*
X89041194Y-102057525D01*
X89041194Y-102057525D02*
X89088813Y-101867049D01*
X89088813Y-101867049D02*
X89088813Y-101724192D01*
X89088813Y-101724192D02*
X89041194Y-101533716D01*
X89041194Y-101533716D02*
X88993575Y-101438478D01*
X88993575Y-101438478D02*
X88898337Y-101343240D01*
X88898337Y-101343240D02*
X88755480Y-101295621D01*
X88755480Y-101295621D02*
X88660242Y-101295621D01*
X88660242Y-101295621D02*
X88517385Y-101343240D01*
X88517385Y-101343240D02*
X88469766Y-101390859D01*
X87612623Y-101628954D02*
X87612623Y-102295621D01*
X87850718Y-101248002D02*
X88088813Y-101962287D01*
X88088813Y-101962287D02*
X87469766Y-101962287D01*
X120643872Y-76052659D02*
X121120062Y-76052659D01*
X121120062Y-76052659D02*
X121120062Y-75052659D01*
X120310538Y-75528849D02*
X119977205Y-75528849D01*
X119834348Y-76052659D02*
X120310538Y-76052659D01*
X120310538Y-76052659D02*
X120310538Y-75052659D01*
X120310538Y-75052659D02*
X119834348Y-75052659D01*
X119405776Y-76052659D02*
X119405776Y-75052659D01*
X119405776Y-75052659D02*
X119167681Y-75052659D01*
X119167681Y-75052659D02*
X119024824Y-75100278D01*
X119024824Y-75100278D02*
X118929586Y-75195516D01*
X118929586Y-75195516D02*
X118881967Y-75290754D01*
X118881967Y-75290754D02*
X118834348Y-75481230D01*
X118834348Y-75481230D02*
X118834348Y-75624087D01*
X118834348Y-75624087D02*
X118881967Y-75814563D01*
X118881967Y-75814563D02*
X118929586Y-75909801D01*
X118929586Y-75909801D02*
X119024824Y-76005040D01*
X119024824Y-76005040D02*
X119167681Y-76052659D01*
X119167681Y-76052659D02*
X119405776Y-76052659D01*
X117881967Y-76052659D02*
X118453395Y-76052659D01*
X118167681Y-76052659D02*
X118167681Y-75052659D01*
X118167681Y-75052659D02*
X118262919Y-75195516D01*
X118262919Y-75195516D02*
X118358157Y-75290754D01*
X118358157Y-75290754D02*
X118453395Y-75338373D01*
X117024824Y-75385992D02*
X117024824Y-76052659D01*
X117262919Y-75005040D02*
X117501014Y-75719325D01*
X117501014Y-75719325D02*
X116881967Y-75719325D01*
X104177942Y-41085508D02*
X103511275Y-41085508D01*
X103177942Y-41085508D02*
X103225561Y-41037889D01*
X103225561Y-41037889D02*
X103273180Y-41085508D01*
X103273180Y-41085508D02*
X103225561Y-41133127D01*
X103225561Y-41133127D02*
X103177942Y-41085508D01*
X103177942Y-41085508D02*
X103273180Y-41085508D01*
X103511275Y-41561698D02*
X104177942Y-41561698D01*
X103606513Y-41561698D02*
X103558894Y-41609317D01*
X103558894Y-41609317D02*
X103511275Y-41704555D01*
X103511275Y-41704555D02*
X103511275Y-41847412D01*
X103511275Y-41847412D02*
X103558894Y-41942650D01*
X103558894Y-41942650D02*
X103654132Y-41990269D01*
X103654132Y-41990269D02*
X104177942Y-41990269D01*
X104177942Y-42895031D02*
X103177942Y-42895031D01*
X104130323Y-42895031D02*
X104177942Y-42799793D01*
X104177942Y-42799793D02*
X104177942Y-42609317D01*
X104177942Y-42609317D02*
X104130323Y-42514079D01*
X104130323Y-42514079D02*
X104082703Y-42466460D01*
X104082703Y-42466460D02*
X103987465Y-42418841D01*
X103987465Y-42418841D02*
X103701751Y-42418841D01*
X103701751Y-42418841D02*
X103606513Y-42466460D01*
X103606513Y-42466460D02*
X103558894Y-42514079D01*
X103558894Y-42514079D02*
X103511275Y-42609317D01*
X103511275Y-42609317D02*
X103511275Y-42799793D01*
X103511275Y-42799793D02*
X103558894Y-42895031D01*
X104177942Y-43847412D02*
X104177942Y-43371222D01*
X104177942Y-43371222D02*
X103177942Y-43371222D01*
X103654132Y-44180746D02*
X103654132Y-44514079D01*
X104177942Y-44656936D02*
X104177942Y-44180746D01*
X104177942Y-44180746D02*
X103177942Y-44180746D01*
X103177942Y-44180746D02*
X103177942Y-44656936D01*
X104177942Y-45085508D02*
X103177942Y-45085508D01*
X103177942Y-45085508D02*
X103177942Y-45323603D01*
X103177942Y-45323603D02*
X103225561Y-45466460D01*
X103225561Y-45466460D02*
X103320799Y-45561698D01*
X103320799Y-45561698D02*
X103416037Y-45609317D01*
X103416037Y-45609317D02*
X103606513Y-45656936D01*
X103606513Y-45656936D02*
X103749370Y-45656936D01*
X103749370Y-45656936D02*
X103939846Y-45609317D01*
X103939846Y-45609317D02*
X104035084Y-45561698D01*
X104035084Y-45561698D02*
X104130323Y-45466460D01*
X104130323Y-45466460D02*
X104177942Y-45323603D01*
X104177942Y-45323603D02*
X104177942Y-45085508D01*
X104177942Y-46609317D02*
X104177942Y-46037889D01*
X104177942Y-46323603D02*
X103177942Y-46323603D01*
X103177942Y-46323603D02*
X103320799Y-46228365D01*
X103320799Y-46228365D02*
X103416037Y-46133127D01*
X103416037Y-46133127D02*
X103463656Y-46037889D01*
X166473886Y-72001292D02*
X165473886Y-72001292D01*
X165473886Y-72001292D02*
X165473886Y-72239387D01*
X165473886Y-72239387D02*
X165521505Y-72382244D01*
X165521505Y-72382244D02*
X165616743Y-72477482D01*
X165616743Y-72477482D02*
X165711981Y-72525101D01*
X165711981Y-72525101D02*
X165902457Y-72572720D01*
X165902457Y-72572720D02*
X166045314Y-72572720D01*
X166045314Y-72572720D02*
X166235790Y-72525101D01*
X166235790Y-72525101D02*
X166331028Y-72477482D01*
X166331028Y-72477482D02*
X166426267Y-72382244D01*
X166426267Y-72382244D02*
X166473886Y-72239387D01*
X166473886Y-72239387D02*
X166473886Y-72001292D01*
X166473886Y-73525101D02*
X166473886Y-72953673D01*
X166473886Y-73239387D02*
X165473886Y-73239387D01*
X165473886Y-73239387D02*
X165616743Y-73144149D01*
X165616743Y-73144149D02*
X165711981Y-73048911D01*
X165711981Y-73048911D02*
X165759600Y-72953673D01*
X165473886Y-74144149D02*
X165473886Y-74239387D01*
X165473886Y-74239387D02*
X165521505Y-74334625D01*
X165521505Y-74334625D02*
X165569124Y-74382244D01*
X165569124Y-74382244D02*
X165664362Y-74429863D01*
X165664362Y-74429863D02*
X165854838Y-74477482D01*
X165854838Y-74477482D02*
X166092933Y-74477482D01*
X166092933Y-74477482D02*
X166283409Y-74429863D01*
X166283409Y-74429863D02*
X166378647Y-74382244D01*
X166378647Y-74382244D02*
X166426267Y-74334625D01*
X166426267Y-74334625D02*
X166473886Y-74239387D01*
X166473886Y-74239387D02*
X166473886Y-74144149D01*
X166473886Y-74144149D02*
X166426267Y-74048911D01*
X166426267Y-74048911D02*
X166378647Y-74001292D01*
X166378647Y-74001292D02*
X166283409Y-73953673D01*
X166283409Y-73953673D02*
X166092933Y-73906054D01*
X166092933Y-73906054D02*
X165854838Y-73906054D01*
X165854838Y-73906054D02*
X165664362Y-73953673D01*
X165664362Y-73953673D02*
X165569124Y-74001292D01*
X165569124Y-74001292D02*
X165521505Y-74048911D01*
X165521505Y-74048911D02*
X165473886Y-74144149D01*
X101049921Y-105939292D02*
X101524299Y-105897789D01*
X101524299Y-105897789D02*
X101437143Y-104901594D01*
X100672202Y-105446527D02*
X100340138Y-105475579D01*
X100243477Y-106009846D02*
X100717855Y-105968344D01*
X100717855Y-105968344D02*
X100630700Y-104972149D01*
X100630700Y-104972149D02*
X100156321Y-105013652D01*
X99816536Y-106047199D02*
X99729381Y-105051004D01*
X99729381Y-105051004D02*
X99492191Y-105071755D01*
X99492191Y-105071755D02*
X99354028Y-105131644D01*
X99354028Y-105131644D02*
X99267453Y-105234820D01*
X99267453Y-105234820D02*
X99228316Y-105333846D01*
X99228316Y-105333846D02*
X99197479Y-105527748D01*
X99197479Y-105527748D02*
X99209930Y-105670061D01*
X99209930Y-105670061D02*
X99273969Y-105855663D01*
X99273969Y-105855663D02*
X99329707Y-105946388D01*
X99329707Y-105946388D02*
X99432883Y-106032963D01*
X99432883Y-106032963D02*
X99579347Y-106067950D01*
X99579347Y-106067950D02*
X99816536Y-106047199D01*
X98298525Y-106180008D02*
X98867779Y-106130204D01*
X98583152Y-106155106D02*
X98495997Y-105158911D01*
X98495997Y-105158911D02*
X98603323Y-105292924D01*
X98603323Y-105292924D02*
X98706499Y-105379499D01*
X98706499Y-105379499D02*
X98805525Y-105418637D01*
X97879305Y-105212865D02*
X97215175Y-105270969D01*
X97215175Y-105270969D02*
X97729271Y-106229811D01*
X163859597Y-123633319D02*
X162859597Y-123633319D01*
X162859597Y-123633319D02*
X162859597Y-123871414D01*
X162859597Y-123871414D02*
X162907216Y-124014271D01*
X162907216Y-124014271D02*
X163002454Y-124109509D01*
X163002454Y-124109509D02*
X163097692Y-124157128D01*
X163097692Y-124157128D02*
X163288168Y-124204747D01*
X163288168Y-124204747D02*
X163431025Y-124204747D01*
X163431025Y-124204747D02*
X163621501Y-124157128D01*
X163621501Y-124157128D02*
X163716739Y-124109509D01*
X163716739Y-124109509D02*
X163811978Y-124014271D01*
X163811978Y-124014271D02*
X163859597Y-123871414D01*
X163859597Y-123871414D02*
X163859597Y-123633319D01*
X162954835Y-124585700D02*
X162907216Y-124633319D01*
X162907216Y-124633319D02*
X162859597Y-124728557D01*
X162859597Y-124728557D02*
X162859597Y-124966652D01*
X162859597Y-124966652D02*
X162907216Y-125061890D01*
X162907216Y-125061890D02*
X162954835Y-125109509D01*
X162954835Y-125109509D02*
X163050073Y-125157128D01*
X163050073Y-125157128D02*
X163145311Y-125157128D01*
X163145311Y-125157128D02*
X163288168Y-125109509D01*
X163288168Y-125109509D02*
X163859597Y-124538081D01*
X163859597Y-124538081D02*
X163859597Y-125157128D01*
X162859597Y-125490462D02*
X162859597Y-126109509D01*
X162859597Y-126109509D02*
X163240549Y-125776176D01*
X163240549Y-125776176D02*
X163240549Y-125919033D01*
X163240549Y-125919033D02*
X163288168Y-126014271D01*
X163288168Y-126014271D02*
X163335787Y-126061890D01*
X163335787Y-126061890D02*
X163431025Y-126109509D01*
X163431025Y-126109509D02*
X163669120Y-126109509D01*
X163669120Y-126109509D02*
X163764358Y-126061890D01*
X163764358Y-126061890D02*
X163811978Y-126014271D01*
X163811978Y-126014271D02*
X163859597Y-125919033D01*
X163859597Y-125919033D02*
X163859597Y-125633319D01*
X163859597Y-125633319D02*
X163811978Y-125538081D01*
X163811978Y-125538081D02*
X163764358Y-125490462D01*
X166473886Y-54477483D02*
X165473886Y-54477483D01*
X165473886Y-54477483D02*
X165473886Y-54715578D01*
X165473886Y-54715578D02*
X165521505Y-54858435D01*
X165521505Y-54858435D02*
X165616743Y-54953673D01*
X165616743Y-54953673D02*
X165711981Y-55001292D01*
X165711981Y-55001292D02*
X165902457Y-55048911D01*
X165902457Y-55048911D02*
X166045314Y-55048911D01*
X166045314Y-55048911D02*
X166235790Y-55001292D01*
X166235790Y-55001292D02*
X166331028Y-54953673D01*
X166331028Y-54953673D02*
X166426267Y-54858435D01*
X166426267Y-54858435D02*
X166473886Y-54715578D01*
X166473886Y-54715578D02*
X166473886Y-54477483D01*
X165473886Y-55953673D02*
X165473886Y-55477483D01*
X165473886Y-55477483D02*
X165950076Y-55429864D01*
X165950076Y-55429864D02*
X165902457Y-55477483D01*
X165902457Y-55477483D02*
X165854838Y-55572721D01*
X165854838Y-55572721D02*
X165854838Y-55810816D01*
X165854838Y-55810816D02*
X165902457Y-55906054D01*
X165902457Y-55906054D02*
X165950076Y-55953673D01*
X165950076Y-55953673D02*
X166045314Y-56001292D01*
X166045314Y-56001292D02*
X166283409Y-56001292D01*
X166283409Y-56001292D02*
X166378647Y-55953673D01*
X166378647Y-55953673D02*
X166426267Y-55906054D01*
X166426267Y-55906054D02*
X166473886Y-55810816D01*
X166473886Y-55810816D02*
X166473886Y-55572721D01*
X166473886Y-55572721D02*
X166426267Y-55477483D01*
X166426267Y-55477483D02*
X166378647Y-55429864D01*
X79719838Y-116168149D02*
X78723643Y-116255305D01*
X78723643Y-116255305D02*
X78744395Y-116492494D01*
X78744395Y-116492494D02*
X78804283Y-116630658D01*
X78804283Y-116630658D02*
X78907459Y-116717233D01*
X78907459Y-116717233D02*
X79006485Y-116756370D01*
X79006485Y-116756370D02*
X79200387Y-116787207D01*
X79200387Y-116787207D02*
X79342701Y-116774756D01*
X79342701Y-116774756D02*
X79528302Y-116710717D01*
X79528302Y-116710717D02*
X79619027Y-116654979D01*
X79619027Y-116654979D02*
X79705602Y-116551802D01*
X79705602Y-116551802D02*
X79740589Y-116405339D01*
X79740589Y-116405339D02*
X79719838Y-116168149D01*
X78901524Y-117195761D02*
X78858237Y-117247350D01*
X78858237Y-117247350D02*
X78819099Y-117346375D01*
X78819099Y-117346375D02*
X78839851Y-117583565D01*
X78839851Y-117583565D02*
X78895589Y-117674290D01*
X78895589Y-117674290D02*
X78947177Y-117717578D01*
X78947177Y-117717578D02*
X79046203Y-117756715D01*
X79046203Y-117756715D02*
X79141079Y-117748414D01*
X79141079Y-117748414D02*
X79279242Y-117688526D01*
X79279242Y-117688526D02*
X79798693Y-117069468D01*
X79798693Y-117069468D02*
X79852647Y-117686160D01*
X79935652Y-118634917D02*
X79885849Y-118065663D01*
X79910750Y-118350290D02*
X78914556Y-118437446D01*
X78914556Y-118437446D02*
X79048569Y-118330119D01*
X79048569Y-118330119D02*
X79135144Y-118226943D01*
X79135144Y-118226943D02*
X79174281Y-118127917D01*
X185294641Y-96683180D02*
X185342260Y-96730800D01*
X185342260Y-96730800D02*
X185485117Y-96778419D01*
X185485117Y-96778419D02*
X185580355Y-96778419D01*
X185580355Y-96778419D02*
X185723212Y-96730800D01*
X185723212Y-96730800D02*
X185818450Y-96635561D01*
X185818450Y-96635561D02*
X185866069Y-96540323D01*
X185866069Y-96540323D02*
X185913688Y-96349847D01*
X185913688Y-96349847D02*
X185913688Y-96206990D01*
X185913688Y-96206990D02*
X185866069Y-96016514D01*
X185866069Y-96016514D02*
X185818450Y-95921276D01*
X185818450Y-95921276D02*
X185723212Y-95826038D01*
X185723212Y-95826038D02*
X185580355Y-95778419D01*
X185580355Y-95778419D02*
X185485117Y-95778419D01*
X185485117Y-95778419D02*
X185342260Y-95826038D01*
X185342260Y-95826038D02*
X185294641Y-95873657D01*
X184389879Y-95778419D02*
X184866069Y-95778419D01*
X184866069Y-95778419D02*
X184913688Y-96254609D01*
X184913688Y-96254609D02*
X184866069Y-96206990D01*
X184866069Y-96206990D02*
X184770831Y-96159371D01*
X184770831Y-96159371D02*
X184532736Y-96159371D01*
X184532736Y-96159371D02*
X184437498Y-96206990D01*
X184437498Y-96206990D02*
X184389879Y-96254609D01*
X184389879Y-96254609D02*
X184342260Y-96349847D01*
X184342260Y-96349847D02*
X184342260Y-96587942D01*
X184342260Y-96587942D02*
X184389879Y-96683180D01*
X184389879Y-96683180D02*
X184437498Y-96730800D01*
X184437498Y-96730800D02*
X184532736Y-96778419D01*
X184532736Y-96778419D02*
X184770831Y-96778419D01*
X184770831Y-96778419D02*
X184866069Y-96730800D01*
X184866069Y-96730800D02*
X184913688Y-96683180D01*
X139167681Y-53052659D02*
X139643871Y-53052659D01*
X139643871Y-53052659D02*
X139643871Y-52052659D01*
X138834347Y-52528849D02*
X138501014Y-52528849D01*
X138358157Y-53052659D02*
X138834347Y-53052659D01*
X138834347Y-53052659D02*
X138834347Y-52052659D01*
X138834347Y-52052659D02*
X138358157Y-52052659D01*
X137929585Y-53052659D02*
X137929585Y-52052659D01*
X137929585Y-52052659D02*
X137691490Y-52052659D01*
X137691490Y-52052659D02*
X137548633Y-52100278D01*
X137548633Y-52100278D02*
X137453395Y-52195516D01*
X137453395Y-52195516D02*
X137405776Y-52290754D01*
X137405776Y-52290754D02*
X137358157Y-52481230D01*
X137358157Y-52481230D02*
X137358157Y-52624087D01*
X137358157Y-52624087D02*
X137405776Y-52814563D01*
X137405776Y-52814563D02*
X137453395Y-52909801D01*
X137453395Y-52909801D02*
X137548633Y-53005040D01*
X137548633Y-53005040D02*
X137691490Y-53052659D01*
X137691490Y-53052659D02*
X137929585Y-53052659D01*
X136786728Y-52481230D02*
X136881966Y-52433611D01*
X136881966Y-52433611D02*
X136929585Y-52385992D01*
X136929585Y-52385992D02*
X136977204Y-52290754D01*
X136977204Y-52290754D02*
X136977204Y-52243135D01*
X136977204Y-52243135D02*
X136929585Y-52147897D01*
X136929585Y-52147897D02*
X136881966Y-52100278D01*
X136881966Y-52100278D02*
X136786728Y-52052659D01*
X136786728Y-52052659D02*
X136596252Y-52052659D01*
X136596252Y-52052659D02*
X136501014Y-52100278D01*
X136501014Y-52100278D02*
X136453395Y-52147897D01*
X136453395Y-52147897D02*
X136405776Y-52243135D01*
X136405776Y-52243135D02*
X136405776Y-52290754D01*
X136405776Y-52290754D02*
X136453395Y-52385992D01*
X136453395Y-52385992D02*
X136501014Y-52433611D01*
X136501014Y-52433611D02*
X136596252Y-52481230D01*
X136596252Y-52481230D02*
X136786728Y-52481230D01*
X136786728Y-52481230D02*
X136881966Y-52528849D01*
X136881966Y-52528849D02*
X136929585Y-52576468D01*
X136929585Y-52576468D02*
X136977204Y-52671706D01*
X136977204Y-52671706D02*
X136977204Y-52862182D01*
X136977204Y-52862182D02*
X136929585Y-52957420D01*
X136929585Y-52957420D02*
X136881966Y-53005040D01*
X136881966Y-53005040D02*
X136786728Y-53052659D01*
X136786728Y-53052659D02*
X136596252Y-53052659D01*
X136596252Y-53052659D02*
X136501014Y-53005040D01*
X136501014Y-53005040D02*
X136453395Y-52957420D01*
X136453395Y-52957420D02*
X136405776Y-52862182D01*
X136405776Y-52862182D02*
X136405776Y-52671706D01*
X136405776Y-52671706D02*
X136453395Y-52576468D01*
X136453395Y-52576468D02*
X136501014Y-52528849D01*
X136501014Y-52528849D02*
X136596252Y-52481230D01*
X150048634Y-65797840D02*
X150048634Y-66297840D01*
X150048634Y-69897840D02*
X150048634Y-70497840D01*
X150048634Y-70497840D02*
X154548634Y-70497840D01*
X154548634Y-65797840D02*
X150048634Y-65797840D01*
X154548634Y-66497840D02*
X154548634Y-65797840D01*
X155048634Y-70997840D02*
X155048634Y-71997840D01*
X155548634Y-72497840D02*
X155048634Y-71997840D01*
X158548634Y-67997840D02*
X156048634Y-67997840D01*
X158548634Y-72497840D02*
X155548634Y-72497840D01*
X159048634Y-68497840D02*
X158548634Y-67997840D01*
X159048634Y-71997840D02*
X158548634Y-72497840D01*
X154548634Y-70497840D02*
G75*
G02*
X155048634Y-70997840I0J-500000D01*
G01*
X156048634Y-67997840D02*
G75*
G02*
X154548634Y-66497840I0J1500000D01*
G01*
X112048634Y-102297840D02*
X112048634Y-102797840D01*
X112048634Y-106397840D02*
X112048634Y-106997840D01*
X112048634Y-106997840D02*
X116548634Y-106997840D01*
X116548634Y-102297840D02*
X112048634Y-102297840D01*
X116548634Y-102997840D02*
X116548634Y-102297840D01*
X117048634Y-107497840D02*
X117048634Y-108497840D01*
X117548634Y-108997840D02*
X117048634Y-108497840D01*
X120548634Y-104497840D02*
X118048634Y-104497840D01*
X120548634Y-108997840D02*
X117548634Y-108997840D01*
X121048634Y-104997840D02*
X120548634Y-104497840D01*
X121048634Y-108497840D02*
X120548634Y-108997840D01*
X116548634Y-106997840D02*
G75*
G02*
X117048634Y-107497840I0J-500000D01*
G01*
X118048634Y-104497840D02*
G75*
G02*
X116548634Y-102997840I0J1500000D01*
G01*
X112048634Y-84297840D02*
X112048634Y-84797840D01*
X112048634Y-88397840D02*
X112048634Y-88997840D01*
X112048634Y-88997840D02*
X116548634Y-88997840D01*
X116548634Y-84297840D02*
X112048634Y-84297840D01*
X116548634Y-84997840D02*
X116548634Y-84297840D01*
X117048634Y-89497840D02*
X117048634Y-90497840D01*
X117548634Y-90997840D02*
X117048634Y-90497840D01*
X120548634Y-86497840D02*
X118048634Y-86497840D01*
X120548634Y-90997840D02*
X117548634Y-90997840D01*
X121048634Y-86997840D02*
X120548634Y-86497840D01*
X121048634Y-90497840D02*
X120548634Y-90997840D01*
X116548634Y-88997840D02*
G75*
G02*
X117048634Y-89497840I0J-500000D01*
G01*
X118048634Y-86497840D02*
G75*
G02*
X116548634Y-84997840I0J1500000D01*
G01*
X150048634Y-101797840D02*
X150048634Y-102297840D01*
X150048634Y-105897840D02*
X150048634Y-106497840D01*
X150048634Y-106497840D02*
X154548634Y-106497840D01*
X154548634Y-101797840D02*
X150048634Y-101797840D01*
X154548634Y-102497840D02*
X154548634Y-101797840D01*
X155048634Y-106997840D02*
X155048634Y-107997840D01*
X155548634Y-108497840D02*
X155048634Y-107997840D01*
X158548634Y-103997840D02*
X156048634Y-103997840D01*
X158548634Y-108497840D02*
X155548634Y-108497840D01*
X159048634Y-104497840D02*
X158548634Y-103997840D01*
X159048634Y-107997840D02*
X158548634Y-108497840D01*
X154548634Y-106497840D02*
G75*
G02*
X155048634Y-106997840I0J-500000D01*
G01*
X156048634Y-103997840D02*
G75*
G02*
X154548634Y-102497840I0J1500000D01*
G01*
X169048634Y-83797840D02*
X169048634Y-84297840D01*
X169048634Y-87897840D02*
X169048634Y-88497840D01*
X169048634Y-88497840D02*
X173548634Y-88497840D01*
X173548634Y-83797840D02*
X169048634Y-83797840D01*
X173548634Y-84497840D02*
X173548634Y-83797840D01*
X174048634Y-88997840D02*
X174048634Y-89997840D01*
X174548634Y-90497840D02*
X174048634Y-89997840D01*
X177548634Y-85997840D02*
X175048634Y-85997840D01*
X177548634Y-90497840D02*
X174548634Y-90497840D01*
X178048634Y-86497840D02*
X177548634Y-85997840D01*
X178048634Y-89997840D02*
X177548634Y-90497840D01*
X173548634Y-88497840D02*
G75*
G02*
X174048634Y-88997840I0J-500000D01*
G01*
X175048634Y-85997840D02*
G75*
G02*
X173548634Y-84497840I0J1500000D01*
G01*
X73563629Y-108389384D02*
X73607207Y-108887482D01*
X73920967Y-112473783D02*
X73973261Y-113071499D01*
X73973261Y-113071499D02*
X78456137Y-112679298D01*
X78046505Y-107997183D02*
X73563629Y-108389384D01*
X78107514Y-108694520D02*
X78046505Y-107997183D01*
X78997812Y-113133818D02*
X79084968Y-114130013D01*
X79626643Y-114584532D02*
X79084968Y-114130013D01*
X82223026Y-109840189D02*
X79732540Y-110058078D01*
X82615227Y-114323065D02*
X79626643Y-114584532D01*
X82764704Y-110294708D02*
X82223026Y-109840189D01*
X83069747Y-113781390D02*
X82615227Y-114323065D01*
X78456137Y-112679298D02*
G75*
G02*
X78997813Y-113133818I43578J-498098D01*
G01*
X79732540Y-110058078D02*
G75*
G02*
X78107514Y-108694520I-130734J1494292D01*
G01*
X169048634Y-101797840D02*
X169048634Y-102297840D01*
X169048634Y-105897840D02*
X169048634Y-106497840D01*
X169048634Y-106497840D02*
X173548634Y-106497840D01*
X173548634Y-101797840D02*
X169048634Y-101797840D01*
X173548634Y-102497840D02*
X173548634Y-101797840D01*
X174048634Y-106997840D02*
X174048634Y-107997840D01*
X174548634Y-108497840D02*
X174048634Y-107997840D01*
X177548634Y-103997840D02*
X175048634Y-103997840D01*
X177548634Y-108497840D02*
X174548634Y-108497840D01*
X178048634Y-104497840D02*
X177548634Y-103997840D01*
X178048634Y-107997840D02*
X177548634Y-108497840D01*
X173548634Y-106497840D02*
G75*
G02*
X174048634Y-106997840I0J-500000D01*
G01*
X175048634Y-103997840D02*
G75*
G02*
X173548634Y-102497840I0J1500000D01*
G01*
X112048634Y-48297840D02*
X112048634Y-48797840D01*
X112048634Y-52397840D02*
X112048634Y-52997840D01*
X112048634Y-52997840D02*
X116548634Y-52997840D01*
X116548634Y-48297840D02*
X112048634Y-48297840D01*
X116548634Y-48997840D02*
X116548634Y-48297840D01*
X117048634Y-53497840D02*
X117048634Y-54497840D01*
X117548634Y-54997840D02*
X117048634Y-54497840D01*
X120548634Y-50497840D02*
X118048634Y-50497840D01*
X120548634Y-54997840D02*
X117548634Y-54997840D01*
X121048634Y-50997840D02*
X120548634Y-50497840D01*
X121048634Y-54497840D02*
X120548634Y-54997840D01*
X116548634Y-52997840D02*
G75*
G02*
X117048634Y-53497840I0J-500000D01*
G01*
X118048634Y-50497840D02*
G75*
G02*
X116548634Y-48997840I0J1500000D01*
G01*
X169048634Y-47797840D02*
X169048634Y-48297840D01*
X169048634Y-51897840D02*
X169048634Y-52497840D01*
X169048634Y-52497840D02*
X173548634Y-52497840D01*
X173548634Y-47797840D02*
X169048634Y-47797840D01*
X173548634Y-48497840D02*
X173548634Y-47797840D01*
X174048634Y-52997840D02*
X174048634Y-53997840D01*
X174548634Y-54497840D02*
X174048634Y-53997840D01*
X177548634Y-49997840D02*
X175048634Y-49997840D01*
X177548634Y-54497840D02*
X174548634Y-54497840D01*
X178048634Y-50497840D02*
X177548634Y-49997840D01*
X178048634Y-53997840D02*
X177548634Y-54497840D01*
X173548634Y-52497840D02*
G75*
G02*
X174048634Y-52997840I0J-500000D01*
G01*
X175048634Y-49997840D02*
G75*
G02*
X173548634Y-48497840I0J1500000D01*
G01*
X88499596Y-61107707D02*
X88543174Y-61605805D01*
X88856934Y-65192106D02*
X88909228Y-65789822D01*
X88909228Y-65789822D02*
X93392104Y-65397621D01*
X92982472Y-60715506D02*
X88499596Y-61107707D01*
X93043481Y-61412843D02*
X92982472Y-60715506D01*
X93933779Y-65852141D02*
X94020935Y-66848336D01*
X94562610Y-67302855D02*
X94020935Y-66848336D01*
X97158993Y-62558512D02*
X94668507Y-62776401D01*
X97551194Y-67041388D02*
X94562610Y-67302855D01*
X97700671Y-63013031D02*
X97158993Y-62558512D01*
X98005714Y-66499713D02*
X97551194Y-67041388D01*
X93392104Y-65397621D02*
G75*
G02*
X93933780Y-65852141I43578J-498098D01*
G01*
X94668507Y-62776401D02*
G75*
G02*
X93043481Y-61412843I-130734J1494292D01*
G01*
X131048634Y-43297840D02*
X131048634Y-43797840D01*
X131048634Y-47397840D02*
X131048634Y-47997840D01*
X131048634Y-47997840D02*
X135548634Y-47997840D01*
X135548634Y-43297840D02*
X131048634Y-43297840D01*
X135548634Y-43997840D02*
X135548634Y-43297840D01*
X136048634Y-48497840D02*
X136048634Y-49497840D01*
X136548634Y-49997840D02*
X136048634Y-49497840D01*
X139548634Y-45497840D02*
X137048634Y-45497840D01*
X139548634Y-49997840D02*
X136548634Y-49997840D01*
X140048634Y-45997840D02*
X139548634Y-45497840D01*
X140048634Y-49497840D02*
X139548634Y-49997840D01*
X135548634Y-47997840D02*
G75*
G02*
X136048634Y-48497840I0J-500000D01*
G01*
X137048634Y-45497840D02*
G75*
G02*
X135548634Y-43997840I0J1500000D01*
G01*
X204864119Y-140665967D02*
X208311319Y-143558512D01*
X205249791Y-140206341D02*
X204864119Y-140665967D01*
X207791788Y-145733388D02*
X207730160Y-145028972D01*
X207885220Y-137065558D02*
X207563827Y-137448581D01*
X208372947Y-144262928D02*
X207730160Y-145028972D01*
X210089921Y-147661751D02*
X207791788Y-145733388D01*
X210794337Y-147600122D02*
X210089921Y-147661751D01*
X210882469Y-140494334D02*
X211332420Y-139958103D01*
X211332420Y-139958103D02*
X207885220Y-137065558D01*
X212982466Y-144214551D02*
X211067354Y-142607582D01*
X213044094Y-144918967D02*
X212982466Y-144214551D01*
X208311319Y-143558512D02*
G75*
G02*
X208372947Y-144262928I-321394J-383022D01*
G01*
X211067354Y-142607582D02*
G75*
G02*
X210882469Y-140494334I964182J1149067D01*
G01*
X112048634Y-66297840D02*
X112048634Y-66797840D01*
X112048634Y-70397840D02*
X112048634Y-70997840D01*
X112048634Y-70997840D02*
X116548634Y-70997840D01*
X116548634Y-66297840D02*
X112048634Y-66297840D01*
X116548634Y-66997840D02*
X116548634Y-66297840D01*
X117048634Y-71497840D02*
X117048634Y-72497840D01*
X117548634Y-72997840D02*
X117048634Y-72497840D01*
X120548634Y-68497840D02*
X118048634Y-68497840D01*
X120548634Y-72997840D02*
X117548634Y-72997840D01*
X121048634Y-68997840D02*
X120548634Y-68497840D01*
X121048634Y-72497840D02*
X120548634Y-72997840D01*
X116548634Y-70997840D02*
G75*
G02*
X117048634Y-71497840I0J-500000D01*
G01*
X118048634Y-68497840D02*
G75*
G02*
X116548634Y-66997840I0J1500000D01*
G01*
X150048634Y-47797840D02*
X150048634Y-48297840D01*
X150048634Y-51897840D02*
X150048634Y-52497840D01*
X150048634Y-52497840D02*
X154548634Y-52497840D01*
X154548634Y-47797840D02*
X150048634Y-47797840D01*
X154548634Y-48497840D02*
X154548634Y-47797840D01*
X155048634Y-52997840D02*
X155048634Y-53997840D01*
X155548634Y-54497840D02*
X155048634Y-53997840D01*
X158548634Y-49997840D02*
X156048634Y-49997840D01*
X158548634Y-54497840D02*
X155548634Y-54497840D01*
X159048634Y-50497840D02*
X158548634Y-49997840D01*
X159048634Y-53997840D02*
X158548634Y-54497840D01*
X154548634Y-52497840D02*
G75*
G02*
X155048634Y-52997840I0J-500000D01*
G01*
X156048634Y-49997840D02*
G75*
G02*
X154548634Y-48497840I0J1500000D01*
G01*
X148048634Y-127297840D02*
X148048634Y-127797840D01*
X148048634Y-131397840D02*
X148048634Y-131997840D01*
X148048634Y-131997840D02*
X152548634Y-131997840D01*
X152548634Y-127297840D02*
X148048634Y-127297840D01*
X152548634Y-127997840D02*
X152548634Y-127297840D01*
X153048634Y-132497840D02*
X153048634Y-133497840D01*
X153548634Y-133997840D02*
X153048634Y-133497840D01*
X156548634Y-129497840D02*
X154048634Y-129497840D01*
X156548634Y-133997840D02*
X153548634Y-133997840D01*
X157048634Y-129997840D02*
X156548634Y-129497840D01*
X157048634Y-133497840D02*
X156548634Y-133997840D01*
X152548634Y-131997840D02*
G75*
G02*
X153048634Y-132497840I0J-500000D01*
G01*
X154048634Y-129497840D02*
G75*
G02*
X152548634Y-127997840I0J1500000D01*
G01*
X167048634Y-127297840D02*
X167048634Y-127797840D01*
X167048634Y-131397840D02*
X167048634Y-131997840D01*
X167048634Y-131997840D02*
X171548634Y-131997840D01*
X171548634Y-127297840D02*
X167048634Y-127297840D01*
X171548634Y-127997840D02*
X171548634Y-127297840D01*
X172048634Y-132497840D02*
X172048634Y-133497840D01*
X172548634Y-133997840D02*
X172048634Y-133497840D01*
X175548634Y-129497840D02*
X173048634Y-129497840D01*
X175548634Y-133997840D02*
X172548634Y-133997840D01*
X176048634Y-129997840D02*
X175548634Y-129497840D01*
X176048634Y-133497840D02*
X175548634Y-133997840D01*
X171548634Y-131997840D02*
G75*
G02*
X172048634Y-132497840I0J-500000D01*
G01*
X173048634Y-129497840D02*
G75*
G02*
X171548634Y-127997840I0J1500000D01*
G01*
X90068399Y-79039212D02*
X90111977Y-79537310D01*
X90425737Y-83123611D02*
X90478031Y-83721327D01*
X90478031Y-83721327D02*
X94960907Y-83329126D01*
X94551275Y-78647011D02*
X90068399Y-79039212D01*
X94612284Y-79344348D02*
X94551275Y-78647011D01*
X95502582Y-83783646D02*
X95589738Y-84779841D01*
X96131413Y-85234360D02*
X95589738Y-84779841D01*
X98727796Y-80490017D02*
X96237310Y-80707906D01*
X99119997Y-84972893D02*
X96131413Y-85234360D01*
X99269474Y-80944536D02*
X98727796Y-80490017D01*
X99574517Y-84431218D02*
X99119997Y-84972893D01*
X94960907Y-83329126D02*
G75*
G02*
X95502583Y-83783646I43578J-498098D01*
G01*
X96237310Y-80707906D02*
G75*
G02*
X94612284Y-79344348I-130734J1494292D01*
G01*
X186720589Y-132997958D02*
X190949206Y-134537049D01*
X186925801Y-132434143D02*
X186720589Y-132997958D01*
X188328083Y-128581403D02*
X188157073Y-129051249D01*
X191204858Y-136758454D02*
X190906022Y-136117598D01*
X191248042Y-135177905D02*
X190906022Y-136117598D01*
X192317286Y-130778278D02*
X192556700Y-130120494D01*
X192556700Y-130120494D02*
X188328083Y-128581403D01*
X194023936Y-137784515D02*
X191204858Y-136758454D01*
X194664792Y-137485678D02*
X194023936Y-137784515D01*
X195563026Y-133555898D02*
X193213795Y-132700848D01*
X195861863Y-134196754D02*
X195563026Y-133555898D01*
X190949206Y-134537049D02*
G75*
G02*
X191248041Y-135177905I-171011J-469846D01*
G01*
X193213795Y-132700848D02*
G75*
G02*
X192317286Y-130778278I513030J1409539D01*
G01*
X131048634Y-79297840D02*
X131048634Y-79797840D01*
X131048634Y-83397840D02*
X131048634Y-83997840D01*
X131048634Y-83997840D02*
X135548634Y-83997840D01*
X135548634Y-79297840D02*
X131048634Y-79297840D01*
X135548634Y-79997840D02*
X135548634Y-79297840D01*
X136048634Y-84497840D02*
X136048634Y-85497840D01*
X136548634Y-85997840D02*
X136048634Y-85497840D01*
X139548634Y-81497840D02*
X137048634Y-81497840D01*
X139548634Y-85997840D02*
X136548634Y-85997840D01*
X140048634Y-81997840D02*
X139548634Y-81497840D01*
X140048634Y-85497840D02*
X139548634Y-85997840D01*
X135548634Y-83997840D02*
G75*
G02*
X136048634Y-84497840I0J-500000D01*
G01*
X137048634Y-81497840D02*
G75*
G02*
X135548634Y-79997840I0J1500000D01*
G01*
X91637202Y-96970717D02*
X91680780Y-97468815D01*
X91994540Y-101055116D02*
X92046834Y-101652832D01*
X92046834Y-101652832D02*
X96529710Y-101260631D01*
X96120078Y-96578516D02*
X91637202Y-96970717D01*
X96181087Y-97275853D02*
X96120078Y-96578516D01*
X97071385Y-101715151D02*
X97158541Y-102711346D01*
X97700216Y-103165865D02*
X97158541Y-102711346D01*
X100296599Y-98421522D02*
X97806113Y-98639411D01*
X100688800Y-102904398D02*
X97700216Y-103165865D01*
X100838277Y-98876041D02*
X100296599Y-98421522D01*
X101143320Y-102362723D02*
X100688800Y-102904398D01*
X96529710Y-101260631D02*
G75*
G02*
X97071386Y-101715151I43578J-498098D01*
G01*
X97806113Y-98639411D02*
G75*
G02*
X96181087Y-97275853I-130734J1494292D01*
G01*
X150048634Y-83797840D02*
X150048634Y-84297840D01*
X150048634Y-87897840D02*
X150048634Y-88497840D01*
X150048634Y-88497840D02*
X154548634Y-88497840D01*
X154548634Y-83797840D02*
X150048634Y-83797840D01*
X154548634Y-84497840D02*
X154548634Y-83797840D01*
X155048634Y-88997840D02*
X155048634Y-89997840D01*
X155548634Y-90497840D02*
X155048634Y-89997840D01*
X158548634Y-85997840D02*
X156048634Y-85997840D01*
X158548634Y-90497840D02*
X155548634Y-90497840D01*
X159048634Y-86497840D02*
X158548634Y-85997840D01*
X159048634Y-89997840D02*
X158548634Y-90497840D01*
X154548634Y-88497840D02*
G75*
G02*
X155048634Y-88997840I0J-500000D01*
G01*
X156048634Y-85997840D02*
G75*
G02*
X154548634Y-84497840I0J1500000D01*
G01*
X93206005Y-114902222D02*
X93249583Y-115400320D01*
X93563343Y-118986621D02*
X93615637Y-119584337D01*
X93615637Y-119584337D02*
X98098513Y-119192136D01*
X97688881Y-114510021D02*
X93206005Y-114902222D01*
X97749890Y-115207358D02*
X97688881Y-114510021D01*
X98640188Y-119646656D02*
X98727344Y-120642851D01*
X99269019Y-121097370D02*
X98727344Y-120642851D01*
X101865402Y-116353027D02*
X99374916Y-116570916D01*
X102257603Y-120835903D02*
X99269019Y-121097370D01*
X102407080Y-116807546D02*
X101865402Y-116353027D01*
X102712123Y-120294228D02*
X102257603Y-120835903D01*
X98098513Y-119192136D02*
G75*
G02*
X98640189Y-119646656I43578J-498098D01*
G01*
X99374916Y-116570916D02*
G75*
G02*
X97749890Y-115207358I-130734J1494292D01*
G01*
X169048634Y-65797840D02*
X169048634Y-66297840D01*
X169048634Y-69897840D02*
X169048634Y-70497840D01*
X169048634Y-70497840D02*
X173548634Y-70497840D01*
X173548634Y-65797840D02*
X169048634Y-65797840D01*
X173548634Y-66497840D02*
X173548634Y-65797840D01*
X174048634Y-70997840D02*
X174048634Y-71997840D01*
X174548634Y-72497840D02*
X174048634Y-71997840D01*
X177548634Y-67997840D02*
X175048634Y-67997840D01*
X177548634Y-72497840D02*
X174548634Y-72497840D01*
X178048634Y-68497840D02*
X177548634Y-67997840D01*
X178048634Y-71997840D02*
X177548634Y-72497840D01*
X173548634Y-70497840D02*
G75*
G02*
X174048634Y-70997840I0J-500000D01*
G01*
X175048634Y-67997840D02*
G75*
G02*
X173548634Y-66497840I0J1500000D01*
G01*
X131048634Y-97297840D02*
X131048634Y-97797840D01*
X131048634Y-101397840D02*
X131048634Y-101997840D01*
X131048634Y-101997840D02*
X135548634Y-101997840D01*
X135548634Y-97297840D02*
X131048634Y-97297840D01*
X135548634Y-97997840D02*
X135548634Y-97297840D01*
X136048634Y-102497840D02*
X136048634Y-103497840D01*
X136548634Y-103997840D02*
X136048634Y-103497840D01*
X139548634Y-99497840D02*
X137048634Y-99497840D01*
X139548634Y-103997840D02*
X136548634Y-103997840D01*
X140048634Y-99997840D02*
X139548634Y-99497840D01*
X140048634Y-103497840D02*
X139548634Y-103997840D01*
X135548634Y-101997840D02*
G75*
G02*
X136048634Y-102497840I0J-500000D01*
G01*
X137048634Y-99497840D02*
G75*
G02*
X135548634Y-97997840I0J1500000D01*
G01*
X131048634Y-61297840D02*
X131048634Y-61797840D01*
X131048634Y-65397840D02*
X131048634Y-65997840D01*
X131048634Y-65997840D02*
X135548634Y-65997840D01*
X135548634Y-61297840D02*
X131048634Y-61297840D01*
X135548634Y-61997840D02*
X135548634Y-61297840D01*
X136048634Y-66497840D02*
X136048634Y-67497840D01*
X136548634Y-67997840D02*
X136048634Y-67497840D01*
X139548634Y-63497840D02*
X137048634Y-63497840D01*
X139548634Y-67997840D02*
X136548634Y-67997840D01*
X140048634Y-63997840D02*
X139548634Y-63497840D01*
X140048634Y-67497840D02*
X139548634Y-67997840D01*
X135548634Y-65997840D02*
G75*
G02*
X136048634Y-66497840I0J-500000D01*
G01*
X137048634Y-63497840D02*
G75*
G02*
X135548634Y-61997840I0J1500000D01*
G01*
D12*
X129019067Y-67065578D02*
X129019067Y-71075578D01*
X129019067Y-71075578D02*
X131019067Y-71075578D01*
X131019067Y-67065578D02*
X131019067Y-71075578D01*
D11*
X178048634Y-121497840D02*
X178048634Y-122497840D01*
X178048634Y-122497840D02*
X177048634Y-122497840D01*
X75889829Y-100556837D02*
X76886024Y-100469681D01*
X75976985Y-101553032D02*
X75889829Y-100556837D01*
X172048634Y-94197840D02*
X173048634Y-94197840D01*
X172048634Y-95197840D02*
X172048634Y-94197840D01*
X115048634Y-58697840D02*
X116048634Y-58697840D01*
X115048634Y-59697840D02*
X115048634Y-58697840D01*
X142048634Y-73497840D02*
X142048634Y-74497840D01*
X142048634Y-74497840D02*
X141048634Y-74497840D01*
X142048634Y-37497840D02*
X142048634Y-38497840D01*
X142048634Y-38497840D02*
X141048634Y-38497840D01*
D12*
X148019067Y-107565578D02*
X148019067Y-111575578D01*
X148019067Y-111575578D02*
X150019067Y-111575578D01*
X150019067Y-107565578D02*
X150019067Y-111575578D01*
D11*
X153048634Y-94197840D02*
X154048634Y-94197840D01*
X153048634Y-95197840D02*
X153048634Y-94197840D01*
D12*
X169671848Y-76158600D02*
X170194352Y-76158600D01*
X169671848Y-77628600D02*
X170194352Y-77628600D01*
X129019067Y-49065578D02*
X129019067Y-53075578D01*
X129019067Y-53075578D02*
X131019067Y-53075578D01*
X131019067Y-49065578D02*
X131019067Y-53075578D01*
D11*
X92394599Y-71206665D02*
X93390794Y-71119510D01*
X92481755Y-72202860D02*
X92394599Y-71206665D01*
X96623123Y-39823603D02*
X97623123Y-39823603D01*
X97623123Y-39823603D02*
X97623123Y-40823603D01*
D12*
X145402802Y-126497605D02*
X145402802Y-122487605D01*
X147402802Y-122487605D02*
X145402802Y-122487605D01*
X147402802Y-126497605D02*
X147402802Y-122487605D01*
D11*
X115048634Y-94697840D02*
X116048634Y-94697840D01*
X115048634Y-95697840D02*
X115048634Y-94697840D01*
D12*
X90118049Y-102893393D02*
X90467544Y-106888136D01*
X90467544Y-106888136D02*
X92459933Y-106713825D01*
X92110439Y-102719084D02*
X92459933Y-106713825D01*
X110019067Y-54065578D02*
X110019067Y-58075578D01*
X110019067Y-58075578D02*
X112019067Y-58075578D01*
X112019067Y-54065578D02*
X112019067Y-58075578D01*
D11*
X98952234Y-54371065D02*
X99039390Y-55367260D01*
X99039390Y-55367260D02*
X98043195Y-55454416D01*
X134048634Y-89697840D02*
X135048634Y-89697840D01*
X134048634Y-90697840D02*
X134048634Y-89697840D01*
D12*
X91686852Y-120824898D02*
X92036347Y-124819641D01*
X92036347Y-124819641D02*
X94028736Y-124645330D01*
X93679242Y-120650589D02*
X94028736Y-124645330D01*
X110019067Y-90065578D02*
X110019067Y-94075578D01*
X110019067Y-94075578D02*
X112019067Y-94075578D01*
X112019067Y-90065578D02*
X112019067Y-94075578D01*
D11*
X172048634Y-58197840D02*
X173048634Y-58197840D01*
X172048634Y-59197840D02*
X172048634Y-58197840D01*
X200306399Y-127833100D02*
X199366707Y-127491080D01*
X200648419Y-126893409D02*
X200306399Y-127833100D01*
X123048634Y-42497840D02*
X123048634Y-43497840D01*
X123048634Y-43497840D02*
X122048634Y-43497840D01*
X180048634Y-77997840D02*
X180048634Y-78997840D01*
X180048634Y-78997840D02*
X179048634Y-78997840D01*
D12*
X103942802Y-124917605D02*
X106832802Y-124917605D01*
X105232802Y-122617605D02*
X109482802Y-122617605D01*
X105232802Y-123637605D02*
X105232802Y-122617605D01*
X105232802Y-129717605D02*
X105232802Y-130737605D01*
X105232802Y-130737605D02*
X109482802Y-130737605D01*
X106832802Y-123637605D02*
X105232802Y-123637605D01*
X106832802Y-124917605D02*
X106832802Y-123637605D01*
X106832802Y-128437605D02*
X106832802Y-129717605D01*
X106832802Y-129717605D02*
X105232802Y-129717605D01*
X113052802Y-129017605D02*
X113052802Y-124337605D01*
X167019067Y-89565578D02*
X167019067Y-93575578D01*
X167019067Y-93575578D02*
X169019067Y-93575578D01*
X169019067Y-89565578D02*
X169019067Y-93575578D01*
X88549246Y-84961888D02*
X88898741Y-88956631D01*
X88898741Y-88956631D02*
X90891130Y-88782320D01*
X90541636Y-84787579D02*
X90891130Y-88782320D01*
X103099298Y-71768627D02*
X102578783Y-71814169D01*
X103227417Y-73233031D02*
X102706902Y-73278573D01*
X86980443Y-67030383D02*
X87329938Y-71025126D01*
X87329938Y-71025126D02*
X89322327Y-70850815D01*
X88972833Y-66856074D02*
X89322327Y-70850815D01*
D11*
X102089840Y-90234075D02*
X102176996Y-91230270D01*
X102176996Y-91230270D02*
X101180801Y-91317425D01*
X161048634Y-41997840D02*
X161048634Y-42997840D01*
X161048634Y-42997840D02*
X160048634Y-42997840D01*
D12*
X129019067Y-103065578D02*
X129019067Y-107075578D01*
X129019067Y-107075578D02*
X131019067Y-107075578D01*
X131019067Y-103065578D02*
X131019067Y-107075578D01*
X168261550Y-42338600D02*
X168784054Y-42338600D01*
X168261550Y-43808600D02*
X168784054Y-43808600D01*
X148019067Y-89565578D02*
X148019067Y-93575578D01*
X148019067Y-93575578D02*
X150019067Y-93575578D01*
X150019067Y-89565578D02*
X150019067Y-93575578D01*
D11*
X159048634Y-121497840D02*
X159048634Y-122497840D01*
X159048634Y-122497840D02*
X158048634Y-122497840D01*
D12*
X167019067Y-107565578D02*
X167019067Y-111575578D01*
X167019067Y-111575578D02*
X169019067Y-111575578D01*
X169019067Y-107565578D02*
X169019067Y-111575578D01*
X110019067Y-108065578D02*
X110019067Y-112075578D01*
X110019067Y-112075578D02*
X112019067Y-112075578D01*
X112019067Y-108065578D02*
X112019067Y-112075578D01*
D11*
X191341800Y-110654900D02*
X191341800Y-110074900D01*
X191341800Y-112894900D02*
X191341800Y-113474900D01*
X191341800Y-113474900D02*
X195741800Y-113474900D01*
X195741800Y-110074900D02*
X191341800Y-110074900D01*
X195741800Y-110654900D02*
X195741800Y-110074900D01*
X195741800Y-112894900D02*
X195741800Y-113474900D01*
X194441800Y-111774900D02*
G75*
G02*
X192641800Y-111774900I-900000J0D01*
G01*
X192641800Y-111774900D02*
G75*
G02*
X194441800Y-111774900I900000J0D01*
G01*
X180048634Y-41997840D02*
X180048634Y-42997840D01*
X180048634Y-42997840D02*
X179048634Y-42997840D01*
X219397090Y-140459209D02*
X218631046Y-139816421D01*
X220039878Y-139693164D02*
X219397090Y-140459209D01*
X101623123Y-39823603D02*
X102623123Y-39823603D01*
X102623123Y-39823603D02*
X102623123Y-40823603D01*
D12*
X185978776Y-126526078D02*
X187350277Y-122757910D01*
X187858161Y-127210118D02*
X189229662Y-123441951D01*
X189229662Y-123441951D02*
X187350277Y-122757910D01*
X168261550Y-40138600D02*
X168784054Y-40138600D01*
X168261550Y-41608600D02*
X168784054Y-41608600D01*
D11*
X153048634Y-58197840D02*
X154048634Y-58197840D01*
X153048634Y-59197840D02*
X153048634Y-58197840D01*
D12*
X206055558Y-133942764D02*
X208633136Y-130870926D01*
X207587647Y-135228339D02*
X210165225Y-132156501D01*
X210165225Y-132156501D02*
X208633136Y-130870926D01*
X129019067Y-85065578D02*
X129019067Y-89075578D01*
X129019067Y-89075578D02*
X131019067Y-89075578D01*
X131019067Y-85065578D02*
X131019067Y-89075578D01*
X148019067Y-53565578D02*
X148019067Y-57575578D01*
X148019067Y-57575578D02*
X150019067Y-57575578D01*
X150019067Y-53565578D02*
X150019067Y-57575578D01*
X110019067Y-72065578D02*
X110019067Y-76075578D01*
X110019067Y-76075578D02*
X112019067Y-76075578D01*
X112019067Y-72065578D02*
X112019067Y-76075578D01*
D11*
X161048634Y-77997840D02*
X161048634Y-78997840D01*
X161048634Y-78997840D02*
X160048634Y-78997840D01*
D12*
X148019067Y-71565578D02*
X148019067Y-75575578D01*
X148019067Y-75575578D02*
X150019067Y-75575578D01*
X150019067Y-71565578D02*
X150019067Y-75575578D01*
X86064352Y-101105802D02*
X85541848Y-101105802D01*
X86064352Y-102575802D02*
X85541848Y-102575802D01*
D11*
X123048634Y-78497840D02*
X123048634Y-79497840D01*
X123048634Y-79497840D02*
X122048634Y-79497840D01*
X106623123Y-39823603D02*
X107623123Y-39823603D01*
X107623123Y-39823603D02*
X107623123Y-40823603D01*
D12*
X167019067Y-71565578D02*
X167019067Y-75575578D01*
X167019067Y-75575578D02*
X169019067Y-75575578D01*
X169019067Y-71565578D02*
X169019067Y-75575578D01*
D11*
X95532205Y-107069675D02*
X96528400Y-106982520D01*
X95619361Y-108065870D02*
X95532205Y-107069675D01*
D12*
X164404778Y-126497605D02*
X164404778Y-122487605D01*
X166404778Y-122487605D02*
X164404778Y-122487605D01*
X166404778Y-126497605D02*
X166404778Y-122487605D01*
X167019067Y-53565578D02*
X167019067Y-57575578D01*
X167019067Y-57575578D02*
X169019067Y-57575578D01*
X169019067Y-53565578D02*
X169019067Y-57575578D01*
X80224969Y-115686576D02*
X80574464Y-119681319D01*
X80574464Y-119681319D02*
X82566853Y-119507008D01*
X82217359Y-115512267D02*
X82566853Y-119507008D01*
X182314352Y-95588600D02*
X181791848Y-95588600D01*
X182314352Y-97058600D02*
X181791848Y-97058600D01*
D11*
X134048634Y-53697840D02*
X135048634Y-53697840D01*
X134048634Y-54697840D02*
X134048634Y-53697840D01*
%LPC*%
D13*
X162548634Y-64297840D03*
D14*
X157048634Y-70247840D03*
D15*
X157048634Y-64297840D03*
D14*
X152048634Y-68047840D03*
D13*
X151548634Y-64297840D03*
D16*
X160323634Y-70247840D03*
X148773634Y-68047840D03*
D17*
X81203100Y-42323600D03*
X211541800Y-41774900D03*
D13*
X124548634Y-100797840D03*
D14*
X119048634Y-106747840D03*
D15*
X119048634Y-100797840D03*
D14*
X114048634Y-104547840D03*
D13*
X113548634Y-100797840D03*
D16*
X122323634Y-106747840D03*
X110773634Y-104547840D03*
D13*
X124548634Y-82797840D03*
D14*
X119048634Y-88747840D03*
D15*
X119048634Y-82797840D03*
D14*
X114048634Y-86547840D03*
D13*
X113548634Y-82797840D03*
D16*
X122323634Y-88747840D03*
X110773634Y-86547840D03*
D13*
X162548634Y-100297840D03*
D14*
X157048634Y-106247840D03*
D15*
X157048634Y-100297840D03*
D14*
X152048634Y-104047840D03*
D13*
X151548634Y-100297840D03*
D16*
X160323634Y-106247840D03*
X148773634Y-104047840D03*
D18*
X200630000Y-102034193D03*
D19*
X198630000Y-102034193D03*
X196630000Y-102034193D03*
X194630000Y-102034193D03*
D13*
X181548634Y-82297840D03*
D14*
X176048634Y-88247840D03*
D15*
X176048634Y-82297840D03*
D14*
X171048634Y-86047840D03*
D13*
X170548634Y-82297840D03*
D16*
X179323634Y-88247840D03*
X167773634Y-86047840D03*
D20*
X99892802Y-129527605D03*
D13*
X85885329Y-105805645D03*
D14*
X80924835Y-112212360D03*
D15*
X80406258Y-106285002D03*
D14*
X75752119Y-110456511D03*
D13*
X74927187Y-106764359D03*
D21*
X84187372Y-111926925D03*
X72489581Y-110741946D03*
D17*
X81203100Y-128293600D03*
X211541800Y-111774900D03*
D13*
X181548634Y-100297840D03*
D14*
X176048634Y-106247840D03*
D15*
X176048634Y-100297840D03*
D14*
X171048634Y-104047840D03*
D13*
X170548634Y-100297840D03*
D16*
X179323634Y-106247840D03*
X167773634Y-104047840D03*
D13*
X124548634Y-46797840D03*
D14*
X119048634Y-52747840D03*
D15*
X119048634Y-46797840D03*
D14*
X114048634Y-50547840D03*
D13*
X113548634Y-46797840D03*
D16*
X122323634Y-52747840D03*
X110773634Y-50547840D03*
D13*
X181548634Y-46297840D03*
D14*
X176048634Y-52247840D03*
D15*
X176048634Y-46297840D03*
D14*
X171048634Y-50047840D03*
D13*
X170548634Y-46297840D03*
D16*
X179323634Y-52247840D03*
X167773634Y-50047840D03*
D13*
X100821296Y-58523968D03*
D14*
X95860802Y-64930683D03*
D15*
X95342225Y-59003325D03*
D14*
X90688086Y-63174834D03*
D13*
X89863154Y-59482682D03*
D21*
X99123339Y-64645248D03*
X87425548Y-63460269D03*
D13*
X143548634Y-41797840D03*
D14*
X138048634Y-47747840D03*
D15*
X138048634Y-41797840D03*
D14*
X133048634Y-45547840D03*
D13*
X132548634Y-41797840D03*
D16*
X141323634Y-47747840D03*
X129773634Y-45547840D03*
D13*
X218424957Y-143951337D03*
D14*
X210387127Y-144973969D03*
D15*
X214211713Y-140416005D03*
D14*
X207971037Y-140074734D03*
D13*
X209998469Y-136880673D03*
D22*
X212895922Y-147079099D03*
X205462242Y-137969604D03*
D13*
X124548634Y-64797840D03*
D14*
X119048634Y-70747840D03*
D15*
X119048634Y-64797840D03*
D14*
X114048634Y-68547840D03*
D13*
X113548634Y-64797840D03*
D16*
X122323634Y-70747840D03*
X110773634Y-68547840D03*
D13*
X162548634Y-46297840D03*
D14*
X157048634Y-52247840D03*
D15*
X157048634Y-46297840D03*
D14*
X152048634Y-50047840D03*
D13*
X151548634Y-46297840D03*
D16*
X160323634Y-52247840D03*
X148773634Y-50047840D03*
D20*
X99892802Y-124977605D03*
D13*
X160548634Y-125797840D03*
D14*
X155048634Y-131747840D03*
D15*
X155048634Y-125797840D03*
D14*
X150048634Y-129547840D03*
D13*
X149548634Y-125797840D03*
D16*
X158323634Y-131747840D03*
X146773634Y-129547840D03*
D13*
X179548634Y-125797840D03*
D14*
X174048634Y-131747840D03*
D15*
X174048634Y-125797840D03*
D14*
X169048634Y-129547840D03*
D13*
X168548634Y-125797840D03*
D16*
X177323634Y-131747840D03*
X165773634Y-129547840D03*
D13*
X102390099Y-76455473D03*
D14*
X97429605Y-82862188D03*
D15*
X96911028Y-76934830D03*
D14*
X92256889Y-81106339D03*
D13*
X91431957Y-77414187D03*
D21*
X100692142Y-82576753D03*
X88994351Y-81391774D03*
D13*
X200587271Y-131447116D03*
D14*
X193383942Y-135157176D03*
D15*
X195418962Y-129566005D03*
D14*
X189437923Y-131379752D03*
D13*
X190250653Y-127684894D03*
D23*
X196461435Y-136277292D03*
X186360430Y-130259636D03*
D13*
X143548634Y-77797840D03*
D14*
X138048634Y-83747840D03*
D15*
X138048634Y-77797840D03*
D14*
X133048634Y-81547840D03*
D13*
X132548634Y-77797840D03*
D16*
X141323634Y-83747840D03*
X129773634Y-81547840D03*
D13*
X103958902Y-94386978D03*
D14*
X98998408Y-100793693D03*
D15*
X98479831Y-94866335D03*
D14*
X93825692Y-99037844D03*
D13*
X93000760Y-95345692D03*
D21*
X102260945Y-100508258D03*
X90563154Y-99323279D03*
D13*
X162548634Y-82297840D03*
D14*
X157048634Y-88247840D03*
D15*
X157048634Y-82297840D03*
D14*
X152048634Y-86047840D03*
D13*
X151548634Y-82297840D03*
D16*
X160323634Y-88247840D03*
X148773634Y-86047840D03*
D13*
X105527705Y-112318483D03*
D14*
X100567211Y-118725198D03*
D15*
X100048634Y-112797840D03*
D14*
X95394495Y-116969349D03*
D13*
X94569563Y-113277197D03*
D21*
X103829748Y-118439763D03*
X92131957Y-117254784D03*
D13*
X181548634Y-64297840D03*
D14*
X176048634Y-70247840D03*
D15*
X176048634Y-64297840D03*
D14*
X171048634Y-68047840D03*
D13*
X170548634Y-64297840D03*
D16*
X179323634Y-70247840D03*
X167773634Y-68047840D03*
D13*
X143548634Y-95797840D03*
D14*
X138048634Y-101747840D03*
D15*
X138048634Y-95797840D03*
D14*
X133048634Y-99547840D03*
D13*
X132548634Y-95797840D03*
D16*
X141323634Y-101747840D03*
X129773634Y-99547840D03*
D13*
X143548634Y-59797840D03*
D14*
X138048634Y-65747840D03*
D15*
X138048634Y-59797840D03*
D14*
X133048634Y-63547840D03*
D13*
X132548634Y-59797840D03*
D16*
X141323634Y-65747840D03*
X129773634Y-63547840D03*
D24*
X190003100Y-82775693D03*
D25*
X190003100Y-82775693D03*
D26*
X130019067Y-70365578D03*
X130019067Y-67065578D03*
D27*
X171248634Y-120397840D03*
X171248634Y-121797840D03*
X176848634Y-121797840D03*
X176848634Y-120397840D03*
D28*
X82846980Y-102056187D03*
X82724962Y-100661515D03*
X77146272Y-101149587D03*
X77268290Y-102544259D03*
D29*
X178848634Y-96297840D03*
X178848634Y-94897840D03*
X173248634Y-94897840D03*
X173248634Y-96297840D03*
X121848634Y-60797840D03*
X121848634Y-59397840D03*
X116248634Y-59397840D03*
X116248634Y-60797840D03*
D27*
X135248634Y-72397840D03*
X135248634Y-73797840D03*
X140848634Y-73797840D03*
X140848634Y-72397840D03*
D24*
X89203100Y-128293600D03*
D25*
X89203100Y-128293600D03*
D27*
X135248634Y-36397840D03*
X135248634Y-37797840D03*
X140848634Y-37797840D03*
X140848634Y-36397840D03*
D26*
X149019067Y-110865578D03*
X149019067Y-107565578D03*
D29*
X159848634Y-96297840D03*
X159848634Y-94897840D03*
X154248634Y-94897840D03*
X154248634Y-96297840D03*
D30*
X170883100Y-76893600D03*
X168983100Y-76893600D03*
D26*
X130019067Y-52365578D03*
X130019067Y-49065578D03*
D28*
X99351750Y-72706015D03*
X99229732Y-71311343D03*
X93651042Y-71799415D03*
X93773060Y-73194087D03*
D31*
X95523123Y-46623603D03*
X96923123Y-46623603D03*
X96923123Y-41023603D03*
X95523123Y-41023603D03*
D32*
X205250000Y-43064193D03*
D33*
X205250000Y-45604193D03*
X205250000Y-48144193D03*
X205250000Y-50684193D03*
X205250000Y-53224193D03*
X205250000Y-55764193D03*
X205250000Y-58304193D03*
X205250000Y-60844193D03*
X205250000Y-63384193D03*
X205250000Y-65924193D03*
X205250000Y-68464193D03*
X205250000Y-71004193D03*
X190010000Y-71004193D03*
X190010000Y-68464193D03*
X190010000Y-65924193D03*
X190010000Y-63384193D03*
X190010000Y-60844193D03*
X190010000Y-58304193D03*
X190010000Y-55764193D03*
X190010000Y-53224193D03*
X190010000Y-50684193D03*
X190010000Y-48144193D03*
X190010000Y-45604193D03*
X190010000Y-43064193D03*
D34*
X146402802Y-123197605D03*
X146402802Y-126497605D03*
D29*
X121848634Y-96797840D03*
X121848634Y-95397840D03*
X116248634Y-95397840D03*
X116248634Y-96797840D03*
D35*
X91401858Y-106093682D03*
X91114244Y-102806240D03*
D26*
X111019067Y-57365578D03*
X111019067Y-54065578D03*
D36*
X92082239Y-53867910D03*
X92204257Y-55262582D03*
X97782947Y-54774510D03*
X97660929Y-53379838D03*
D29*
X140848634Y-91797840D03*
X140848634Y-90397840D03*
X135248634Y-90397840D03*
X135248634Y-91797840D03*
D35*
X92970661Y-124025187D03*
X92683047Y-120737745D03*
D26*
X111019067Y-93365578D03*
X111019067Y-90065578D03*
D24*
X205203100Y-82775693D03*
D25*
X205203100Y-82775693D03*
D29*
X178848634Y-60297840D03*
X178848634Y-58897840D03*
X173248634Y-58897840D03*
X173248634Y-60297840D03*
D37*
X194634732Y-123534009D03*
X194155904Y-124849577D03*
X199418182Y-126764891D03*
X199897010Y-125449323D03*
D27*
X116248634Y-41397840D03*
X116248634Y-42797840D03*
X121848634Y-42797840D03*
X121848634Y-41397840D03*
X173248634Y-76897840D03*
X173248634Y-78297840D03*
X178848634Y-78297840D03*
X178848634Y-76897840D03*
D38*
X105692802Y-125677605D03*
X105692802Y-127677605D03*
D39*
X111442802Y-123327605D03*
X111442802Y-130027605D03*
D26*
X168019067Y-92865578D03*
X168019067Y-89565578D03*
D35*
X89833055Y-88162177D03*
X89545441Y-84874735D03*
D40*
X101956715Y-72606398D03*
X103849485Y-72440802D03*
D35*
X88264252Y-70230672D03*
X87976638Y-66943230D03*
D24*
X203541800Y-111774900D03*
D25*
X203541800Y-111774900D03*
D36*
X95219845Y-89730920D03*
X95341863Y-91125592D03*
X100920553Y-90637520D03*
X100798535Y-89242848D03*
D27*
X154248634Y-40897840D03*
X154248634Y-42297840D03*
X159848634Y-42297840D03*
X159848634Y-40897840D03*
D26*
X130019067Y-106365578D03*
X130019067Y-103065578D03*
D30*
X169472802Y-43073600D03*
X167572802Y-43073600D03*
D26*
X149019067Y-92865578D03*
X149019067Y-89565578D03*
D27*
X152248634Y-120397840D03*
X152248634Y-121797840D03*
X157848634Y-121797840D03*
X157848634Y-120397840D03*
D26*
X168019067Y-110865578D03*
X168019067Y-107565578D03*
X111019067Y-111365578D03*
X111019067Y-108065578D03*
D41*
X195791800Y-111774900D03*
X191291800Y-111774900D03*
D27*
X173248634Y-40897840D03*
X173248634Y-42297840D03*
X178848634Y-42297840D03*
X178848634Y-40897840D03*
D42*
X215537842Y-134479560D03*
X214637939Y-135552022D03*
X218927788Y-139151632D03*
X219827691Y-138079170D03*
D31*
X100523123Y-46623603D03*
X101923123Y-46623603D03*
X101923123Y-41023603D03*
X100523123Y-41023603D03*
D43*
X188047135Y-123767112D03*
X186918469Y-126868098D03*
D30*
X169472802Y-40873600D03*
X167572802Y-40873600D03*
D29*
X159848634Y-60297840D03*
X159848634Y-58897840D03*
X154248634Y-58897840D03*
X154248634Y-60297840D03*
D44*
X208942802Y-132057605D03*
X206821602Y-134585551D03*
D26*
X130019067Y-88365578D03*
X130019067Y-85065578D03*
X149019067Y-56865578D03*
X149019067Y-53565578D03*
X111019067Y-75365578D03*
X111019067Y-72065578D03*
D27*
X154248634Y-76897840D03*
X154248634Y-78297840D03*
X159848634Y-78297840D03*
X159848634Y-76897840D03*
D26*
X149019067Y-74865578D03*
X149019067Y-71565578D03*
D24*
X211541800Y-49774900D03*
D25*
X211541800Y-49774900D03*
D45*
X84853100Y-101840802D03*
X86753100Y-101840802D03*
D27*
X116248634Y-77397840D03*
X116248634Y-78797840D03*
X121848634Y-78797840D03*
X121848634Y-77397840D03*
D31*
X105523123Y-46623603D03*
X106923123Y-46623603D03*
X106923123Y-41023603D03*
X105523123Y-41023603D03*
D26*
X168019067Y-74865578D03*
X168019067Y-71565578D03*
D28*
X102489356Y-108569025D03*
X102367338Y-107174353D03*
X96788648Y-107662425D03*
X96910666Y-109057097D03*
D24*
X89203100Y-42323600D03*
D25*
X89203100Y-42323600D03*
D34*
X165404778Y-123197605D03*
X165404778Y-126497605D03*
D26*
X168019067Y-56865578D03*
X168019067Y-53565578D03*
D35*
X81508778Y-118886865D03*
X81221164Y-115599423D03*
D45*
X181103100Y-96323600D03*
X183003100Y-96323600D03*
D29*
X140848634Y-55797840D03*
X140848634Y-54397840D03*
X135248634Y-54397840D03*
X135248634Y-55797840D03*
%LPD*%
M02*
