G04 #@! TF.GenerationSoftware,KiCad,Pcbnew,8.0.5*
G04 #@! TF.CreationDate,2024-11-21T22:09:12+01:00*
G04 #@! TF.ProjectId,stellar,7374656c-6c61-4722-9e6b-696361645f70,rev?*
G04 #@! TF.SameCoordinates,Original*
G04 #@! TF.FileFunction,Profile,NP*
%FSLAX46Y46*%
G04 Gerber Fmt 4.6, Leading zero omitted, Abs format (unit mm)*
G04 Created by KiCad (PCBNEW 8.0.5) date 2024-11-21 22:09:12*
%MOMM*%
%LPD*%
G01*
G04 APERTURE LIST*
G04 #@! TA.AperFunction,Profile*
%ADD10C,0.149999*%
G04 #@! TD*
G04 #@! TA.AperFunction,Profile*
%ADD11C,0.150000*%
G04 #@! TD*
G04 #@! TA.AperFunction,Profile*
%ADD12C,0.100000*%
G04 #@! TD*
G04 APERTURE END LIST*
D10*
X177887401Y-134777382D02*
X180711005Y-135131531D01*
X129043100Y-33823600D02*
X129043100Y-37775693D01*
D11*
X216760740Y-153017301D02*
G75*
G02*
X216071278Y-153063739I-369040J337701D01*
G01*
D10*
X147048119Y-37775693D02*
X147048119Y-33790685D01*
X68867349Y-98786920D02*
X77204478Y-98052917D01*
X194896582Y-138591716D02*
X196192400Y-139232724D01*
D11*
X68411716Y-99307785D02*
G75*
G02*
X68867349Y-98786923I499484J22785D01*
G01*
X77204478Y-40685611D02*
G75*
G02*
X80203123Y-37775696I2998612J-90049D01*
G01*
D10*
X196192400Y-139232724D02*
X197528013Y-139939559D01*
X180711005Y-135131531D02*
X183818714Y-135588230D01*
D11*
X146553100Y-134323600D02*
G75*
G02*
X146053100Y-133823600I0J500000D01*
G01*
D10*
X227013350Y-140769257D02*
X216760740Y-153017301D01*
X69804188Y-115270751D02*
X68411716Y-99307785D01*
X77203123Y-129283208D02*
X77203123Y-115125003D01*
X183818714Y-135588230D02*
X185406132Y-135855228D01*
X146053100Y-132296430D02*
X80203123Y-132296430D01*
X215541803Y-130462914D02*
X227001906Y-140041560D01*
X80203123Y-132296430D02*
X80203123Y-132293594D01*
X188502148Y-136466899D02*
X189952365Y-136811725D01*
X129043100Y-37775693D02*
X80203123Y-37775693D01*
X173456414Y-134324140D02*
X175581421Y-134525174D01*
X216071339Y-153063665D02*
X208751032Y-146957545D01*
X193662293Y-138034676D02*
X194896582Y-138591716D01*
X147048119Y-37775693D02*
X212609765Y-37775693D01*
D11*
X146549600Y-33327153D02*
G75*
G02*
X147048126Y-33790684I0J-499847D01*
G01*
D10*
X146549600Y-33327153D02*
X129602601Y-33327153D01*
X77204478Y-98052917D02*
X77204478Y-40685611D01*
D11*
X80203123Y-132293594D02*
G75*
G02*
X77203124Y-129283208I-23J2999994D01*
G01*
D10*
X186977007Y-136148092D02*
X188502148Y-136466899D01*
X197528013Y-139939559D02*
X200231676Y-141478160D01*
X191298469Y-137182647D02*
X192511269Y-137579740D01*
X189952365Y-136811725D02*
X191298469Y-137182647D01*
X146553100Y-134323600D02*
X173456414Y-134323600D01*
D11*
X129043100Y-33823600D02*
G75*
G02*
X129602601Y-33327153I500000J0D01*
G01*
X70325113Y-115726744D02*
G75*
G02*
X69804227Y-115270748I-22813J499444D01*
G01*
D10*
X175581421Y-134525174D02*
X177887401Y-134777382D01*
X205160163Y-144547201D02*
X207037216Y-145787424D01*
X215541803Y-40774923D02*
X215541803Y-130462914D01*
X192511269Y-137579740D02*
X193662293Y-138034676D01*
D11*
X212609765Y-37775693D02*
G75*
G02*
X215541777Y-40774923I-67965J-2999207D01*
G01*
X227001906Y-140041560D02*
G75*
G02*
X227013350Y-140769257I-337106J-369240D01*
G01*
D10*
X146053100Y-133823600D02*
X146053100Y-132296430D01*
X185406132Y-135855228D02*
X186977007Y-136148092D01*
X202833688Y-143062410D02*
X205160163Y-144547201D01*
X200231676Y-141478160D02*
X202833688Y-143062410D01*
X207037216Y-145787424D02*
X208747506Y-146953748D01*
X77203123Y-115125003D02*
X70325113Y-115726744D01*
D12*
X172248634Y-119547840D02*
X172248634Y-122647840D01*
X172248634Y-122647840D02*
X175848634Y-122647840D01*
X175848634Y-119547840D02*
X172248634Y-119547840D01*
X175848634Y-122647840D02*
X175848634Y-119547840D01*
X78068384Y-100215666D02*
X78338567Y-103303869D01*
X78338567Y-103303869D02*
X81924868Y-102990108D01*
X81654685Y-99901905D02*
X78068384Y-100215666D01*
X81924868Y-102990108D02*
X81654685Y-99901905D01*
X174248634Y-94047840D02*
X174248634Y-97147840D01*
X174248634Y-97147840D02*
X177848634Y-97147840D01*
X177848634Y-94047840D02*
X174248634Y-94047840D01*
X177848634Y-97147840D02*
X177848634Y-94047840D01*
X117248634Y-58547840D02*
X117248634Y-61647840D01*
X117248634Y-61647840D02*
X120848634Y-61647840D01*
X120848634Y-58547840D02*
X117248634Y-58547840D01*
X120848634Y-61647840D02*
X120848634Y-58547840D01*
X136248634Y-71547840D02*
X136248634Y-74647840D01*
X136248634Y-74647840D02*
X139848634Y-74647840D01*
X139848634Y-71547840D02*
X136248634Y-71547840D01*
X139848634Y-74647840D02*
X139848634Y-71547840D01*
X136248634Y-35547840D02*
X136248634Y-38647840D01*
X136248634Y-38647840D02*
X139848634Y-38647840D01*
X139848634Y-35547840D02*
X136248634Y-35547840D01*
X139848634Y-38647840D02*
X139848634Y-35547840D01*
X155248634Y-94047840D02*
X155248634Y-97147840D01*
X155248634Y-97147840D02*
X158848634Y-97147840D01*
X158848634Y-94047840D02*
X155248634Y-94047840D01*
X158848634Y-97147840D02*
X158848634Y-94047840D01*
X94573154Y-70865494D02*
X94843337Y-73953697D01*
X94843337Y-73953697D02*
X98429638Y-73639936D01*
X98159455Y-70551733D02*
X94573154Y-70865494D01*
X98429638Y-73639936D02*
X98159455Y-70551733D01*
X94673123Y-42023603D02*
X94673123Y-45623603D01*
X94673123Y-45623603D02*
X97773123Y-45623603D01*
X97773123Y-42023603D02*
X94673123Y-42023603D01*
X97773123Y-45623603D02*
X97773123Y-42023603D01*
X117248634Y-94547840D02*
X117248634Y-97647840D01*
X117248634Y-97647840D02*
X120848634Y-97647840D01*
X120848634Y-94547840D02*
X117248634Y-94547840D01*
X120848634Y-97647840D02*
X120848634Y-94547840D01*
X93004351Y-52933989D02*
X93274534Y-56022192D01*
X93274534Y-56022192D02*
X96860835Y-55708431D01*
X96590652Y-52620228D02*
X93004351Y-52933989D01*
X96860835Y-55708431D02*
X96590652Y-52620228D01*
X136248634Y-89547840D02*
X136248634Y-92647840D01*
X136248634Y-92647840D02*
X139848634Y-92647840D01*
X139848634Y-89547840D02*
X136248634Y-89547840D01*
X139848634Y-92647840D02*
X139848634Y-89547840D01*
X174248634Y-58047840D02*
X174248634Y-61147840D01*
X174248634Y-61147840D02*
X177848634Y-61147840D01*
X177848634Y-58047840D02*
X174248634Y-58047840D01*
X177848634Y-61147840D02*
X177848634Y-58047840D01*
X194804879Y-125990337D02*
X198187772Y-127221610D01*
X195865142Y-123077290D02*
X194804879Y-125990337D01*
X198187772Y-127221610D02*
X199248035Y-124308563D01*
X199248035Y-124308563D02*
X195865142Y-123077290D01*
X117248634Y-40547840D02*
X117248634Y-43647840D01*
X117248634Y-43647840D02*
X120848634Y-43647840D01*
X120848634Y-40547840D02*
X117248634Y-40547840D01*
X120848634Y-43647840D02*
X120848634Y-40547840D01*
X174248634Y-76047840D02*
X174248634Y-79147840D01*
X174248634Y-79147840D02*
X177848634Y-79147840D01*
X177848634Y-76047840D02*
X174248634Y-76047840D01*
X177848634Y-79147840D02*
X177848634Y-76047840D01*
X96141957Y-88796999D02*
X96412140Y-91885202D01*
X96412140Y-91885202D02*
X99998441Y-91571441D01*
X99728258Y-88483238D02*
X96141957Y-88796999D01*
X99998441Y-91571441D02*
X99728258Y-88483238D01*
X155248634Y-40047840D02*
X155248634Y-43147840D01*
X155248634Y-43147840D02*
X158848634Y-43147840D01*
X158848634Y-40047840D02*
X155248634Y-40047840D01*
X158848634Y-43147840D02*
X158848634Y-40047840D01*
X153248634Y-119547840D02*
X153248634Y-122647840D01*
X153248634Y-122647840D02*
X156848634Y-122647840D01*
X156848634Y-119547840D02*
X153248634Y-119547840D01*
X156848634Y-122647840D02*
X156848634Y-119547840D01*
X174248634Y-40047840D02*
X174248634Y-43147840D01*
X174248634Y-43147840D02*
X177848634Y-43147840D01*
X177848634Y-40047840D02*
X174248634Y-40047840D01*
X177848634Y-43147840D02*
X177848634Y-40047840D01*
X214857614Y-136845947D02*
X217615374Y-139159983D01*
X216850256Y-134471209D02*
X214857614Y-136845947D01*
X217615374Y-139159983D02*
X219608016Y-136785245D01*
X219608016Y-136785245D02*
X216850256Y-134471209D01*
X99673123Y-42023603D02*
X99673123Y-45623603D01*
X99673123Y-45623603D02*
X102773123Y-45623603D01*
X102773123Y-42023603D02*
X99673123Y-42023603D01*
X102773123Y-45623603D02*
X102773123Y-42023603D01*
X155248634Y-58047840D02*
X155248634Y-61147840D01*
X155248634Y-61147840D02*
X158848634Y-61147840D01*
X158848634Y-58047840D02*
X155248634Y-58047840D01*
X158848634Y-61147840D02*
X158848634Y-58047840D01*
X155248634Y-76047840D02*
X155248634Y-79147840D01*
X155248634Y-79147840D02*
X158848634Y-79147840D01*
X158848634Y-76047840D02*
X155248634Y-76047840D01*
X158848634Y-79147840D02*
X158848634Y-76047840D01*
X117248634Y-76547840D02*
X117248634Y-79647840D01*
X117248634Y-79647840D02*
X120848634Y-79647840D01*
X120848634Y-76547840D02*
X117248634Y-76547840D01*
X120848634Y-79647840D02*
X120848634Y-76547840D01*
X104673123Y-42023603D02*
X104673123Y-45623603D01*
X104673123Y-45623603D02*
X107773123Y-45623603D01*
X107773123Y-42023603D02*
X104673123Y-42023603D01*
X107773123Y-45623603D02*
X107773123Y-42023603D01*
X97710760Y-106728504D02*
X97980943Y-109816707D01*
X97980943Y-109816707D02*
X101567244Y-109502946D01*
X101297061Y-106414743D02*
X97710760Y-106728504D01*
X101567244Y-109502946D02*
X101297061Y-106414743D01*
X136248634Y-53547840D02*
X136248634Y-56647840D01*
X136248634Y-56647840D02*
X139848634Y-56647840D01*
X139848634Y-53547840D02*
X136248634Y-53547840D01*
X139848634Y-56647840D02*
X139848634Y-53547840D01*
M02*
