G04 #@! TF.GenerationSoftware,KiCad,Pcbnew,8.0.5*
G04 #@! TF.CreationDate,2024-11-21T21:23:03+01:00*
G04 #@! TF.ProjectId,stellar,7374656c-6c61-4722-9e6b-696361645f70,rev?*
G04 #@! TF.SameCoordinates,Original*
G04 #@! TF.FileFunction,Soldermask,Bot*
G04 #@! TF.FilePolarity,Negative*
%FSLAX46Y46*%
G04 Gerber Fmt 4.6, Leading zero omitted, Abs format (unit mm)*
G04 Created by KiCad (PCBNEW 8.0.5) date 2024-11-21 21:23:03*
%MOMM*%
%LPD*%
G01*
G04 APERTURE LIST*
G04 Aperture macros list*
%AMRoundRect*
0 Rectangle with rounded corners*
0 $1 Rounding radius*
0 $2 $3 $4 $5 $6 $7 $8 $9 X,Y pos of 4 corners*
0 Add a 4 corners polygon primitive as box body*
4,1,4,$2,$3,$4,$5,$6,$7,$8,$9,$2,$3,0*
0 Add four circle primitives for the rounded corners*
1,1,$1+$1,$2,$3*
1,1,$1+$1,$4,$5*
1,1,$1+$1,$6,$7*
1,1,$1+$1,$8,$9*
0 Add four rect primitives between the rounded corners*
20,1,$1+$1,$2,$3,$4,$5,0*
20,1,$1+$1,$4,$5,$6,$7,0*
20,1,$1+$1,$6,$7,$8,$9,0*
20,1,$1+$1,$8,$9,$2,$3,0*%
G04 Aperture macros list end*
%ADD10C,2.700000*%
%ADD11C,3.600000*%
%ADD12RoundRect,0.050000X-0.800000X0.800000X-0.800000X-0.800000X0.800000X-0.800000X0.800000X0.800000X0*%
%ADD13C,1.700000*%
%ADD14C,2.600000*%
%ADD15C,1.801800*%
%ADD16C,3.529000*%
%ADD17C,3.100000*%
%ADD18RoundRect,0.270833X-0.379167X-0.654167X0.379167X-0.654167X0.379167X0.654167X-0.379167X0.654167X0*%
%ADD19O,1.300000X1.850000*%
G04 APERTURE END LIST*
D10*
X190003100Y-82775693D03*
D11*
X211541800Y-41774900D03*
D10*
X89203100Y-128293600D03*
D12*
X190010000Y-43064193D03*
D13*
X190010000Y-45604193D03*
X190010000Y-48144193D03*
X190010000Y-50684193D03*
X190010000Y-53224193D03*
X190010000Y-55764193D03*
X190010000Y-58304193D03*
X190010000Y-60844193D03*
X190010000Y-63384193D03*
X190010000Y-65924193D03*
X190010000Y-68464193D03*
X190010000Y-71004193D03*
X205250000Y-71004193D03*
X205250000Y-68464193D03*
X205250000Y-65924193D03*
X205250000Y-63384193D03*
X205250000Y-60844193D03*
X205250000Y-58304193D03*
X205250000Y-55764193D03*
X205250000Y-53224193D03*
X205250000Y-50684193D03*
X205250000Y-48144193D03*
X205250000Y-45604193D03*
X205250000Y-43064193D03*
D14*
X99892802Y-129527605D03*
D10*
X205203100Y-82775693D03*
D11*
X211541800Y-111774900D03*
D10*
X203541800Y-111774900D03*
D14*
X99892802Y-124977605D03*
D10*
X211541800Y-49774900D03*
X89203100Y-42323600D03*
D15*
X151548634Y-64297840D03*
D16*
X157048634Y-64297840D03*
D17*
X157048634Y-70247840D03*
X162048634Y-68047840D03*
D15*
X162548634Y-64297840D03*
D11*
X81203100Y-42323600D03*
D15*
X113548634Y-100797840D03*
D16*
X119048634Y-100797840D03*
D17*
X119048634Y-106747840D03*
X124048634Y-104547840D03*
D15*
X124548634Y-100797840D03*
X113548634Y-82797840D03*
D16*
X119048634Y-82797840D03*
D17*
X119048634Y-88747840D03*
X124048634Y-86547840D03*
D15*
X124548634Y-82797840D03*
X151548634Y-100297840D03*
D16*
X157048634Y-100297840D03*
D17*
X157048634Y-106247840D03*
X162048634Y-104047840D03*
D15*
X162548634Y-100297840D03*
D18*
X194630000Y-102034193D03*
D19*
X196630000Y-102034193D03*
X198630000Y-102034193D03*
X200630000Y-102034193D03*
D15*
X170548634Y-82297840D03*
D16*
X176048634Y-82297840D03*
D17*
X176048634Y-88247840D03*
X181048634Y-86047840D03*
D15*
X181548634Y-82297840D03*
X74927187Y-106764359D03*
D16*
X80406258Y-106285002D03*
D17*
X80924835Y-112212360D03*
X85714069Y-109584953D03*
D15*
X85885329Y-105805645D03*
D11*
X81203100Y-128293600D03*
D15*
X170548634Y-100297840D03*
D16*
X176048634Y-100297840D03*
D17*
X176048634Y-106247840D03*
X181048634Y-104047840D03*
D15*
X181548634Y-100297840D03*
X113548634Y-46797840D03*
D16*
X119048634Y-46797840D03*
D17*
X119048634Y-52747840D03*
X124048634Y-50547840D03*
D15*
X124548634Y-46797840D03*
X170548634Y-46297840D03*
D16*
X176048634Y-46297840D03*
D17*
X176048634Y-52247840D03*
X181048634Y-50047840D03*
D15*
X181548634Y-46297840D03*
X89863154Y-59482682D03*
D16*
X95342225Y-59003325D03*
D17*
X95860802Y-64930683D03*
X100650036Y-62303276D03*
D15*
X100821296Y-58523968D03*
X132548634Y-41797840D03*
D16*
X138048634Y-41797840D03*
D17*
X138048634Y-47747840D03*
X143048634Y-45547840D03*
D15*
X143548634Y-41797840D03*
X209998469Y-136880673D03*
D16*
X214211713Y-140416005D03*
D17*
X210387127Y-144973969D03*
X215631482Y-146502610D03*
D15*
X218424957Y-143951337D03*
X113548634Y-64797840D03*
D16*
X119048634Y-64797840D03*
D17*
X119048634Y-70747840D03*
X124048634Y-68547840D03*
D15*
X124548634Y-64797840D03*
X151548634Y-46297840D03*
D16*
X157048634Y-46297840D03*
D17*
X157048634Y-52247840D03*
X162048634Y-50047840D03*
D15*
X162548634Y-46297840D03*
X149548634Y-125797840D03*
D16*
X155048634Y-125797840D03*
D17*
X155048634Y-131747840D03*
X160048634Y-129547840D03*
D15*
X160548634Y-125797840D03*
X168548634Y-125797840D03*
D16*
X174048634Y-125797840D03*
D17*
X174048634Y-131747840D03*
X179048634Y-129547840D03*
D15*
X179548634Y-125797840D03*
X91431957Y-77414187D03*
D16*
X96911028Y-76934830D03*
D17*
X97429605Y-82862188D03*
X102218839Y-80234781D03*
D15*
X102390099Y-76455473D03*
X190250653Y-127684894D03*
D16*
X195418962Y-129566005D03*
D17*
X193383942Y-135157176D03*
X198834850Y-134799953D03*
D15*
X200587271Y-131447116D03*
X132548634Y-77797840D03*
D16*
X138048634Y-77797840D03*
D17*
X138048634Y-83747840D03*
X143048634Y-81547840D03*
D15*
X143548634Y-77797840D03*
X93000760Y-95345692D03*
D16*
X98479831Y-94866335D03*
D17*
X98998408Y-100793693D03*
X103787642Y-98166286D03*
D15*
X103958902Y-94386978D03*
X151548634Y-82297840D03*
D16*
X157048634Y-82297840D03*
D17*
X157048634Y-88247840D03*
X162048634Y-86047840D03*
D15*
X162548634Y-82297840D03*
X94569563Y-113277197D03*
D16*
X100048634Y-112797840D03*
D17*
X100567211Y-118725198D03*
X105356445Y-116097791D03*
D15*
X105527705Y-112318483D03*
X170548634Y-64297840D03*
D16*
X176048634Y-64297840D03*
D17*
X176048634Y-70247840D03*
X181048634Y-68047840D03*
D15*
X181548634Y-64297840D03*
X132548634Y-95797840D03*
D16*
X138048634Y-95797840D03*
D17*
X138048634Y-101747840D03*
X143048634Y-99547840D03*
D15*
X143548634Y-95797840D03*
X132548634Y-59797840D03*
D16*
X138048634Y-59797840D03*
D17*
X138048634Y-65747840D03*
X143048634Y-63547840D03*
D15*
X143548634Y-59797840D03*
M02*
