%TF.GenerationSoftware,KiCad,Pcbnew,8.0.5*%
%TF.CreationDate,2024-11-21T21:26:15+01:00*%
%TF.ProjectId,stellar,7374656c-6c61-4722-9e6b-696361645f70,rev?*%
%TF.SameCoordinates,Original*%
%TF.FileFunction,Drillmap*%
%TF.FilePolarity,Positive*%
%FSLAX45Y45*%
G04 Gerber Fmt 4.5, Leading zero omitted, Abs format (unit mm)*
G04 Created by KiCad (PCBNEW 8.0.5) date 2024-11-21 21:26:15*
%MOMM*%
%LPD*%
G01*
G04 APERTURE LIST*
%ADD10C,0.149999*%
%ADD11C,0.150000*%
%ADD12C,0.100000*%
%ADD13C,0.200000*%
%ADD14C,0.110000*%
%ADD15C,0.120000*%
%ADD16C,0.220000*%
G04 APERTURE END LIST*
D10*
X17788740Y-13477738D02*
X18071101Y-13513153D01*
X12904310Y-3382360D02*
X12904310Y-3777569D01*
X14704812Y-3777569D02*
X14704812Y-3378944D01*
D11*
X21676342Y-15296352D02*
G75*
G02*
X21607956Y-15306969I-39732J30372D01*
G01*
D10*
X6886735Y-9878692D02*
X7720448Y-9805292D01*
X19489658Y-13859172D02*
X19619240Y-13923272D01*
D11*
X6841172Y-9930780D02*
G75*
G02*
X6886735Y-9878692I49948J2280D01*
G01*
X7720448Y-4086582D02*
G75*
G02*
X8020312Y-3777572I299862J9012D01*
G01*
D10*
X19619240Y-13923272D02*
X19752801Y-13993956D01*
X18071101Y-13513153D02*
X18381871Y-13558823D01*
D11*
X14655310Y-13432360D02*
G75*
G02*
X14605310Y-13382360I0J50000D01*
G01*
D10*
X6980422Y-11527111D02*
X6841172Y-9930780D01*
X7720312Y-12928265D02*
X7720312Y-11512500D01*
X18381871Y-13558823D02*
X18540613Y-13585523D01*
X14605310Y-13229643D02*
X8020312Y-13229643D01*
X8020312Y-13229643D02*
X8020312Y-13229360D01*
X18850215Y-13646690D02*
X18995237Y-13681172D01*
X12904310Y-3777569D02*
X8020312Y-3777569D01*
X17345641Y-13432414D02*
X17558142Y-13452517D01*
X22704278Y-14068368D02*
X21676342Y-15296352D01*
X19366229Y-13803468D02*
X19489658Y-13859172D01*
X14704812Y-3777569D02*
X21247384Y-3777569D01*
D11*
X14654950Y-3332715D02*
G75*
G02*
X14704803Y-3378944I0J-49995D01*
G01*
D10*
X14654950Y-3332715D02*
X12948360Y-3332715D01*
X7720448Y-9805292D02*
X7720448Y-4086582D01*
D11*
X8020312Y-13229360D02*
G75*
G02*
X7720312Y-12928265I-2J300000D01*
G01*
D10*
X18697701Y-13614809D02*
X18850215Y-13646690D01*
X19752801Y-13993956D02*
X20023168Y-14147816D01*
X19129847Y-13718265D02*
X19251127Y-13757974D01*
X21607957Y-15306966D02*
X20874751Y-14695375D01*
X18995237Y-13681172D02*
X19129847Y-13718265D01*
X14655310Y-13432360D02*
X17345641Y-13432360D01*
D11*
X12904310Y-3382360D02*
G75*
G02*
X12948360Y-3332715I50000J0D01*
G01*
X7032510Y-11572674D02*
G75*
G02*
X6980426Y-11527111I-2280J49945D01*
G01*
D10*
X17558142Y-13452517D02*
X17788740Y-13477738D01*
X20516016Y-14454720D02*
X20703722Y-14578742D01*
X21554180Y-4077492D02*
X21554180Y-13046291D01*
X19251127Y-13757974D02*
X19366229Y-13803468D01*
D11*
X21247384Y-3777569D02*
G75*
G02*
X21554178Y-4077492I6797J-299921D01*
G01*
D10*
X14605310Y-13382360D02*
X14605310Y-13229643D01*
X21554180Y-13046291D02*
X22694278Y-13999368D01*
D11*
X22694278Y-13999368D02*
G75*
G02*
X22704896Y-14067756I-30358J-39732D01*
G01*
D10*
X18540613Y-13585523D02*
X18697701Y-13614809D01*
X20283369Y-14306241D02*
X20516016Y-14454720D01*
X20023168Y-14147816D02*
X20283369Y-14306241D01*
X20703722Y-14578742D02*
X20874751Y-14695375D01*
X7720312Y-11512500D02*
X7032510Y-11572674D01*
D12*
X17224863Y-11954784D02*
X17224863Y-12264784D01*
X17224863Y-12264784D02*
X17584863Y-12264784D01*
X17584863Y-11954784D02*
X17224863Y-11954784D01*
X17584863Y-12264784D02*
X17584863Y-11954784D01*
X7806838Y-10021567D02*
X7833857Y-10330387D01*
X7833857Y-10330387D02*
X8192487Y-10299011D01*
X8165468Y-9990191D02*
X7806838Y-10021567D01*
X8192487Y-10299011D02*
X8165468Y-9990191D01*
X17424863Y-9404784D02*
X17424863Y-9714784D01*
X17424863Y-9714784D02*
X17784863Y-9714784D01*
X17784863Y-9404784D02*
X17424863Y-9404784D01*
X17784863Y-9714784D02*
X17784863Y-9404784D01*
X11724863Y-5854784D02*
X11724863Y-6164784D01*
X11724863Y-6164784D02*
X12084863Y-6164784D01*
X12084863Y-5854784D02*
X11724863Y-5854784D01*
X12084863Y-6164784D02*
X12084863Y-5854784D01*
X13624863Y-7154784D02*
X13624863Y-7464784D01*
X13624863Y-7464784D02*
X13984863Y-7464784D01*
X13984863Y-7154784D02*
X13624863Y-7154784D01*
X13984863Y-7464784D02*
X13984863Y-7154784D01*
X13624863Y-3554784D02*
X13624863Y-3864784D01*
X13624863Y-3864784D02*
X13984863Y-3864784D01*
X13984863Y-3554784D02*
X13624863Y-3554784D01*
X13984863Y-3864784D02*
X13984863Y-3554784D01*
X15524863Y-9404784D02*
X15524863Y-9714784D01*
X15524863Y-9714784D02*
X15884863Y-9714784D01*
X15884863Y-9404784D02*
X15524863Y-9404784D01*
X15884863Y-9714784D02*
X15884863Y-9404784D01*
X9457315Y-7086549D02*
X9484334Y-7395370D01*
X9484334Y-7395370D02*
X9842964Y-7363994D01*
X9815946Y-7055173D02*
X9457315Y-7086549D01*
X9842964Y-7363994D02*
X9815946Y-7055173D01*
X9467312Y-4202360D02*
X9467312Y-4562360D01*
X9467312Y-4562360D02*
X9777312Y-4562360D01*
X9777312Y-4202360D02*
X9467312Y-4202360D01*
X9777312Y-4562360D02*
X9777312Y-4202360D01*
X11724863Y-9454784D02*
X11724863Y-9764784D01*
X11724863Y-9764784D02*
X12084863Y-9764784D01*
X12084863Y-9454784D02*
X11724863Y-9454784D01*
X12084863Y-9764784D02*
X12084863Y-9454784D01*
X9300435Y-5293399D02*
X9327453Y-5602219D01*
X9327453Y-5602219D02*
X9686084Y-5570843D01*
X9659065Y-5262023D02*
X9300435Y-5293399D01*
X9686084Y-5570843D02*
X9659065Y-5262023D01*
X13624863Y-8954784D02*
X13624863Y-9264784D01*
X13624863Y-9264784D02*
X13984863Y-9264784D01*
X13984863Y-8954784D02*
X13624863Y-8954784D01*
X13984863Y-9264784D02*
X13984863Y-8954784D01*
X17424863Y-5804784D02*
X17424863Y-6114784D01*
X17424863Y-6114784D02*
X17784863Y-6114784D01*
X17784863Y-5804784D02*
X17424863Y-5804784D01*
X17784863Y-6114784D02*
X17784863Y-5804784D01*
X19480488Y-12599034D02*
X19818777Y-12722161D01*
X19586514Y-12307729D02*
X19480488Y-12599034D01*
X19818777Y-12722161D02*
X19924804Y-12430856D01*
X19924804Y-12430856D02*
X19586514Y-12307729D01*
X11724863Y-4054784D02*
X11724863Y-4364784D01*
X11724863Y-4364784D02*
X12084863Y-4364784D01*
X12084863Y-4054784D02*
X11724863Y-4054784D01*
X12084863Y-4364784D02*
X12084863Y-4054784D01*
X17424863Y-7604784D02*
X17424863Y-7914784D01*
X17424863Y-7914784D02*
X17784863Y-7914784D01*
X17784863Y-7604784D02*
X17424863Y-7604784D01*
X17784863Y-7914784D02*
X17784863Y-7604784D01*
X9614196Y-8879700D02*
X9641214Y-9188520D01*
X9641214Y-9188520D02*
X9999844Y-9157144D01*
X9972826Y-8848324D02*
X9614196Y-8879700D01*
X9999844Y-9157144D02*
X9972826Y-8848324D01*
X15524863Y-4004784D02*
X15524863Y-4314784D01*
X15524863Y-4314784D02*
X15884863Y-4314784D01*
X15884863Y-4004784D02*
X15524863Y-4004784D01*
X15884863Y-4314784D02*
X15884863Y-4004784D01*
X15324863Y-11954784D02*
X15324863Y-12264784D01*
X15324863Y-12264784D02*
X15684863Y-12264784D01*
X15684863Y-11954784D02*
X15324863Y-11954784D01*
X15684863Y-12264784D02*
X15684863Y-11954784D01*
X17424863Y-4004784D02*
X17424863Y-4314784D01*
X17424863Y-4314784D02*
X17784863Y-4314784D01*
X17784863Y-4004784D02*
X17424863Y-4004784D01*
X17784863Y-4314784D02*
X17784863Y-4004784D01*
X21485761Y-13684595D02*
X21761537Y-13915998D01*
X21685026Y-13447121D02*
X21485761Y-13684595D01*
X21761537Y-13915998D02*
X21960802Y-13678524D01*
X21960802Y-13678524D02*
X21685026Y-13447121D01*
X9967312Y-4202360D02*
X9967312Y-4562360D01*
X9967312Y-4562360D02*
X10277312Y-4562360D01*
X10277312Y-4202360D02*
X9967312Y-4202360D01*
X10277312Y-4562360D02*
X10277312Y-4202360D01*
X15524863Y-5804784D02*
X15524863Y-6114784D01*
X15524863Y-6114784D02*
X15884863Y-6114784D01*
X15884863Y-5804784D02*
X15524863Y-5804784D01*
X15884863Y-6114784D02*
X15884863Y-5804784D01*
X15524863Y-7604784D02*
X15524863Y-7914784D01*
X15524863Y-7914784D02*
X15884863Y-7914784D01*
X15884863Y-7604784D02*
X15524863Y-7604784D01*
X15884863Y-7914784D02*
X15884863Y-7604784D01*
X11724863Y-7654784D02*
X11724863Y-7964784D01*
X11724863Y-7964784D02*
X12084863Y-7964784D01*
X12084863Y-7654784D02*
X11724863Y-7654784D01*
X12084863Y-7964784D02*
X12084863Y-7654784D01*
X10467312Y-4202360D02*
X10467312Y-4562360D01*
X10467312Y-4562360D02*
X10777312Y-4562360D01*
X10777312Y-4202360D02*
X10467312Y-4202360D01*
X10777312Y-4562360D02*
X10777312Y-4202360D01*
X9771076Y-10672850D02*
X9798094Y-10981671D01*
X9798094Y-10981671D02*
X10156724Y-10950295D01*
X10129706Y-10641474D02*
X9771076Y-10672850D01*
X10156724Y-10950295D02*
X10129706Y-10641474D01*
X13624863Y-5354784D02*
X13624863Y-5664784D01*
X13624863Y-5664784D02*
X13984863Y-5664784D01*
X13984863Y-5354784D02*
X13624863Y-5354784D01*
X13984863Y-5664784D02*
X13984863Y-5354784D01*
D13*
D12*
X7825310Y-11692360D02*
X7855310Y-11722360D01*
X7855310Y-11692360D02*
X7825310Y-11722360D01*
X8550310Y-5217360D02*
X8580310Y-5247360D01*
X8580310Y-5217360D02*
X8550310Y-5247360D01*
X8550310Y-5742360D02*
X8580310Y-5772360D01*
X8580310Y-5742360D02*
X8550310Y-5772360D01*
X8550310Y-7117360D02*
X8580310Y-7147360D01*
X8580310Y-7117360D02*
X8550310Y-7147360D01*
X8550310Y-7642360D02*
X8580310Y-7672360D01*
X8580310Y-7642360D02*
X8550310Y-7672360D01*
X8550310Y-8792360D02*
X8580310Y-8822360D01*
X8580310Y-8792360D02*
X8550310Y-8822360D01*
X8725310Y-9467360D02*
X8755310Y-9497360D01*
X8755310Y-9467360D02*
X8725310Y-9497360D01*
X8725310Y-9717360D02*
X8755310Y-9747360D01*
X8755310Y-9717360D02*
X8725310Y-9747360D01*
X8975310Y-6217360D02*
X9005310Y-6247360D01*
X9005310Y-6217360D02*
X8975310Y-6247360D01*
X8975310Y-9467360D02*
X9005310Y-9497360D01*
X9005310Y-9467360D02*
X8975310Y-9497360D01*
X8975310Y-9717360D02*
X9005310Y-9747360D01*
X9005310Y-9717360D02*
X8975310Y-9747360D01*
X8975310Y-9967360D02*
X9005310Y-9997360D01*
X9005310Y-9967360D02*
X8975310Y-9997360D01*
X9225310Y-6217360D02*
X9255310Y-6247360D01*
X9255310Y-6217360D02*
X9225310Y-6247360D01*
X9225310Y-9717360D02*
X9255310Y-9747360D01*
X9255310Y-9717360D02*
X9225310Y-9747360D01*
X9225310Y-9967360D02*
X9255310Y-9997360D01*
X9255310Y-9967360D02*
X9225310Y-9997360D01*
X9250310Y-6842360D02*
X9280310Y-6872360D01*
X9280310Y-6842360D02*
X9250310Y-6872360D01*
X9400310Y-8517360D02*
X9430310Y-8547360D01*
X9430310Y-8517360D02*
X9400310Y-8547360D01*
X9637810Y-10329860D02*
X9667810Y-10359860D01*
X9667810Y-10329860D02*
X9637810Y-10359860D01*
X9675310Y-11642360D02*
X9705310Y-11672360D01*
X9705310Y-11642360D02*
X9675310Y-11672360D01*
X9721510Y-4864560D02*
X9751510Y-4894560D01*
X9751510Y-4864560D02*
X9721510Y-4894560D01*
X9800310Y-5617360D02*
X9830310Y-5647360D01*
X9830310Y-5617360D02*
X9800310Y-5647360D01*
X9975310Y-6967360D02*
X10005310Y-6997360D01*
X10005310Y-6967360D02*
X9975310Y-6997360D01*
X10125310Y-9192360D02*
X10155310Y-9222360D01*
X10155310Y-9192360D02*
X10125310Y-9222360D01*
X10175310Y-10542360D02*
X10205310Y-10572360D01*
X10205310Y-10542360D02*
X10175310Y-10572360D01*
X10475310Y-7217360D02*
X10505310Y-7247360D01*
X10505310Y-7217360D02*
X10475310Y-7247360D01*
X10475310Y-9217360D02*
X10505310Y-9247360D01*
X10505310Y-9217360D02*
X10475310Y-9247360D01*
X10725310Y-5967360D02*
X10755310Y-5997360D01*
X10755310Y-5967360D02*
X10725310Y-5997360D01*
X10725310Y-6217360D02*
X10755310Y-6247360D01*
X10755310Y-6217360D02*
X10725310Y-6247360D01*
X10725310Y-6467360D02*
X10755310Y-6497360D01*
X10755310Y-6467360D02*
X10725310Y-6497360D01*
X10725310Y-6717360D02*
X10755310Y-6747360D01*
X10755310Y-6717360D02*
X10725310Y-6747360D01*
X10725310Y-6967360D02*
X10755310Y-6997360D01*
X10755310Y-6967360D02*
X10725310Y-6997360D01*
X10725310Y-9217360D02*
X10755310Y-9247360D01*
X10755310Y-9217360D02*
X10725310Y-9247360D01*
X10975310Y-5467360D02*
X11005310Y-5497360D01*
X11005310Y-5467360D02*
X10975310Y-5497360D01*
X10975310Y-6217360D02*
X11005310Y-6247360D01*
X11005310Y-6217360D02*
X10975310Y-6247360D01*
X10975310Y-6467360D02*
X11005310Y-6497360D01*
X11005310Y-6467360D02*
X10975310Y-6497360D01*
X10975310Y-6717360D02*
X11005310Y-6747360D01*
X11005310Y-6717360D02*
X10975310Y-6747360D01*
X10975310Y-6967360D02*
X11005310Y-6997360D01*
X11005310Y-6967360D02*
X10975310Y-6997360D01*
X10975310Y-7217360D02*
X11005310Y-7247360D01*
X11005310Y-7217360D02*
X10975310Y-7247360D01*
X11225310Y-4967360D02*
X11255310Y-4997360D01*
X11255310Y-4967360D02*
X11225310Y-4997360D01*
X11225310Y-5467360D02*
X11255310Y-5497360D01*
X11255310Y-5467360D02*
X11225310Y-5497360D01*
X11225310Y-6217360D02*
X11255310Y-6247360D01*
X11255310Y-6217360D02*
X11225310Y-6247360D01*
X11225310Y-6717360D02*
X11255310Y-6747360D01*
X11255310Y-6717360D02*
X11225310Y-6747360D01*
X11225310Y-6967360D02*
X11255310Y-6997360D01*
X11255310Y-6967360D02*
X11225310Y-6997360D01*
X11225310Y-7217360D02*
X11255310Y-7247360D01*
X11255310Y-7217360D02*
X11225310Y-7247360D01*
X11225310Y-8467360D02*
X11255310Y-8497360D01*
X11255310Y-8467360D02*
X11225310Y-8497360D01*
X11225310Y-8717360D02*
X11255310Y-8747360D01*
X11255310Y-8717360D02*
X11225310Y-8747360D01*
X11474110Y-12662360D02*
X11504110Y-12692360D01*
X11504110Y-12662360D02*
X11474110Y-12692360D01*
X11475310Y-4967360D02*
X11505310Y-4997360D01*
X11505310Y-4967360D02*
X11475310Y-4997360D01*
X11550310Y-5542360D02*
X11580310Y-5572360D01*
X11580310Y-5542360D02*
X11550310Y-5572360D01*
X11550310Y-7317360D02*
X11580310Y-7347360D01*
X11580310Y-7317360D02*
X11550310Y-7347360D01*
X11550310Y-9092360D02*
X11580310Y-9122360D01*
X11580310Y-9092360D02*
X11550310Y-9122360D01*
X11575310Y-10942360D02*
X11605310Y-10972360D01*
X11605310Y-10942360D02*
X11575310Y-10972360D01*
X11725310Y-4967360D02*
X11755310Y-4997360D01*
X11755310Y-4967360D02*
X11725310Y-4997360D01*
X11800310Y-11192360D02*
X11830310Y-11222360D01*
X11830310Y-11192360D02*
X11800310Y-11222360D01*
X11800310Y-11492360D02*
X11830310Y-11522360D01*
X11830310Y-11492360D02*
X11800310Y-11522360D01*
X12025310Y-11419860D02*
X12055310Y-11449860D01*
X12055310Y-11419860D02*
X12025310Y-11449860D01*
X12175310Y-3899360D02*
X12205310Y-3929360D01*
X12205310Y-3899360D02*
X12175310Y-3929360D01*
X12175310Y-4417360D02*
X12205310Y-4447360D01*
X12205310Y-4417360D02*
X12175310Y-4447360D01*
X12175310Y-5792360D02*
X12205310Y-5822360D01*
X12205310Y-5792360D02*
X12175310Y-5822360D01*
X12175310Y-8017360D02*
X12205310Y-8047360D01*
X12205310Y-8017360D02*
X12175310Y-8047360D01*
X12175310Y-9417360D02*
X12205310Y-9447360D01*
X12205310Y-9417360D02*
X12175310Y-9447360D01*
X12400310Y-4267360D02*
X12430310Y-4297360D01*
X12430310Y-4267360D02*
X12400310Y-4297360D01*
X12472734Y-7864784D02*
X12502734Y-7894784D01*
X12502734Y-7864784D02*
X12472734Y-7894784D01*
X12725310Y-8217360D02*
X12755310Y-8247360D01*
X12755310Y-8217360D02*
X12725310Y-8247360D01*
X12900310Y-5721558D02*
X12930310Y-5751558D01*
X12930310Y-5721558D02*
X12900310Y-5751558D01*
X12975310Y-8217360D02*
X13005310Y-8247360D01*
X13005310Y-8217360D02*
X12975310Y-8247360D01*
X12975310Y-8717360D02*
X13005310Y-8747360D01*
X13005310Y-8717360D02*
X12975310Y-8747360D01*
X12975310Y-9321558D02*
X13005310Y-9351558D01*
X13005310Y-9321558D02*
X12975310Y-9351558D01*
X13025310Y-7442360D02*
X13055310Y-7472360D01*
X13055310Y-7442360D02*
X13025310Y-7472360D01*
X13225310Y-8717360D02*
X13255310Y-8747360D01*
X13255310Y-8717360D02*
X13225310Y-8747360D01*
X13225310Y-9217360D02*
X13255310Y-9247360D01*
X13255310Y-9217360D02*
X13225310Y-9247360D01*
X13225310Y-10717360D02*
X13255310Y-10747360D01*
X13255310Y-10717360D02*
X13225310Y-10747360D01*
X13300310Y-3642360D02*
X13330310Y-3672360D01*
X13330310Y-3642360D02*
X13300310Y-3672360D01*
X13375310Y-5817360D02*
X13405310Y-5847360D01*
X13405310Y-5817360D02*
X13375310Y-5847360D01*
X13375310Y-9417360D02*
X13405310Y-9447360D01*
X13405310Y-9417360D02*
X13375310Y-9447360D01*
X13462810Y-5004860D02*
X13492810Y-5034860D01*
X13492810Y-5004860D02*
X13462810Y-5034860D01*
X13462810Y-6817360D02*
X13492810Y-6847360D01*
X13492810Y-6817360D02*
X13462810Y-6847360D01*
X13462810Y-8617360D02*
X13492810Y-8647360D01*
X13492810Y-8617360D02*
X13462810Y-8647360D01*
X13462810Y-10417360D02*
X13492810Y-10447360D01*
X13492810Y-10417360D02*
X13462810Y-10447360D01*
X13474060Y-11576110D02*
X13504060Y-11606110D01*
X13504060Y-11576110D02*
X13474060Y-11606110D01*
X13725310Y-10717360D02*
X13755310Y-10747360D01*
X13755310Y-10717360D02*
X13725310Y-10747360D01*
X14075310Y-5292360D02*
X14105310Y-5322360D01*
X14105310Y-5292360D02*
X14075310Y-5322360D01*
X14075310Y-7484860D02*
X14105310Y-7514860D01*
X14105310Y-7484860D02*
X14075310Y-7514860D01*
X14075310Y-8867360D02*
X14105310Y-8897360D01*
X14105310Y-8867360D02*
X14075310Y-8897360D01*
X14350310Y-3617360D02*
X14380310Y-3647360D01*
X14380310Y-3617360D02*
X14350310Y-3647360D01*
X14350310Y-3767360D02*
X14380310Y-3797360D01*
X14380310Y-3767360D02*
X14350310Y-3797360D01*
X14350310Y-7364784D02*
X14380310Y-7394784D01*
X14380310Y-7364784D02*
X14350310Y-7394784D01*
X14475310Y-9217360D02*
X14505310Y-9247360D01*
X14505310Y-9217360D02*
X14475310Y-9247360D01*
X14500310Y-5592360D02*
X14530310Y-5622360D01*
X14530310Y-5592360D02*
X14500310Y-5622360D01*
X14536310Y-3913560D02*
X14566310Y-3943560D01*
X14566310Y-3913560D02*
X14536310Y-3943560D01*
X14600310Y-7592360D02*
X14630310Y-7622360D01*
X14630310Y-7592360D02*
X14600310Y-7622360D01*
X15082734Y-9474784D02*
X15112734Y-9504784D01*
X15112734Y-9474784D02*
X15082734Y-9504784D01*
X15225310Y-5874784D02*
X15255310Y-5904784D01*
X15255310Y-5874784D02*
X15225310Y-5904784D01*
X15250310Y-4067360D02*
X15280310Y-4097360D01*
X15280310Y-4067360D02*
X15250310Y-4097360D01*
X15350310Y-5467360D02*
X15380310Y-5497360D01*
X15380310Y-5467360D02*
X15350310Y-5497360D01*
X15350310Y-7267360D02*
X15380310Y-7297360D01*
X15380310Y-7267360D02*
X15350310Y-7297360D01*
X15350310Y-9067360D02*
X15380310Y-9097360D01*
X15380310Y-9067360D02*
X15350310Y-9097360D01*
X15350310Y-10930307D02*
X15380310Y-10960307D01*
X15380310Y-10930307D02*
X15350310Y-10960307D01*
X15390310Y-11517360D02*
X15420310Y-11547360D01*
X15420310Y-11517360D02*
X15390310Y-11547360D01*
X15950310Y-3913560D02*
X15980310Y-3943560D01*
X15980310Y-3913560D02*
X15950310Y-3943560D01*
X15975310Y-5742360D02*
X16005310Y-5772360D01*
X16005310Y-5742360D02*
X15975310Y-5772360D01*
X15975310Y-7967360D02*
X16005310Y-7997360D01*
X16005310Y-7967360D02*
X15975310Y-7997360D01*
X15975310Y-9367360D02*
X16005310Y-9397360D01*
X16005310Y-9367360D02*
X15975310Y-9397360D01*
X15975310Y-11767360D02*
X16005310Y-11797360D01*
X16005310Y-11767360D02*
X15975310Y-11797360D01*
X16050310Y-12164784D02*
X16080310Y-12194784D01*
X16080310Y-12164784D02*
X16050310Y-12194784D01*
X16125310Y-11709860D02*
X16155310Y-11739860D01*
X16155310Y-11709860D02*
X16125310Y-11739860D01*
X16175310Y-4192360D02*
X16205310Y-4222360D01*
X16205310Y-4192360D02*
X16175310Y-4222360D01*
X16200310Y-4042360D02*
X16230310Y-4072360D01*
X16230310Y-4042360D02*
X16200310Y-4072360D01*
X16225310Y-9467360D02*
X16255310Y-9497360D01*
X16255310Y-9467360D02*
X16225310Y-9497360D01*
X16325310Y-11317360D02*
X16355310Y-11347360D01*
X16355310Y-11317360D02*
X16325310Y-11347360D01*
X16325310Y-11644860D02*
X16355310Y-11674860D01*
X16355310Y-11644860D02*
X16325310Y-11674860D01*
X16475310Y-9467360D02*
X16505310Y-9497360D01*
X16505310Y-9467360D02*
X16475310Y-9497360D01*
X16742886Y-12024784D02*
X16772886Y-12054784D01*
X16772886Y-12024784D02*
X16742886Y-12054784D01*
X16850310Y-10967360D02*
X16880310Y-10997360D01*
X16880310Y-10967360D02*
X16850310Y-10997360D01*
X17107734Y-4074784D02*
X17137734Y-4104784D01*
X17137734Y-4074784D02*
X17107734Y-4104784D01*
X17250310Y-5492360D02*
X17280310Y-5522360D01*
X17280310Y-5492360D02*
X17250310Y-5522360D01*
X17250310Y-7317360D02*
X17280310Y-7347360D01*
X17280310Y-7317360D02*
X17250310Y-7347360D01*
X17250310Y-9117360D02*
X17280310Y-9147360D01*
X17280310Y-9117360D02*
X17250310Y-9147360D01*
X17250310Y-10917360D02*
X17280310Y-10947360D01*
X17280310Y-10917360D02*
X17250310Y-10947360D01*
X17250310Y-11469860D02*
X17280310Y-11499860D01*
X17280310Y-11469860D02*
X17250310Y-11499860D01*
X17875310Y-3913560D02*
X17905310Y-3943560D01*
X17905310Y-3913560D02*
X17875310Y-3943560D01*
X17875310Y-5729058D02*
X17905310Y-5759058D01*
X17905310Y-5729058D02*
X17875310Y-5759058D01*
X17875310Y-7967360D02*
X17905310Y-7997360D01*
X17905310Y-7967360D02*
X17875310Y-7997360D01*
X17875310Y-9342360D02*
X17905310Y-9372360D01*
X17905310Y-9342360D02*
X17875310Y-9372360D01*
X17875310Y-11717360D02*
X17905310Y-11747360D01*
X17905310Y-11717360D02*
X17875310Y-11747360D01*
X17875310Y-11967360D02*
X17905310Y-11997360D01*
X17905310Y-11967360D02*
X17875310Y-11997360D01*
X17975310Y-9717360D02*
X18005310Y-9747360D01*
X18005310Y-9717360D02*
X17975310Y-9747360D01*
X17975310Y-9967360D02*
X18005310Y-9997360D01*
X18005310Y-9967360D02*
X17975310Y-9997360D01*
X18025310Y-12267360D02*
X18055310Y-12297360D01*
X18055310Y-12267360D02*
X18025310Y-12297360D01*
X18050310Y-7367360D02*
X18080310Y-7397360D01*
X18080310Y-7367360D02*
X18050310Y-7397360D01*
X18075310Y-7792360D02*
X18105310Y-7822360D01*
X18105310Y-7792360D02*
X18075310Y-7822360D01*
X18082734Y-4074784D02*
X18112734Y-4104784D01*
X18112734Y-4074784D02*
X18082734Y-4104784D01*
X18154310Y-4254960D02*
X18184310Y-4284960D01*
X18184310Y-4254960D02*
X18154310Y-4284960D01*
X18225310Y-5967360D02*
X18255310Y-5997360D01*
X18255310Y-5967360D02*
X18225310Y-5997360D01*
X18225310Y-6217360D02*
X18255310Y-6247360D01*
X18255310Y-6217360D02*
X18225310Y-6247360D01*
X18225310Y-7217360D02*
X18255310Y-7247360D01*
X18255310Y-7217360D02*
X18225310Y-7247360D01*
X18225310Y-9717360D02*
X18255310Y-9747360D01*
X18255310Y-9717360D02*
X18225310Y-9747360D01*
X18250310Y-11717360D02*
X18280310Y-11747360D01*
X18280310Y-11717360D02*
X18250310Y-11747360D01*
X18283410Y-11319860D02*
X18313410Y-11349860D01*
X18313410Y-11319860D02*
X18283410Y-11349860D01*
X18475310Y-5967360D02*
X18505310Y-5997360D01*
X18505310Y-5967360D02*
X18475310Y-5997360D01*
X18475310Y-6217360D02*
X18505310Y-6247360D01*
X18505310Y-6217360D02*
X18475310Y-6247360D01*
X18475310Y-9717360D02*
X18505310Y-9747360D01*
X18505310Y-9717360D02*
X18475310Y-9747360D01*
X18475310Y-9967360D02*
X18505310Y-9997360D01*
X18505310Y-9967360D02*
X18475310Y-9997360D01*
X18550310Y-11519860D02*
X18580310Y-11549860D01*
X18580310Y-11519860D02*
X18550310Y-11549860D01*
X18550310Y-11717360D02*
X18580310Y-11747360D01*
X18580310Y-11717360D02*
X18550310Y-11747360D01*
X18687710Y-3848560D02*
X18717710Y-3878560D01*
X18717710Y-3848560D02*
X18687710Y-3878560D01*
X18725310Y-11717360D02*
X18755310Y-11747360D01*
X18755310Y-11717360D02*
X18725310Y-11747360D01*
X18824410Y-11267360D02*
X18854410Y-11297360D01*
X18854410Y-11267360D02*
X18824410Y-11297360D01*
X18975310Y-7467360D02*
X19005310Y-7497360D01*
X19005310Y-7467360D02*
X18975310Y-7497360D01*
X18975310Y-7717360D02*
X19005310Y-7747360D01*
X19005310Y-7717360D02*
X18975310Y-7747360D01*
X18975310Y-7967360D02*
X19005310Y-7997360D01*
X19005310Y-7967360D02*
X18975310Y-7997360D01*
X18975310Y-8717360D02*
X19005310Y-8747360D01*
X19005310Y-8717360D02*
X18975310Y-8747360D01*
X18975310Y-11717360D02*
X19005310Y-11747360D01*
X19005310Y-11717360D02*
X18975310Y-11747360D01*
X19200310Y-12267360D02*
X19230310Y-12297360D01*
X19230310Y-12267360D02*
X19200310Y-12297360D01*
X19525310Y-11967360D02*
X19555310Y-11997360D01*
X19555310Y-11967360D02*
X19525310Y-11997360D01*
X19525910Y-11849560D02*
X19555910Y-11879560D01*
X19555910Y-11849560D02*
X19525910Y-11879560D01*
X19648000Y-11467360D02*
X19678000Y-11497360D01*
X19678000Y-11467360D02*
X19648000Y-11497360D01*
X19830710Y-6591760D02*
X19860710Y-6621760D01*
X19860710Y-6591760D02*
X19830710Y-6621760D01*
X19848000Y-7252160D02*
X19878000Y-7282160D01*
X19878000Y-7252160D02*
X19848000Y-7282160D01*
X20008510Y-6337760D02*
X20038510Y-6367760D01*
X20038510Y-6337760D02*
X20008510Y-6367760D01*
X20048000Y-7252160D02*
X20078000Y-7282160D01*
X20078000Y-7252160D02*
X20048000Y-7282160D01*
X20225310Y-7717360D02*
X20255310Y-7747360D01*
X20255310Y-7717360D02*
X20225310Y-7747360D01*
X20225310Y-8217360D02*
X20255310Y-8247360D01*
X20255310Y-8217360D02*
X20225310Y-8247360D01*
X20225310Y-8717360D02*
X20255310Y-8747360D01*
X20255310Y-8717360D02*
X20225310Y-8747360D01*
X20225310Y-9217360D02*
X20255310Y-9247360D01*
X20255310Y-9217360D02*
X20225310Y-9247360D01*
X20475310Y-12692360D02*
X20505310Y-12722360D01*
X20505310Y-12692360D02*
X20475310Y-12722360D01*
X20725310Y-5717360D02*
X20755310Y-5747360D01*
X20755310Y-5717360D02*
X20725310Y-5747360D01*
X20725310Y-7717360D02*
X20755310Y-7747360D01*
X20755310Y-7717360D02*
X20725310Y-7747360D01*
X20725310Y-8717360D02*
X20755310Y-8747360D01*
X20755310Y-8717360D02*
X20725310Y-8747360D01*
X20725310Y-9217360D02*
X20755310Y-9247360D01*
X20755310Y-9217360D02*
X20725310Y-9247360D01*
X20725310Y-9717360D02*
X20755310Y-9747360D01*
X20755310Y-9717360D02*
X20725310Y-9747360D01*
X20725310Y-10217360D02*
X20755310Y-10247360D01*
X20755310Y-10217360D02*
X20725310Y-10247360D01*
X20725310Y-10717360D02*
X20755310Y-10747360D01*
X20755310Y-10717360D02*
X20725310Y-10747360D01*
X20725310Y-11217360D02*
X20755310Y-11247360D01*
X20755310Y-11217360D02*
X20725310Y-11247360D01*
X20725310Y-11717360D02*
X20755310Y-11747360D01*
X20755310Y-11717360D02*
X20725310Y-11747360D01*
X20725310Y-12217360D02*
X20755310Y-12247360D01*
X20755310Y-12217360D02*
X20725310Y-12247360D01*
X20772833Y-14017360D02*
X20802833Y-14047360D01*
X20802833Y-14017360D02*
X20772833Y-14047360D01*
X21225310Y-5717360D02*
X21255310Y-5747360D01*
X21255310Y-5717360D02*
X21225310Y-5747360D01*
X21225310Y-6217360D02*
X21255310Y-6247360D01*
X21255310Y-6217360D02*
X21225310Y-6247360D01*
X21225310Y-6717360D02*
X21255310Y-6747360D01*
X21255310Y-6717360D02*
X21225310Y-6747360D01*
X21225310Y-7217360D02*
X21255310Y-7247360D01*
X21255310Y-7217360D02*
X21225310Y-7247360D01*
X21225310Y-7717360D02*
X21255310Y-7747360D01*
X21255310Y-7717360D02*
X21225310Y-7747360D01*
X21225310Y-8217360D02*
X21255310Y-8247360D01*
X21255310Y-8217360D02*
X21225310Y-8247360D01*
X21225310Y-10717360D02*
X21255310Y-10747360D01*
X21255310Y-10717360D02*
X21225310Y-10747360D01*
X21225310Y-11717360D02*
X21255310Y-11747360D01*
X21255310Y-11717360D02*
X21225310Y-11747360D01*
X21225310Y-12217360D02*
X21255310Y-12247360D01*
X21255310Y-12217360D02*
X21225310Y-12247360D01*
X21225310Y-12717360D02*
X21255310Y-12747360D01*
X21255310Y-12717360D02*
X21225310Y-12747360D01*
X19500500Y-10203419D02*
G75*
G02*
X19425500Y-10203419I-37500J0D01*
G01*
X19425500Y-10203419D02*
G75*
G02*
X19500500Y-10203419I37500J0D01*
G01*
X19700500Y-10203419D02*
G75*
G02*
X19625500Y-10203419I-37500J0D01*
G01*
X19625500Y-10203419D02*
G75*
G02*
X19700500Y-10203419I37500J0D01*
G01*
X19900500Y-10203419D02*
G75*
G02*
X19825500Y-10203419I-37500J0D01*
G01*
X19825500Y-10203419D02*
G75*
G02*
X19900500Y-10203419I37500J0D01*
G01*
X20100500Y-10203419D02*
G75*
G02*
X20025500Y-10203419I-37500J0D01*
G01*
X20025500Y-10203419D02*
G75*
G02*
X20100500Y-10203419I37500J0D01*
G01*
D14*
X19001000Y-4251419D02*
X19001000Y-4361419D01*
X18946000Y-4306419D02*
X19056000Y-4306419D01*
X19001000Y-4505419D02*
X19001000Y-4615419D01*
X18946000Y-4560419D02*
X19056000Y-4560419D01*
X19001000Y-4759419D02*
X19001000Y-4869419D01*
X18946000Y-4814419D02*
X19056000Y-4814419D01*
X19001000Y-5013419D02*
X19001000Y-5123419D01*
X18946000Y-5068419D02*
X19056000Y-5068419D01*
X19001000Y-5267419D02*
X19001000Y-5377419D01*
X18946000Y-5322419D02*
X19056000Y-5322419D01*
X19001000Y-5521419D02*
X19001000Y-5631419D01*
X18946000Y-5576419D02*
X19056000Y-5576419D01*
X19001000Y-5775419D02*
X19001000Y-5885419D01*
X18946000Y-5830419D02*
X19056000Y-5830419D01*
X19001000Y-6029419D02*
X19001000Y-6139419D01*
X18946000Y-6084419D02*
X19056000Y-6084419D01*
X19001000Y-6283419D02*
X19001000Y-6393419D01*
X18946000Y-6338419D02*
X19056000Y-6338419D01*
X19001000Y-6537419D02*
X19001000Y-6647419D01*
X18946000Y-6592419D02*
X19056000Y-6592419D01*
X19001000Y-6791419D02*
X19001000Y-6901419D01*
X18946000Y-6846419D02*
X19056000Y-6846419D01*
X19001000Y-7045419D02*
X19001000Y-7155419D01*
X18946000Y-7100419D02*
X19056000Y-7100419D01*
X20525000Y-4251419D02*
X20525000Y-4361419D01*
X20470000Y-4306419D02*
X20580000Y-4306419D01*
X20525000Y-4505419D02*
X20525000Y-4615419D01*
X20470000Y-4560419D02*
X20580000Y-4560419D01*
X20525000Y-4759419D02*
X20525000Y-4869419D01*
X20470000Y-4814419D02*
X20580000Y-4814419D01*
X20525000Y-5013419D02*
X20525000Y-5123419D01*
X20470000Y-5068419D02*
X20580000Y-5068419D01*
X20525000Y-5267419D02*
X20525000Y-5377419D01*
X20470000Y-5322419D02*
X20580000Y-5322419D01*
X20525000Y-5521419D02*
X20525000Y-5631419D01*
X20470000Y-5576419D02*
X20580000Y-5576419D01*
X20525000Y-5775419D02*
X20525000Y-5885419D01*
X20470000Y-5830419D02*
X20580000Y-5830419D01*
X20525000Y-6029419D02*
X20525000Y-6139419D01*
X20470000Y-6084419D02*
X20580000Y-6084419D01*
X20525000Y-6283419D02*
X20525000Y-6393419D01*
X20470000Y-6338419D02*
X20580000Y-6338419D01*
X20525000Y-6537419D02*
X20525000Y-6647419D01*
X20470000Y-6592419D02*
X20580000Y-6592419D01*
X20525000Y-6791419D02*
X20525000Y-6901419D01*
X20470000Y-6846419D02*
X20580000Y-6846419D01*
X20525000Y-7045419D02*
X20525000Y-7155419D01*
X20470000Y-7100419D02*
X20580000Y-7100419D01*
D15*
X10031707Y-12540187D02*
X10031707Y-12455334D01*
X9946853Y-12455334D01*
X9946853Y-12540187D01*
X10031707Y-12540187D01*
X10031707Y-12995187D02*
X10031707Y-12910334D01*
X9946853Y-12910334D01*
X9946853Y-12995187D01*
X10031707Y-12995187D01*
D16*
X8920310Y-4342360D02*
X9030310Y-4232360D01*
X8920310Y-4122360D01*
X8810310Y-4232360D01*
X8920310Y-4342360D01*
X8920310Y-12939360D02*
X9030310Y-12829360D01*
X8920310Y-12719360D01*
X8810310Y-12829360D01*
X8920310Y-12939360D01*
X19000310Y-8387569D02*
X19110310Y-8277569D01*
X19000310Y-8167569D01*
X18890310Y-8277569D01*
X19000310Y-8387569D01*
X20354180Y-11287490D02*
X20464180Y-11177490D01*
X20354180Y-11067490D01*
X20244180Y-11177490D01*
X20354180Y-11287490D01*
X20520310Y-8387569D02*
X20630310Y-8277569D01*
X20520310Y-8167569D01*
X20410310Y-8277569D01*
X20520310Y-8387569D01*
X21154180Y-5087490D02*
X21264180Y-4977490D01*
X21154180Y-4867490D01*
X21044180Y-4977490D01*
X21154180Y-5087490D01*
D13*
X7094396Y-15634975D02*
X7094396Y-15434975D01*
X7094396Y-15434975D02*
X7142015Y-15434975D01*
X7142015Y-15434975D02*
X7170587Y-15444499D01*
X7170587Y-15444499D02*
X7189635Y-15463546D01*
X7189635Y-15463546D02*
X7199158Y-15482594D01*
X7199158Y-15482594D02*
X7208682Y-15520689D01*
X7208682Y-15520689D02*
X7208682Y-15549261D01*
X7208682Y-15549261D02*
X7199158Y-15587356D01*
X7199158Y-15587356D02*
X7189635Y-15606404D01*
X7189635Y-15606404D02*
X7170587Y-15625451D01*
X7170587Y-15625451D02*
X7142015Y-15634975D01*
X7142015Y-15634975D02*
X7094396Y-15634975D01*
X7294396Y-15634975D02*
X7294396Y-15501642D01*
X7294396Y-15539737D02*
X7303920Y-15520689D01*
X7303920Y-15520689D02*
X7313444Y-15511165D01*
X7313444Y-15511165D02*
X7332492Y-15501642D01*
X7332492Y-15501642D02*
X7351539Y-15501642D01*
X7418206Y-15634975D02*
X7418206Y-15501642D01*
X7418206Y-15434975D02*
X7408682Y-15444499D01*
X7408682Y-15444499D02*
X7418206Y-15454023D01*
X7418206Y-15454023D02*
X7427730Y-15444499D01*
X7427730Y-15444499D02*
X7418206Y-15434975D01*
X7418206Y-15434975D02*
X7418206Y-15454023D01*
X7542015Y-15634975D02*
X7522968Y-15625451D01*
X7522968Y-15625451D02*
X7513444Y-15606404D01*
X7513444Y-15606404D02*
X7513444Y-15434975D01*
X7646777Y-15634975D02*
X7627730Y-15625451D01*
X7627730Y-15625451D02*
X7618206Y-15606404D01*
X7618206Y-15606404D02*
X7618206Y-15434975D01*
X7875349Y-15634975D02*
X7875349Y-15434975D01*
X7875349Y-15434975D02*
X7942016Y-15577832D01*
X7942016Y-15577832D02*
X8008682Y-15434975D01*
X8008682Y-15434975D02*
X8008682Y-15634975D01*
X8189635Y-15634975D02*
X8189635Y-15530213D01*
X8189635Y-15530213D02*
X8180111Y-15511165D01*
X8180111Y-15511165D02*
X8161063Y-15501642D01*
X8161063Y-15501642D02*
X8122968Y-15501642D01*
X8122968Y-15501642D02*
X8103920Y-15511165D01*
X8189635Y-15625451D02*
X8170587Y-15634975D01*
X8170587Y-15634975D02*
X8122968Y-15634975D01*
X8122968Y-15634975D02*
X8103920Y-15625451D01*
X8103920Y-15625451D02*
X8094396Y-15606404D01*
X8094396Y-15606404D02*
X8094396Y-15587356D01*
X8094396Y-15587356D02*
X8103920Y-15568308D01*
X8103920Y-15568308D02*
X8122968Y-15558785D01*
X8122968Y-15558785D02*
X8170587Y-15558785D01*
X8170587Y-15558785D02*
X8189635Y-15549261D01*
X8284873Y-15501642D02*
X8284873Y-15701642D01*
X8284873Y-15511165D02*
X8303920Y-15501642D01*
X8303920Y-15501642D02*
X8342016Y-15501642D01*
X8342016Y-15501642D02*
X8361063Y-15511165D01*
X8361063Y-15511165D02*
X8370587Y-15520689D01*
X8370587Y-15520689D02*
X8380111Y-15539737D01*
X8380111Y-15539737D02*
X8380111Y-15596880D01*
X8380111Y-15596880D02*
X8370587Y-15615927D01*
X8370587Y-15615927D02*
X8361063Y-15625451D01*
X8361063Y-15625451D02*
X8342016Y-15634975D01*
X8342016Y-15634975D02*
X8303920Y-15634975D01*
X8303920Y-15634975D02*
X8284873Y-15625451D01*
X8465825Y-15615927D02*
X8475349Y-15625451D01*
X8475349Y-15625451D02*
X8465825Y-15634975D01*
X8465825Y-15634975D02*
X8456301Y-15625451D01*
X8456301Y-15625451D02*
X8465825Y-15615927D01*
X8465825Y-15615927D02*
X8465825Y-15634975D01*
X8465825Y-15511165D02*
X8475349Y-15520689D01*
X8475349Y-15520689D02*
X8465825Y-15530213D01*
X8465825Y-15530213D02*
X8456301Y-15520689D01*
X8456301Y-15520689D02*
X8465825Y-15511165D01*
X8465825Y-15511165D02*
X8465825Y-15530213D01*
D12*
X6803620Y-15948491D02*
X6833620Y-15978491D01*
X6833620Y-15948491D02*
X6803620Y-15978491D01*
D13*
X7132492Y-15854975D02*
X7151539Y-15854975D01*
X7151539Y-15854975D02*
X7170587Y-15864499D01*
X7170587Y-15864499D02*
X7180111Y-15874023D01*
X7180111Y-15874023D02*
X7189635Y-15893070D01*
X7189635Y-15893070D02*
X7199158Y-15931165D01*
X7199158Y-15931165D02*
X7199158Y-15978785D01*
X7199158Y-15978785D02*
X7189635Y-16016880D01*
X7189635Y-16016880D02*
X7180111Y-16035927D01*
X7180111Y-16035927D02*
X7170587Y-16045451D01*
X7170587Y-16045451D02*
X7151539Y-16054975D01*
X7151539Y-16054975D02*
X7132492Y-16054975D01*
X7132492Y-16054975D02*
X7113444Y-16045451D01*
X7113444Y-16045451D02*
X7103920Y-16035927D01*
X7103920Y-16035927D02*
X7094396Y-16016880D01*
X7094396Y-16016880D02*
X7084873Y-15978785D01*
X7084873Y-15978785D02*
X7084873Y-15931165D01*
X7084873Y-15931165D02*
X7094396Y-15893070D01*
X7094396Y-15893070D02*
X7103920Y-15874023D01*
X7103920Y-15874023D02*
X7113444Y-15864499D01*
X7113444Y-15864499D02*
X7132492Y-15854975D01*
X7284873Y-16035927D02*
X7294396Y-16045451D01*
X7294396Y-16045451D02*
X7284873Y-16054975D01*
X7284873Y-16054975D02*
X7275349Y-16045451D01*
X7275349Y-16045451D02*
X7284873Y-16035927D01*
X7284873Y-16035927D02*
X7284873Y-16054975D01*
X7361063Y-15854975D02*
X7484873Y-15854975D01*
X7484873Y-15854975D02*
X7418206Y-15931165D01*
X7418206Y-15931165D02*
X7446777Y-15931165D01*
X7446777Y-15931165D02*
X7465825Y-15940689D01*
X7465825Y-15940689D02*
X7475349Y-15950213D01*
X7475349Y-15950213D02*
X7484873Y-15969261D01*
X7484873Y-15969261D02*
X7484873Y-16016880D01*
X7484873Y-16016880D02*
X7475349Y-16035927D01*
X7475349Y-16035927D02*
X7465825Y-16045451D01*
X7465825Y-16045451D02*
X7446777Y-16054975D01*
X7446777Y-16054975D02*
X7389635Y-16054975D01*
X7389635Y-16054975D02*
X7370587Y-16045451D01*
X7370587Y-16045451D02*
X7361063Y-16035927D01*
X7608682Y-15854975D02*
X7627730Y-15854975D01*
X7627730Y-15854975D02*
X7646777Y-15864499D01*
X7646777Y-15864499D02*
X7656301Y-15874023D01*
X7656301Y-15874023D02*
X7665825Y-15893070D01*
X7665825Y-15893070D02*
X7675349Y-15931165D01*
X7675349Y-15931165D02*
X7675349Y-15978785D01*
X7675349Y-15978785D02*
X7665825Y-16016880D01*
X7665825Y-16016880D02*
X7656301Y-16035927D01*
X7656301Y-16035927D02*
X7646777Y-16045451D01*
X7646777Y-16045451D02*
X7627730Y-16054975D01*
X7627730Y-16054975D02*
X7608682Y-16054975D01*
X7608682Y-16054975D02*
X7589635Y-16045451D01*
X7589635Y-16045451D02*
X7580111Y-16035927D01*
X7580111Y-16035927D02*
X7570587Y-16016880D01*
X7570587Y-16016880D02*
X7561063Y-15978785D01*
X7561063Y-15978785D02*
X7561063Y-15931165D01*
X7561063Y-15931165D02*
X7570587Y-15893070D01*
X7570587Y-15893070D02*
X7580111Y-15874023D01*
X7580111Y-15874023D02*
X7589635Y-15864499D01*
X7589635Y-15864499D02*
X7608682Y-15854975D01*
X7799158Y-15854975D02*
X7818206Y-15854975D01*
X7818206Y-15854975D02*
X7837254Y-15864499D01*
X7837254Y-15864499D02*
X7846777Y-15874023D01*
X7846777Y-15874023D02*
X7856301Y-15893070D01*
X7856301Y-15893070D02*
X7865825Y-15931165D01*
X7865825Y-15931165D02*
X7865825Y-15978785D01*
X7865825Y-15978785D02*
X7856301Y-16016880D01*
X7856301Y-16016880D02*
X7846777Y-16035927D01*
X7846777Y-16035927D02*
X7837254Y-16045451D01*
X7837254Y-16045451D02*
X7818206Y-16054975D01*
X7818206Y-16054975D02*
X7799158Y-16054975D01*
X7799158Y-16054975D02*
X7780111Y-16045451D01*
X7780111Y-16045451D02*
X7770587Y-16035927D01*
X7770587Y-16035927D02*
X7761063Y-16016880D01*
X7761063Y-16016880D02*
X7751539Y-15978785D01*
X7751539Y-15978785D02*
X7751539Y-15931165D01*
X7751539Y-15931165D02*
X7761063Y-15893070D01*
X7761063Y-15893070D02*
X7770587Y-15874023D01*
X7770587Y-15874023D02*
X7780111Y-15864499D01*
X7780111Y-15864499D02*
X7799158Y-15854975D01*
X7951539Y-16054975D02*
X7951539Y-15921642D01*
X7951539Y-15940689D02*
X7961063Y-15931165D01*
X7961063Y-15931165D02*
X7980111Y-15921642D01*
X7980111Y-15921642D02*
X8008682Y-15921642D01*
X8008682Y-15921642D02*
X8027730Y-15931165D01*
X8027730Y-15931165D02*
X8037254Y-15950213D01*
X8037254Y-15950213D02*
X8037254Y-16054975D01*
X8037254Y-15950213D02*
X8046777Y-15931165D01*
X8046777Y-15931165D02*
X8065825Y-15921642D01*
X8065825Y-15921642D02*
X8094396Y-15921642D01*
X8094396Y-15921642D02*
X8113444Y-15931165D01*
X8113444Y-15931165D02*
X8122968Y-15950213D01*
X8122968Y-15950213D02*
X8122968Y-16054975D01*
X8218206Y-16054975D02*
X8218206Y-15921642D01*
X8218206Y-15940689D02*
X8227730Y-15931165D01*
X8227730Y-15931165D02*
X8246777Y-15921642D01*
X8246777Y-15921642D02*
X8275349Y-15921642D01*
X8275349Y-15921642D02*
X8294397Y-15931165D01*
X8294397Y-15931165D02*
X8303920Y-15950213D01*
X8303920Y-15950213D02*
X8303920Y-16054975D01*
X8303920Y-15950213D02*
X8313444Y-15931165D01*
X8313444Y-15931165D02*
X8332492Y-15921642D01*
X8332492Y-15921642D02*
X8361063Y-15921642D01*
X8361063Y-15921642D02*
X8380111Y-15931165D01*
X8380111Y-15931165D02*
X8389635Y-15950213D01*
X8389635Y-15950213D02*
X8389635Y-16054975D01*
X8780111Y-15845451D02*
X8608682Y-16102594D01*
X9037254Y-15854975D02*
X9056302Y-15854975D01*
X9056302Y-15854975D02*
X9075349Y-15864499D01*
X9075349Y-15864499D02*
X9084873Y-15874023D01*
X9084873Y-15874023D02*
X9094397Y-15893070D01*
X9094397Y-15893070D02*
X9103921Y-15931165D01*
X9103921Y-15931165D02*
X9103921Y-15978785D01*
X9103921Y-15978785D02*
X9094397Y-16016880D01*
X9094397Y-16016880D02*
X9084873Y-16035927D01*
X9084873Y-16035927D02*
X9075349Y-16045451D01*
X9075349Y-16045451D02*
X9056302Y-16054975D01*
X9056302Y-16054975D02*
X9037254Y-16054975D01*
X9037254Y-16054975D02*
X9018206Y-16045451D01*
X9018206Y-16045451D02*
X9008682Y-16035927D01*
X9008682Y-16035927D02*
X8999159Y-16016880D01*
X8999159Y-16016880D02*
X8989635Y-15978785D01*
X8989635Y-15978785D02*
X8989635Y-15931165D01*
X8989635Y-15931165D02*
X8999159Y-15893070D01*
X8999159Y-15893070D02*
X9008682Y-15874023D01*
X9008682Y-15874023D02*
X9018206Y-15864499D01*
X9018206Y-15864499D02*
X9037254Y-15854975D01*
X9189635Y-16035927D02*
X9199159Y-16045451D01*
X9199159Y-16045451D02*
X9189635Y-16054975D01*
X9189635Y-16054975D02*
X9180111Y-16045451D01*
X9180111Y-16045451D02*
X9189635Y-16035927D01*
X9189635Y-16035927D02*
X9189635Y-16054975D01*
X9322968Y-15854975D02*
X9342016Y-15854975D01*
X9342016Y-15854975D02*
X9361063Y-15864499D01*
X9361063Y-15864499D02*
X9370587Y-15874023D01*
X9370587Y-15874023D02*
X9380111Y-15893070D01*
X9380111Y-15893070D02*
X9389635Y-15931165D01*
X9389635Y-15931165D02*
X9389635Y-15978785D01*
X9389635Y-15978785D02*
X9380111Y-16016880D01*
X9380111Y-16016880D02*
X9370587Y-16035927D01*
X9370587Y-16035927D02*
X9361063Y-16045451D01*
X9361063Y-16045451D02*
X9342016Y-16054975D01*
X9342016Y-16054975D02*
X9322968Y-16054975D01*
X9322968Y-16054975D02*
X9303921Y-16045451D01*
X9303921Y-16045451D02*
X9294397Y-16035927D01*
X9294397Y-16035927D02*
X9284873Y-16016880D01*
X9284873Y-16016880D02*
X9275349Y-15978785D01*
X9275349Y-15978785D02*
X9275349Y-15931165D01*
X9275349Y-15931165D02*
X9284873Y-15893070D01*
X9284873Y-15893070D02*
X9294397Y-15874023D01*
X9294397Y-15874023D02*
X9303921Y-15864499D01*
X9303921Y-15864499D02*
X9322968Y-15854975D01*
X9580111Y-16054975D02*
X9465825Y-16054975D01*
X9522968Y-16054975D02*
X9522968Y-15854975D01*
X9522968Y-15854975D02*
X9503921Y-15883546D01*
X9503921Y-15883546D02*
X9484873Y-15902594D01*
X9484873Y-15902594D02*
X9465825Y-15912118D01*
X9770587Y-16054975D02*
X9656302Y-16054975D01*
X9713444Y-16054975D02*
X9713444Y-15854975D01*
X9713444Y-15854975D02*
X9694397Y-15883546D01*
X9694397Y-15883546D02*
X9675349Y-15902594D01*
X9675349Y-15902594D02*
X9656302Y-15912118D01*
X9884873Y-15940689D02*
X9865825Y-15931165D01*
X9865825Y-15931165D02*
X9856302Y-15921642D01*
X9856302Y-15921642D02*
X9846778Y-15902594D01*
X9846778Y-15902594D02*
X9846778Y-15893070D01*
X9846778Y-15893070D02*
X9856302Y-15874023D01*
X9856302Y-15874023D02*
X9865825Y-15864499D01*
X9865825Y-15864499D02*
X9884873Y-15854975D01*
X9884873Y-15854975D02*
X9922968Y-15854975D01*
X9922968Y-15854975D02*
X9942016Y-15864499D01*
X9942016Y-15864499D02*
X9951540Y-15874023D01*
X9951540Y-15874023D02*
X9961063Y-15893070D01*
X9961063Y-15893070D02*
X9961063Y-15902594D01*
X9961063Y-15902594D02*
X9951540Y-15921642D01*
X9951540Y-15921642D02*
X9942016Y-15931165D01*
X9942016Y-15931165D02*
X9922968Y-15940689D01*
X9922968Y-15940689D02*
X9884873Y-15940689D01*
X9884873Y-15940689D02*
X9865825Y-15950213D01*
X9865825Y-15950213D02*
X9856302Y-15959737D01*
X9856302Y-15959737D02*
X9846778Y-15978785D01*
X9846778Y-15978785D02*
X9846778Y-16016880D01*
X9846778Y-16016880D02*
X9856302Y-16035927D01*
X9856302Y-16035927D02*
X9865825Y-16045451D01*
X9865825Y-16045451D02*
X9884873Y-16054975D01*
X9884873Y-16054975D02*
X9922968Y-16054975D01*
X9922968Y-16054975D02*
X9942016Y-16045451D01*
X9942016Y-16045451D02*
X9951540Y-16035927D01*
X9951540Y-16035927D02*
X9961063Y-16016880D01*
X9961063Y-16016880D02*
X9961063Y-15978785D01*
X9961063Y-15978785D02*
X9951540Y-15959737D01*
X9951540Y-15959737D02*
X9942016Y-15950213D01*
X9942016Y-15950213D02*
X9922968Y-15940689D01*
X10037254Y-15854975D02*
X10037254Y-15893070D01*
X10113444Y-15854975D02*
X10113444Y-15893070D01*
X10408683Y-16131165D02*
X10399159Y-16121642D01*
X10399159Y-16121642D02*
X10380111Y-16093070D01*
X10380111Y-16093070D02*
X10370587Y-16074023D01*
X10370587Y-16074023D02*
X10361064Y-16045451D01*
X10361064Y-16045451D02*
X10351540Y-15997832D01*
X10351540Y-15997832D02*
X10351540Y-15959737D01*
X10351540Y-15959737D02*
X10361064Y-15912118D01*
X10361064Y-15912118D02*
X10370587Y-15883546D01*
X10370587Y-15883546D02*
X10380111Y-15864499D01*
X10380111Y-15864499D02*
X10399159Y-15835927D01*
X10399159Y-15835927D02*
X10408683Y-15826404D01*
X10589635Y-16054975D02*
X10475349Y-16054975D01*
X10532492Y-16054975D02*
X10532492Y-15854975D01*
X10532492Y-15854975D02*
X10513444Y-15883546D01*
X10513444Y-15883546D02*
X10494397Y-15902594D01*
X10494397Y-15902594D02*
X10475349Y-15912118D01*
X10703921Y-15940689D02*
X10684873Y-15931165D01*
X10684873Y-15931165D02*
X10675349Y-15921642D01*
X10675349Y-15921642D02*
X10665825Y-15902594D01*
X10665825Y-15902594D02*
X10665825Y-15893070D01*
X10665825Y-15893070D02*
X10675349Y-15874023D01*
X10675349Y-15874023D02*
X10684873Y-15864499D01*
X10684873Y-15864499D02*
X10703921Y-15854975D01*
X10703921Y-15854975D02*
X10742016Y-15854975D01*
X10742016Y-15854975D02*
X10761064Y-15864499D01*
X10761064Y-15864499D02*
X10770587Y-15874023D01*
X10770587Y-15874023D02*
X10780111Y-15893070D01*
X10780111Y-15893070D02*
X10780111Y-15902594D01*
X10780111Y-15902594D02*
X10770587Y-15921642D01*
X10770587Y-15921642D02*
X10761064Y-15931165D01*
X10761064Y-15931165D02*
X10742016Y-15940689D01*
X10742016Y-15940689D02*
X10703921Y-15940689D01*
X10703921Y-15940689D02*
X10684873Y-15950213D01*
X10684873Y-15950213D02*
X10675349Y-15959737D01*
X10675349Y-15959737D02*
X10665825Y-15978785D01*
X10665825Y-15978785D02*
X10665825Y-16016880D01*
X10665825Y-16016880D02*
X10675349Y-16035927D01*
X10675349Y-16035927D02*
X10684873Y-16045451D01*
X10684873Y-16045451D02*
X10703921Y-16054975D01*
X10703921Y-16054975D02*
X10742016Y-16054975D01*
X10742016Y-16054975D02*
X10761064Y-16045451D01*
X10761064Y-16045451D02*
X10770587Y-16035927D01*
X10770587Y-16035927D02*
X10780111Y-16016880D01*
X10780111Y-16016880D02*
X10780111Y-15978785D01*
X10780111Y-15978785D02*
X10770587Y-15959737D01*
X10770587Y-15959737D02*
X10761064Y-15950213D01*
X10761064Y-15950213D02*
X10742016Y-15940689D01*
X10846778Y-15854975D02*
X10980111Y-15854975D01*
X10980111Y-15854975D02*
X10894397Y-16054975D01*
X11208683Y-16054975D02*
X11208683Y-15854975D01*
X11294397Y-16054975D02*
X11294397Y-15950213D01*
X11294397Y-15950213D02*
X11284873Y-15931165D01*
X11284873Y-15931165D02*
X11265825Y-15921642D01*
X11265825Y-15921642D02*
X11237254Y-15921642D01*
X11237254Y-15921642D02*
X11218206Y-15931165D01*
X11218206Y-15931165D02*
X11208683Y-15940689D01*
X11418206Y-16054975D02*
X11399159Y-16045451D01*
X11399159Y-16045451D02*
X11389635Y-16035927D01*
X11389635Y-16035927D02*
X11380111Y-16016880D01*
X11380111Y-16016880D02*
X11380111Y-15959737D01*
X11380111Y-15959737D02*
X11389635Y-15940689D01*
X11389635Y-15940689D02*
X11399159Y-15931165D01*
X11399159Y-15931165D02*
X11418206Y-15921642D01*
X11418206Y-15921642D02*
X11446778Y-15921642D01*
X11446778Y-15921642D02*
X11465825Y-15931165D01*
X11465825Y-15931165D02*
X11475349Y-15940689D01*
X11475349Y-15940689D02*
X11484873Y-15959737D01*
X11484873Y-15959737D02*
X11484873Y-16016880D01*
X11484873Y-16016880D02*
X11475349Y-16035927D01*
X11475349Y-16035927D02*
X11465825Y-16045451D01*
X11465825Y-16045451D02*
X11446778Y-16054975D01*
X11446778Y-16054975D02*
X11418206Y-16054975D01*
X11599159Y-16054975D02*
X11580111Y-16045451D01*
X11580111Y-16045451D02*
X11570587Y-16026404D01*
X11570587Y-16026404D02*
X11570587Y-15854975D01*
X11751540Y-16045451D02*
X11732492Y-16054975D01*
X11732492Y-16054975D02*
X11694397Y-16054975D01*
X11694397Y-16054975D02*
X11675349Y-16045451D01*
X11675349Y-16045451D02*
X11665825Y-16026404D01*
X11665825Y-16026404D02*
X11665825Y-15950213D01*
X11665825Y-15950213D02*
X11675349Y-15931165D01*
X11675349Y-15931165D02*
X11694397Y-15921642D01*
X11694397Y-15921642D02*
X11732492Y-15921642D01*
X11732492Y-15921642D02*
X11751540Y-15931165D01*
X11751540Y-15931165D02*
X11761064Y-15950213D01*
X11761064Y-15950213D02*
X11761064Y-15969261D01*
X11761064Y-15969261D02*
X11665825Y-15988308D01*
X11837254Y-16045451D02*
X11856302Y-16054975D01*
X11856302Y-16054975D02*
X11894397Y-16054975D01*
X11894397Y-16054975D02*
X11913445Y-16045451D01*
X11913445Y-16045451D02*
X11922968Y-16026404D01*
X11922968Y-16026404D02*
X11922968Y-16016880D01*
X11922968Y-16016880D02*
X11913445Y-15997832D01*
X11913445Y-15997832D02*
X11894397Y-15988308D01*
X11894397Y-15988308D02*
X11865825Y-15988308D01*
X11865825Y-15988308D02*
X11846778Y-15978785D01*
X11846778Y-15978785D02*
X11837254Y-15959737D01*
X11837254Y-15959737D02*
X11837254Y-15950213D01*
X11837254Y-15950213D02*
X11846778Y-15931165D01*
X11846778Y-15931165D02*
X11865825Y-15921642D01*
X11865825Y-15921642D02*
X11894397Y-15921642D01*
X11894397Y-15921642D02*
X11913445Y-15931165D01*
X11989635Y-16131165D02*
X11999159Y-16121642D01*
X11999159Y-16121642D02*
X12018206Y-16093070D01*
X12018206Y-16093070D02*
X12027730Y-16074023D01*
X12027730Y-16074023D02*
X12037254Y-16045451D01*
X12037254Y-16045451D02*
X12046778Y-15997832D01*
X12046778Y-15997832D02*
X12046778Y-15959737D01*
X12046778Y-15959737D02*
X12037254Y-15912118D01*
X12037254Y-15912118D02*
X12027730Y-15883546D01*
X12027730Y-15883546D02*
X12018206Y-15864499D01*
X12018206Y-15864499D02*
X11999159Y-15835927D01*
X11999159Y-15835927D02*
X11989635Y-15826404D01*
D12*
X6833620Y-16227491D02*
G75*
G02*
X6758620Y-16227491I-37500J0D01*
G01*
X6758620Y-16227491D02*
G75*
G02*
X6833620Y-16227491I37500J0D01*
G01*
D13*
X7132492Y-16118975D02*
X7151539Y-16118975D01*
X7151539Y-16118975D02*
X7170587Y-16128499D01*
X7170587Y-16128499D02*
X7180111Y-16138023D01*
X7180111Y-16138023D02*
X7189635Y-16157070D01*
X7189635Y-16157070D02*
X7199158Y-16195165D01*
X7199158Y-16195165D02*
X7199158Y-16242785D01*
X7199158Y-16242785D02*
X7189635Y-16280880D01*
X7189635Y-16280880D02*
X7180111Y-16299927D01*
X7180111Y-16299927D02*
X7170587Y-16309451D01*
X7170587Y-16309451D02*
X7151539Y-16318975D01*
X7151539Y-16318975D02*
X7132492Y-16318975D01*
X7132492Y-16318975D02*
X7113444Y-16309451D01*
X7113444Y-16309451D02*
X7103920Y-16299927D01*
X7103920Y-16299927D02*
X7094396Y-16280880D01*
X7094396Y-16280880D02*
X7084873Y-16242785D01*
X7084873Y-16242785D02*
X7084873Y-16195165D01*
X7084873Y-16195165D02*
X7094396Y-16157070D01*
X7094396Y-16157070D02*
X7103920Y-16138023D01*
X7103920Y-16138023D02*
X7113444Y-16128499D01*
X7113444Y-16128499D02*
X7132492Y-16118975D01*
X7284873Y-16299927D02*
X7294396Y-16309451D01*
X7294396Y-16309451D02*
X7284873Y-16318975D01*
X7284873Y-16318975D02*
X7275349Y-16309451D01*
X7275349Y-16309451D02*
X7284873Y-16299927D01*
X7284873Y-16299927D02*
X7284873Y-16318975D01*
X7361063Y-16118975D02*
X7494396Y-16118975D01*
X7494396Y-16118975D02*
X7408682Y-16318975D01*
X7665825Y-16118975D02*
X7570587Y-16118975D01*
X7570587Y-16118975D02*
X7561063Y-16214213D01*
X7561063Y-16214213D02*
X7570587Y-16204689D01*
X7570587Y-16204689D02*
X7589635Y-16195165D01*
X7589635Y-16195165D02*
X7637254Y-16195165D01*
X7637254Y-16195165D02*
X7656301Y-16204689D01*
X7656301Y-16204689D02*
X7665825Y-16214213D01*
X7665825Y-16214213D02*
X7675349Y-16233261D01*
X7675349Y-16233261D02*
X7675349Y-16280880D01*
X7675349Y-16280880D02*
X7665825Y-16299927D01*
X7665825Y-16299927D02*
X7656301Y-16309451D01*
X7656301Y-16309451D02*
X7637254Y-16318975D01*
X7637254Y-16318975D02*
X7589635Y-16318975D01*
X7589635Y-16318975D02*
X7570587Y-16309451D01*
X7570587Y-16309451D02*
X7561063Y-16299927D01*
X7799158Y-16118975D02*
X7818206Y-16118975D01*
X7818206Y-16118975D02*
X7837254Y-16128499D01*
X7837254Y-16128499D02*
X7846777Y-16138023D01*
X7846777Y-16138023D02*
X7856301Y-16157070D01*
X7856301Y-16157070D02*
X7865825Y-16195165D01*
X7865825Y-16195165D02*
X7865825Y-16242785D01*
X7865825Y-16242785D02*
X7856301Y-16280880D01*
X7856301Y-16280880D02*
X7846777Y-16299927D01*
X7846777Y-16299927D02*
X7837254Y-16309451D01*
X7837254Y-16309451D02*
X7818206Y-16318975D01*
X7818206Y-16318975D02*
X7799158Y-16318975D01*
X7799158Y-16318975D02*
X7780111Y-16309451D01*
X7780111Y-16309451D02*
X7770587Y-16299927D01*
X7770587Y-16299927D02*
X7761063Y-16280880D01*
X7761063Y-16280880D02*
X7751539Y-16242785D01*
X7751539Y-16242785D02*
X7751539Y-16195165D01*
X7751539Y-16195165D02*
X7761063Y-16157070D01*
X7761063Y-16157070D02*
X7770587Y-16138023D01*
X7770587Y-16138023D02*
X7780111Y-16128499D01*
X7780111Y-16128499D02*
X7799158Y-16118975D01*
X7951539Y-16318975D02*
X7951539Y-16185642D01*
X7951539Y-16204689D02*
X7961063Y-16195165D01*
X7961063Y-16195165D02*
X7980111Y-16185642D01*
X7980111Y-16185642D02*
X8008682Y-16185642D01*
X8008682Y-16185642D02*
X8027730Y-16195165D01*
X8027730Y-16195165D02*
X8037254Y-16214213D01*
X8037254Y-16214213D02*
X8037254Y-16318975D01*
X8037254Y-16214213D02*
X8046777Y-16195165D01*
X8046777Y-16195165D02*
X8065825Y-16185642D01*
X8065825Y-16185642D02*
X8094396Y-16185642D01*
X8094396Y-16185642D02*
X8113444Y-16195165D01*
X8113444Y-16195165D02*
X8122968Y-16214213D01*
X8122968Y-16214213D02*
X8122968Y-16318975D01*
X8218206Y-16318975D02*
X8218206Y-16185642D01*
X8218206Y-16204689D02*
X8227730Y-16195165D01*
X8227730Y-16195165D02*
X8246777Y-16185642D01*
X8246777Y-16185642D02*
X8275349Y-16185642D01*
X8275349Y-16185642D02*
X8294397Y-16195165D01*
X8294397Y-16195165D02*
X8303920Y-16214213D01*
X8303920Y-16214213D02*
X8303920Y-16318975D01*
X8303920Y-16214213D02*
X8313444Y-16195165D01*
X8313444Y-16195165D02*
X8332492Y-16185642D01*
X8332492Y-16185642D02*
X8361063Y-16185642D01*
X8361063Y-16185642D02*
X8380111Y-16195165D01*
X8380111Y-16195165D02*
X8389635Y-16214213D01*
X8389635Y-16214213D02*
X8389635Y-16318975D01*
X8780111Y-16109451D02*
X8608682Y-16366594D01*
X9037254Y-16118975D02*
X9056302Y-16118975D01*
X9056302Y-16118975D02*
X9075349Y-16128499D01*
X9075349Y-16128499D02*
X9084873Y-16138023D01*
X9084873Y-16138023D02*
X9094397Y-16157070D01*
X9094397Y-16157070D02*
X9103921Y-16195165D01*
X9103921Y-16195165D02*
X9103921Y-16242785D01*
X9103921Y-16242785D02*
X9094397Y-16280880D01*
X9094397Y-16280880D02*
X9084873Y-16299927D01*
X9084873Y-16299927D02*
X9075349Y-16309451D01*
X9075349Y-16309451D02*
X9056302Y-16318975D01*
X9056302Y-16318975D02*
X9037254Y-16318975D01*
X9037254Y-16318975D02*
X9018206Y-16309451D01*
X9018206Y-16309451D02*
X9008682Y-16299927D01*
X9008682Y-16299927D02*
X8999159Y-16280880D01*
X8999159Y-16280880D02*
X8989635Y-16242785D01*
X8989635Y-16242785D02*
X8989635Y-16195165D01*
X8989635Y-16195165D02*
X8999159Y-16157070D01*
X8999159Y-16157070D02*
X9008682Y-16138023D01*
X9008682Y-16138023D02*
X9018206Y-16128499D01*
X9018206Y-16128499D02*
X9037254Y-16118975D01*
X9189635Y-16299927D02*
X9199159Y-16309451D01*
X9199159Y-16309451D02*
X9189635Y-16318975D01*
X9189635Y-16318975D02*
X9180111Y-16309451D01*
X9180111Y-16309451D02*
X9189635Y-16299927D01*
X9189635Y-16299927D02*
X9189635Y-16318975D01*
X9322968Y-16118975D02*
X9342016Y-16118975D01*
X9342016Y-16118975D02*
X9361063Y-16128499D01*
X9361063Y-16128499D02*
X9370587Y-16138023D01*
X9370587Y-16138023D02*
X9380111Y-16157070D01*
X9380111Y-16157070D02*
X9389635Y-16195165D01*
X9389635Y-16195165D02*
X9389635Y-16242785D01*
X9389635Y-16242785D02*
X9380111Y-16280880D01*
X9380111Y-16280880D02*
X9370587Y-16299927D01*
X9370587Y-16299927D02*
X9361063Y-16309451D01*
X9361063Y-16309451D02*
X9342016Y-16318975D01*
X9342016Y-16318975D02*
X9322968Y-16318975D01*
X9322968Y-16318975D02*
X9303921Y-16309451D01*
X9303921Y-16309451D02*
X9294397Y-16299927D01*
X9294397Y-16299927D02*
X9284873Y-16280880D01*
X9284873Y-16280880D02*
X9275349Y-16242785D01*
X9275349Y-16242785D02*
X9275349Y-16195165D01*
X9275349Y-16195165D02*
X9284873Y-16157070D01*
X9284873Y-16157070D02*
X9294397Y-16138023D01*
X9294397Y-16138023D02*
X9303921Y-16128499D01*
X9303921Y-16128499D02*
X9322968Y-16118975D01*
X9465825Y-16138023D02*
X9475349Y-16128499D01*
X9475349Y-16128499D02*
X9494397Y-16118975D01*
X9494397Y-16118975D02*
X9542016Y-16118975D01*
X9542016Y-16118975D02*
X9561063Y-16128499D01*
X9561063Y-16128499D02*
X9570587Y-16138023D01*
X9570587Y-16138023D02*
X9580111Y-16157070D01*
X9580111Y-16157070D02*
X9580111Y-16176118D01*
X9580111Y-16176118D02*
X9570587Y-16204689D01*
X9570587Y-16204689D02*
X9456302Y-16318975D01*
X9456302Y-16318975D02*
X9580111Y-16318975D01*
X9675349Y-16318975D02*
X9713444Y-16318975D01*
X9713444Y-16318975D02*
X9732492Y-16309451D01*
X9732492Y-16309451D02*
X9742016Y-16299927D01*
X9742016Y-16299927D02*
X9761063Y-16271356D01*
X9761063Y-16271356D02*
X9770587Y-16233261D01*
X9770587Y-16233261D02*
X9770587Y-16157070D01*
X9770587Y-16157070D02*
X9761063Y-16138023D01*
X9761063Y-16138023D02*
X9751540Y-16128499D01*
X9751540Y-16128499D02*
X9732492Y-16118975D01*
X9732492Y-16118975D02*
X9694397Y-16118975D01*
X9694397Y-16118975D02*
X9675349Y-16128499D01*
X9675349Y-16128499D02*
X9665825Y-16138023D01*
X9665825Y-16138023D02*
X9656302Y-16157070D01*
X9656302Y-16157070D02*
X9656302Y-16204689D01*
X9656302Y-16204689D02*
X9665825Y-16223737D01*
X9665825Y-16223737D02*
X9675349Y-16233261D01*
X9675349Y-16233261D02*
X9694397Y-16242785D01*
X9694397Y-16242785D02*
X9732492Y-16242785D01*
X9732492Y-16242785D02*
X9751540Y-16233261D01*
X9751540Y-16233261D02*
X9761063Y-16223737D01*
X9761063Y-16223737D02*
X9770587Y-16204689D01*
X9951540Y-16118975D02*
X9856302Y-16118975D01*
X9856302Y-16118975D02*
X9846778Y-16214213D01*
X9846778Y-16214213D02*
X9856302Y-16204689D01*
X9856302Y-16204689D02*
X9875349Y-16195165D01*
X9875349Y-16195165D02*
X9922968Y-16195165D01*
X9922968Y-16195165D02*
X9942016Y-16204689D01*
X9942016Y-16204689D02*
X9951540Y-16214213D01*
X9951540Y-16214213D02*
X9961063Y-16233261D01*
X9961063Y-16233261D02*
X9961063Y-16280880D01*
X9961063Y-16280880D02*
X9951540Y-16299927D01*
X9951540Y-16299927D02*
X9942016Y-16309451D01*
X9942016Y-16309451D02*
X9922968Y-16318975D01*
X9922968Y-16318975D02*
X9875349Y-16318975D01*
X9875349Y-16318975D02*
X9856302Y-16309451D01*
X9856302Y-16309451D02*
X9846778Y-16299927D01*
X10037254Y-16118975D02*
X10037254Y-16157070D01*
X10113444Y-16118975D02*
X10113444Y-16157070D01*
X10408683Y-16395165D02*
X10399159Y-16385642D01*
X10399159Y-16385642D02*
X10380111Y-16357070D01*
X10380111Y-16357070D02*
X10370587Y-16338023D01*
X10370587Y-16338023D02*
X10361064Y-16309451D01*
X10361064Y-16309451D02*
X10351540Y-16261832D01*
X10351540Y-16261832D02*
X10351540Y-16223737D01*
X10351540Y-16223737D02*
X10361064Y-16176118D01*
X10361064Y-16176118D02*
X10370587Y-16147546D01*
X10370587Y-16147546D02*
X10380111Y-16128499D01*
X10380111Y-16128499D02*
X10399159Y-16099927D01*
X10399159Y-16099927D02*
X10408683Y-16090404D01*
X10570587Y-16185642D02*
X10570587Y-16318975D01*
X10522968Y-16109451D02*
X10475349Y-16252308D01*
X10475349Y-16252308D02*
X10599159Y-16252308D01*
X10827730Y-16318975D02*
X10827730Y-16118975D01*
X10913445Y-16318975D02*
X10913445Y-16214213D01*
X10913445Y-16214213D02*
X10903921Y-16195165D01*
X10903921Y-16195165D02*
X10884873Y-16185642D01*
X10884873Y-16185642D02*
X10856302Y-16185642D01*
X10856302Y-16185642D02*
X10837254Y-16195165D01*
X10837254Y-16195165D02*
X10827730Y-16204689D01*
X11037254Y-16318975D02*
X11018206Y-16309451D01*
X11018206Y-16309451D02*
X11008683Y-16299927D01*
X11008683Y-16299927D02*
X10999159Y-16280880D01*
X10999159Y-16280880D02*
X10999159Y-16223737D01*
X10999159Y-16223737D02*
X11008683Y-16204689D01*
X11008683Y-16204689D02*
X11018206Y-16195165D01*
X11018206Y-16195165D02*
X11037254Y-16185642D01*
X11037254Y-16185642D02*
X11065826Y-16185642D01*
X11065826Y-16185642D02*
X11084873Y-16195165D01*
X11084873Y-16195165D02*
X11094397Y-16204689D01*
X11094397Y-16204689D02*
X11103921Y-16223737D01*
X11103921Y-16223737D02*
X11103921Y-16280880D01*
X11103921Y-16280880D02*
X11094397Y-16299927D01*
X11094397Y-16299927D02*
X11084873Y-16309451D01*
X11084873Y-16309451D02*
X11065826Y-16318975D01*
X11065826Y-16318975D02*
X11037254Y-16318975D01*
X11218206Y-16318975D02*
X11199159Y-16309451D01*
X11199159Y-16309451D02*
X11189635Y-16290404D01*
X11189635Y-16290404D02*
X11189635Y-16118975D01*
X11370587Y-16309451D02*
X11351540Y-16318975D01*
X11351540Y-16318975D02*
X11313444Y-16318975D01*
X11313444Y-16318975D02*
X11294397Y-16309451D01*
X11294397Y-16309451D02*
X11284873Y-16290404D01*
X11284873Y-16290404D02*
X11284873Y-16214213D01*
X11284873Y-16214213D02*
X11294397Y-16195165D01*
X11294397Y-16195165D02*
X11313444Y-16185642D01*
X11313444Y-16185642D02*
X11351540Y-16185642D01*
X11351540Y-16185642D02*
X11370587Y-16195165D01*
X11370587Y-16195165D02*
X11380111Y-16214213D01*
X11380111Y-16214213D02*
X11380111Y-16233261D01*
X11380111Y-16233261D02*
X11284873Y-16252308D01*
X11456302Y-16309451D02*
X11475349Y-16318975D01*
X11475349Y-16318975D02*
X11513444Y-16318975D01*
X11513444Y-16318975D02*
X11532492Y-16309451D01*
X11532492Y-16309451D02*
X11542016Y-16290404D01*
X11542016Y-16290404D02*
X11542016Y-16280880D01*
X11542016Y-16280880D02*
X11532492Y-16261832D01*
X11532492Y-16261832D02*
X11513444Y-16252308D01*
X11513444Y-16252308D02*
X11484873Y-16252308D01*
X11484873Y-16252308D02*
X11465825Y-16242785D01*
X11465825Y-16242785D02*
X11456302Y-16223737D01*
X11456302Y-16223737D02*
X11456302Y-16214213D01*
X11456302Y-16214213D02*
X11465825Y-16195165D01*
X11465825Y-16195165D02*
X11484873Y-16185642D01*
X11484873Y-16185642D02*
X11513444Y-16185642D01*
X11513444Y-16185642D02*
X11532492Y-16195165D01*
X11608683Y-16395165D02*
X11618206Y-16385642D01*
X11618206Y-16385642D02*
X11637254Y-16357070D01*
X11637254Y-16357070D02*
X11646778Y-16338023D01*
X11646778Y-16338023D02*
X11656302Y-16309451D01*
X11656302Y-16309451D02*
X11665825Y-16261832D01*
X11665825Y-16261832D02*
X11665825Y-16223737D01*
X11665825Y-16223737D02*
X11656302Y-16176118D01*
X11656302Y-16176118D02*
X11646778Y-16147546D01*
X11646778Y-16147546D02*
X11637254Y-16128499D01*
X11637254Y-16128499D02*
X11618206Y-16099927D01*
X11618206Y-16099927D02*
X11608683Y-16090404D01*
D14*
X6778620Y-16436491D02*
X6778620Y-16546491D01*
X6723620Y-16491491D02*
X6833620Y-16491491D01*
D13*
X7199158Y-16582975D02*
X7084873Y-16582975D01*
X7142015Y-16582975D02*
X7142015Y-16382975D01*
X7142015Y-16382975D02*
X7122968Y-16411546D01*
X7122968Y-16411546D02*
X7103920Y-16430594D01*
X7103920Y-16430594D02*
X7084873Y-16440118D01*
X7284873Y-16563927D02*
X7294396Y-16573451D01*
X7294396Y-16573451D02*
X7284873Y-16582975D01*
X7284873Y-16582975D02*
X7275349Y-16573451D01*
X7275349Y-16573451D02*
X7284873Y-16563927D01*
X7284873Y-16563927D02*
X7284873Y-16582975D01*
X7484873Y-16582975D02*
X7370587Y-16582975D01*
X7427730Y-16582975D02*
X7427730Y-16382975D01*
X7427730Y-16382975D02*
X7408682Y-16411546D01*
X7408682Y-16411546D02*
X7389635Y-16430594D01*
X7389635Y-16430594D02*
X7370587Y-16440118D01*
X7608682Y-16382975D02*
X7627730Y-16382975D01*
X7627730Y-16382975D02*
X7646777Y-16392499D01*
X7646777Y-16392499D02*
X7656301Y-16402023D01*
X7656301Y-16402023D02*
X7665825Y-16421070D01*
X7665825Y-16421070D02*
X7675349Y-16459165D01*
X7675349Y-16459165D02*
X7675349Y-16506785D01*
X7675349Y-16506785D02*
X7665825Y-16544880D01*
X7665825Y-16544880D02*
X7656301Y-16563927D01*
X7656301Y-16563927D02*
X7646777Y-16573451D01*
X7646777Y-16573451D02*
X7627730Y-16582975D01*
X7627730Y-16582975D02*
X7608682Y-16582975D01*
X7608682Y-16582975D02*
X7589635Y-16573451D01*
X7589635Y-16573451D02*
X7580111Y-16563927D01*
X7580111Y-16563927D02*
X7570587Y-16544880D01*
X7570587Y-16544880D02*
X7561063Y-16506785D01*
X7561063Y-16506785D02*
X7561063Y-16459165D01*
X7561063Y-16459165D02*
X7570587Y-16421070D01*
X7570587Y-16421070D02*
X7580111Y-16402023D01*
X7580111Y-16402023D02*
X7589635Y-16392499D01*
X7589635Y-16392499D02*
X7608682Y-16382975D01*
X7799158Y-16382975D02*
X7818206Y-16382975D01*
X7818206Y-16382975D02*
X7837254Y-16392499D01*
X7837254Y-16392499D02*
X7846777Y-16402023D01*
X7846777Y-16402023D02*
X7856301Y-16421070D01*
X7856301Y-16421070D02*
X7865825Y-16459165D01*
X7865825Y-16459165D02*
X7865825Y-16506785D01*
X7865825Y-16506785D02*
X7856301Y-16544880D01*
X7856301Y-16544880D02*
X7846777Y-16563927D01*
X7846777Y-16563927D02*
X7837254Y-16573451D01*
X7837254Y-16573451D02*
X7818206Y-16582975D01*
X7818206Y-16582975D02*
X7799158Y-16582975D01*
X7799158Y-16582975D02*
X7780111Y-16573451D01*
X7780111Y-16573451D02*
X7770587Y-16563927D01*
X7770587Y-16563927D02*
X7761063Y-16544880D01*
X7761063Y-16544880D02*
X7751539Y-16506785D01*
X7751539Y-16506785D02*
X7751539Y-16459165D01*
X7751539Y-16459165D02*
X7761063Y-16421070D01*
X7761063Y-16421070D02*
X7770587Y-16402023D01*
X7770587Y-16402023D02*
X7780111Y-16392499D01*
X7780111Y-16392499D02*
X7799158Y-16382975D01*
X7951539Y-16582975D02*
X7951539Y-16449642D01*
X7951539Y-16468689D02*
X7961063Y-16459165D01*
X7961063Y-16459165D02*
X7980111Y-16449642D01*
X7980111Y-16449642D02*
X8008682Y-16449642D01*
X8008682Y-16449642D02*
X8027730Y-16459165D01*
X8027730Y-16459165D02*
X8037254Y-16478213D01*
X8037254Y-16478213D02*
X8037254Y-16582975D01*
X8037254Y-16478213D02*
X8046777Y-16459165D01*
X8046777Y-16459165D02*
X8065825Y-16449642D01*
X8065825Y-16449642D02*
X8094396Y-16449642D01*
X8094396Y-16449642D02*
X8113444Y-16459165D01*
X8113444Y-16459165D02*
X8122968Y-16478213D01*
X8122968Y-16478213D02*
X8122968Y-16582975D01*
X8218206Y-16582975D02*
X8218206Y-16449642D01*
X8218206Y-16468689D02*
X8227730Y-16459165D01*
X8227730Y-16459165D02*
X8246777Y-16449642D01*
X8246777Y-16449642D02*
X8275349Y-16449642D01*
X8275349Y-16449642D02*
X8294397Y-16459165D01*
X8294397Y-16459165D02*
X8303920Y-16478213D01*
X8303920Y-16478213D02*
X8303920Y-16582975D01*
X8303920Y-16478213D02*
X8313444Y-16459165D01*
X8313444Y-16459165D02*
X8332492Y-16449642D01*
X8332492Y-16449642D02*
X8361063Y-16449642D01*
X8361063Y-16449642D02*
X8380111Y-16459165D01*
X8380111Y-16459165D02*
X8389635Y-16478213D01*
X8389635Y-16478213D02*
X8389635Y-16582975D01*
X8780111Y-16373451D02*
X8608682Y-16630594D01*
X9037254Y-16382975D02*
X9056302Y-16382975D01*
X9056302Y-16382975D02*
X9075349Y-16392499D01*
X9075349Y-16392499D02*
X9084873Y-16402023D01*
X9084873Y-16402023D02*
X9094397Y-16421070D01*
X9094397Y-16421070D02*
X9103921Y-16459165D01*
X9103921Y-16459165D02*
X9103921Y-16506785D01*
X9103921Y-16506785D02*
X9094397Y-16544880D01*
X9094397Y-16544880D02*
X9084873Y-16563927D01*
X9084873Y-16563927D02*
X9075349Y-16573451D01*
X9075349Y-16573451D02*
X9056302Y-16582975D01*
X9056302Y-16582975D02*
X9037254Y-16582975D01*
X9037254Y-16582975D02*
X9018206Y-16573451D01*
X9018206Y-16573451D02*
X9008682Y-16563927D01*
X9008682Y-16563927D02*
X8999159Y-16544880D01*
X8999159Y-16544880D02*
X8989635Y-16506785D01*
X8989635Y-16506785D02*
X8989635Y-16459165D01*
X8989635Y-16459165D02*
X8999159Y-16421070D01*
X8999159Y-16421070D02*
X9008682Y-16402023D01*
X9008682Y-16402023D02*
X9018206Y-16392499D01*
X9018206Y-16392499D02*
X9037254Y-16382975D01*
X9189635Y-16563927D02*
X9199159Y-16573451D01*
X9199159Y-16573451D02*
X9189635Y-16582975D01*
X9189635Y-16582975D02*
X9180111Y-16573451D01*
X9180111Y-16573451D02*
X9189635Y-16563927D01*
X9189635Y-16563927D02*
X9189635Y-16582975D01*
X9322968Y-16382975D02*
X9342016Y-16382975D01*
X9342016Y-16382975D02*
X9361063Y-16392499D01*
X9361063Y-16392499D02*
X9370587Y-16402023D01*
X9370587Y-16402023D02*
X9380111Y-16421070D01*
X9380111Y-16421070D02*
X9389635Y-16459165D01*
X9389635Y-16459165D02*
X9389635Y-16506785D01*
X9389635Y-16506785D02*
X9380111Y-16544880D01*
X9380111Y-16544880D02*
X9370587Y-16563927D01*
X9370587Y-16563927D02*
X9361063Y-16573451D01*
X9361063Y-16573451D02*
X9342016Y-16582975D01*
X9342016Y-16582975D02*
X9322968Y-16582975D01*
X9322968Y-16582975D02*
X9303921Y-16573451D01*
X9303921Y-16573451D02*
X9294397Y-16563927D01*
X9294397Y-16563927D02*
X9284873Y-16544880D01*
X9284873Y-16544880D02*
X9275349Y-16506785D01*
X9275349Y-16506785D02*
X9275349Y-16459165D01*
X9275349Y-16459165D02*
X9284873Y-16421070D01*
X9284873Y-16421070D02*
X9294397Y-16402023D01*
X9294397Y-16402023D02*
X9303921Y-16392499D01*
X9303921Y-16392499D02*
X9322968Y-16382975D01*
X9561063Y-16449642D02*
X9561063Y-16582975D01*
X9513444Y-16373451D02*
X9465825Y-16516308D01*
X9465825Y-16516308D02*
X9589635Y-16516308D01*
X9646778Y-16382975D02*
X9770587Y-16382975D01*
X9770587Y-16382975D02*
X9703921Y-16459165D01*
X9703921Y-16459165D02*
X9732492Y-16459165D01*
X9732492Y-16459165D02*
X9751540Y-16468689D01*
X9751540Y-16468689D02*
X9761063Y-16478213D01*
X9761063Y-16478213D02*
X9770587Y-16497261D01*
X9770587Y-16497261D02*
X9770587Y-16544880D01*
X9770587Y-16544880D02*
X9761063Y-16563927D01*
X9761063Y-16563927D02*
X9751540Y-16573451D01*
X9751540Y-16573451D02*
X9732492Y-16582975D01*
X9732492Y-16582975D02*
X9675349Y-16582975D01*
X9675349Y-16582975D02*
X9656302Y-16573451D01*
X9656302Y-16573451D02*
X9646778Y-16563927D01*
X9837254Y-16382975D02*
X9961063Y-16382975D01*
X9961063Y-16382975D02*
X9894397Y-16459165D01*
X9894397Y-16459165D02*
X9922968Y-16459165D01*
X9922968Y-16459165D02*
X9942016Y-16468689D01*
X9942016Y-16468689D02*
X9951540Y-16478213D01*
X9951540Y-16478213D02*
X9961063Y-16497261D01*
X9961063Y-16497261D02*
X9961063Y-16544880D01*
X9961063Y-16544880D02*
X9951540Y-16563927D01*
X9951540Y-16563927D02*
X9942016Y-16573451D01*
X9942016Y-16573451D02*
X9922968Y-16582975D01*
X9922968Y-16582975D02*
X9865825Y-16582975D01*
X9865825Y-16582975D02*
X9846778Y-16573451D01*
X9846778Y-16573451D02*
X9837254Y-16563927D01*
X10037254Y-16382975D02*
X10037254Y-16421070D01*
X10113444Y-16382975D02*
X10113444Y-16421070D01*
X10408683Y-16659165D02*
X10399159Y-16649642D01*
X10399159Y-16649642D02*
X10380111Y-16621070D01*
X10380111Y-16621070D02*
X10370587Y-16602023D01*
X10370587Y-16602023D02*
X10361064Y-16573451D01*
X10361064Y-16573451D02*
X10351540Y-16525832D01*
X10351540Y-16525832D02*
X10351540Y-16487737D01*
X10351540Y-16487737D02*
X10361064Y-16440118D01*
X10361064Y-16440118D02*
X10370587Y-16411546D01*
X10370587Y-16411546D02*
X10380111Y-16392499D01*
X10380111Y-16392499D02*
X10399159Y-16363927D01*
X10399159Y-16363927D02*
X10408683Y-16354404D01*
X10475349Y-16402023D02*
X10484873Y-16392499D01*
X10484873Y-16392499D02*
X10503921Y-16382975D01*
X10503921Y-16382975D02*
X10551540Y-16382975D01*
X10551540Y-16382975D02*
X10570587Y-16392499D01*
X10570587Y-16392499D02*
X10580111Y-16402023D01*
X10580111Y-16402023D02*
X10589635Y-16421070D01*
X10589635Y-16421070D02*
X10589635Y-16440118D01*
X10589635Y-16440118D02*
X10580111Y-16468689D01*
X10580111Y-16468689D02*
X10465825Y-16582975D01*
X10465825Y-16582975D02*
X10589635Y-16582975D01*
X10761064Y-16449642D02*
X10761064Y-16582975D01*
X10713444Y-16373451D02*
X10665825Y-16516308D01*
X10665825Y-16516308D02*
X10789635Y-16516308D01*
X11018206Y-16582975D02*
X11018206Y-16382975D01*
X11103921Y-16582975D02*
X11103921Y-16478213D01*
X11103921Y-16478213D02*
X11094397Y-16459165D01*
X11094397Y-16459165D02*
X11075349Y-16449642D01*
X11075349Y-16449642D02*
X11046778Y-16449642D01*
X11046778Y-16449642D02*
X11027730Y-16459165D01*
X11027730Y-16459165D02*
X11018206Y-16468689D01*
X11227730Y-16582975D02*
X11208683Y-16573451D01*
X11208683Y-16573451D02*
X11199159Y-16563927D01*
X11199159Y-16563927D02*
X11189635Y-16544880D01*
X11189635Y-16544880D02*
X11189635Y-16487737D01*
X11189635Y-16487737D02*
X11199159Y-16468689D01*
X11199159Y-16468689D02*
X11208683Y-16459165D01*
X11208683Y-16459165D02*
X11227730Y-16449642D01*
X11227730Y-16449642D02*
X11256302Y-16449642D01*
X11256302Y-16449642D02*
X11275349Y-16459165D01*
X11275349Y-16459165D02*
X11284873Y-16468689D01*
X11284873Y-16468689D02*
X11294397Y-16487737D01*
X11294397Y-16487737D02*
X11294397Y-16544880D01*
X11294397Y-16544880D02*
X11284873Y-16563927D01*
X11284873Y-16563927D02*
X11275349Y-16573451D01*
X11275349Y-16573451D02*
X11256302Y-16582975D01*
X11256302Y-16582975D02*
X11227730Y-16582975D01*
X11408683Y-16582975D02*
X11389635Y-16573451D01*
X11389635Y-16573451D02*
X11380111Y-16554404D01*
X11380111Y-16554404D02*
X11380111Y-16382975D01*
X11561064Y-16573451D02*
X11542016Y-16582975D01*
X11542016Y-16582975D02*
X11503921Y-16582975D01*
X11503921Y-16582975D02*
X11484873Y-16573451D01*
X11484873Y-16573451D02*
X11475349Y-16554404D01*
X11475349Y-16554404D02*
X11475349Y-16478213D01*
X11475349Y-16478213D02*
X11484873Y-16459165D01*
X11484873Y-16459165D02*
X11503921Y-16449642D01*
X11503921Y-16449642D02*
X11542016Y-16449642D01*
X11542016Y-16449642D02*
X11561064Y-16459165D01*
X11561064Y-16459165D02*
X11570587Y-16478213D01*
X11570587Y-16478213D02*
X11570587Y-16497261D01*
X11570587Y-16497261D02*
X11475349Y-16516308D01*
X11646778Y-16573451D02*
X11665825Y-16582975D01*
X11665825Y-16582975D02*
X11703921Y-16582975D01*
X11703921Y-16582975D02*
X11722968Y-16573451D01*
X11722968Y-16573451D02*
X11732492Y-16554404D01*
X11732492Y-16554404D02*
X11732492Y-16544880D01*
X11732492Y-16544880D02*
X11722968Y-16525832D01*
X11722968Y-16525832D02*
X11703921Y-16516308D01*
X11703921Y-16516308D02*
X11675349Y-16516308D01*
X11675349Y-16516308D02*
X11656302Y-16506785D01*
X11656302Y-16506785D02*
X11646778Y-16487737D01*
X11646778Y-16487737D02*
X11646778Y-16478213D01*
X11646778Y-16478213D02*
X11656302Y-16459165D01*
X11656302Y-16459165D02*
X11675349Y-16449642D01*
X11675349Y-16449642D02*
X11703921Y-16449642D01*
X11703921Y-16449642D02*
X11722968Y-16459165D01*
X11799159Y-16659165D02*
X11808683Y-16649642D01*
X11808683Y-16649642D02*
X11827730Y-16621070D01*
X11827730Y-16621070D02*
X11837254Y-16602023D01*
X11837254Y-16602023D02*
X11846778Y-16573451D01*
X11846778Y-16573451D02*
X11856302Y-16525832D01*
X11856302Y-16525832D02*
X11856302Y-16487737D01*
X11856302Y-16487737D02*
X11846778Y-16440118D01*
X11846778Y-16440118D02*
X11837254Y-16411546D01*
X11837254Y-16411546D02*
X11827730Y-16392499D01*
X11827730Y-16392499D02*
X11808683Y-16363927D01*
X11808683Y-16363927D02*
X11799159Y-16354404D01*
D15*
X6816046Y-16797918D02*
X6816046Y-16713064D01*
X6731193Y-16713064D01*
X6731193Y-16797918D01*
X6816046Y-16797918D01*
D13*
X7199158Y-16846975D02*
X7084873Y-16846975D01*
X7142015Y-16846975D02*
X7142015Y-16646975D01*
X7142015Y-16646975D02*
X7122968Y-16675546D01*
X7122968Y-16675546D02*
X7103920Y-16694594D01*
X7103920Y-16694594D02*
X7084873Y-16704118D01*
X7284873Y-16827927D02*
X7294396Y-16837451D01*
X7294396Y-16837451D02*
X7284873Y-16846975D01*
X7284873Y-16846975D02*
X7275349Y-16837451D01*
X7275349Y-16837451D02*
X7284873Y-16827927D01*
X7284873Y-16827927D02*
X7284873Y-16846975D01*
X7370587Y-16666023D02*
X7380111Y-16656499D01*
X7380111Y-16656499D02*
X7399158Y-16646975D01*
X7399158Y-16646975D02*
X7446777Y-16646975D01*
X7446777Y-16646975D02*
X7465825Y-16656499D01*
X7465825Y-16656499D02*
X7475349Y-16666023D01*
X7475349Y-16666023D02*
X7484873Y-16685070D01*
X7484873Y-16685070D02*
X7484873Y-16704118D01*
X7484873Y-16704118D02*
X7475349Y-16732689D01*
X7475349Y-16732689D02*
X7361063Y-16846975D01*
X7361063Y-16846975D02*
X7484873Y-16846975D01*
X7608682Y-16646975D02*
X7627730Y-16646975D01*
X7627730Y-16646975D02*
X7646777Y-16656499D01*
X7646777Y-16656499D02*
X7656301Y-16666023D01*
X7656301Y-16666023D02*
X7665825Y-16685070D01*
X7665825Y-16685070D02*
X7675349Y-16723165D01*
X7675349Y-16723165D02*
X7675349Y-16770785D01*
X7675349Y-16770785D02*
X7665825Y-16808880D01*
X7665825Y-16808880D02*
X7656301Y-16827927D01*
X7656301Y-16827927D02*
X7646777Y-16837451D01*
X7646777Y-16837451D02*
X7627730Y-16846975D01*
X7627730Y-16846975D02*
X7608682Y-16846975D01*
X7608682Y-16846975D02*
X7589635Y-16837451D01*
X7589635Y-16837451D02*
X7580111Y-16827927D01*
X7580111Y-16827927D02*
X7570587Y-16808880D01*
X7570587Y-16808880D02*
X7561063Y-16770785D01*
X7561063Y-16770785D02*
X7561063Y-16723165D01*
X7561063Y-16723165D02*
X7570587Y-16685070D01*
X7570587Y-16685070D02*
X7580111Y-16666023D01*
X7580111Y-16666023D02*
X7589635Y-16656499D01*
X7589635Y-16656499D02*
X7608682Y-16646975D01*
X7799158Y-16646975D02*
X7818206Y-16646975D01*
X7818206Y-16646975D02*
X7837254Y-16656499D01*
X7837254Y-16656499D02*
X7846777Y-16666023D01*
X7846777Y-16666023D02*
X7856301Y-16685070D01*
X7856301Y-16685070D02*
X7865825Y-16723165D01*
X7865825Y-16723165D02*
X7865825Y-16770785D01*
X7865825Y-16770785D02*
X7856301Y-16808880D01*
X7856301Y-16808880D02*
X7846777Y-16827927D01*
X7846777Y-16827927D02*
X7837254Y-16837451D01*
X7837254Y-16837451D02*
X7818206Y-16846975D01*
X7818206Y-16846975D02*
X7799158Y-16846975D01*
X7799158Y-16846975D02*
X7780111Y-16837451D01*
X7780111Y-16837451D02*
X7770587Y-16827927D01*
X7770587Y-16827927D02*
X7761063Y-16808880D01*
X7761063Y-16808880D02*
X7751539Y-16770785D01*
X7751539Y-16770785D02*
X7751539Y-16723165D01*
X7751539Y-16723165D02*
X7761063Y-16685070D01*
X7761063Y-16685070D02*
X7770587Y-16666023D01*
X7770587Y-16666023D02*
X7780111Y-16656499D01*
X7780111Y-16656499D02*
X7799158Y-16646975D01*
X7951539Y-16846975D02*
X7951539Y-16713642D01*
X7951539Y-16732689D02*
X7961063Y-16723165D01*
X7961063Y-16723165D02*
X7980111Y-16713642D01*
X7980111Y-16713642D02*
X8008682Y-16713642D01*
X8008682Y-16713642D02*
X8027730Y-16723165D01*
X8027730Y-16723165D02*
X8037254Y-16742213D01*
X8037254Y-16742213D02*
X8037254Y-16846975D01*
X8037254Y-16742213D02*
X8046777Y-16723165D01*
X8046777Y-16723165D02*
X8065825Y-16713642D01*
X8065825Y-16713642D02*
X8094396Y-16713642D01*
X8094396Y-16713642D02*
X8113444Y-16723165D01*
X8113444Y-16723165D02*
X8122968Y-16742213D01*
X8122968Y-16742213D02*
X8122968Y-16846975D01*
X8218206Y-16846975D02*
X8218206Y-16713642D01*
X8218206Y-16732689D02*
X8227730Y-16723165D01*
X8227730Y-16723165D02*
X8246777Y-16713642D01*
X8246777Y-16713642D02*
X8275349Y-16713642D01*
X8275349Y-16713642D02*
X8294397Y-16723165D01*
X8294397Y-16723165D02*
X8303920Y-16742213D01*
X8303920Y-16742213D02*
X8303920Y-16846975D01*
X8303920Y-16742213D02*
X8313444Y-16723165D01*
X8313444Y-16723165D02*
X8332492Y-16713642D01*
X8332492Y-16713642D02*
X8361063Y-16713642D01*
X8361063Y-16713642D02*
X8380111Y-16723165D01*
X8380111Y-16723165D02*
X8389635Y-16742213D01*
X8389635Y-16742213D02*
X8389635Y-16846975D01*
X8780111Y-16637451D02*
X8608682Y-16894594D01*
X9037254Y-16646975D02*
X9056302Y-16646975D01*
X9056302Y-16646975D02*
X9075349Y-16656499D01*
X9075349Y-16656499D02*
X9084873Y-16666023D01*
X9084873Y-16666023D02*
X9094397Y-16685070D01*
X9094397Y-16685070D02*
X9103921Y-16723165D01*
X9103921Y-16723165D02*
X9103921Y-16770785D01*
X9103921Y-16770785D02*
X9094397Y-16808880D01*
X9094397Y-16808880D02*
X9084873Y-16827927D01*
X9084873Y-16827927D02*
X9075349Y-16837451D01*
X9075349Y-16837451D02*
X9056302Y-16846975D01*
X9056302Y-16846975D02*
X9037254Y-16846975D01*
X9037254Y-16846975D02*
X9018206Y-16837451D01*
X9018206Y-16837451D02*
X9008682Y-16827927D01*
X9008682Y-16827927D02*
X8999159Y-16808880D01*
X8999159Y-16808880D02*
X8989635Y-16770785D01*
X8989635Y-16770785D02*
X8989635Y-16723165D01*
X8989635Y-16723165D02*
X8999159Y-16685070D01*
X8999159Y-16685070D02*
X9008682Y-16666023D01*
X9008682Y-16666023D02*
X9018206Y-16656499D01*
X9018206Y-16656499D02*
X9037254Y-16646975D01*
X9189635Y-16827927D02*
X9199159Y-16837451D01*
X9199159Y-16837451D02*
X9189635Y-16846975D01*
X9189635Y-16846975D02*
X9180111Y-16837451D01*
X9180111Y-16837451D02*
X9189635Y-16827927D01*
X9189635Y-16827927D02*
X9189635Y-16846975D01*
X9322968Y-16646975D02*
X9342016Y-16646975D01*
X9342016Y-16646975D02*
X9361063Y-16656499D01*
X9361063Y-16656499D02*
X9370587Y-16666023D01*
X9370587Y-16666023D02*
X9380111Y-16685070D01*
X9380111Y-16685070D02*
X9389635Y-16723165D01*
X9389635Y-16723165D02*
X9389635Y-16770785D01*
X9389635Y-16770785D02*
X9380111Y-16808880D01*
X9380111Y-16808880D02*
X9370587Y-16827927D01*
X9370587Y-16827927D02*
X9361063Y-16837451D01*
X9361063Y-16837451D02*
X9342016Y-16846975D01*
X9342016Y-16846975D02*
X9322968Y-16846975D01*
X9322968Y-16846975D02*
X9303921Y-16837451D01*
X9303921Y-16837451D02*
X9294397Y-16827927D01*
X9294397Y-16827927D02*
X9284873Y-16808880D01*
X9284873Y-16808880D02*
X9275349Y-16770785D01*
X9275349Y-16770785D02*
X9275349Y-16723165D01*
X9275349Y-16723165D02*
X9284873Y-16685070D01*
X9284873Y-16685070D02*
X9294397Y-16666023D01*
X9294397Y-16666023D02*
X9303921Y-16656499D01*
X9303921Y-16656499D02*
X9322968Y-16646975D01*
X9561063Y-16713642D02*
X9561063Y-16846975D01*
X9513444Y-16637451D02*
X9465825Y-16780308D01*
X9465825Y-16780308D02*
X9589635Y-16780308D01*
X9646778Y-16646975D02*
X9780111Y-16646975D01*
X9780111Y-16646975D02*
X9694397Y-16846975D01*
X9846778Y-16666023D02*
X9856302Y-16656499D01*
X9856302Y-16656499D02*
X9875349Y-16646975D01*
X9875349Y-16646975D02*
X9922968Y-16646975D01*
X9922968Y-16646975D02*
X9942016Y-16656499D01*
X9942016Y-16656499D02*
X9951540Y-16666023D01*
X9951540Y-16666023D02*
X9961063Y-16685070D01*
X9961063Y-16685070D02*
X9961063Y-16704118D01*
X9961063Y-16704118D02*
X9951540Y-16732689D01*
X9951540Y-16732689D02*
X9837254Y-16846975D01*
X9837254Y-16846975D02*
X9961063Y-16846975D01*
X10037254Y-16646975D02*
X10037254Y-16685070D01*
X10113444Y-16646975D02*
X10113444Y-16685070D01*
X10408683Y-16923166D02*
X10399159Y-16913642D01*
X10399159Y-16913642D02*
X10380111Y-16885070D01*
X10380111Y-16885070D02*
X10370587Y-16866023D01*
X10370587Y-16866023D02*
X10361064Y-16837451D01*
X10361064Y-16837451D02*
X10351540Y-16789832D01*
X10351540Y-16789832D02*
X10351540Y-16751737D01*
X10351540Y-16751737D02*
X10361064Y-16704118D01*
X10361064Y-16704118D02*
X10370587Y-16675546D01*
X10370587Y-16675546D02*
X10380111Y-16656499D01*
X10380111Y-16656499D02*
X10399159Y-16627927D01*
X10399159Y-16627927D02*
X10408683Y-16618404D01*
X10475349Y-16666023D02*
X10484873Y-16656499D01*
X10484873Y-16656499D02*
X10503921Y-16646975D01*
X10503921Y-16646975D02*
X10551540Y-16646975D01*
X10551540Y-16646975D02*
X10570587Y-16656499D01*
X10570587Y-16656499D02*
X10580111Y-16666023D01*
X10580111Y-16666023D02*
X10589635Y-16685070D01*
X10589635Y-16685070D02*
X10589635Y-16704118D01*
X10589635Y-16704118D02*
X10580111Y-16732689D01*
X10580111Y-16732689D02*
X10465825Y-16846975D01*
X10465825Y-16846975D02*
X10589635Y-16846975D01*
X10827730Y-16846975D02*
X10827730Y-16646975D01*
X10913445Y-16846975D02*
X10913445Y-16742213D01*
X10913445Y-16742213D02*
X10903921Y-16723165D01*
X10903921Y-16723165D02*
X10884873Y-16713642D01*
X10884873Y-16713642D02*
X10856302Y-16713642D01*
X10856302Y-16713642D02*
X10837254Y-16723165D01*
X10837254Y-16723165D02*
X10827730Y-16732689D01*
X11037254Y-16846975D02*
X11018206Y-16837451D01*
X11018206Y-16837451D02*
X11008683Y-16827927D01*
X11008683Y-16827927D02*
X10999159Y-16808880D01*
X10999159Y-16808880D02*
X10999159Y-16751737D01*
X10999159Y-16751737D02*
X11008683Y-16732689D01*
X11008683Y-16732689D02*
X11018206Y-16723165D01*
X11018206Y-16723165D02*
X11037254Y-16713642D01*
X11037254Y-16713642D02*
X11065826Y-16713642D01*
X11065826Y-16713642D02*
X11084873Y-16723165D01*
X11084873Y-16723165D02*
X11094397Y-16732689D01*
X11094397Y-16732689D02*
X11103921Y-16751737D01*
X11103921Y-16751737D02*
X11103921Y-16808880D01*
X11103921Y-16808880D02*
X11094397Y-16827927D01*
X11094397Y-16827927D02*
X11084873Y-16837451D01*
X11084873Y-16837451D02*
X11065826Y-16846975D01*
X11065826Y-16846975D02*
X11037254Y-16846975D01*
X11218206Y-16846975D02*
X11199159Y-16837451D01*
X11199159Y-16837451D02*
X11189635Y-16818404D01*
X11189635Y-16818404D02*
X11189635Y-16646975D01*
X11370587Y-16837451D02*
X11351540Y-16846975D01*
X11351540Y-16846975D02*
X11313444Y-16846975D01*
X11313444Y-16846975D02*
X11294397Y-16837451D01*
X11294397Y-16837451D02*
X11284873Y-16818404D01*
X11284873Y-16818404D02*
X11284873Y-16742213D01*
X11284873Y-16742213D02*
X11294397Y-16723165D01*
X11294397Y-16723165D02*
X11313444Y-16713642D01*
X11313444Y-16713642D02*
X11351540Y-16713642D01*
X11351540Y-16713642D02*
X11370587Y-16723165D01*
X11370587Y-16723165D02*
X11380111Y-16742213D01*
X11380111Y-16742213D02*
X11380111Y-16761261D01*
X11380111Y-16761261D02*
X11284873Y-16780308D01*
X11456302Y-16837451D02*
X11475349Y-16846975D01*
X11475349Y-16846975D02*
X11513444Y-16846975D01*
X11513444Y-16846975D02*
X11532492Y-16837451D01*
X11532492Y-16837451D02*
X11542016Y-16818404D01*
X11542016Y-16818404D02*
X11542016Y-16808880D01*
X11542016Y-16808880D02*
X11532492Y-16789832D01*
X11532492Y-16789832D02*
X11513444Y-16780308D01*
X11513444Y-16780308D02*
X11484873Y-16780308D01*
X11484873Y-16780308D02*
X11465825Y-16770785D01*
X11465825Y-16770785D02*
X11456302Y-16751737D01*
X11456302Y-16751737D02*
X11456302Y-16742213D01*
X11456302Y-16742213D02*
X11465825Y-16723165D01*
X11465825Y-16723165D02*
X11484873Y-16713642D01*
X11484873Y-16713642D02*
X11513444Y-16713642D01*
X11513444Y-16713642D02*
X11532492Y-16723165D01*
X11608683Y-16923166D02*
X11618206Y-16913642D01*
X11618206Y-16913642D02*
X11637254Y-16885070D01*
X11637254Y-16885070D02*
X11646778Y-16866023D01*
X11646778Y-16866023D02*
X11656302Y-16837451D01*
X11656302Y-16837451D02*
X11665825Y-16789832D01*
X11665825Y-16789832D02*
X11665825Y-16751737D01*
X11665825Y-16751737D02*
X11656302Y-16704118D01*
X11656302Y-16704118D02*
X11646778Y-16675546D01*
X11646778Y-16675546D02*
X11637254Y-16656499D01*
X11637254Y-16656499D02*
X11618206Y-16627927D01*
X11618206Y-16627927D02*
X11608683Y-16618404D01*
X6733620Y-17119491D02*
X6833620Y-17019491D01*
X6733620Y-16919491D01*
X6633620Y-17019491D01*
X6733620Y-17119491D01*
X7084873Y-16930023D02*
X7094396Y-16920499D01*
X7094396Y-16920499D02*
X7113444Y-16910975D01*
X7113444Y-16910975D02*
X7161063Y-16910975D01*
X7161063Y-16910975D02*
X7180111Y-16920499D01*
X7180111Y-16920499D02*
X7189635Y-16930023D01*
X7189635Y-16930023D02*
X7199158Y-16949070D01*
X7199158Y-16949070D02*
X7199158Y-16968118D01*
X7199158Y-16968118D02*
X7189635Y-16996689D01*
X7189635Y-16996689D02*
X7075349Y-17110975D01*
X7075349Y-17110975D02*
X7199158Y-17110975D01*
X7284873Y-17091927D02*
X7294396Y-17101451D01*
X7294396Y-17101451D02*
X7284873Y-17110975D01*
X7284873Y-17110975D02*
X7275349Y-17101451D01*
X7275349Y-17101451D02*
X7284873Y-17091927D01*
X7284873Y-17091927D02*
X7284873Y-17110975D01*
X7370587Y-16930023D02*
X7380111Y-16920499D01*
X7380111Y-16920499D02*
X7399158Y-16910975D01*
X7399158Y-16910975D02*
X7446777Y-16910975D01*
X7446777Y-16910975D02*
X7465825Y-16920499D01*
X7465825Y-16920499D02*
X7475349Y-16930023D01*
X7475349Y-16930023D02*
X7484873Y-16949070D01*
X7484873Y-16949070D02*
X7484873Y-16968118D01*
X7484873Y-16968118D02*
X7475349Y-16996689D01*
X7475349Y-16996689D02*
X7361063Y-17110975D01*
X7361063Y-17110975D02*
X7484873Y-17110975D01*
X7608682Y-16910975D02*
X7627730Y-16910975D01*
X7627730Y-16910975D02*
X7646777Y-16920499D01*
X7646777Y-16920499D02*
X7656301Y-16930023D01*
X7656301Y-16930023D02*
X7665825Y-16949070D01*
X7665825Y-16949070D02*
X7675349Y-16987166D01*
X7675349Y-16987166D02*
X7675349Y-17034785D01*
X7675349Y-17034785D02*
X7665825Y-17072880D01*
X7665825Y-17072880D02*
X7656301Y-17091927D01*
X7656301Y-17091927D02*
X7646777Y-17101451D01*
X7646777Y-17101451D02*
X7627730Y-17110975D01*
X7627730Y-17110975D02*
X7608682Y-17110975D01*
X7608682Y-17110975D02*
X7589635Y-17101451D01*
X7589635Y-17101451D02*
X7580111Y-17091927D01*
X7580111Y-17091927D02*
X7570587Y-17072880D01*
X7570587Y-17072880D02*
X7561063Y-17034785D01*
X7561063Y-17034785D02*
X7561063Y-16987166D01*
X7561063Y-16987166D02*
X7570587Y-16949070D01*
X7570587Y-16949070D02*
X7580111Y-16930023D01*
X7580111Y-16930023D02*
X7589635Y-16920499D01*
X7589635Y-16920499D02*
X7608682Y-16910975D01*
X7799158Y-16910975D02*
X7818206Y-16910975D01*
X7818206Y-16910975D02*
X7837254Y-16920499D01*
X7837254Y-16920499D02*
X7846777Y-16930023D01*
X7846777Y-16930023D02*
X7856301Y-16949070D01*
X7856301Y-16949070D02*
X7865825Y-16987166D01*
X7865825Y-16987166D02*
X7865825Y-17034785D01*
X7865825Y-17034785D02*
X7856301Y-17072880D01*
X7856301Y-17072880D02*
X7846777Y-17091927D01*
X7846777Y-17091927D02*
X7837254Y-17101451D01*
X7837254Y-17101451D02*
X7818206Y-17110975D01*
X7818206Y-17110975D02*
X7799158Y-17110975D01*
X7799158Y-17110975D02*
X7780111Y-17101451D01*
X7780111Y-17101451D02*
X7770587Y-17091927D01*
X7770587Y-17091927D02*
X7761063Y-17072880D01*
X7761063Y-17072880D02*
X7751539Y-17034785D01*
X7751539Y-17034785D02*
X7751539Y-16987166D01*
X7751539Y-16987166D02*
X7761063Y-16949070D01*
X7761063Y-16949070D02*
X7770587Y-16930023D01*
X7770587Y-16930023D02*
X7780111Y-16920499D01*
X7780111Y-16920499D02*
X7799158Y-16910975D01*
X7951539Y-17110975D02*
X7951539Y-16977642D01*
X7951539Y-16996689D02*
X7961063Y-16987166D01*
X7961063Y-16987166D02*
X7980111Y-16977642D01*
X7980111Y-16977642D02*
X8008682Y-16977642D01*
X8008682Y-16977642D02*
X8027730Y-16987166D01*
X8027730Y-16987166D02*
X8037254Y-17006213D01*
X8037254Y-17006213D02*
X8037254Y-17110975D01*
X8037254Y-17006213D02*
X8046777Y-16987166D01*
X8046777Y-16987166D02*
X8065825Y-16977642D01*
X8065825Y-16977642D02*
X8094396Y-16977642D01*
X8094396Y-16977642D02*
X8113444Y-16987166D01*
X8113444Y-16987166D02*
X8122968Y-17006213D01*
X8122968Y-17006213D02*
X8122968Y-17110975D01*
X8218206Y-17110975D02*
X8218206Y-16977642D01*
X8218206Y-16996689D02*
X8227730Y-16987166D01*
X8227730Y-16987166D02*
X8246777Y-16977642D01*
X8246777Y-16977642D02*
X8275349Y-16977642D01*
X8275349Y-16977642D02*
X8294397Y-16987166D01*
X8294397Y-16987166D02*
X8303920Y-17006213D01*
X8303920Y-17006213D02*
X8303920Y-17110975D01*
X8303920Y-17006213D02*
X8313444Y-16987166D01*
X8313444Y-16987166D02*
X8332492Y-16977642D01*
X8332492Y-16977642D02*
X8361063Y-16977642D01*
X8361063Y-16977642D02*
X8380111Y-16987166D01*
X8380111Y-16987166D02*
X8389635Y-17006213D01*
X8389635Y-17006213D02*
X8389635Y-17110975D01*
X8780111Y-16901451D02*
X8608682Y-17158594D01*
X9037254Y-16910975D02*
X9056302Y-16910975D01*
X9056302Y-16910975D02*
X9075349Y-16920499D01*
X9075349Y-16920499D02*
X9084873Y-16930023D01*
X9084873Y-16930023D02*
X9094397Y-16949070D01*
X9094397Y-16949070D02*
X9103921Y-16987166D01*
X9103921Y-16987166D02*
X9103921Y-17034785D01*
X9103921Y-17034785D02*
X9094397Y-17072880D01*
X9094397Y-17072880D02*
X9084873Y-17091927D01*
X9084873Y-17091927D02*
X9075349Y-17101451D01*
X9075349Y-17101451D02*
X9056302Y-17110975D01*
X9056302Y-17110975D02*
X9037254Y-17110975D01*
X9037254Y-17110975D02*
X9018206Y-17101451D01*
X9018206Y-17101451D02*
X9008682Y-17091927D01*
X9008682Y-17091927D02*
X8999159Y-17072880D01*
X8999159Y-17072880D02*
X8989635Y-17034785D01*
X8989635Y-17034785D02*
X8989635Y-16987166D01*
X8989635Y-16987166D02*
X8999159Y-16949070D01*
X8999159Y-16949070D02*
X9008682Y-16930023D01*
X9008682Y-16930023D02*
X9018206Y-16920499D01*
X9018206Y-16920499D02*
X9037254Y-16910975D01*
X9189635Y-17091927D02*
X9199159Y-17101451D01*
X9199159Y-17101451D02*
X9189635Y-17110975D01*
X9189635Y-17110975D02*
X9180111Y-17101451D01*
X9180111Y-17101451D02*
X9189635Y-17091927D01*
X9189635Y-17091927D02*
X9189635Y-17110975D01*
X9322968Y-16910975D02*
X9342016Y-16910975D01*
X9342016Y-16910975D02*
X9361063Y-16920499D01*
X9361063Y-16920499D02*
X9370587Y-16930023D01*
X9370587Y-16930023D02*
X9380111Y-16949070D01*
X9380111Y-16949070D02*
X9389635Y-16987166D01*
X9389635Y-16987166D02*
X9389635Y-17034785D01*
X9389635Y-17034785D02*
X9380111Y-17072880D01*
X9380111Y-17072880D02*
X9370587Y-17091927D01*
X9370587Y-17091927D02*
X9361063Y-17101451D01*
X9361063Y-17101451D02*
X9342016Y-17110975D01*
X9342016Y-17110975D02*
X9322968Y-17110975D01*
X9322968Y-17110975D02*
X9303921Y-17101451D01*
X9303921Y-17101451D02*
X9294397Y-17091927D01*
X9294397Y-17091927D02*
X9284873Y-17072880D01*
X9284873Y-17072880D02*
X9275349Y-17034785D01*
X9275349Y-17034785D02*
X9275349Y-16987166D01*
X9275349Y-16987166D02*
X9284873Y-16949070D01*
X9284873Y-16949070D02*
X9294397Y-16930023D01*
X9294397Y-16930023D02*
X9303921Y-16920499D01*
X9303921Y-16920499D02*
X9322968Y-16910975D01*
X9503921Y-16996689D02*
X9484873Y-16987166D01*
X9484873Y-16987166D02*
X9475349Y-16977642D01*
X9475349Y-16977642D02*
X9465825Y-16958594D01*
X9465825Y-16958594D02*
X9465825Y-16949070D01*
X9465825Y-16949070D02*
X9475349Y-16930023D01*
X9475349Y-16930023D02*
X9484873Y-16920499D01*
X9484873Y-16920499D02*
X9503921Y-16910975D01*
X9503921Y-16910975D02*
X9542016Y-16910975D01*
X9542016Y-16910975D02*
X9561063Y-16920499D01*
X9561063Y-16920499D02*
X9570587Y-16930023D01*
X9570587Y-16930023D02*
X9580111Y-16949070D01*
X9580111Y-16949070D02*
X9580111Y-16958594D01*
X9580111Y-16958594D02*
X9570587Y-16977642D01*
X9570587Y-16977642D02*
X9561063Y-16987166D01*
X9561063Y-16987166D02*
X9542016Y-16996689D01*
X9542016Y-16996689D02*
X9503921Y-16996689D01*
X9503921Y-16996689D02*
X9484873Y-17006213D01*
X9484873Y-17006213D02*
X9475349Y-17015737D01*
X9475349Y-17015737D02*
X9465825Y-17034785D01*
X9465825Y-17034785D02*
X9465825Y-17072880D01*
X9465825Y-17072880D02*
X9475349Y-17091927D01*
X9475349Y-17091927D02*
X9484873Y-17101451D01*
X9484873Y-17101451D02*
X9503921Y-17110975D01*
X9503921Y-17110975D02*
X9542016Y-17110975D01*
X9542016Y-17110975D02*
X9561063Y-17101451D01*
X9561063Y-17101451D02*
X9570587Y-17091927D01*
X9570587Y-17091927D02*
X9580111Y-17072880D01*
X9580111Y-17072880D02*
X9580111Y-17034785D01*
X9580111Y-17034785D02*
X9570587Y-17015737D01*
X9570587Y-17015737D02*
X9561063Y-17006213D01*
X9561063Y-17006213D02*
X9542016Y-16996689D01*
X9751540Y-16910975D02*
X9713444Y-16910975D01*
X9713444Y-16910975D02*
X9694397Y-16920499D01*
X9694397Y-16920499D02*
X9684873Y-16930023D01*
X9684873Y-16930023D02*
X9665825Y-16958594D01*
X9665825Y-16958594D02*
X9656302Y-16996689D01*
X9656302Y-16996689D02*
X9656302Y-17072880D01*
X9656302Y-17072880D02*
X9665825Y-17091927D01*
X9665825Y-17091927D02*
X9675349Y-17101451D01*
X9675349Y-17101451D02*
X9694397Y-17110975D01*
X9694397Y-17110975D02*
X9732492Y-17110975D01*
X9732492Y-17110975D02*
X9751540Y-17101451D01*
X9751540Y-17101451D02*
X9761063Y-17091927D01*
X9761063Y-17091927D02*
X9770587Y-17072880D01*
X9770587Y-17072880D02*
X9770587Y-17025261D01*
X9770587Y-17025261D02*
X9761063Y-17006213D01*
X9761063Y-17006213D02*
X9751540Y-16996689D01*
X9751540Y-16996689D02*
X9732492Y-16987166D01*
X9732492Y-16987166D02*
X9694397Y-16987166D01*
X9694397Y-16987166D02*
X9675349Y-16996689D01*
X9675349Y-16996689D02*
X9665825Y-17006213D01*
X9665825Y-17006213D02*
X9656302Y-17025261D01*
X9942016Y-16910975D02*
X9903921Y-16910975D01*
X9903921Y-16910975D02*
X9884873Y-16920499D01*
X9884873Y-16920499D02*
X9875349Y-16930023D01*
X9875349Y-16930023D02*
X9856302Y-16958594D01*
X9856302Y-16958594D02*
X9846778Y-16996689D01*
X9846778Y-16996689D02*
X9846778Y-17072880D01*
X9846778Y-17072880D02*
X9856302Y-17091927D01*
X9856302Y-17091927D02*
X9865825Y-17101451D01*
X9865825Y-17101451D02*
X9884873Y-17110975D01*
X9884873Y-17110975D02*
X9922968Y-17110975D01*
X9922968Y-17110975D02*
X9942016Y-17101451D01*
X9942016Y-17101451D02*
X9951540Y-17091927D01*
X9951540Y-17091927D02*
X9961063Y-17072880D01*
X9961063Y-17072880D02*
X9961063Y-17025261D01*
X9961063Y-17025261D02*
X9951540Y-17006213D01*
X9951540Y-17006213D02*
X9942016Y-16996689D01*
X9942016Y-16996689D02*
X9922968Y-16987166D01*
X9922968Y-16987166D02*
X9884873Y-16987166D01*
X9884873Y-16987166D02*
X9865825Y-16996689D01*
X9865825Y-16996689D02*
X9856302Y-17006213D01*
X9856302Y-17006213D02*
X9846778Y-17025261D01*
X10037254Y-16910975D02*
X10037254Y-16949070D01*
X10113444Y-16910975D02*
X10113444Y-16949070D01*
X10408683Y-17187166D02*
X10399159Y-17177642D01*
X10399159Y-17177642D02*
X10380111Y-17149070D01*
X10380111Y-17149070D02*
X10370587Y-17130023D01*
X10370587Y-17130023D02*
X10361064Y-17101451D01*
X10361064Y-17101451D02*
X10351540Y-17053832D01*
X10351540Y-17053832D02*
X10351540Y-17015737D01*
X10351540Y-17015737D02*
X10361064Y-16968118D01*
X10361064Y-16968118D02*
X10370587Y-16939547D01*
X10370587Y-16939547D02*
X10380111Y-16920499D01*
X10380111Y-16920499D02*
X10399159Y-16891927D01*
X10399159Y-16891927D02*
X10408683Y-16882404D01*
X10570587Y-16910975D02*
X10532492Y-16910975D01*
X10532492Y-16910975D02*
X10513444Y-16920499D01*
X10513444Y-16920499D02*
X10503921Y-16930023D01*
X10503921Y-16930023D02*
X10484873Y-16958594D01*
X10484873Y-16958594D02*
X10475349Y-16996689D01*
X10475349Y-16996689D02*
X10475349Y-17072880D01*
X10475349Y-17072880D02*
X10484873Y-17091927D01*
X10484873Y-17091927D02*
X10494397Y-17101451D01*
X10494397Y-17101451D02*
X10513444Y-17110975D01*
X10513444Y-17110975D02*
X10551540Y-17110975D01*
X10551540Y-17110975D02*
X10570587Y-17101451D01*
X10570587Y-17101451D02*
X10580111Y-17091927D01*
X10580111Y-17091927D02*
X10589635Y-17072880D01*
X10589635Y-17072880D02*
X10589635Y-17025261D01*
X10589635Y-17025261D02*
X10580111Y-17006213D01*
X10580111Y-17006213D02*
X10570587Y-16996689D01*
X10570587Y-16996689D02*
X10551540Y-16987166D01*
X10551540Y-16987166D02*
X10513444Y-16987166D01*
X10513444Y-16987166D02*
X10494397Y-16996689D01*
X10494397Y-16996689D02*
X10484873Y-17006213D01*
X10484873Y-17006213D02*
X10475349Y-17025261D01*
X10827730Y-17110975D02*
X10827730Y-16910975D01*
X10913445Y-17110975D02*
X10913445Y-17006213D01*
X10913445Y-17006213D02*
X10903921Y-16987166D01*
X10903921Y-16987166D02*
X10884873Y-16977642D01*
X10884873Y-16977642D02*
X10856302Y-16977642D01*
X10856302Y-16977642D02*
X10837254Y-16987166D01*
X10837254Y-16987166D02*
X10827730Y-16996689D01*
X11037254Y-17110975D02*
X11018206Y-17101451D01*
X11018206Y-17101451D02*
X11008683Y-17091927D01*
X11008683Y-17091927D02*
X10999159Y-17072880D01*
X10999159Y-17072880D02*
X10999159Y-17015737D01*
X10999159Y-17015737D02*
X11008683Y-16996689D01*
X11008683Y-16996689D02*
X11018206Y-16987166D01*
X11018206Y-16987166D02*
X11037254Y-16977642D01*
X11037254Y-16977642D02*
X11065826Y-16977642D01*
X11065826Y-16977642D02*
X11084873Y-16987166D01*
X11084873Y-16987166D02*
X11094397Y-16996689D01*
X11094397Y-16996689D02*
X11103921Y-17015737D01*
X11103921Y-17015737D02*
X11103921Y-17072880D01*
X11103921Y-17072880D02*
X11094397Y-17091927D01*
X11094397Y-17091927D02*
X11084873Y-17101451D01*
X11084873Y-17101451D02*
X11065826Y-17110975D01*
X11065826Y-17110975D02*
X11037254Y-17110975D01*
X11218206Y-17110975D02*
X11199159Y-17101451D01*
X11199159Y-17101451D02*
X11189635Y-17082404D01*
X11189635Y-17082404D02*
X11189635Y-16910975D01*
X11370587Y-17101451D02*
X11351540Y-17110975D01*
X11351540Y-17110975D02*
X11313444Y-17110975D01*
X11313444Y-17110975D02*
X11294397Y-17101451D01*
X11294397Y-17101451D02*
X11284873Y-17082404D01*
X11284873Y-17082404D02*
X11284873Y-17006213D01*
X11284873Y-17006213D02*
X11294397Y-16987166D01*
X11294397Y-16987166D02*
X11313444Y-16977642D01*
X11313444Y-16977642D02*
X11351540Y-16977642D01*
X11351540Y-16977642D02*
X11370587Y-16987166D01*
X11370587Y-16987166D02*
X11380111Y-17006213D01*
X11380111Y-17006213D02*
X11380111Y-17025261D01*
X11380111Y-17025261D02*
X11284873Y-17044308D01*
X11456302Y-17101451D02*
X11475349Y-17110975D01*
X11475349Y-17110975D02*
X11513444Y-17110975D01*
X11513444Y-17110975D02*
X11532492Y-17101451D01*
X11532492Y-17101451D02*
X11542016Y-17082404D01*
X11542016Y-17082404D02*
X11542016Y-17072880D01*
X11542016Y-17072880D02*
X11532492Y-17053832D01*
X11532492Y-17053832D02*
X11513444Y-17044308D01*
X11513444Y-17044308D02*
X11484873Y-17044308D01*
X11484873Y-17044308D02*
X11465825Y-17034785D01*
X11465825Y-17034785D02*
X11456302Y-17015737D01*
X11456302Y-17015737D02*
X11456302Y-17006213D01*
X11456302Y-17006213D02*
X11465825Y-16987166D01*
X11465825Y-16987166D02*
X11484873Y-16977642D01*
X11484873Y-16977642D02*
X11513444Y-16977642D01*
X11513444Y-16977642D02*
X11532492Y-16987166D01*
X11608683Y-17187166D02*
X11618206Y-17177642D01*
X11618206Y-17177642D02*
X11637254Y-17149070D01*
X11637254Y-17149070D02*
X11646778Y-17130023D01*
X11646778Y-17130023D02*
X11656302Y-17101451D01*
X11656302Y-17101451D02*
X11665825Y-17053832D01*
X11665825Y-17053832D02*
X11665825Y-17015737D01*
X11665825Y-17015737D02*
X11656302Y-16968118D01*
X11656302Y-16968118D02*
X11646778Y-16939547D01*
X11646778Y-16939547D02*
X11637254Y-16920499D01*
X11637254Y-16920499D02*
X11618206Y-16891927D01*
X11618206Y-16891927D02*
X11608683Y-16882404D01*
M02*
