G04 #@! TF.GenerationSoftware,KiCad,Pcbnew,8.0.5*
G04 #@! TF.CreationDate,2024-11-21T21:23:03+01:00*
G04 #@! TF.ProjectId,stellar,7374656c-6c61-4722-9e6b-696361645f70,rev?*
G04 #@! TF.SameCoordinates,Original*
G04 #@! TF.FileFunction,Soldermask,Top*
G04 #@! TF.FilePolarity,Negative*
%FSLAX46Y46*%
G04 Gerber Fmt 4.6, Leading zero omitted, Abs format (unit mm)*
G04 Created by KiCad (PCBNEW 8.0.5) date 2024-11-21 21:23:03*
%MOMM*%
%LPD*%
G01*
G04 APERTURE LIST*
G04 Aperture macros list*
%AMRoundRect*
0 Rectangle with rounded corners*
0 $1 Rounding radius*
0 $2 $3 $4 $5 $6 $7 $8 $9 X,Y pos of 4 corners*
0 Add a 4 corners polygon primitive as box body*
4,1,4,$2,$3,$4,$5,$6,$7,$8,$9,$2,$3,0*
0 Add four circle primitives for the rounded corners*
1,1,$1+$1,$2,$3*
1,1,$1+$1,$4,$5*
1,1,$1+$1,$6,$7*
1,1,$1+$1,$8,$9*
0 Add four rect primitives between the rounded corners*
20,1,$1+$1,$2,$3,$4,$5,0*
20,1,$1+$1,$4,$5,$6,$7,0*
20,1,$1+$1,$6,$7,$8,$9,0*
20,1,$1+$1,$8,$9,$2,$3,0*%
G04 Aperture macros list end*
%ADD10C,2.700000*%
%ADD11C,3.900000*%
%ADD12RoundRect,0.250000X0.400000X-0.250000X0.400000X0.250000X-0.400000X0.250000X-0.400000X-0.250000X0*%
%ADD13C,3.600000*%
%ADD14RoundRect,0.050000X-0.850000X-0.412500X0.850000X-0.412500X0.850000X0.412500X-0.850000X0.412500X0*%
%ADD15RoundRect,0.050000X-0.810814X-0.485013X0.882717X-0.336848X0.810814X0.485013X-0.882717X0.336848X0*%
%ADD16RoundRect,0.050000X0.850000X0.412500X-0.850000X0.412500X-0.850000X-0.412500X0.850000X-0.412500X0*%
%ADD17RoundRect,0.275000X0.275000X0.500000X-0.275000X0.500000X-0.275000X-0.500000X0.275000X-0.500000X0*%
%ADD18RoundRect,0.050000X-0.412500X0.850000X-0.412500X-0.850000X0.412500X-0.850000X0.412500X0.850000X0*%
%ADD19RoundRect,0.050000X-0.800000X0.800000X-0.800000X-0.800000X0.800000X-0.800000X0.800000X0.800000X0*%
%ADD20C,1.700000*%
%ADD21RoundRect,0.250000X-0.400000X0.250000X-0.400000X-0.250000X0.400000X-0.250000X0.400000X0.250000X0*%
%ADD22C,2.600000*%
%ADD23RoundRect,0.250000X0.420267X-0.214186X0.376689X0.283911X-0.420267X0.214186X-0.376689X-0.283911X0*%
%ADD24RoundRect,0.050000X0.810814X0.485013X-0.882717X0.336848X-0.810814X-0.485013X0.882717X-0.336848X0*%
%ADD25RoundRect,0.050000X-0.939822X-0.096906X0.657655X-0.678340X0.939822X0.096906X-0.657655X0.678340X0*%
%ADD26RoundRect,0.275000X1.525000X-0.275000X1.525000X0.275000X-1.525000X0.275000X-1.525000X-0.275000X0*%
%ADD27RoundRect,0.266667X1.483333X-0.533333X1.483333X0.533333X-1.483333X0.533333X-1.483333X-0.533333X0*%
%ADD28RoundRect,0.275000X-0.230376X-0.522065X0.317531X-0.474130X0.230376X0.522065X-0.317531X0.474130X0*%
%ADD29RoundRect,0.050000X-0.450000X-0.850000X0.450000X-0.850000X0.450000X0.850000X-0.450000X0.850000X0*%
%ADD30RoundRect,0.050000X-0.916288X0.230376X0.385988X-0.862363X0.916288X-0.230376X-0.385988X0.862363X0*%
%ADD31RoundRect,0.250000X-0.290372X0.371731X-0.461382X-0.098115X0.290372X-0.371731X0.461382X0.098115X0*%
%ADD32RoundRect,0.250000X-0.145721X0.448626X-0.467115X0.065604X0.145721X-0.448626X0.467115X-0.065604X0*%
%ADD33RoundRect,0.275000X-0.275000X-0.500000X0.275000X-0.500000X0.275000X0.500000X-0.275000X0.500000X0*%
%ADD34C,1.801800*%
%ADD35C,3.529000*%
%ADD36C,3.100000*%
%ADD37RoundRect,0.050000X-1.300000X-1.300000X1.300000X-1.300000X1.300000X1.300000X-1.300000X1.300000X0*%
%ADD38RoundRect,0.270833X-0.379167X-0.654167X0.379167X-0.654167X0.379167X0.654167X-0.379167X0.654167X0*%
%ADD39O,1.300000X1.850000*%
%ADD40RoundRect,0.050000X-1.181751X-1.408356X1.408356X-1.181751X1.181751X1.408356X-1.408356X1.181751X0*%
%ADD41RoundRect,0.050000X-1.831482X-0.160234X0.160234X-1.831482X1.831482X0.160234X-0.160234X1.831482X0*%
%ADD42RoundRect,0.050000X-1.666227X-0.776974X0.776974X-1.666227X1.666227X0.776974X-0.776974X1.666227X0*%
G04 APERTURE END LIST*
D10*
X190003100Y-82775693D03*
D11*
X190003100Y-82775693D03*
D12*
X146078201Y-70365578D03*
X146078201Y-67065578D03*
D13*
X211541800Y-41774900D03*
D14*
X176848634Y-120397840D03*
X176848634Y-121797840D03*
X171248634Y-121797840D03*
X171248634Y-120397840D03*
D15*
X82724962Y-100661515D03*
X82846980Y-102056187D03*
X77268290Y-102544259D03*
X77146272Y-101149587D03*
D14*
X178848634Y-94897840D03*
X178848634Y-96297840D03*
X173248634Y-96297840D03*
X173248634Y-94897840D03*
X121848634Y-59397840D03*
X121848634Y-60797840D03*
X116248634Y-60797840D03*
X116248634Y-59397840D03*
D16*
X135248634Y-73797840D03*
X135248634Y-72397840D03*
X140848634Y-72397840D03*
X140848634Y-73797840D03*
D10*
X89203100Y-128293600D03*
D11*
X89203100Y-128293600D03*
D16*
X135248634Y-37797840D03*
X135248634Y-36397840D03*
X140848634Y-36397840D03*
X140848634Y-37797840D03*
D12*
X165078201Y-110865578D03*
X165078201Y-107565578D03*
D14*
X159848634Y-94897840D03*
X159848634Y-96297840D03*
X154248634Y-96297840D03*
X154248634Y-94897840D03*
D17*
X170353100Y-78323600D03*
X168453100Y-78323600D03*
D12*
X146078201Y-52365578D03*
X146078201Y-49065578D03*
D15*
X99229732Y-71311343D03*
X99351750Y-72706015D03*
X93773060Y-73194087D03*
X93651042Y-71799415D03*
D18*
X96923123Y-46623603D03*
X95523123Y-46623603D03*
X95523123Y-41023603D03*
X96923123Y-41023603D03*
D19*
X190010000Y-43064193D03*
D20*
X190010000Y-45604193D03*
X190010000Y-48144193D03*
X190010000Y-50684193D03*
X190010000Y-53224193D03*
X190010000Y-55764193D03*
X190010000Y-58304193D03*
X190010000Y-60844193D03*
X190010000Y-63384193D03*
X190010000Y-65924193D03*
X190010000Y-68464193D03*
X190010000Y-71004193D03*
X205250000Y-71004193D03*
X205250000Y-68464193D03*
X205250000Y-65924193D03*
X205250000Y-63384193D03*
X205250000Y-60844193D03*
X205250000Y-58304193D03*
X205250000Y-55764193D03*
X205250000Y-53224193D03*
X205250000Y-50684193D03*
X205250000Y-48144193D03*
X205250000Y-45604193D03*
X205250000Y-43064193D03*
D21*
X163352085Y-121125631D03*
X163352085Y-124425631D03*
D22*
X99892802Y-129527605D03*
D14*
X121848634Y-95397840D03*
X121848634Y-96797840D03*
X116248634Y-96797840D03*
X116248634Y-95397840D03*
D23*
X107399882Y-104694036D03*
X107112268Y-101406594D03*
D12*
X127078201Y-57365578D03*
X127078201Y-54065578D03*
D24*
X92204257Y-55262582D03*
X92082239Y-53867910D03*
X97660929Y-53379838D03*
X97782947Y-54774510D03*
D14*
X140848634Y-90397840D03*
X140848634Y-91797840D03*
X135248634Y-91797840D03*
X135248634Y-90397840D03*
D21*
X113153100Y-112673600D03*
X113153100Y-115973600D03*
D12*
X127078201Y-93365578D03*
X127078201Y-90065578D03*
D10*
X205203100Y-82775693D03*
D11*
X205203100Y-82775693D03*
D14*
X178848634Y-58897840D03*
X178848634Y-60297840D03*
X173248634Y-60297840D03*
X173248634Y-58897840D03*
D13*
X211541800Y-111774900D03*
D25*
X199897010Y-125449323D03*
X199418183Y-126764890D03*
X194155904Y-124849577D03*
X194634731Y-123534010D03*
D16*
X116248634Y-42797840D03*
X116248634Y-41397840D03*
X121848634Y-41397840D03*
X121848634Y-42797840D03*
X173248634Y-78297840D03*
X173248634Y-76897840D03*
X178848634Y-76897840D03*
X178848634Y-78297840D03*
D26*
X105692802Y-127677605D03*
X105692802Y-125677605D03*
D27*
X111442802Y-130027605D03*
X111442802Y-123327605D03*
D12*
X184078201Y-92865578D03*
X184078201Y-89565578D03*
D23*
X105831079Y-86762531D03*
X105543465Y-83475089D03*
D28*
X101956715Y-71156398D03*
X103849485Y-70990802D03*
D23*
X104262276Y-68831026D03*
X103974662Y-65543584D03*
D10*
X203541800Y-111774900D03*
D11*
X203541800Y-111774900D03*
D24*
X95341863Y-91125592D03*
X95219845Y-89730920D03*
X100798535Y-89242848D03*
X100920553Y-90637520D03*
D16*
X154248634Y-42297840D03*
X154248634Y-40897840D03*
X159848634Y-40897840D03*
X159848634Y-42297840D03*
D22*
X99892802Y-124977605D03*
D12*
X146078201Y-106365578D03*
X146078201Y-103065578D03*
D17*
X169472802Y-43073600D03*
X167572802Y-43073600D03*
D12*
X165078201Y-92865578D03*
X165078201Y-89565578D03*
D14*
X157848634Y-120397840D03*
X157848634Y-121797840D03*
X152248634Y-121797840D03*
X152248634Y-120397840D03*
D12*
X184078201Y-110865578D03*
X184078201Y-107565578D03*
X127078201Y-111365578D03*
X127078201Y-108065578D03*
D29*
X191291800Y-111774900D03*
X195791800Y-111774900D03*
D16*
X173248634Y-42297840D03*
X173248634Y-40897840D03*
X178848634Y-40897840D03*
X178848634Y-42297840D03*
D30*
X219827690Y-138079170D03*
X218927787Y-139151633D03*
X214637940Y-135552022D03*
X215537843Y-134479559D03*
D18*
X101923123Y-46623603D03*
X100523123Y-46623603D03*
X100523123Y-41023603D03*
X101923123Y-41023603D03*
D31*
X204817433Y-128213107D03*
X203688767Y-131314093D03*
D17*
X169472802Y-40873600D03*
X167572802Y-40873600D03*
D14*
X159848634Y-58897840D03*
X159848634Y-60297840D03*
X154248634Y-60297840D03*
X154248634Y-58897840D03*
D32*
X223493700Y-142279627D03*
X221372500Y-144807573D03*
D12*
X146078201Y-88365578D03*
X146078201Y-85065578D03*
X165078201Y-56865578D03*
X165078201Y-53565578D03*
X127078201Y-75365578D03*
X127078201Y-72065578D03*
D16*
X154248634Y-78297840D03*
X154248634Y-76897840D03*
X159848634Y-76897840D03*
X159848634Y-78297840D03*
D12*
X165078201Y-74865578D03*
X165078201Y-71565578D03*
D10*
X211541800Y-49774900D03*
D11*
X211541800Y-49774900D03*
D33*
X85953100Y-100823600D03*
X87853100Y-100823600D03*
D16*
X116248634Y-78797840D03*
X116248634Y-77397840D03*
X121848634Y-77397840D03*
X121848634Y-78797840D03*
D18*
X106923123Y-46623603D03*
X105523123Y-46623603D03*
X105523123Y-41023603D03*
X106923123Y-41023603D03*
D12*
X184078201Y-74865578D03*
X184078201Y-71565578D03*
D15*
X102367338Y-107174353D03*
X102489356Y-108569025D03*
X96910666Y-109057097D03*
X96788648Y-107662425D03*
D10*
X89203100Y-42323600D03*
D11*
X89203100Y-42323600D03*
D21*
X182352085Y-121125631D03*
X182352085Y-124425631D03*
D12*
X184078201Y-56865578D03*
X184078201Y-53565578D03*
D23*
X81508778Y-118886865D03*
X81221164Y-115599423D03*
D33*
X181203100Y-95073600D03*
X183103100Y-95073600D03*
D14*
X140848634Y-54397840D03*
X140848634Y-55797840D03*
X135248634Y-55797840D03*
X135248634Y-54397840D03*
D34*
X151548634Y-64297840D03*
D35*
X157048634Y-64297840D03*
D36*
X157048634Y-70247840D03*
X162048634Y-68047840D03*
D34*
X162548634Y-64297840D03*
D37*
X153773634Y-70247840D03*
X165323634Y-68047840D03*
D13*
X81203100Y-42323600D03*
D34*
X113548634Y-100797840D03*
D35*
X119048634Y-100797840D03*
D36*
X119048634Y-106747840D03*
X124048634Y-104547840D03*
D34*
X124548634Y-100797840D03*
D37*
X115773634Y-106747840D03*
X127323634Y-104547840D03*
D34*
X113548634Y-82797840D03*
D35*
X119048634Y-82797840D03*
D36*
X119048634Y-88747840D03*
X124048634Y-86547840D03*
D34*
X124548634Y-82797840D03*
D37*
X115773634Y-88747840D03*
X127323634Y-86547840D03*
D34*
X151548634Y-100297840D03*
D35*
X157048634Y-100297840D03*
D36*
X157048634Y-106247840D03*
X162048634Y-104047840D03*
D34*
X162548634Y-100297840D03*
D37*
X153773634Y-106247840D03*
X165323634Y-104047840D03*
D38*
X194630000Y-102034193D03*
D39*
X196630000Y-102034193D03*
X198630000Y-102034193D03*
X200630000Y-102034193D03*
D34*
X170548634Y-82297840D03*
D35*
X176048634Y-82297840D03*
D36*
X176048634Y-88247840D03*
X181048634Y-86047840D03*
D34*
X181548634Y-82297840D03*
D37*
X172773634Y-88247840D03*
X184323634Y-86047840D03*
D34*
X74927187Y-106764359D03*
D35*
X80406258Y-106285002D03*
D36*
X80924835Y-112212360D03*
X85714069Y-109584953D03*
D34*
X85885329Y-105805645D03*
D40*
X77662297Y-112497796D03*
X88976603Y-109299518D03*
D13*
X81203100Y-128293600D03*
D34*
X170548634Y-100297840D03*
D35*
X176048634Y-100297840D03*
D36*
X176048634Y-106247840D03*
X181048634Y-104047840D03*
D34*
X181548634Y-100297840D03*
D37*
X172773634Y-106247840D03*
X184323634Y-104047840D03*
D34*
X113548634Y-46797840D03*
D35*
X119048634Y-46797840D03*
D36*
X119048634Y-52747840D03*
X124048634Y-50547840D03*
D34*
X124548634Y-46797840D03*
D37*
X115773634Y-52747840D03*
X127323634Y-50547840D03*
D34*
X170548634Y-46297840D03*
D35*
X176048634Y-46297840D03*
D36*
X176048634Y-52247840D03*
X181048634Y-50047840D03*
D34*
X181548634Y-46297840D03*
D37*
X172773634Y-52247840D03*
X184323634Y-50047840D03*
D34*
X89863154Y-59482682D03*
D35*
X95342225Y-59003325D03*
D36*
X95860802Y-64930683D03*
X100650036Y-62303276D03*
D34*
X100821296Y-58523968D03*
D40*
X92598264Y-65216119D03*
X103912570Y-62017841D03*
D34*
X132548634Y-41797840D03*
D35*
X138048634Y-41797840D03*
D36*
X138048634Y-47747840D03*
X143048634Y-45547840D03*
D34*
X143548634Y-41797840D03*
D37*
X134773634Y-47747840D03*
X146323634Y-45547840D03*
D34*
X209998469Y-136880673D03*
D35*
X214211713Y-140416005D03*
D36*
X210387127Y-144973969D03*
X215631482Y-146502610D03*
D34*
X218424957Y-143951337D03*
D41*
X207878331Y-142868840D03*
X218140277Y-148607739D03*
D34*
X113548634Y-64797840D03*
D35*
X119048634Y-64797840D03*
D36*
X119048634Y-70747840D03*
X124048634Y-68547840D03*
D34*
X124548634Y-64797840D03*
D37*
X115773634Y-70747840D03*
X127323634Y-68547840D03*
D34*
X151548634Y-46297840D03*
D35*
X157048634Y-46297840D03*
D36*
X157048634Y-52247840D03*
X162048634Y-50047840D03*
D34*
X162548634Y-46297840D03*
D37*
X153773634Y-52247840D03*
X165323634Y-50047840D03*
D34*
X149548634Y-125797840D03*
D35*
X155048634Y-125797840D03*
D36*
X155048634Y-131747840D03*
X160048634Y-129547840D03*
D34*
X160548634Y-125797840D03*
D37*
X151773634Y-131747840D03*
X163323634Y-129547840D03*
D34*
X168548634Y-125797840D03*
D35*
X174048634Y-125797840D03*
D36*
X174048634Y-131747840D03*
X179048634Y-129547840D03*
D34*
X179548634Y-125797840D03*
D37*
X170773634Y-131747840D03*
X182323634Y-129547840D03*
D34*
X91431957Y-77414187D03*
D35*
X96911028Y-76934830D03*
D36*
X97429605Y-82862188D03*
X102218839Y-80234781D03*
D34*
X102390099Y-76455473D03*
D40*
X94167067Y-83147624D03*
X105481373Y-79949346D03*
D34*
X190250653Y-127684894D03*
D35*
X195418962Y-129566005D03*
D36*
X193383942Y-135157176D03*
X198834850Y-134799953D03*
D34*
X200587271Y-131447116D03*
D42*
X190306449Y-134037060D03*
X201912343Y-135920069D03*
D34*
X132548634Y-77797840D03*
D35*
X138048634Y-77797840D03*
D36*
X138048634Y-83747840D03*
X143048634Y-81547840D03*
D34*
X143548634Y-77797840D03*
D37*
X134773634Y-83747840D03*
X146323634Y-81547840D03*
D34*
X93000760Y-95345692D03*
D35*
X98479831Y-94866335D03*
D36*
X98998408Y-100793693D03*
X103787642Y-98166286D03*
D34*
X103958902Y-94386978D03*
D40*
X95735870Y-101079129D03*
X107050176Y-97880851D03*
D34*
X151548634Y-82297840D03*
D35*
X157048634Y-82297840D03*
D36*
X157048634Y-88247840D03*
X162048634Y-86047840D03*
D34*
X162548634Y-82297840D03*
D37*
X153773634Y-88247840D03*
X165323634Y-86047840D03*
D34*
X94569563Y-113277197D03*
D35*
X100048634Y-112797840D03*
D36*
X100567211Y-118725198D03*
X105356445Y-116097791D03*
D34*
X105527705Y-112318483D03*
D40*
X97304673Y-119010634D03*
X108618979Y-115812356D03*
D34*
X170548634Y-64297840D03*
D35*
X176048634Y-64297840D03*
D36*
X176048634Y-70247840D03*
X181048634Y-68047840D03*
D34*
X181548634Y-64297840D03*
D37*
X172773634Y-70247840D03*
X184323634Y-68047840D03*
D34*
X132548634Y-95797840D03*
D35*
X138048634Y-95797840D03*
D36*
X138048634Y-101747840D03*
X143048634Y-99547840D03*
D34*
X143548634Y-95797840D03*
D37*
X134773634Y-101747840D03*
X146323634Y-99547840D03*
D34*
X132548634Y-59797840D03*
D35*
X138048634Y-59797840D03*
D36*
X138048634Y-65747840D03*
X143048634Y-63547840D03*
D34*
X143548634Y-59797840D03*
D37*
X134773634Y-65747840D03*
X146323634Y-63547840D03*
M02*
