M48
; DRILL file {KiCad 8.0.5} date 2024-11-21T21:25:46+0100
; FORMAT={-:-/ absolute / metric / decimal}
; #@! TF.CreationDate,2024-11-21T21:25:46+01:00
; #@! TF.GenerationSoftware,Kicad,Pcbnew,8.0.5
; #@! TF.FileFunction,Plated,1,2,PTH
FMAT,2
METRIC
; #@! TA.AperFunction,Plated,PTH,ViaDrill
T1C0.300
; #@! TA.AperFunction,Plated,PTH,ComponentDrill
T2C0.750
; #@! TA.AperFunction,Plated,PTH,ComponentDrill
T3C1.100
; #@! TA.AperFunction,Plated,PTH,ComponentDrill
T4C1.200
; #@! TA.AperFunction,Plated,PTH,ComponentDrill
T5C2.200
%
G90
G05
T1
X78.403Y-117.074
X85.653Y-52.324
X85.653Y-57.574
X85.653Y-71.324
X85.653Y-76.574
X85.653Y-88.074
X87.403Y-94.824
X87.403Y-97.324
X89.903Y-62.324
X89.903Y-94.824
X89.903Y-97.324
X89.903Y-99.824
X92.403Y-62.324
X92.403Y-97.324
X92.403Y-99.824
X92.653Y-68.574
X94.153Y-85.324
X96.528Y-103.449
X96.903Y-116.574
X97.365Y-48.796
X98.153Y-56.324
X99.903Y-69.824
X101.403Y-92.074
X101.903Y-105.574
X104.903Y-72.324
X104.903Y-92.324
X107.403Y-59.824
X107.403Y-62.324
X107.403Y-64.824
X107.403Y-67.324
X107.403Y-69.824
X107.403Y-92.324
X109.903Y-54.824
X109.903Y-62.324
X109.903Y-64.824
X109.903Y-67.324
X109.903Y-69.824
X109.903Y-72.324
X112.403Y-49.824
X112.403Y-54.824
X112.403Y-62.324
X112.403Y-67.324
X112.403Y-69.824
X112.403Y-72.324
X112.403Y-84.824
X112.403Y-87.324
X114.891Y-126.774
X114.903Y-49.824
X115.653Y-55.574
X115.653Y-73.324
X115.653Y-91.074
X115.903Y-109.574
X117.403Y-49.824
X118.153Y-112.074
X118.153Y-115.074
X120.403Y-114.349
X121.903Y-39.144
X121.903Y-44.324
X121.903Y-58.074
X121.903Y-80.324
X121.903Y-94.324
X124.153Y-42.824
X124.877Y-78.798
X127.403Y-82.324
X129.153Y-57.366
X129.903Y-82.324
X129.903Y-87.324
X129.903Y-93.366
X130.403Y-74.574
X132.403Y-87.324
X132.403Y-92.324
X132.403Y-107.324
X133.153Y-36.574
X133.903Y-58.324
X133.903Y-94.324
X134.778Y-50.199
X134.778Y-68.324
X134.778Y-86.324
X134.778Y-104.324
X134.891Y-115.911
X137.403Y-107.324
X140.903Y-53.074
X140.903Y-74.999
X140.903Y-88.824
X143.653Y-36.324
X143.653Y-37.824
X143.653Y-73.798
X144.903Y-92.324
X145.153Y-56.074
X145.513Y-39.286
X146.153Y-76.074
X150.977Y-94.898
X152.403Y-58.898
X152.653Y-40.824
X153.653Y-54.824
X153.653Y-72.824
X153.653Y-90.824
X153.653Y-109.453
X154.053Y-115.324
X159.653Y-39.286
X159.903Y-57.574
X159.903Y-79.824
X159.903Y-93.824
X159.903Y-117.824
X160.653Y-121.798
X161.403Y-117.249
X161.903Y-42.074
X162.153Y-40.574
X162.403Y-94.824
X163.403Y-113.324
X163.403Y-116.599
X164.903Y-94.824
X167.579Y-120.398
X168.653Y-109.824
X171.227Y-40.898
X172.653Y-55.074
X172.653Y-73.324
X172.653Y-91.324
X172.653Y-109.324
X172.653Y-114.849
X178.903Y-39.286
X178.903Y-57.441
X178.903Y-79.824
X178.903Y-93.574
X178.903Y-117.324
X178.903Y-119.824
X179.903Y-97.324
X179.903Y-99.824
X180.403Y-122.824
X180.653Y-73.824
X180.903Y-78.074
X180.977Y-40.898
X181.693Y-42.7
X182.403Y-59.824
X182.403Y-62.324
X182.403Y-72.324
X182.403Y-97.324
X182.653Y-117.324
X182.984Y-113.349
X184.903Y-59.824
X184.903Y-62.324
X184.903Y-97.324
X184.903Y-99.824
X185.653Y-115.349
X185.653Y-117.324
X187.027Y-38.636
X187.403Y-117.324
X188.394Y-112.824
X189.903Y-74.824
X189.903Y-77.324
X189.903Y-79.824
X189.903Y-87.324
X189.903Y-117.324
X192.153Y-122.824
X195.403Y-119.824
X195.409Y-118.646
X196.63Y-114.824
X198.457Y-66.068
X198.63Y-72.672
X200.235Y-63.528
X200.63Y-72.672
X202.403Y-77.324
X202.403Y-82.324
X202.403Y-87.324
X202.403Y-92.324
X204.903Y-127.074
X207.403Y-57.324
X207.403Y-77.324
X207.403Y-87.324
X207.403Y-92.324
X207.403Y-97.324
X207.403Y-102.324
X207.403Y-107.324
X207.403Y-112.324
X207.403Y-117.324
X207.403Y-122.324
X207.878Y-140.324
X212.403Y-57.324
X212.403Y-62.324
X212.403Y-67.324
X212.403Y-72.324
X212.403Y-77.324
X212.403Y-82.324
X212.403Y-107.324
X212.403Y-117.324
X212.403Y-122.324
X212.403Y-127.324
T2
X194.63Y-102.034
X196.63Y-102.034
X198.63Y-102.034
X200.63Y-102.034
T3
X190.01Y-43.064
X190.01Y-45.604
X190.01Y-48.144
X190.01Y-50.684
X190.01Y-53.224
X190.01Y-55.764
X190.01Y-58.304
X190.01Y-60.844
X190.01Y-63.384
X190.01Y-65.924
X190.01Y-68.464
X190.01Y-71.004
X205.25Y-43.064
X205.25Y-45.604
X205.25Y-48.144
X205.25Y-50.684
X205.25Y-53.224
X205.25Y-55.764
X205.25Y-58.304
X205.25Y-60.844
X205.25Y-63.384
X205.25Y-65.924
X205.25Y-68.464
X205.25Y-71.004
T4
X99.893Y-124.978
X99.893Y-129.528
T5
X89.203Y-42.324
X89.203Y-128.294
X190.003Y-82.776
X203.542Y-111.775
X205.203Y-82.776
X211.542Y-49.775
M30
