G04 #@! TF.GenerationSoftware,KiCad,Pcbnew,8.0.5*
G04 #@! TF.CreationDate,2024-11-21T21:23:03+01:00*
G04 #@! TF.ProjectId,stellar,7374656c-6c61-4722-9e6b-696361645f70,rev?*
G04 #@! TF.SameCoordinates,Original*
G04 #@! TF.FileFunction,Paste,Top*
G04 #@! TF.FilePolarity,Positive*
%FSLAX46Y46*%
G04 Gerber Fmt 4.6, Leading zero omitted, Abs format (unit mm)*
G04 Created by KiCad (PCBNEW 8.0.5) date 2024-11-21 21:23:03*
%MOMM*%
%LPD*%
G01*
G04 APERTURE LIST*
G04 Aperture macros list*
%AMRoundRect*
0 Rectangle with rounded corners*
0 $1 Rounding radius*
0 $2 $3 $4 $5 $6 $7 $8 $9 X,Y pos of 4 corners*
0 Add a 4 corners polygon primitive as box body*
4,1,4,$2,$3,$4,$5,$6,$7,$8,$9,$2,$3,0*
0 Add four circle primitives for the rounded corners*
1,1,$1+$1,$2,$3*
1,1,$1+$1,$4,$5*
1,1,$1+$1,$6,$7*
1,1,$1+$1,$8,$9*
0 Add four rect primitives between the rounded corners*
20,1,$1+$1,$2,$3,$4,$5,0*
20,1,$1+$1,$4,$5,$6,$7,0*
20,1,$1+$1,$6,$7,$8,$9,0*
20,1,$1+$1,$8,$9,$2,$3,0*%
%AMRotRect*
0 Rectangle, with rotation*
0 The origin of the aperture is its center*
0 $1 length*
0 $2 width*
0 $3 Rotation angle, in degrees counterclockwise*
0 Add horizontal line*
21,1,$1,$2,0,0,$3*%
G04 Aperture macros list end*
%ADD10RoundRect,0.225000X0.375000X-0.225000X0.375000X0.225000X-0.375000X0.225000X-0.375000X-0.225000X0*%
%ADD11R,1.700000X0.825000*%
%ADD12RotRect,1.700000X0.825000X5.000000*%
%ADD13RoundRect,0.250000X0.250000X0.475000X-0.250000X0.475000X-0.250000X-0.475000X0.250000X-0.475000X0*%
%ADD14R,0.825000X1.700000*%
%ADD15RoundRect,0.225000X-0.375000X0.225000X-0.375000X-0.225000X0.375000X-0.225000X0.375000X0.225000X0*%
%ADD16RoundRect,0.225000X0.393183X-0.191460X0.353963X0.256827X-0.393183X0.191460X-0.353963X-0.256827X0*%
%ADD17RotRect,1.700000X0.825000X185.000000*%
%ADD18RotRect,1.700000X0.825000X340.000000*%
%ADD19RoundRect,0.250000X1.500000X-0.250000X1.500000X0.250000X-1.500000X0.250000X-1.500000X-0.250000X0*%
%ADD20RoundRect,0.250001X1.449999X-0.499999X1.449999X0.499999X-1.449999X0.499999X-1.449999X-0.499999X0*%
%ADD21RoundRect,0.250000X-0.207650X-0.494981X0.290448X-0.451404X0.207650X0.494981X-0.290448X0.451404X0*%
%ADD22R,0.900000X1.700000*%
%ADD23RotRect,1.700000X0.825000X320.000000*%
%ADD24RoundRect,0.225000X-0.275430X0.339688X-0.429339X-0.083173X0.275430X-0.339688X0.429339X0.083173X0*%
%ADD25RoundRect,0.225000X-0.142639X0.413405X-0.431894X0.068685X0.142639X-0.413405X0.431894X-0.068685X0*%
%ADD26RoundRect,0.250000X-0.250000X-0.475000X0.250000X-0.475000X0.250000X0.475000X-0.250000X0.475000X0*%
%ADD27R,2.600000X2.600000*%
%ADD28RotRect,2.600000X2.600000X5.000000*%
%ADD29RotRect,2.600000X2.600000X320.000000*%
%ADD30RotRect,2.600000X2.600000X340.000000*%
G04 APERTURE END LIST*
D10*
X146078201Y-70365578D03*
X146078201Y-67065578D03*
D11*
X176848634Y-120397840D03*
X176848634Y-121797840D03*
X171248634Y-121797840D03*
X171248634Y-120397840D03*
D12*
X82724962Y-100661515D03*
X82846980Y-102056187D03*
X77268290Y-102544259D03*
X77146272Y-101149587D03*
D11*
X178848634Y-94897840D03*
X178848634Y-96297840D03*
X173248634Y-96297840D03*
X173248634Y-94897840D03*
X121848634Y-59397840D03*
X121848634Y-60797840D03*
X116248634Y-60797840D03*
X116248634Y-59397840D03*
X135248634Y-73797840D03*
X135248634Y-72397840D03*
X140848634Y-72397840D03*
X140848634Y-73797840D03*
X135248634Y-37797840D03*
X135248634Y-36397840D03*
X140848634Y-36397840D03*
X140848634Y-37797840D03*
D10*
X165078201Y-110865578D03*
X165078201Y-107565578D03*
D11*
X159848634Y-94897840D03*
X159848634Y-96297840D03*
X154248634Y-96297840D03*
X154248634Y-94897840D03*
D13*
X170353100Y-78323600D03*
X168453100Y-78323600D03*
D10*
X146078201Y-52365578D03*
X146078201Y-49065578D03*
D12*
X99229732Y-71311343D03*
X99351750Y-72706015D03*
X93773060Y-73194087D03*
X93651042Y-71799415D03*
D14*
X96923123Y-46623603D03*
X95523123Y-46623603D03*
X95523123Y-41023603D03*
X96923123Y-41023603D03*
D15*
X163352085Y-121125631D03*
X163352085Y-124425631D03*
D11*
X121848634Y-95397840D03*
X121848634Y-96797840D03*
X116248634Y-96797840D03*
X116248634Y-95397840D03*
D16*
X107399882Y-104694036D03*
X107112268Y-101406594D03*
D10*
X127078201Y-57365578D03*
X127078201Y-54065578D03*
D17*
X92204257Y-55262582D03*
X92082239Y-53867910D03*
X97660929Y-53379838D03*
X97782947Y-54774510D03*
D11*
X140848634Y-90397840D03*
X140848634Y-91797840D03*
X135248634Y-91797840D03*
X135248634Y-90397840D03*
D15*
X113153100Y-112673600D03*
X113153100Y-115973600D03*
D10*
X127078201Y-93365578D03*
X127078201Y-90065578D03*
D11*
X178848634Y-58897840D03*
X178848634Y-60297840D03*
X173248634Y-60297840D03*
X173248634Y-58897840D03*
D18*
X199897010Y-125449323D03*
X199418183Y-126764890D03*
X194155904Y-124849577D03*
X194634731Y-123534010D03*
D11*
X116248634Y-42797840D03*
X116248634Y-41397840D03*
X121848634Y-41397840D03*
X121848634Y-42797840D03*
X173248634Y-78297840D03*
X173248634Y-76897840D03*
X178848634Y-76897840D03*
X178848634Y-78297840D03*
D19*
X105692802Y-127677605D03*
X105692802Y-125677605D03*
D20*
X111442802Y-130027605D03*
X111442802Y-123327605D03*
D10*
X184078201Y-92865578D03*
X184078201Y-89565578D03*
D16*
X105831079Y-86762531D03*
X105543465Y-83475089D03*
D21*
X101956715Y-71156398D03*
X103849485Y-70990802D03*
D16*
X104262276Y-68831026D03*
X103974662Y-65543584D03*
D17*
X95341863Y-91125592D03*
X95219845Y-89730920D03*
X100798535Y-89242848D03*
X100920553Y-90637520D03*
D11*
X154248634Y-42297840D03*
X154248634Y-40897840D03*
X159848634Y-40897840D03*
X159848634Y-42297840D03*
D10*
X146078201Y-106365578D03*
X146078201Y-103065578D03*
D13*
X169472802Y-43073600D03*
X167572802Y-43073600D03*
D10*
X165078201Y-92865578D03*
X165078201Y-89565578D03*
D11*
X157848634Y-120397840D03*
X157848634Y-121797840D03*
X152248634Y-121797840D03*
X152248634Y-120397840D03*
D10*
X184078201Y-110865578D03*
X184078201Y-107565578D03*
X127078201Y-111365578D03*
X127078201Y-108065578D03*
D22*
X191291800Y-111774900D03*
X195791800Y-111774900D03*
D11*
X173248634Y-42297840D03*
X173248634Y-40897840D03*
X178848634Y-40897840D03*
X178848634Y-42297840D03*
D23*
X219827690Y-138079170D03*
X218927787Y-139151633D03*
X214637940Y-135552022D03*
X215537843Y-134479559D03*
D14*
X101923123Y-46623603D03*
X100523123Y-46623603D03*
X100523123Y-41023603D03*
X101923123Y-41023603D03*
D24*
X204817433Y-128213107D03*
X203688767Y-131314093D03*
D13*
X169472802Y-40873600D03*
X167572802Y-40873600D03*
D11*
X159848634Y-58897840D03*
X159848634Y-60297840D03*
X154248634Y-60297840D03*
X154248634Y-58897840D03*
D25*
X223493700Y-142279627D03*
X221372500Y-144807573D03*
D10*
X146078201Y-88365578D03*
X146078201Y-85065578D03*
X165078201Y-56865578D03*
X165078201Y-53565578D03*
X127078201Y-75365578D03*
X127078201Y-72065578D03*
D11*
X154248634Y-78297840D03*
X154248634Y-76897840D03*
X159848634Y-76897840D03*
X159848634Y-78297840D03*
D10*
X165078201Y-74865578D03*
X165078201Y-71565578D03*
D26*
X85953100Y-100823600D03*
X87853100Y-100823600D03*
D11*
X116248634Y-78797840D03*
X116248634Y-77397840D03*
X121848634Y-77397840D03*
X121848634Y-78797840D03*
D14*
X106923123Y-46623603D03*
X105523123Y-46623603D03*
X105523123Y-41023603D03*
X106923123Y-41023603D03*
D10*
X184078201Y-74865578D03*
X184078201Y-71565578D03*
D12*
X102367338Y-107174353D03*
X102489356Y-108569025D03*
X96910666Y-109057097D03*
X96788648Y-107662425D03*
D15*
X182352085Y-121125631D03*
X182352085Y-124425631D03*
D10*
X184078201Y-56865578D03*
X184078201Y-53565578D03*
D16*
X81508778Y-118886865D03*
X81221164Y-115599423D03*
D26*
X181203100Y-95073600D03*
X183103100Y-95073600D03*
D11*
X140848634Y-54397840D03*
X140848634Y-55797840D03*
X135248634Y-55797840D03*
X135248634Y-54397840D03*
D27*
X153773634Y-70247840D03*
X165323634Y-68047840D03*
X115773634Y-106747840D03*
X127323634Y-104547840D03*
X115773634Y-88747840D03*
X127323634Y-86547840D03*
X153773634Y-106247840D03*
X165323634Y-104047840D03*
X172773634Y-88247840D03*
X184323634Y-86047840D03*
D28*
X77662297Y-112497796D03*
X88976603Y-109299518D03*
D27*
X172773634Y-106247840D03*
X184323634Y-104047840D03*
X115773634Y-52747840D03*
X127323634Y-50547840D03*
X172773634Y-52247840D03*
X184323634Y-50047840D03*
D28*
X92598264Y-65216119D03*
X103912570Y-62017841D03*
D27*
X134773634Y-47747840D03*
X146323634Y-45547840D03*
D29*
X207878331Y-142868840D03*
X218140277Y-148607739D03*
D27*
X115773634Y-70747840D03*
X127323634Y-68547840D03*
X153773634Y-52247840D03*
X165323634Y-50047840D03*
X151773634Y-131747840D03*
X163323634Y-129547840D03*
X170773634Y-131747840D03*
X182323634Y-129547840D03*
D28*
X94167067Y-83147624D03*
X105481373Y-79949346D03*
D30*
X190306449Y-134037060D03*
X201912343Y-135920069D03*
D27*
X134773634Y-83747840D03*
X146323634Y-81547840D03*
D28*
X95735870Y-101079129D03*
X107050176Y-97880851D03*
D27*
X153773634Y-88247840D03*
X165323634Y-86047840D03*
D28*
X97304673Y-119010634D03*
X108618979Y-115812356D03*
D27*
X172773634Y-70247840D03*
X184323634Y-68047840D03*
X134773634Y-101747840D03*
X146323634Y-99547840D03*
X134773634Y-65747840D03*
X146323634Y-63547840D03*
M02*
