<?xml version="1.0" encoding="UTF-8" standalone="no"?>
<!-- Created with Inkscape (http://www.inkscape.org/) -->

<svg
   width="90.435379mm"
   height="23.563782mm"
   viewBox="0 0 90.435379 23.563782"
   version="1.1"
   id="svg1"
   xml:space="preserve"
   xmlns="http://www.w3.org/2000/svg"
   xmlns:svg="http://www.w3.org/2000/svg"><defs
     id="defs1" /><g
     id="layer1"
     transform="translate(-69.868333,-43.808843)"><g
       id="g20"><path
         d="m 151.18453,57.276877 c 0.21236,0 0.39644,0.07803 0.5525,0.234123 0.15622,0.156091 0.2342,0.346496 0.2342,0.571243 0,0.212278 -0.078,0.396435 -0.2342,0.552512 -0.15621,0.156091 -0.3403,0.234123 -0.5525,0.234123 H 70.122347 v -1.591985 z m 4.66359,0.824087 3.65219,2.603363 -4.47628,-0.03747 1.40468,4.251534 -3.596,-2.659551 -1.34852,4.270265 -1.3485,-4.270265 -3.61475,2.659551 1.42344,-4.251534 0.14986,-0.449503 h 3.1465 c 0.58685,0 1.08944,-0.209154 1.50772,-0.627428 0.41828,-0.418287 0.62741,-0.920855 0.62741,-1.507702 0,-0.586849 -0.20905,-1.089417 -0.62741,-1.507704 -0.41828,-0.418285 -0.92087,-0.627428 -1.50772,-0.627428 h -3.1465 l -0.14986,-0.412044 -1.42344,-4.270262 3.61475,2.678279 1.3485,-4.288993 1.34852,4.288993 3.596,-2.678279 -1.40468,4.270262 4.47628,-0.03747 z m -15.78875,2.565904 v -0.449502 h 8.03485 v 0.449502 z m 4.79468,-4.719765 v -0.449502 h 3.24017 v 0.449502 z m -8.57798,0 v -0.449502 h 5.97462 v 0.449502 z m -4.36391,0 v -0.449502 h 1.49833 v 0.449502 z m -4.289,0 v -0.449502 h 0.61807 v 0.449502 z m -3.4649,0 v -0.449502 h 0.61806 v 0.449502 z m 10.39472,4.719765 v -0.449502 h 2.39734 v 0.449502 z m -5.03816,0 v -0.449502 h 0.54314 v 0.449502 z"
         id="path1-6"
         style="fill:#f2f589;fill-opacity:1;stroke:#d7b951;stroke-width:0.508024;stroke-dasharray:none;stroke-opacity:0.966811" /><path
         style="font-size:3.175px;font-family:Audiowide;-inkscape-font-specification:'Audiowide, Normal';fill:#69a8eb;fill-opacity:0.958694;stroke:#2e5dc2;stroke-width:0.609393;stroke-linecap:round"
         d="m 136.36008,49.95299 h -4.76442 q -0.43167,0 -0.65154,0.219898 -0.2199,0.21177 -0.2199,0.627108 v 5.839461 h -2.11752 v -5.839461 q 0,-0.545664 0.13844,-0.977314 0.13843,-0.431671 0.36647,-0.757419 0.23618,-0.333907 0.53753,-0.561956 0.30133,-0.236181 0.62711,-0.382761 0.3339,-0.146616 0.66783,-0.21177 0.34205,-0.07328 0.63526,-0.07328 h 4.7807 z"
         id="path10" /><path
         style="font-size:3.175px;font-family:Audiowide;-inkscape-font-specification:'Audiowide, Normal';fill:#69a8eb;fill-opacity:0.958694;stroke:#2e5dc2;stroke-width:0.609393;stroke-linecap:round"
         d="m 126.84753,53.723796 q 0,0.439814 -0.15476,0.952886 -0.15472,0.504956 -0.50496,0.94474 -0.34205,0.43167 -0.90402,0.724841 -0.55381,0.293191 -1.35195,0.293191 h -3.81968 q -0.43976,0 -0.95288,-0.154719 -0.50496,-0.154769 -0.94474,-0.496814 -0.43162,-0.350192 -0.72484,-0.90402 -0.29319,-0.561956 -0.29319,-1.360098 0,-0.439761 0.15472,-0.952881 0.15477,-0.513099 0.49681,-0.94474 0.35019,-0.439811 0.90402,-0.732982 0.56196,-0.293194 1.36009,-0.293194 h 3.81968 v 2.019788 h -3.81968 q -0.43167,0 -0.66783,0.268763 -0.23618,0.260622 -0.23618,0.651544 0,0.415333 0.26876,0.651541 0.27691,0.228052 0.65154,0.228052 h 3.80339 q 0.43167,0 0.66783,-0.260621 0.23618,-0.260622 0.23618,-0.651542 v -2.956384 q 0,-0.415333 -0.26062,-0.659685 -0.25248,-0.244334 -0.6434,-0.244334 h -4.65034 v -2.011639 h 4.6504 q 0.43981,0 0.94474,0.154718 0.51309,0.15477 0.94473,0.504956 0.43982,0.34205 0.73299,0.904022 0.29319,0.553813 0.29319,1.351949 z"
         id="path8" /><path
         style="font-size:3.175px;font-family:Audiowide;-inkscape-font-specification:'Audiowide, Normal';fill:#69a8eb;fill-opacity:0.958694;stroke:#2e5dc2;stroke-width:0.609393;stroke-linecap:round"
         d="m 116.3984,56.639454 h -0.94474 q -0.4561,0 -0.97732,-0.154719 -0.5131,-0.154769 -0.96102,-0.504955 -0.44796,-0.358335 -0.74113,-0.920307 -0.2932,-0.570097 -0.2932,-1.392675 v -9.553256 h 2.11752 v 9.553256 q 0,0.390907 0.24433,0.627115 0.24434,0.228052 0.61083,0.228052 h 0.94473 z"
         id="path7" /><path
         style="font-size:3.175px;font-family:Audiowide;-inkscape-font-specification:'Audiowide, Normal';fill:#69a8eb;fill-opacity:0.958694;stroke:#2e5dc2;stroke-width:0.609393;stroke-linecap:round"
         d="m 111.16976,56.639454 h -0.94474 q -0.4561,0 -0.97731,-0.154719 -0.5131,-0.154769 -0.96103,-0.504955 -0.44796,-0.358335 -0.74113,-0.920307 -0.2932,-0.570097 -0.2932,-1.392675 v -9.553256 h 2.11752 v 9.553256 q 0,0.390907 0.24434,0.627115 0.24433,0.228052 0.61082,0.228052 h 0.94474 z"
         id="path6" /><path
         style="font-size:3.175px;font-family:Audiowide;-inkscape-font-specification:'Audiowide, Normal';fill:#69a8eb;fill-opacity:0.958694;stroke:#2e5dc2;stroke-width:0.609393;stroke-linecap:round"
         d="m 105.87597,50.751127 q 0,0.439814 -0.15477,0.952886 -0.15477,0.504956 -0.50496,0.94474 -0.34204,0.43167 -0.90402,0.724841 -0.55381,0.293191 -1.35195,0.293191 h -3.819673 v -2.011639 h 3.819673 q 0.43168,0 0.66784,-0.260622 0.23618,-0.268762 0.23618,-0.65969 0,-0.415332 -0.26876,-0.651546 -0.26063,-0.23618 -0.63526,-0.23618 h -3.819678 q -0.43162,0 -0.667833,0.268762 -0.236181,0.260622 -0.236181,0.651541 v 2.95638 q 0,0.423527 0.260622,0.659687 0.268762,0.236181 0.65969,0.236181 h 3.80339 v 2.019783 H 99.1406 q -0.439815,0 -0.952884,-0.154719 -0.504956,-0.15477 -0.944737,-0.496815 -0.431671,-0.350191 -0.724842,-0.904019 -0.293193,-0.561957 -0.293193,-1.360098 v -2.972669 q 0,-0.439762 0.154769,-0.94474 0.15477,-0.513097 0.496813,-0.944738 0.350191,-0.439761 0.904014,-0.732985 0.561961,-0.293191 1.360098,-0.293191 h 3.819682 q 0.43976,0 0.94474,0.154719 0.5131,0.15477 0.94473,0.504956 0.43977,0.34205 0.73299,0.904019 0.29319,0.553813 0.29319,1.351952 z"
         id="path5" /><path
         style="font-size:3.175px;font-family:Audiowide;-inkscape-font-specification:'Audiowide, Normal';fill:#69a8eb;fill-opacity:0.958694;stroke:#2e5dc2;stroke-width:0.609393;stroke-linecap:round"
         d="m 95.044054,49.95299 h -3.697513 v 6.686464 h -2.14195 V 49.95299 H 86.45182 v -2.117517 h 2.752771 v -2.87494 h 2.14195 v 2.87494 h 3.697513 z"
         id="path4" /><path
         style="font-size:3.175px;font-family:Audiowide;-inkscape-font-specification:'Audiowide, Normal';fill:#69a8eb;fill-opacity:0.958694;stroke:#1e3b81;stroke-width:0.609393;stroke-linecap:round;stroke-dasharray:none;stroke-opacity:0.966811"
         d="m 85.889859,53.202565 q 0,0.627108 -0.162898,1.132054 -0.15477,0.496812 -0.415333,0.879586 -0.260622,0.38276 -0.610823,0.651541 -0.350192,0.268762 -0.724842,0.439814 -0.374619,0.171052 -0.765567,0.252488 -0.382761,0.08144 -0.724842,0.08144 h -8.168732 v -2.117517 h 8.168732 q 0.610824,0 0.94474,-0.358332 0.342048,-0.358335 0.342048,-0.961025 0,-0.293191 -0.08956,-0.537528 -0.08956,-0.244334 -0.260621,-0.423476 -0.162898,-0.179181 -0.407192,-0.276907 -0.23618,-0.09772 -0.529379,-0.09772 h -4.870287 q -0.5131,0 -1.107626,-0.179206 -0.594533,-0.187334 -1.107625,-0.59453 -0.504958,-0.407243 -0.847006,-1.066907 -0.333904,-0.659683 -0.333904,-1.612571 0,-0.952881 0.333904,-1.604423 0.342048,-0.65969 0.847006,-1.066907 0.513097,-0.415332 1.107625,-0.59453 0.594531,-0.187334 1.107626,-0.187334 H 84.823 v 2.117516 h -7.207702 q -0.60268,0 -0.94474,0.366476 -0.333904,0.366479 -0.333904,0.969174 0,0.610823 0.333904,0.96917 0.342047,0.350192 0.94474,0.350192 h 4.870287 0.01626 q 0.342047,0.0079 0.724841,0.09772 0.382761,0.08144 0.757419,0.260622 0.382761,0.17918 0.724841,0.456099 0.342048,0.268763 0.60268,0.651546 0.268765,0.382764 0.42353,0.879581 0.154718,0.496815 0.154718,1.123918 z"
         id="text2" /></g></g></svg>
