%TF.GenerationSoftware,KiCad,Pcbnew,8.0.5*%
%TF.CreationDate,2024-11-21T21:26:15+01:00*%
%TF.ProjectId,stellar,7374656c-6c61-4722-9e6b-696361645f70,rev?*%
%TF.SameCoordinates,Original*%
%TF.FileFunction,Drillmap*%
%TF.FilePolarity,Positive*%
%FSLAX45Y45*%
G04 Gerber Fmt 4.5, Leading zero omitted, Abs format (unit mm)*
G04 Created by KiCad (PCBNEW 8.0.5) date 2024-11-21 21:26:15*
%MOMM*%
%LPD*%
G01*
G04 APERTURE LIST*
%ADD10C,0.149999*%
%ADD11C,0.150000*%
%ADD12C,0.100000*%
%ADD13C,0.200000*%
%ADD14C,0.170180*%
%ADD15C,0.300000*%
%ADD16C,0.342900*%
%ADD17C,0.350000*%
G04 APERTURE END LIST*
D10*
X17788740Y-13477738D02*
X18071101Y-13513153D01*
X12904310Y-3382360D02*
X12904310Y-3777569D01*
X14704812Y-3777569D02*
X14704812Y-3378944D01*
D11*
X21676342Y-15296352D02*
G75*
G02*
X21607956Y-15306969I-39732J30372D01*
G01*
D10*
X6886735Y-9878692D02*
X7720448Y-9805292D01*
X19489658Y-13859172D02*
X19619240Y-13923272D01*
D11*
X6841172Y-9930780D02*
G75*
G02*
X6886735Y-9878692I49948J2280D01*
G01*
X7720448Y-4086582D02*
G75*
G02*
X8020312Y-3777572I299862J9012D01*
G01*
D10*
X19619240Y-13923272D02*
X19752801Y-13993956D01*
X18071101Y-13513153D02*
X18381871Y-13558823D01*
D11*
X14655310Y-13432360D02*
G75*
G02*
X14605310Y-13382360I0J50000D01*
G01*
D10*
X6980422Y-11527111D02*
X6841172Y-9930780D01*
X7720312Y-12928265D02*
X7720312Y-11512500D01*
X18381871Y-13558823D02*
X18540613Y-13585523D01*
X14605310Y-13229643D02*
X8020312Y-13229643D01*
X8020312Y-13229643D02*
X8020312Y-13229360D01*
X18850215Y-13646690D02*
X18995237Y-13681172D01*
X12904310Y-3777569D02*
X8020312Y-3777569D01*
X17345641Y-13432414D02*
X17558142Y-13452517D01*
X22704278Y-14068368D02*
X21676342Y-15296352D01*
X19366229Y-13803468D02*
X19489658Y-13859172D01*
X14704812Y-3777569D02*
X21247384Y-3777569D01*
D11*
X14654950Y-3332715D02*
G75*
G02*
X14704803Y-3378944I0J-49995D01*
G01*
D10*
X14654950Y-3332715D02*
X12948360Y-3332715D01*
X7720448Y-9805292D02*
X7720448Y-4086582D01*
D11*
X8020312Y-13229360D02*
G75*
G02*
X7720312Y-12928265I-2J300000D01*
G01*
D10*
X18697701Y-13614809D02*
X18850215Y-13646690D01*
X19752801Y-13993956D02*
X20023168Y-14147816D01*
X19129847Y-13718265D02*
X19251127Y-13757974D01*
X21607957Y-15306966D02*
X20874751Y-14695375D01*
X18995237Y-13681172D02*
X19129847Y-13718265D01*
X14655310Y-13432360D02*
X17345641Y-13432360D01*
D11*
X12904310Y-3382360D02*
G75*
G02*
X12948360Y-3332715I50000J0D01*
G01*
X7032510Y-11572674D02*
G75*
G02*
X6980426Y-11527111I-2280J49945D01*
G01*
D10*
X17558142Y-13452517D02*
X17788740Y-13477738D01*
X20516016Y-14454720D02*
X20703722Y-14578742D01*
X21554180Y-4077492D02*
X21554180Y-13046291D01*
X19251127Y-13757974D02*
X19366229Y-13803468D01*
D11*
X21247384Y-3777569D02*
G75*
G02*
X21554178Y-4077492I6797J-299921D01*
G01*
D10*
X14605310Y-13382360D02*
X14605310Y-13229643D01*
X21554180Y-13046291D02*
X22694278Y-13999368D01*
D11*
X22694278Y-13999368D02*
G75*
G02*
X22704896Y-14067756I-30358J-39732D01*
G01*
D10*
X18540613Y-13585523D02*
X18697701Y-13614809D01*
X20283369Y-14306241D02*
X20516016Y-14454720D01*
X20023168Y-14147816D02*
X20283369Y-14306241D01*
X20703722Y-14578742D02*
X20874751Y-14695375D01*
X7720312Y-11512500D02*
X7032510Y-11572674D01*
D12*
X17224863Y-11954784D02*
X17224863Y-12264784D01*
X17224863Y-12264784D02*
X17584863Y-12264784D01*
X17584863Y-11954784D02*
X17224863Y-11954784D01*
X17584863Y-12264784D02*
X17584863Y-11954784D01*
X7806838Y-10021567D02*
X7833857Y-10330387D01*
X7833857Y-10330387D02*
X8192487Y-10299011D01*
X8165468Y-9990191D02*
X7806838Y-10021567D01*
X8192487Y-10299011D02*
X8165468Y-9990191D01*
X17424863Y-9404784D02*
X17424863Y-9714784D01*
X17424863Y-9714784D02*
X17784863Y-9714784D01*
X17784863Y-9404784D02*
X17424863Y-9404784D01*
X17784863Y-9714784D02*
X17784863Y-9404784D01*
X11724863Y-5854784D02*
X11724863Y-6164784D01*
X11724863Y-6164784D02*
X12084863Y-6164784D01*
X12084863Y-5854784D02*
X11724863Y-5854784D01*
X12084863Y-6164784D02*
X12084863Y-5854784D01*
X13624863Y-7154784D02*
X13624863Y-7464784D01*
X13624863Y-7464784D02*
X13984863Y-7464784D01*
X13984863Y-7154784D02*
X13624863Y-7154784D01*
X13984863Y-7464784D02*
X13984863Y-7154784D01*
X13624863Y-3554784D02*
X13624863Y-3864784D01*
X13624863Y-3864784D02*
X13984863Y-3864784D01*
X13984863Y-3554784D02*
X13624863Y-3554784D01*
X13984863Y-3864784D02*
X13984863Y-3554784D01*
X15524863Y-9404784D02*
X15524863Y-9714784D01*
X15524863Y-9714784D02*
X15884863Y-9714784D01*
X15884863Y-9404784D02*
X15524863Y-9404784D01*
X15884863Y-9714784D02*
X15884863Y-9404784D01*
X9457315Y-7086549D02*
X9484334Y-7395370D01*
X9484334Y-7395370D02*
X9842964Y-7363994D01*
X9815946Y-7055173D02*
X9457315Y-7086549D01*
X9842964Y-7363994D02*
X9815946Y-7055173D01*
X9467312Y-4202360D02*
X9467312Y-4562360D01*
X9467312Y-4562360D02*
X9777312Y-4562360D01*
X9777312Y-4202360D02*
X9467312Y-4202360D01*
X9777312Y-4562360D02*
X9777312Y-4202360D01*
X11724863Y-9454784D02*
X11724863Y-9764784D01*
X11724863Y-9764784D02*
X12084863Y-9764784D01*
X12084863Y-9454784D02*
X11724863Y-9454784D01*
X12084863Y-9764784D02*
X12084863Y-9454784D01*
X9300435Y-5293399D02*
X9327453Y-5602219D01*
X9327453Y-5602219D02*
X9686084Y-5570843D01*
X9659065Y-5262023D02*
X9300435Y-5293399D01*
X9686084Y-5570843D02*
X9659065Y-5262023D01*
X13624863Y-8954784D02*
X13624863Y-9264784D01*
X13624863Y-9264784D02*
X13984863Y-9264784D01*
X13984863Y-8954784D02*
X13624863Y-8954784D01*
X13984863Y-9264784D02*
X13984863Y-8954784D01*
X17424863Y-5804784D02*
X17424863Y-6114784D01*
X17424863Y-6114784D02*
X17784863Y-6114784D01*
X17784863Y-5804784D02*
X17424863Y-5804784D01*
X17784863Y-6114784D02*
X17784863Y-5804784D01*
X19480488Y-12599034D02*
X19818777Y-12722161D01*
X19586514Y-12307729D02*
X19480488Y-12599034D01*
X19818777Y-12722161D02*
X19924804Y-12430856D01*
X19924804Y-12430856D02*
X19586514Y-12307729D01*
X11724863Y-4054784D02*
X11724863Y-4364784D01*
X11724863Y-4364784D02*
X12084863Y-4364784D01*
X12084863Y-4054784D02*
X11724863Y-4054784D01*
X12084863Y-4364784D02*
X12084863Y-4054784D01*
X17424863Y-7604784D02*
X17424863Y-7914784D01*
X17424863Y-7914784D02*
X17784863Y-7914784D01*
X17784863Y-7604784D02*
X17424863Y-7604784D01*
X17784863Y-7914784D02*
X17784863Y-7604784D01*
X9614196Y-8879700D02*
X9641214Y-9188520D01*
X9641214Y-9188520D02*
X9999844Y-9157144D01*
X9972826Y-8848324D02*
X9614196Y-8879700D01*
X9999844Y-9157144D02*
X9972826Y-8848324D01*
X15524863Y-4004784D02*
X15524863Y-4314784D01*
X15524863Y-4314784D02*
X15884863Y-4314784D01*
X15884863Y-4004784D02*
X15524863Y-4004784D01*
X15884863Y-4314784D02*
X15884863Y-4004784D01*
X15324863Y-11954784D02*
X15324863Y-12264784D01*
X15324863Y-12264784D02*
X15684863Y-12264784D01*
X15684863Y-11954784D02*
X15324863Y-11954784D01*
X15684863Y-12264784D02*
X15684863Y-11954784D01*
X17424863Y-4004784D02*
X17424863Y-4314784D01*
X17424863Y-4314784D02*
X17784863Y-4314784D01*
X17784863Y-4004784D02*
X17424863Y-4004784D01*
X17784863Y-4314784D02*
X17784863Y-4004784D01*
X21485761Y-13684595D02*
X21761537Y-13915998D01*
X21685026Y-13447121D02*
X21485761Y-13684595D01*
X21761537Y-13915998D02*
X21960802Y-13678524D01*
X21960802Y-13678524D02*
X21685026Y-13447121D01*
X9967312Y-4202360D02*
X9967312Y-4562360D01*
X9967312Y-4562360D02*
X10277312Y-4562360D01*
X10277312Y-4202360D02*
X9967312Y-4202360D01*
X10277312Y-4562360D02*
X10277312Y-4202360D01*
X15524863Y-5804784D02*
X15524863Y-6114784D01*
X15524863Y-6114784D02*
X15884863Y-6114784D01*
X15884863Y-5804784D02*
X15524863Y-5804784D01*
X15884863Y-6114784D02*
X15884863Y-5804784D01*
X15524863Y-7604784D02*
X15524863Y-7914784D01*
X15524863Y-7914784D02*
X15884863Y-7914784D01*
X15884863Y-7604784D02*
X15524863Y-7604784D01*
X15884863Y-7914784D02*
X15884863Y-7604784D01*
X11724863Y-7654784D02*
X11724863Y-7964784D01*
X11724863Y-7964784D02*
X12084863Y-7964784D01*
X12084863Y-7654784D02*
X11724863Y-7654784D01*
X12084863Y-7964784D02*
X12084863Y-7654784D01*
X10467312Y-4202360D02*
X10467312Y-4562360D01*
X10467312Y-4562360D02*
X10777312Y-4562360D01*
X10777312Y-4202360D02*
X10467312Y-4202360D01*
X10777312Y-4562360D02*
X10777312Y-4202360D01*
X9771076Y-10672850D02*
X9798094Y-10981671D01*
X9798094Y-10981671D02*
X10156724Y-10950295D01*
X10129706Y-10641474D02*
X9771076Y-10672850D01*
X10156724Y-10950295D02*
X10129706Y-10641474D01*
X13624863Y-5354784D02*
X13624863Y-5664784D01*
X13624863Y-5664784D02*
X13984863Y-5664784D01*
X13984863Y-5354784D02*
X13624863Y-5354784D01*
X13984863Y-5664784D02*
X13984863Y-5354784D01*
D13*
D14*
X7407629Y-10591346D02*
X7577809Y-10761526D01*
X7577809Y-10591346D02*
X7407629Y-10761526D01*
X8503443Y-10495475D02*
X8673623Y-10665655D01*
X8673623Y-10495475D02*
X8503443Y-10665655D01*
X8901225Y-5863178D02*
X9071405Y-6033358D01*
X9071405Y-5863178D02*
X8901225Y-6033358D01*
X9058106Y-7656329D02*
X9228286Y-7826509D01*
X9228286Y-7656329D02*
X9058106Y-7826509D01*
X9214986Y-9449479D02*
X9385166Y-9619659D01*
X9385166Y-9449479D02*
X9214986Y-9619659D01*
X9371866Y-11242630D02*
X9542046Y-11412810D01*
X9542046Y-11242630D02*
X9371866Y-11412810D01*
X9997040Y-5767307D02*
X10167220Y-5937487D01*
X10167220Y-5767307D02*
X9997040Y-5937487D01*
X10153920Y-7560457D02*
X10324100Y-7730637D01*
X10324100Y-7560457D02*
X10153920Y-7730637D01*
X10310800Y-9353608D02*
X10480980Y-9523788D01*
X10480980Y-9353608D02*
X10310800Y-9523788D01*
X10467681Y-11146758D02*
X10637861Y-11316938D01*
X10637861Y-11146758D02*
X10467681Y-11316938D01*
X11269773Y-4594694D02*
X11439953Y-4764874D01*
X11439953Y-4594694D02*
X11269773Y-4764874D01*
X11269773Y-6394694D02*
X11439953Y-6564874D01*
X11439953Y-6394694D02*
X11269773Y-6564874D01*
X11269773Y-8194694D02*
X11439953Y-8364874D01*
X11439953Y-8194694D02*
X11269773Y-8364874D01*
X11269773Y-9994694D02*
X11439953Y-10164874D01*
X11439953Y-9994694D02*
X11269773Y-10164874D01*
X12369773Y-4594694D02*
X12539953Y-4764874D01*
X12539953Y-4594694D02*
X12369773Y-4764874D01*
X12369773Y-6394694D02*
X12539953Y-6564874D01*
X12539953Y-6394694D02*
X12369773Y-6564874D01*
X12369773Y-8194694D02*
X12539953Y-8364874D01*
X12539953Y-8194694D02*
X12369773Y-8364874D01*
X12369773Y-9994694D02*
X12539953Y-10164874D01*
X12539953Y-9994694D02*
X12369773Y-10164874D01*
X13169773Y-4094694D02*
X13339953Y-4264874D01*
X13339953Y-4094694D02*
X13169773Y-4264874D01*
X13169773Y-5894694D02*
X13339953Y-6064874D01*
X13339953Y-5894694D02*
X13169773Y-6064874D01*
X13169773Y-7694694D02*
X13339953Y-7864874D01*
X13339953Y-7694694D02*
X13169773Y-7864874D01*
X13169773Y-9494694D02*
X13339953Y-9664874D01*
X13339953Y-9494694D02*
X13169773Y-9664874D01*
X14269773Y-4094694D02*
X14439953Y-4264874D01*
X14439953Y-4094694D02*
X14269773Y-4264874D01*
X14269773Y-5894694D02*
X14439953Y-6064874D01*
X14439953Y-5894694D02*
X14269773Y-6064874D01*
X14269773Y-7694694D02*
X14439953Y-7864874D01*
X14439953Y-7694694D02*
X14269773Y-7864874D01*
X14269773Y-9494694D02*
X14439953Y-9664874D01*
X14439953Y-9494694D02*
X14269773Y-9664874D01*
X14869773Y-12494694D02*
X15039953Y-12664874D01*
X15039953Y-12494694D02*
X14869773Y-12664874D01*
X15069773Y-4544694D02*
X15239953Y-4714874D01*
X15239953Y-4544694D02*
X15069773Y-4714874D01*
X15069773Y-6344694D02*
X15239953Y-6514874D01*
X15239953Y-6344694D02*
X15069773Y-6514874D01*
X15069773Y-8144694D02*
X15239953Y-8314874D01*
X15239953Y-8144694D02*
X15069773Y-8314874D01*
X15069773Y-9944694D02*
X15239953Y-10114874D01*
X15239953Y-9944694D02*
X15069773Y-10114874D01*
X15969773Y-12494694D02*
X16139953Y-12664874D01*
X16139953Y-12494694D02*
X15969773Y-12664874D01*
X16169773Y-4544694D02*
X16339953Y-4714874D01*
X16339953Y-4544694D02*
X16169773Y-4714874D01*
X16169773Y-6344694D02*
X16339953Y-6514874D01*
X16339953Y-6344694D02*
X16169773Y-6514874D01*
X16169773Y-8144694D02*
X16339953Y-8314874D01*
X16339953Y-8144694D02*
X16169773Y-8314874D01*
X16169773Y-9944694D02*
X16339953Y-10114874D01*
X16339953Y-9944694D02*
X16169773Y-10114874D01*
X16769773Y-12494694D02*
X16939953Y-12664874D01*
X16939953Y-12494694D02*
X16769773Y-12664874D01*
X16969773Y-4544694D02*
X17139953Y-4714874D01*
X17139953Y-4544694D02*
X16969773Y-4714874D01*
X16969773Y-6344694D02*
X17139953Y-6514874D01*
X17139953Y-6344694D02*
X16969773Y-6514874D01*
X16969773Y-8144694D02*
X17139953Y-8314874D01*
X17139953Y-8144694D02*
X16969773Y-8314874D01*
X16969773Y-9944694D02*
X17139953Y-10114874D01*
X17139953Y-9944694D02*
X16969773Y-10114874D01*
X17869773Y-12494694D02*
X18039953Y-12664874D01*
X18039953Y-12494694D02*
X17869773Y-12664874D01*
X18069773Y-4544694D02*
X18239953Y-4714874D01*
X18239953Y-4544694D02*
X18069773Y-4714874D01*
X18069773Y-6344694D02*
X18239953Y-6514874D01*
X18239953Y-6344694D02*
X18069773Y-6514874D01*
X18069773Y-8144694D02*
X18239953Y-8314874D01*
X18239953Y-8144694D02*
X18069773Y-8314874D01*
X18069773Y-9944694D02*
X18239953Y-10114874D01*
X18239953Y-9944694D02*
X18069773Y-10114874D01*
X18939975Y-12683399D02*
X19110155Y-12853579D01*
X19110155Y-12683399D02*
X18939975Y-12853579D01*
X19973637Y-13059622D02*
X20143817Y-13229802D01*
X20143817Y-13059622D02*
X19973637Y-13229802D01*
X20914757Y-13602977D02*
X21084937Y-13773157D01*
X21084937Y-13602977D02*
X20914757Y-13773157D01*
X21757406Y-14310044D02*
X21927586Y-14480224D01*
X21927586Y-14310044D02*
X21757406Y-14480224D01*
D15*
X8242483Y-11221236D02*
G75*
G02*
X7942483Y-11221236I-150000J0D01*
G01*
X7942483Y-11221236D02*
G75*
G02*
X8242483Y-11221236I150000J0D01*
G01*
X8721407Y-10958495D02*
G75*
G02*
X8421407Y-10958495I-150000J0D01*
G01*
X8421407Y-10958495D02*
G75*
G02*
X8721407Y-10958495I150000J0D01*
G01*
X9736080Y-6493068D02*
G75*
G02*
X9436080Y-6493068I-150000J0D01*
G01*
X9436080Y-6493068D02*
G75*
G02*
X9736080Y-6493068I150000J0D01*
G01*
X9892961Y-8286219D02*
G75*
G02*
X9592961Y-8286219I-150000J0D01*
G01*
X9592961Y-8286219D02*
G75*
G02*
X9892961Y-8286219I150000J0D01*
G01*
X10049841Y-10079369D02*
G75*
G02*
X9749841Y-10079369I-150000J0D01*
G01*
X9749841Y-10079369D02*
G75*
G02*
X10049841Y-10079369I150000J0D01*
G01*
X10206721Y-11872520D02*
G75*
G02*
X9906721Y-11872520I-150000J0D01*
G01*
X9906721Y-11872520D02*
G75*
G02*
X10206721Y-11872520I150000J0D01*
G01*
X10215004Y-6230328D02*
G75*
G02*
X9915004Y-6230328I-150000J0D01*
G01*
X9915004Y-6230328D02*
G75*
G02*
X10215004Y-6230328I150000J0D01*
G01*
X10371884Y-8023478D02*
G75*
G02*
X10071884Y-8023478I-150000J0D01*
G01*
X10071884Y-8023478D02*
G75*
G02*
X10371884Y-8023478I150000J0D01*
G01*
X10528764Y-9816629D02*
G75*
G02*
X10228764Y-9816629I-150000J0D01*
G01*
X10228764Y-9816629D02*
G75*
G02*
X10528764Y-9816629I150000J0D01*
G01*
X10685645Y-11609779D02*
G75*
G02*
X10385645Y-11609779I-150000J0D01*
G01*
X10385645Y-11609779D02*
G75*
G02*
X10685645Y-11609779I150000J0D01*
G01*
X12054863Y-5274784D02*
G75*
G02*
X11754863Y-5274784I-150000J0D01*
G01*
X11754863Y-5274784D02*
G75*
G02*
X12054863Y-5274784I150000J0D01*
G01*
X12054863Y-7074784D02*
G75*
G02*
X11754863Y-7074784I-150000J0D01*
G01*
X11754863Y-7074784D02*
G75*
G02*
X12054863Y-7074784I150000J0D01*
G01*
X12054863Y-8874784D02*
G75*
G02*
X11754863Y-8874784I-150000J0D01*
G01*
X11754863Y-8874784D02*
G75*
G02*
X12054863Y-8874784I150000J0D01*
G01*
X12054863Y-10674784D02*
G75*
G02*
X11754863Y-10674784I-150000J0D01*
G01*
X11754863Y-10674784D02*
G75*
G02*
X12054863Y-10674784I150000J0D01*
G01*
X12554863Y-5054784D02*
G75*
G02*
X12254863Y-5054784I-150000J0D01*
G01*
X12254863Y-5054784D02*
G75*
G02*
X12554863Y-5054784I150000J0D01*
G01*
X12554863Y-6854784D02*
G75*
G02*
X12254863Y-6854784I-150000J0D01*
G01*
X12254863Y-6854784D02*
G75*
G02*
X12554863Y-6854784I150000J0D01*
G01*
X12554863Y-8654784D02*
G75*
G02*
X12254863Y-8654784I-150000J0D01*
G01*
X12254863Y-8654784D02*
G75*
G02*
X12554863Y-8654784I150000J0D01*
G01*
X12554863Y-10454784D02*
G75*
G02*
X12254863Y-10454784I-150000J0D01*
G01*
X12254863Y-10454784D02*
G75*
G02*
X12554863Y-10454784I150000J0D01*
G01*
X13954863Y-4774784D02*
G75*
G02*
X13654863Y-4774784I-150000J0D01*
G01*
X13654863Y-4774784D02*
G75*
G02*
X13954863Y-4774784I150000J0D01*
G01*
X13954863Y-6574784D02*
G75*
G02*
X13654863Y-6574784I-150000J0D01*
G01*
X13654863Y-6574784D02*
G75*
G02*
X13954863Y-6574784I150000J0D01*
G01*
X13954863Y-8374784D02*
G75*
G02*
X13654863Y-8374784I-150000J0D01*
G01*
X13654863Y-8374784D02*
G75*
G02*
X13954863Y-8374784I150000J0D01*
G01*
X13954863Y-10174784D02*
G75*
G02*
X13654863Y-10174784I-150000J0D01*
G01*
X13654863Y-10174784D02*
G75*
G02*
X13954863Y-10174784I150000J0D01*
G01*
X14454863Y-4554784D02*
G75*
G02*
X14154863Y-4554784I-150000J0D01*
G01*
X14154863Y-4554784D02*
G75*
G02*
X14454863Y-4554784I150000J0D01*
G01*
X14454863Y-6354784D02*
G75*
G02*
X14154863Y-6354784I-150000J0D01*
G01*
X14154863Y-6354784D02*
G75*
G02*
X14454863Y-6354784I150000J0D01*
G01*
X14454863Y-8154784D02*
G75*
G02*
X14154863Y-8154784I-150000J0D01*
G01*
X14154863Y-8154784D02*
G75*
G02*
X14454863Y-8154784I150000J0D01*
G01*
X14454863Y-9954784D02*
G75*
G02*
X14154863Y-9954784I-150000J0D01*
G01*
X14154863Y-9954784D02*
G75*
G02*
X14454863Y-9954784I150000J0D01*
G01*
X15654863Y-13174784D02*
G75*
G02*
X15354863Y-13174784I-150000J0D01*
G01*
X15354863Y-13174784D02*
G75*
G02*
X15654863Y-13174784I150000J0D01*
G01*
X15854863Y-5224784D02*
G75*
G02*
X15554863Y-5224784I-150000J0D01*
G01*
X15554863Y-5224784D02*
G75*
G02*
X15854863Y-5224784I150000J0D01*
G01*
X15854863Y-7024784D02*
G75*
G02*
X15554863Y-7024784I-150000J0D01*
G01*
X15554863Y-7024784D02*
G75*
G02*
X15854863Y-7024784I150000J0D01*
G01*
X15854863Y-8824784D02*
G75*
G02*
X15554863Y-8824784I-150000J0D01*
G01*
X15554863Y-8824784D02*
G75*
G02*
X15854863Y-8824784I150000J0D01*
G01*
X15854863Y-10624784D02*
G75*
G02*
X15554863Y-10624784I-150000J0D01*
G01*
X15554863Y-10624784D02*
G75*
G02*
X15854863Y-10624784I150000J0D01*
G01*
X16154863Y-12954784D02*
G75*
G02*
X15854863Y-12954784I-150000J0D01*
G01*
X15854863Y-12954784D02*
G75*
G02*
X16154863Y-12954784I150000J0D01*
G01*
X16354863Y-5004784D02*
G75*
G02*
X16054863Y-5004784I-150000J0D01*
G01*
X16054863Y-5004784D02*
G75*
G02*
X16354863Y-5004784I150000J0D01*
G01*
X16354863Y-6804784D02*
G75*
G02*
X16054863Y-6804784I-150000J0D01*
G01*
X16054863Y-6804784D02*
G75*
G02*
X16354863Y-6804784I150000J0D01*
G01*
X16354863Y-8604784D02*
G75*
G02*
X16054863Y-8604784I-150000J0D01*
G01*
X16054863Y-8604784D02*
G75*
G02*
X16354863Y-8604784I150000J0D01*
G01*
X16354863Y-10404784D02*
G75*
G02*
X16054863Y-10404784I-150000J0D01*
G01*
X16054863Y-10404784D02*
G75*
G02*
X16354863Y-10404784I150000J0D01*
G01*
X17554863Y-13174784D02*
G75*
G02*
X17254863Y-13174784I-150000J0D01*
G01*
X17254863Y-13174784D02*
G75*
G02*
X17554863Y-13174784I150000J0D01*
G01*
X17754863Y-5224784D02*
G75*
G02*
X17454863Y-5224784I-150000J0D01*
G01*
X17454863Y-5224784D02*
G75*
G02*
X17754863Y-5224784I150000J0D01*
G01*
X17754863Y-7024784D02*
G75*
G02*
X17454863Y-7024784I-150000J0D01*
G01*
X17454863Y-7024784D02*
G75*
G02*
X17754863Y-7024784I150000J0D01*
G01*
X17754863Y-8824784D02*
G75*
G02*
X17454863Y-8824784I-150000J0D01*
G01*
X17454863Y-8824784D02*
G75*
G02*
X17754863Y-8824784I150000J0D01*
G01*
X17754863Y-10624784D02*
G75*
G02*
X17454863Y-10624784I-150000J0D01*
G01*
X17454863Y-10624784D02*
G75*
G02*
X17754863Y-10624784I150000J0D01*
G01*
X18054863Y-12954784D02*
G75*
G02*
X17754863Y-12954784I-150000J0D01*
G01*
X17754863Y-12954784D02*
G75*
G02*
X18054863Y-12954784I150000J0D01*
G01*
X18254863Y-5004784D02*
G75*
G02*
X17954863Y-5004784I-150000J0D01*
G01*
X17954863Y-5004784D02*
G75*
G02*
X18254863Y-5004784I150000J0D01*
G01*
X18254863Y-6804784D02*
G75*
G02*
X17954863Y-6804784I-150000J0D01*
G01*
X17954863Y-6804784D02*
G75*
G02*
X18254863Y-6804784I150000J0D01*
G01*
X18254863Y-8604784D02*
G75*
G02*
X17954863Y-8604784I-150000J0D01*
G01*
X17954863Y-8604784D02*
G75*
G02*
X18254863Y-8604784I150000J0D01*
G01*
X18254863Y-10404784D02*
G75*
G02*
X17954863Y-10404784I-150000J0D01*
G01*
X17954863Y-10404784D02*
G75*
G02*
X18254863Y-10404784I150000J0D01*
G01*
X19488394Y-13515718D02*
G75*
G02*
X19188394Y-13515718I-150000J0D01*
G01*
X19188394Y-13515718D02*
G75*
G02*
X19488394Y-13515718I150000J0D01*
G01*
X20033485Y-13479995D02*
G75*
G02*
X19733485Y-13479995I-150000J0D01*
G01*
X19733485Y-13479995D02*
G75*
G02*
X20033485Y-13479995I150000J0D01*
G01*
X21188713Y-14497397D02*
G75*
G02*
X20888713Y-14497397I-150000J0D01*
G01*
X20888713Y-14497397D02*
G75*
G02*
X21188713Y-14497397I150000J0D01*
G01*
X21713148Y-14650261D02*
G75*
G02*
X21413148Y-14650261I-150000J0D01*
G01*
X21413148Y-14650261D02*
G75*
G02*
X21713148Y-14650261I150000J0D01*
G01*
D16*
X8040626Y-10457050D02*
X8040626Y-10799950D01*
X7869176Y-10628500D02*
X8212076Y-10628500D01*
X9534223Y-5728882D02*
X9534223Y-6071782D01*
X9362773Y-5900332D02*
X9705673Y-5900332D01*
X9691103Y-7522033D02*
X9691103Y-7864933D01*
X9519653Y-7693483D02*
X9862553Y-7693483D01*
X9847983Y-9315184D02*
X9847983Y-9658084D01*
X9676533Y-9486634D02*
X10019433Y-9486634D01*
X10004863Y-11108334D02*
X10004863Y-11451234D01*
X9833413Y-11279784D02*
X10176313Y-11279784D01*
X11904863Y-4508334D02*
X11904863Y-4851234D01*
X11733413Y-4679784D02*
X12076313Y-4679784D01*
X11904863Y-6308334D02*
X11904863Y-6651234D01*
X11733413Y-6479784D02*
X12076313Y-6479784D01*
X11904863Y-8108334D02*
X11904863Y-8451234D01*
X11733413Y-8279784D02*
X12076313Y-8279784D01*
X11904863Y-9908334D02*
X11904863Y-10251234D01*
X11733413Y-10079784D02*
X12076313Y-10079784D01*
X13804863Y-4008334D02*
X13804863Y-4351234D01*
X13633413Y-4179784D02*
X13976313Y-4179784D01*
X13804863Y-5808334D02*
X13804863Y-6151234D01*
X13633413Y-5979784D02*
X13976313Y-5979784D01*
X13804863Y-7608334D02*
X13804863Y-7951234D01*
X13633413Y-7779784D02*
X13976313Y-7779784D01*
X13804863Y-9408334D02*
X13804863Y-9751234D01*
X13633413Y-9579784D02*
X13976313Y-9579784D01*
X15504863Y-12408334D02*
X15504863Y-12751234D01*
X15333413Y-12579784D02*
X15676313Y-12579784D01*
X15704863Y-4458334D02*
X15704863Y-4801234D01*
X15533413Y-4629784D02*
X15876313Y-4629784D01*
X15704863Y-6258334D02*
X15704863Y-6601234D01*
X15533413Y-6429784D02*
X15876313Y-6429784D01*
X15704863Y-8058334D02*
X15704863Y-8401234D01*
X15533413Y-8229784D02*
X15876313Y-8229784D01*
X15704863Y-9858334D02*
X15704863Y-10201234D01*
X15533413Y-10029784D02*
X15876313Y-10029784D01*
X17404863Y-12408334D02*
X17404863Y-12751234D01*
X17233413Y-12579784D02*
X17576313Y-12579784D01*
X17604863Y-4458334D02*
X17604863Y-4801234D01*
X17433413Y-4629784D02*
X17776313Y-4629784D01*
X17604863Y-6258334D02*
X17604863Y-6601234D01*
X17433413Y-6429784D02*
X17776313Y-6429784D01*
X17604863Y-8058334D02*
X17604863Y-8401234D01*
X17433413Y-8229784D02*
X17776313Y-8229784D01*
X17604863Y-9858334D02*
X17604863Y-10201234D01*
X17433413Y-10029784D02*
X17776313Y-10029784D01*
X19541896Y-12785150D02*
X19541896Y-13128050D01*
X19370446Y-12956600D02*
X19713346Y-12956600D01*
X21421171Y-13870150D02*
X21421171Y-14213050D01*
X21249721Y-14041600D02*
X21592621Y-14041600D01*
D17*
X8244055Y-4356105D02*
X8244055Y-4108615D01*
X7996565Y-4108615D01*
X7996565Y-4356105D01*
X8244055Y-4356105D01*
X8244055Y-12953105D02*
X8244055Y-12705615D01*
X7996565Y-12705615D01*
X7996565Y-12953105D01*
X8244055Y-12953105D01*
X21277925Y-4301235D02*
X21277925Y-4053745D01*
X21030435Y-4053745D01*
X21030435Y-4301235D01*
X21277925Y-4301235D01*
X21277925Y-11301235D02*
X21277925Y-11053745D01*
X21030435Y-11053745D01*
X21030435Y-11301235D01*
X21277925Y-11301235D01*
D13*
X7094396Y-15634975D02*
X7094396Y-15434975D01*
X7094396Y-15434975D02*
X7142015Y-15434975D01*
X7142015Y-15434975D02*
X7170587Y-15444499D01*
X7170587Y-15444499D02*
X7189635Y-15463546D01*
X7189635Y-15463546D02*
X7199158Y-15482594D01*
X7199158Y-15482594D02*
X7208682Y-15520689D01*
X7208682Y-15520689D02*
X7208682Y-15549261D01*
X7208682Y-15549261D02*
X7199158Y-15587356D01*
X7199158Y-15587356D02*
X7189635Y-15606404D01*
X7189635Y-15606404D02*
X7170587Y-15625451D01*
X7170587Y-15625451D02*
X7142015Y-15634975D01*
X7142015Y-15634975D02*
X7094396Y-15634975D01*
X7294396Y-15634975D02*
X7294396Y-15501642D01*
X7294396Y-15539737D02*
X7303920Y-15520689D01*
X7303920Y-15520689D02*
X7313444Y-15511165D01*
X7313444Y-15511165D02*
X7332492Y-15501642D01*
X7332492Y-15501642D02*
X7351539Y-15501642D01*
X7418206Y-15634975D02*
X7418206Y-15501642D01*
X7418206Y-15434975D02*
X7408682Y-15444499D01*
X7408682Y-15444499D02*
X7418206Y-15454023D01*
X7418206Y-15454023D02*
X7427730Y-15444499D01*
X7427730Y-15444499D02*
X7418206Y-15434975D01*
X7418206Y-15434975D02*
X7418206Y-15454023D01*
X7542015Y-15634975D02*
X7522968Y-15625451D01*
X7522968Y-15625451D02*
X7513444Y-15606404D01*
X7513444Y-15606404D02*
X7513444Y-15434975D01*
X7646777Y-15634975D02*
X7627730Y-15625451D01*
X7627730Y-15625451D02*
X7618206Y-15606404D01*
X7618206Y-15606404D02*
X7618206Y-15434975D01*
X7875349Y-15634975D02*
X7875349Y-15434975D01*
X7875349Y-15434975D02*
X7942016Y-15577832D01*
X7942016Y-15577832D02*
X8008682Y-15434975D01*
X8008682Y-15434975D02*
X8008682Y-15634975D01*
X8189635Y-15634975D02*
X8189635Y-15530213D01*
X8189635Y-15530213D02*
X8180111Y-15511165D01*
X8180111Y-15511165D02*
X8161063Y-15501642D01*
X8161063Y-15501642D02*
X8122968Y-15501642D01*
X8122968Y-15501642D02*
X8103920Y-15511165D01*
X8189635Y-15625451D02*
X8170587Y-15634975D01*
X8170587Y-15634975D02*
X8122968Y-15634975D01*
X8122968Y-15634975D02*
X8103920Y-15625451D01*
X8103920Y-15625451D02*
X8094396Y-15606404D01*
X8094396Y-15606404D02*
X8094396Y-15587356D01*
X8094396Y-15587356D02*
X8103920Y-15568308D01*
X8103920Y-15568308D02*
X8122968Y-15558785D01*
X8122968Y-15558785D02*
X8170587Y-15558785D01*
X8170587Y-15558785D02*
X8189635Y-15549261D01*
X8284873Y-15501642D02*
X8284873Y-15701642D01*
X8284873Y-15511165D02*
X8303920Y-15501642D01*
X8303920Y-15501642D02*
X8342016Y-15501642D01*
X8342016Y-15501642D02*
X8361063Y-15511165D01*
X8361063Y-15511165D02*
X8370587Y-15520689D01*
X8370587Y-15520689D02*
X8380111Y-15539737D01*
X8380111Y-15539737D02*
X8380111Y-15596880D01*
X8380111Y-15596880D02*
X8370587Y-15615927D01*
X8370587Y-15615927D02*
X8361063Y-15625451D01*
X8361063Y-15625451D02*
X8342016Y-15634975D01*
X8342016Y-15634975D02*
X8303920Y-15634975D01*
X8303920Y-15634975D02*
X8284873Y-15625451D01*
X8465825Y-15615927D02*
X8475349Y-15625451D01*
X8475349Y-15625451D02*
X8465825Y-15634975D01*
X8465825Y-15634975D02*
X8456301Y-15625451D01*
X8456301Y-15625451D02*
X8465825Y-15615927D01*
X8465825Y-15615927D02*
X8465825Y-15634975D01*
X8465825Y-15511165D02*
X8475349Y-15520689D01*
X8475349Y-15520689D02*
X8465825Y-15530213D01*
X8465825Y-15530213D02*
X8456301Y-15520689D01*
X8456301Y-15520689D02*
X8465825Y-15511165D01*
X8465825Y-15511165D02*
X8465825Y-15530213D01*
D14*
X6663440Y-15878401D02*
X6833620Y-16048581D01*
X6833620Y-15878401D02*
X6663440Y-16048581D01*
D13*
X7199158Y-16054975D02*
X7084873Y-16054975D01*
X7142015Y-16054975D02*
X7142015Y-15854975D01*
X7142015Y-15854975D02*
X7122968Y-15883546D01*
X7122968Y-15883546D02*
X7103920Y-15902594D01*
X7103920Y-15902594D02*
X7084873Y-15912118D01*
X7284873Y-16035927D02*
X7294396Y-16045451D01*
X7294396Y-16045451D02*
X7284873Y-16054975D01*
X7284873Y-16054975D02*
X7275349Y-16045451D01*
X7275349Y-16045451D02*
X7284873Y-16035927D01*
X7284873Y-16035927D02*
X7284873Y-16054975D01*
X7361063Y-15854975D02*
X7494396Y-15854975D01*
X7494396Y-15854975D02*
X7408682Y-16054975D01*
X7608682Y-15854975D02*
X7627730Y-15854975D01*
X7627730Y-15854975D02*
X7646777Y-15864499D01*
X7646777Y-15864499D02*
X7656301Y-15874023D01*
X7656301Y-15874023D02*
X7665825Y-15893070D01*
X7665825Y-15893070D02*
X7675349Y-15931165D01*
X7675349Y-15931165D02*
X7675349Y-15978785D01*
X7675349Y-15978785D02*
X7665825Y-16016880D01*
X7665825Y-16016880D02*
X7656301Y-16035927D01*
X7656301Y-16035927D02*
X7646777Y-16045451D01*
X7646777Y-16045451D02*
X7627730Y-16054975D01*
X7627730Y-16054975D02*
X7608682Y-16054975D01*
X7608682Y-16054975D02*
X7589635Y-16045451D01*
X7589635Y-16045451D02*
X7580111Y-16035927D01*
X7580111Y-16035927D02*
X7570587Y-16016880D01*
X7570587Y-16016880D02*
X7561063Y-15978785D01*
X7561063Y-15978785D02*
X7561063Y-15931165D01*
X7561063Y-15931165D02*
X7570587Y-15893070D01*
X7570587Y-15893070D02*
X7580111Y-15874023D01*
X7580111Y-15874023D02*
X7589635Y-15864499D01*
X7589635Y-15864499D02*
X7608682Y-15854975D01*
X7751539Y-15874023D02*
X7761063Y-15864499D01*
X7761063Y-15864499D02*
X7780111Y-15854975D01*
X7780111Y-15854975D02*
X7827730Y-15854975D01*
X7827730Y-15854975D02*
X7846777Y-15864499D01*
X7846777Y-15864499D02*
X7856301Y-15874023D01*
X7856301Y-15874023D02*
X7865825Y-15893070D01*
X7865825Y-15893070D02*
X7865825Y-15912118D01*
X7865825Y-15912118D02*
X7856301Y-15940689D01*
X7856301Y-15940689D02*
X7742016Y-16054975D01*
X7742016Y-16054975D02*
X7865825Y-16054975D01*
X7951539Y-16054975D02*
X7951539Y-15921642D01*
X7951539Y-15940689D02*
X7961063Y-15931165D01*
X7961063Y-15931165D02*
X7980111Y-15921642D01*
X7980111Y-15921642D02*
X8008682Y-15921642D01*
X8008682Y-15921642D02*
X8027730Y-15931165D01*
X8027730Y-15931165D02*
X8037254Y-15950213D01*
X8037254Y-15950213D02*
X8037254Y-16054975D01*
X8037254Y-15950213D02*
X8046777Y-15931165D01*
X8046777Y-15931165D02*
X8065825Y-15921642D01*
X8065825Y-15921642D02*
X8094396Y-15921642D01*
X8094396Y-15921642D02*
X8113444Y-15931165D01*
X8113444Y-15931165D02*
X8122968Y-15950213D01*
X8122968Y-15950213D02*
X8122968Y-16054975D01*
X8218206Y-16054975D02*
X8218206Y-15921642D01*
X8218206Y-15940689D02*
X8227730Y-15931165D01*
X8227730Y-15931165D02*
X8246777Y-15921642D01*
X8246777Y-15921642D02*
X8275349Y-15921642D01*
X8275349Y-15921642D02*
X8294397Y-15931165D01*
X8294397Y-15931165D02*
X8303920Y-15950213D01*
X8303920Y-15950213D02*
X8303920Y-16054975D01*
X8303920Y-15950213D02*
X8313444Y-15931165D01*
X8313444Y-15931165D02*
X8332492Y-15921642D01*
X8332492Y-15921642D02*
X8361063Y-15921642D01*
X8361063Y-15921642D02*
X8380111Y-15931165D01*
X8380111Y-15931165D02*
X8389635Y-15950213D01*
X8389635Y-15950213D02*
X8389635Y-16054975D01*
X8780111Y-15845451D02*
X8608682Y-16102594D01*
X9037254Y-15854975D02*
X9056302Y-15854975D01*
X9056302Y-15854975D02*
X9075349Y-15864499D01*
X9075349Y-15864499D02*
X9084873Y-15874023D01*
X9084873Y-15874023D02*
X9094397Y-15893070D01*
X9094397Y-15893070D02*
X9103921Y-15931165D01*
X9103921Y-15931165D02*
X9103921Y-15978785D01*
X9103921Y-15978785D02*
X9094397Y-16016880D01*
X9094397Y-16016880D02*
X9084873Y-16035927D01*
X9084873Y-16035927D02*
X9075349Y-16045451D01*
X9075349Y-16045451D02*
X9056302Y-16054975D01*
X9056302Y-16054975D02*
X9037254Y-16054975D01*
X9037254Y-16054975D02*
X9018206Y-16045451D01*
X9018206Y-16045451D02*
X9008682Y-16035927D01*
X9008682Y-16035927D02*
X8999159Y-16016880D01*
X8999159Y-16016880D02*
X8989635Y-15978785D01*
X8989635Y-15978785D02*
X8989635Y-15931165D01*
X8989635Y-15931165D02*
X8999159Y-15893070D01*
X8999159Y-15893070D02*
X9008682Y-15874023D01*
X9008682Y-15874023D02*
X9018206Y-15864499D01*
X9018206Y-15864499D02*
X9037254Y-15854975D01*
X9189635Y-16035927D02*
X9199159Y-16045451D01*
X9199159Y-16045451D02*
X9189635Y-16054975D01*
X9189635Y-16054975D02*
X9180111Y-16045451D01*
X9180111Y-16045451D02*
X9189635Y-16035927D01*
X9189635Y-16035927D02*
X9189635Y-16054975D01*
X9322968Y-15854975D02*
X9342016Y-15854975D01*
X9342016Y-15854975D02*
X9361063Y-15864499D01*
X9361063Y-15864499D02*
X9370587Y-15874023D01*
X9370587Y-15874023D02*
X9380111Y-15893070D01*
X9380111Y-15893070D02*
X9389635Y-15931165D01*
X9389635Y-15931165D02*
X9389635Y-15978785D01*
X9389635Y-15978785D02*
X9380111Y-16016880D01*
X9380111Y-16016880D02*
X9370587Y-16035927D01*
X9370587Y-16035927D02*
X9361063Y-16045451D01*
X9361063Y-16045451D02*
X9342016Y-16054975D01*
X9342016Y-16054975D02*
X9322968Y-16054975D01*
X9322968Y-16054975D02*
X9303921Y-16045451D01*
X9303921Y-16045451D02*
X9294397Y-16035927D01*
X9294397Y-16035927D02*
X9284873Y-16016880D01*
X9284873Y-16016880D02*
X9275349Y-15978785D01*
X9275349Y-15978785D02*
X9275349Y-15931165D01*
X9275349Y-15931165D02*
X9284873Y-15893070D01*
X9284873Y-15893070D02*
X9294397Y-15874023D01*
X9294397Y-15874023D02*
X9303921Y-15864499D01*
X9303921Y-15864499D02*
X9322968Y-15854975D01*
X9561063Y-15854975D02*
X9522968Y-15854975D01*
X9522968Y-15854975D02*
X9503921Y-15864499D01*
X9503921Y-15864499D02*
X9494397Y-15874023D01*
X9494397Y-15874023D02*
X9475349Y-15902594D01*
X9475349Y-15902594D02*
X9465825Y-15940689D01*
X9465825Y-15940689D02*
X9465825Y-16016880D01*
X9465825Y-16016880D02*
X9475349Y-16035927D01*
X9475349Y-16035927D02*
X9484873Y-16045451D01*
X9484873Y-16045451D02*
X9503921Y-16054975D01*
X9503921Y-16054975D02*
X9542016Y-16054975D01*
X9542016Y-16054975D02*
X9561063Y-16045451D01*
X9561063Y-16045451D02*
X9570587Y-16035927D01*
X9570587Y-16035927D02*
X9580111Y-16016880D01*
X9580111Y-16016880D02*
X9580111Y-15969261D01*
X9580111Y-15969261D02*
X9570587Y-15950213D01*
X9570587Y-15950213D02*
X9561063Y-15940689D01*
X9561063Y-15940689D02*
X9542016Y-15931165D01*
X9542016Y-15931165D02*
X9503921Y-15931165D01*
X9503921Y-15931165D02*
X9484873Y-15940689D01*
X9484873Y-15940689D02*
X9475349Y-15950213D01*
X9475349Y-15950213D02*
X9465825Y-15969261D01*
X9646778Y-15854975D02*
X9780111Y-15854975D01*
X9780111Y-15854975D02*
X9694397Y-16054975D01*
X9894397Y-15854975D02*
X9913444Y-15854975D01*
X9913444Y-15854975D02*
X9932492Y-15864499D01*
X9932492Y-15864499D02*
X9942016Y-15874023D01*
X9942016Y-15874023D02*
X9951540Y-15893070D01*
X9951540Y-15893070D02*
X9961063Y-15931165D01*
X9961063Y-15931165D02*
X9961063Y-15978785D01*
X9961063Y-15978785D02*
X9951540Y-16016880D01*
X9951540Y-16016880D02*
X9942016Y-16035927D01*
X9942016Y-16035927D02*
X9932492Y-16045451D01*
X9932492Y-16045451D02*
X9913444Y-16054975D01*
X9913444Y-16054975D02*
X9894397Y-16054975D01*
X9894397Y-16054975D02*
X9875349Y-16045451D01*
X9875349Y-16045451D02*
X9865825Y-16035927D01*
X9865825Y-16035927D02*
X9856302Y-16016880D01*
X9856302Y-16016880D02*
X9846778Y-15978785D01*
X9846778Y-15978785D02*
X9846778Y-15931165D01*
X9846778Y-15931165D02*
X9856302Y-15893070D01*
X9856302Y-15893070D02*
X9865825Y-15874023D01*
X9865825Y-15874023D02*
X9875349Y-15864499D01*
X9875349Y-15864499D02*
X9894397Y-15854975D01*
X10037254Y-15854975D02*
X10037254Y-15893070D01*
X10113444Y-15854975D02*
X10113444Y-15893070D01*
X10408683Y-16131165D02*
X10399159Y-16121642D01*
X10399159Y-16121642D02*
X10380111Y-16093070D01*
X10380111Y-16093070D02*
X10370587Y-16074023D01*
X10370587Y-16074023D02*
X10361064Y-16045451D01*
X10361064Y-16045451D02*
X10351540Y-15997832D01*
X10351540Y-15997832D02*
X10351540Y-15959737D01*
X10351540Y-15959737D02*
X10361064Y-15912118D01*
X10361064Y-15912118D02*
X10370587Y-15883546D01*
X10370587Y-15883546D02*
X10380111Y-15864499D01*
X10380111Y-15864499D02*
X10399159Y-15835927D01*
X10399159Y-15835927D02*
X10408683Y-15826404D01*
X10580111Y-15854975D02*
X10484873Y-15854975D01*
X10484873Y-15854975D02*
X10475349Y-15950213D01*
X10475349Y-15950213D02*
X10484873Y-15940689D01*
X10484873Y-15940689D02*
X10503921Y-15931165D01*
X10503921Y-15931165D02*
X10551540Y-15931165D01*
X10551540Y-15931165D02*
X10570587Y-15940689D01*
X10570587Y-15940689D02*
X10580111Y-15950213D01*
X10580111Y-15950213D02*
X10589635Y-15969261D01*
X10589635Y-15969261D02*
X10589635Y-16016880D01*
X10589635Y-16016880D02*
X10580111Y-16035927D01*
X10580111Y-16035927D02*
X10570587Y-16045451D01*
X10570587Y-16045451D02*
X10551540Y-16054975D01*
X10551540Y-16054975D02*
X10503921Y-16054975D01*
X10503921Y-16054975D02*
X10484873Y-16045451D01*
X10484873Y-16045451D02*
X10475349Y-16035927D01*
X10713444Y-15854975D02*
X10732492Y-15854975D01*
X10732492Y-15854975D02*
X10751540Y-15864499D01*
X10751540Y-15864499D02*
X10761064Y-15874023D01*
X10761064Y-15874023D02*
X10770587Y-15893070D01*
X10770587Y-15893070D02*
X10780111Y-15931165D01*
X10780111Y-15931165D02*
X10780111Y-15978785D01*
X10780111Y-15978785D02*
X10770587Y-16016880D01*
X10770587Y-16016880D02*
X10761064Y-16035927D01*
X10761064Y-16035927D02*
X10751540Y-16045451D01*
X10751540Y-16045451D02*
X10732492Y-16054975D01*
X10732492Y-16054975D02*
X10713444Y-16054975D01*
X10713444Y-16054975D02*
X10694397Y-16045451D01*
X10694397Y-16045451D02*
X10684873Y-16035927D01*
X10684873Y-16035927D02*
X10675349Y-16016880D01*
X10675349Y-16016880D02*
X10665825Y-15978785D01*
X10665825Y-15978785D02*
X10665825Y-15931165D01*
X10665825Y-15931165D02*
X10675349Y-15893070D01*
X10675349Y-15893070D02*
X10684873Y-15874023D01*
X10684873Y-15874023D02*
X10694397Y-15864499D01*
X10694397Y-15864499D02*
X10713444Y-15854975D01*
X11018206Y-16054975D02*
X11018206Y-15854975D01*
X11103921Y-16054975D02*
X11103921Y-15950213D01*
X11103921Y-15950213D02*
X11094397Y-15931165D01*
X11094397Y-15931165D02*
X11075349Y-15921642D01*
X11075349Y-15921642D02*
X11046778Y-15921642D01*
X11046778Y-15921642D02*
X11027730Y-15931165D01*
X11027730Y-15931165D02*
X11018206Y-15940689D01*
X11227730Y-16054975D02*
X11208683Y-16045451D01*
X11208683Y-16045451D02*
X11199159Y-16035927D01*
X11199159Y-16035927D02*
X11189635Y-16016880D01*
X11189635Y-16016880D02*
X11189635Y-15959737D01*
X11189635Y-15959737D02*
X11199159Y-15940689D01*
X11199159Y-15940689D02*
X11208683Y-15931165D01*
X11208683Y-15931165D02*
X11227730Y-15921642D01*
X11227730Y-15921642D02*
X11256302Y-15921642D01*
X11256302Y-15921642D02*
X11275349Y-15931165D01*
X11275349Y-15931165D02*
X11284873Y-15940689D01*
X11284873Y-15940689D02*
X11294397Y-15959737D01*
X11294397Y-15959737D02*
X11294397Y-16016880D01*
X11294397Y-16016880D02*
X11284873Y-16035927D01*
X11284873Y-16035927D02*
X11275349Y-16045451D01*
X11275349Y-16045451D02*
X11256302Y-16054975D01*
X11256302Y-16054975D02*
X11227730Y-16054975D01*
X11408683Y-16054975D02*
X11389635Y-16045451D01*
X11389635Y-16045451D02*
X11380111Y-16026404D01*
X11380111Y-16026404D02*
X11380111Y-15854975D01*
X11561064Y-16045451D02*
X11542016Y-16054975D01*
X11542016Y-16054975D02*
X11503921Y-16054975D01*
X11503921Y-16054975D02*
X11484873Y-16045451D01*
X11484873Y-16045451D02*
X11475349Y-16026404D01*
X11475349Y-16026404D02*
X11475349Y-15950213D01*
X11475349Y-15950213D02*
X11484873Y-15931165D01*
X11484873Y-15931165D02*
X11503921Y-15921642D01*
X11503921Y-15921642D02*
X11542016Y-15921642D01*
X11542016Y-15921642D02*
X11561064Y-15931165D01*
X11561064Y-15931165D02*
X11570587Y-15950213D01*
X11570587Y-15950213D02*
X11570587Y-15969261D01*
X11570587Y-15969261D02*
X11475349Y-15988308D01*
X11646778Y-16045451D02*
X11665825Y-16054975D01*
X11665825Y-16054975D02*
X11703921Y-16054975D01*
X11703921Y-16054975D02*
X11722968Y-16045451D01*
X11722968Y-16045451D02*
X11732492Y-16026404D01*
X11732492Y-16026404D02*
X11732492Y-16016880D01*
X11732492Y-16016880D02*
X11722968Y-15997832D01*
X11722968Y-15997832D02*
X11703921Y-15988308D01*
X11703921Y-15988308D02*
X11675349Y-15988308D01*
X11675349Y-15988308D02*
X11656302Y-15978785D01*
X11656302Y-15978785D02*
X11646778Y-15959737D01*
X11646778Y-15959737D02*
X11646778Y-15950213D01*
X11646778Y-15950213D02*
X11656302Y-15931165D01*
X11656302Y-15931165D02*
X11675349Y-15921642D01*
X11675349Y-15921642D02*
X11703921Y-15921642D01*
X11703921Y-15921642D02*
X11722968Y-15931165D01*
X11799159Y-16131165D02*
X11808683Y-16121642D01*
X11808683Y-16121642D02*
X11827730Y-16093070D01*
X11827730Y-16093070D02*
X11837254Y-16074023D01*
X11837254Y-16074023D02*
X11846778Y-16045451D01*
X11846778Y-16045451D02*
X11856302Y-15997832D01*
X11856302Y-15997832D02*
X11856302Y-15959737D01*
X11856302Y-15959737D02*
X11846778Y-15912118D01*
X11846778Y-15912118D02*
X11837254Y-15883546D01*
X11837254Y-15883546D02*
X11827730Y-15864499D01*
X11827730Y-15864499D02*
X11808683Y-15835927D01*
X11808683Y-15835927D02*
X11799159Y-15826404D01*
X12161064Y-16131165D02*
X12151540Y-16121642D01*
X12151540Y-16121642D02*
X12132492Y-16093070D01*
X12132492Y-16093070D02*
X12122968Y-16074023D01*
X12122968Y-16074023D02*
X12113445Y-16045451D01*
X12113445Y-16045451D02*
X12103921Y-15997832D01*
X12103921Y-15997832D02*
X12103921Y-15959737D01*
X12103921Y-15959737D02*
X12113445Y-15912118D01*
X12113445Y-15912118D02*
X12122968Y-15883546D01*
X12122968Y-15883546D02*
X12132492Y-15864499D01*
X12132492Y-15864499D02*
X12151540Y-15835927D01*
X12151540Y-15835927D02*
X12161064Y-15826404D01*
X12237254Y-15921642D02*
X12237254Y-16054975D01*
X12237254Y-15940689D02*
X12246778Y-15931165D01*
X12246778Y-15931165D02*
X12265825Y-15921642D01*
X12265825Y-15921642D02*
X12294397Y-15921642D01*
X12294397Y-15921642D02*
X12313445Y-15931165D01*
X12313445Y-15931165D02*
X12322968Y-15950213D01*
X12322968Y-15950213D02*
X12322968Y-16054975D01*
X12446778Y-16054975D02*
X12427730Y-16045451D01*
X12427730Y-16045451D02*
X12418206Y-16035927D01*
X12418206Y-16035927D02*
X12408683Y-16016880D01*
X12408683Y-16016880D02*
X12408683Y-15959737D01*
X12408683Y-15959737D02*
X12418206Y-15940689D01*
X12418206Y-15940689D02*
X12427730Y-15931165D01*
X12427730Y-15931165D02*
X12446778Y-15921642D01*
X12446778Y-15921642D02*
X12475349Y-15921642D01*
X12475349Y-15921642D02*
X12494397Y-15931165D01*
X12494397Y-15931165D02*
X12503921Y-15940689D01*
X12503921Y-15940689D02*
X12513445Y-15959737D01*
X12513445Y-15959737D02*
X12513445Y-16016880D01*
X12513445Y-16016880D02*
X12503921Y-16035927D01*
X12503921Y-16035927D02*
X12494397Y-16045451D01*
X12494397Y-16045451D02*
X12475349Y-16054975D01*
X12475349Y-16054975D02*
X12446778Y-16054975D01*
X12570587Y-15921642D02*
X12646778Y-15921642D01*
X12599159Y-15854975D02*
X12599159Y-16026404D01*
X12599159Y-16026404D02*
X12608683Y-16045451D01*
X12608683Y-16045451D02*
X12627730Y-16054975D01*
X12627730Y-16054975D02*
X12646778Y-16054975D01*
X12865826Y-15921642D02*
X12865826Y-16121642D01*
X12865826Y-15931165D02*
X12884873Y-15921642D01*
X12884873Y-15921642D02*
X12922968Y-15921642D01*
X12922968Y-15921642D02*
X12942016Y-15931165D01*
X12942016Y-15931165D02*
X12951540Y-15940689D01*
X12951540Y-15940689D02*
X12961064Y-15959737D01*
X12961064Y-15959737D02*
X12961064Y-16016880D01*
X12961064Y-16016880D02*
X12951540Y-16035927D01*
X12951540Y-16035927D02*
X12942016Y-16045451D01*
X12942016Y-16045451D02*
X12922968Y-16054975D01*
X12922968Y-16054975D02*
X12884873Y-16054975D01*
X12884873Y-16054975D02*
X12865826Y-16045451D01*
X13075349Y-16054975D02*
X13056302Y-16045451D01*
X13056302Y-16045451D02*
X13046778Y-16026404D01*
X13046778Y-16026404D02*
X13046778Y-15854975D01*
X13237254Y-16054975D02*
X13237254Y-15950213D01*
X13237254Y-15950213D02*
X13227730Y-15931165D01*
X13227730Y-15931165D02*
X13208683Y-15921642D01*
X13208683Y-15921642D02*
X13170587Y-15921642D01*
X13170587Y-15921642D02*
X13151540Y-15931165D01*
X13237254Y-16045451D02*
X13218207Y-16054975D01*
X13218207Y-16054975D02*
X13170587Y-16054975D01*
X13170587Y-16054975D02*
X13151540Y-16045451D01*
X13151540Y-16045451D02*
X13142016Y-16026404D01*
X13142016Y-16026404D02*
X13142016Y-16007356D01*
X13142016Y-16007356D02*
X13151540Y-15988308D01*
X13151540Y-15988308D02*
X13170587Y-15978785D01*
X13170587Y-15978785D02*
X13218207Y-15978785D01*
X13218207Y-15978785D02*
X13237254Y-15969261D01*
X13303921Y-15921642D02*
X13380111Y-15921642D01*
X13332492Y-15854975D02*
X13332492Y-16026404D01*
X13332492Y-16026404D02*
X13342016Y-16045451D01*
X13342016Y-16045451D02*
X13361064Y-16054975D01*
X13361064Y-16054975D02*
X13380111Y-16054975D01*
X13522968Y-16045451D02*
X13503921Y-16054975D01*
X13503921Y-16054975D02*
X13465826Y-16054975D01*
X13465826Y-16054975D02*
X13446778Y-16045451D01*
X13446778Y-16045451D02*
X13437254Y-16026404D01*
X13437254Y-16026404D02*
X13437254Y-15950213D01*
X13437254Y-15950213D02*
X13446778Y-15931165D01*
X13446778Y-15931165D02*
X13465826Y-15921642D01*
X13465826Y-15921642D02*
X13503921Y-15921642D01*
X13503921Y-15921642D02*
X13522968Y-15931165D01*
X13522968Y-15931165D02*
X13532492Y-15950213D01*
X13532492Y-15950213D02*
X13532492Y-15969261D01*
X13532492Y-15969261D02*
X13437254Y-15988308D01*
X13703921Y-16054975D02*
X13703921Y-15854975D01*
X13703921Y-16045451D02*
X13684873Y-16054975D01*
X13684873Y-16054975D02*
X13646778Y-16054975D01*
X13646778Y-16054975D02*
X13627730Y-16045451D01*
X13627730Y-16045451D02*
X13618207Y-16035927D01*
X13618207Y-16035927D02*
X13608683Y-16016880D01*
X13608683Y-16016880D02*
X13608683Y-15959737D01*
X13608683Y-15959737D02*
X13618207Y-15940689D01*
X13618207Y-15940689D02*
X13627730Y-15931165D01*
X13627730Y-15931165D02*
X13646778Y-15921642D01*
X13646778Y-15921642D02*
X13684873Y-15921642D01*
X13684873Y-15921642D02*
X13703921Y-15931165D01*
X13780111Y-16131165D02*
X13789635Y-16121642D01*
X13789635Y-16121642D02*
X13808683Y-16093070D01*
X13808683Y-16093070D02*
X13818207Y-16074023D01*
X13818207Y-16074023D02*
X13827730Y-16045451D01*
X13827730Y-16045451D02*
X13837254Y-15997832D01*
X13837254Y-15997832D02*
X13837254Y-15959737D01*
X13837254Y-15959737D02*
X13827730Y-15912118D01*
X13827730Y-15912118D02*
X13818207Y-15883546D01*
X13818207Y-15883546D02*
X13808683Y-15864499D01*
X13808683Y-15864499D02*
X13789635Y-15835927D01*
X13789635Y-15835927D02*
X13780111Y-15826404D01*
X6833620Y-16253671D02*
G75*
G02*
X6633620Y-16253671I-100000J0D01*
G01*
X6633620Y-16253671D02*
G75*
G02*
X6833620Y-16253671I100000J0D01*
G01*
X7075349Y-16145155D02*
X7199158Y-16145155D01*
X7199158Y-16145155D02*
X7132492Y-16221345D01*
X7132492Y-16221345D02*
X7161063Y-16221345D01*
X7161063Y-16221345D02*
X7180111Y-16230869D01*
X7180111Y-16230869D02*
X7189635Y-16240393D01*
X7189635Y-16240393D02*
X7199158Y-16259441D01*
X7199158Y-16259441D02*
X7199158Y-16307060D01*
X7199158Y-16307060D02*
X7189635Y-16326107D01*
X7189635Y-16326107D02*
X7180111Y-16335631D01*
X7180111Y-16335631D02*
X7161063Y-16345155D01*
X7161063Y-16345155D02*
X7103920Y-16345155D01*
X7103920Y-16345155D02*
X7084873Y-16335631D01*
X7084873Y-16335631D02*
X7075349Y-16326107D01*
X7284873Y-16326107D02*
X7294396Y-16335631D01*
X7294396Y-16335631D02*
X7284873Y-16345155D01*
X7284873Y-16345155D02*
X7275349Y-16335631D01*
X7275349Y-16335631D02*
X7284873Y-16326107D01*
X7284873Y-16326107D02*
X7284873Y-16345155D01*
X7418206Y-16145155D02*
X7437254Y-16145155D01*
X7437254Y-16145155D02*
X7456301Y-16154679D01*
X7456301Y-16154679D02*
X7465825Y-16164203D01*
X7465825Y-16164203D02*
X7475349Y-16183250D01*
X7475349Y-16183250D02*
X7484873Y-16221345D01*
X7484873Y-16221345D02*
X7484873Y-16268965D01*
X7484873Y-16268965D02*
X7475349Y-16307060D01*
X7475349Y-16307060D02*
X7465825Y-16326107D01*
X7465825Y-16326107D02*
X7456301Y-16335631D01*
X7456301Y-16335631D02*
X7437254Y-16345155D01*
X7437254Y-16345155D02*
X7418206Y-16345155D01*
X7418206Y-16345155D02*
X7399158Y-16335631D01*
X7399158Y-16335631D02*
X7389635Y-16326107D01*
X7389635Y-16326107D02*
X7380111Y-16307060D01*
X7380111Y-16307060D02*
X7370587Y-16268965D01*
X7370587Y-16268965D02*
X7370587Y-16221345D01*
X7370587Y-16221345D02*
X7380111Y-16183250D01*
X7380111Y-16183250D02*
X7389635Y-16164203D01*
X7389635Y-16164203D02*
X7399158Y-16154679D01*
X7399158Y-16154679D02*
X7418206Y-16145155D01*
X7608682Y-16145155D02*
X7627730Y-16145155D01*
X7627730Y-16145155D02*
X7646777Y-16154679D01*
X7646777Y-16154679D02*
X7656301Y-16164203D01*
X7656301Y-16164203D02*
X7665825Y-16183250D01*
X7665825Y-16183250D02*
X7675349Y-16221345D01*
X7675349Y-16221345D02*
X7675349Y-16268965D01*
X7675349Y-16268965D02*
X7665825Y-16307060D01*
X7665825Y-16307060D02*
X7656301Y-16326107D01*
X7656301Y-16326107D02*
X7646777Y-16335631D01*
X7646777Y-16335631D02*
X7627730Y-16345155D01*
X7627730Y-16345155D02*
X7608682Y-16345155D01*
X7608682Y-16345155D02*
X7589635Y-16335631D01*
X7589635Y-16335631D02*
X7580111Y-16326107D01*
X7580111Y-16326107D02*
X7570587Y-16307060D01*
X7570587Y-16307060D02*
X7561063Y-16268965D01*
X7561063Y-16268965D02*
X7561063Y-16221345D01*
X7561063Y-16221345D02*
X7570587Y-16183250D01*
X7570587Y-16183250D02*
X7580111Y-16164203D01*
X7580111Y-16164203D02*
X7589635Y-16154679D01*
X7589635Y-16154679D02*
X7608682Y-16145155D01*
X7799158Y-16145155D02*
X7818206Y-16145155D01*
X7818206Y-16145155D02*
X7837254Y-16154679D01*
X7837254Y-16154679D02*
X7846777Y-16164203D01*
X7846777Y-16164203D02*
X7856301Y-16183250D01*
X7856301Y-16183250D02*
X7865825Y-16221345D01*
X7865825Y-16221345D02*
X7865825Y-16268965D01*
X7865825Y-16268965D02*
X7856301Y-16307060D01*
X7856301Y-16307060D02*
X7846777Y-16326107D01*
X7846777Y-16326107D02*
X7837254Y-16335631D01*
X7837254Y-16335631D02*
X7818206Y-16345155D01*
X7818206Y-16345155D02*
X7799158Y-16345155D01*
X7799158Y-16345155D02*
X7780111Y-16335631D01*
X7780111Y-16335631D02*
X7770587Y-16326107D01*
X7770587Y-16326107D02*
X7761063Y-16307060D01*
X7761063Y-16307060D02*
X7751539Y-16268965D01*
X7751539Y-16268965D02*
X7751539Y-16221345D01*
X7751539Y-16221345D02*
X7761063Y-16183250D01*
X7761063Y-16183250D02*
X7770587Y-16164203D01*
X7770587Y-16164203D02*
X7780111Y-16154679D01*
X7780111Y-16154679D02*
X7799158Y-16145155D01*
X7951539Y-16345155D02*
X7951539Y-16211822D01*
X7951539Y-16230869D02*
X7961063Y-16221345D01*
X7961063Y-16221345D02*
X7980111Y-16211822D01*
X7980111Y-16211822D02*
X8008682Y-16211822D01*
X8008682Y-16211822D02*
X8027730Y-16221345D01*
X8027730Y-16221345D02*
X8037254Y-16240393D01*
X8037254Y-16240393D02*
X8037254Y-16345155D01*
X8037254Y-16240393D02*
X8046777Y-16221345D01*
X8046777Y-16221345D02*
X8065825Y-16211822D01*
X8065825Y-16211822D02*
X8094396Y-16211822D01*
X8094396Y-16211822D02*
X8113444Y-16221345D01*
X8113444Y-16221345D02*
X8122968Y-16240393D01*
X8122968Y-16240393D02*
X8122968Y-16345155D01*
X8218206Y-16345155D02*
X8218206Y-16211822D01*
X8218206Y-16230869D02*
X8227730Y-16221345D01*
X8227730Y-16221345D02*
X8246777Y-16211822D01*
X8246777Y-16211822D02*
X8275349Y-16211822D01*
X8275349Y-16211822D02*
X8294397Y-16221345D01*
X8294397Y-16221345D02*
X8303920Y-16240393D01*
X8303920Y-16240393D02*
X8303920Y-16345155D01*
X8303920Y-16240393D02*
X8313444Y-16221345D01*
X8313444Y-16221345D02*
X8332492Y-16211822D01*
X8332492Y-16211822D02*
X8361063Y-16211822D01*
X8361063Y-16211822D02*
X8380111Y-16221345D01*
X8380111Y-16221345D02*
X8389635Y-16240393D01*
X8389635Y-16240393D02*
X8389635Y-16345155D01*
X8780111Y-16135631D02*
X8608682Y-16392774D01*
X9037254Y-16145155D02*
X9056302Y-16145155D01*
X9056302Y-16145155D02*
X9075349Y-16154679D01*
X9075349Y-16154679D02*
X9084873Y-16164203D01*
X9084873Y-16164203D02*
X9094397Y-16183250D01*
X9094397Y-16183250D02*
X9103921Y-16221345D01*
X9103921Y-16221345D02*
X9103921Y-16268965D01*
X9103921Y-16268965D02*
X9094397Y-16307060D01*
X9094397Y-16307060D02*
X9084873Y-16326107D01*
X9084873Y-16326107D02*
X9075349Y-16335631D01*
X9075349Y-16335631D02*
X9056302Y-16345155D01*
X9056302Y-16345155D02*
X9037254Y-16345155D01*
X9037254Y-16345155D02*
X9018206Y-16335631D01*
X9018206Y-16335631D02*
X9008682Y-16326107D01*
X9008682Y-16326107D02*
X8999159Y-16307060D01*
X8999159Y-16307060D02*
X8989635Y-16268965D01*
X8989635Y-16268965D02*
X8989635Y-16221345D01*
X8989635Y-16221345D02*
X8999159Y-16183250D01*
X8999159Y-16183250D02*
X9008682Y-16164203D01*
X9008682Y-16164203D02*
X9018206Y-16154679D01*
X9018206Y-16154679D02*
X9037254Y-16145155D01*
X9189635Y-16326107D02*
X9199159Y-16335631D01*
X9199159Y-16335631D02*
X9189635Y-16345155D01*
X9189635Y-16345155D02*
X9180111Y-16335631D01*
X9180111Y-16335631D02*
X9189635Y-16326107D01*
X9189635Y-16326107D02*
X9189635Y-16345155D01*
X9389635Y-16345155D02*
X9275349Y-16345155D01*
X9332492Y-16345155D02*
X9332492Y-16145155D01*
X9332492Y-16145155D02*
X9313444Y-16173726D01*
X9313444Y-16173726D02*
X9294397Y-16192774D01*
X9294397Y-16192774D02*
X9275349Y-16202298D01*
X9580111Y-16345155D02*
X9465825Y-16345155D01*
X9522968Y-16345155D02*
X9522968Y-16145155D01*
X9522968Y-16145155D02*
X9503921Y-16173726D01*
X9503921Y-16173726D02*
X9484873Y-16192774D01*
X9484873Y-16192774D02*
X9465825Y-16202298D01*
X9694397Y-16230869D02*
X9675349Y-16221345D01*
X9675349Y-16221345D02*
X9665825Y-16211822D01*
X9665825Y-16211822D02*
X9656302Y-16192774D01*
X9656302Y-16192774D02*
X9656302Y-16183250D01*
X9656302Y-16183250D02*
X9665825Y-16164203D01*
X9665825Y-16164203D02*
X9675349Y-16154679D01*
X9675349Y-16154679D02*
X9694397Y-16145155D01*
X9694397Y-16145155D02*
X9732492Y-16145155D01*
X9732492Y-16145155D02*
X9751540Y-16154679D01*
X9751540Y-16154679D02*
X9761063Y-16164203D01*
X9761063Y-16164203D02*
X9770587Y-16183250D01*
X9770587Y-16183250D02*
X9770587Y-16192774D01*
X9770587Y-16192774D02*
X9761063Y-16211822D01*
X9761063Y-16211822D02*
X9751540Y-16221345D01*
X9751540Y-16221345D02*
X9732492Y-16230869D01*
X9732492Y-16230869D02*
X9694397Y-16230869D01*
X9694397Y-16230869D02*
X9675349Y-16240393D01*
X9675349Y-16240393D02*
X9665825Y-16249917D01*
X9665825Y-16249917D02*
X9656302Y-16268965D01*
X9656302Y-16268965D02*
X9656302Y-16307060D01*
X9656302Y-16307060D02*
X9665825Y-16326107D01*
X9665825Y-16326107D02*
X9675349Y-16335631D01*
X9675349Y-16335631D02*
X9694397Y-16345155D01*
X9694397Y-16345155D02*
X9732492Y-16345155D01*
X9732492Y-16345155D02*
X9751540Y-16335631D01*
X9751540Y-16335631D02*
X9761063Y-16326107D01*
X9761063Y-16326107D02*
X9770587Y-16307060D01*
X9770587Y-16307060D02*
X9770587Y-16268965D01*
X9770587Y-16268965D02*
X9761063Y-16249917D01*
X9761063Y-16249917D02*
X9751540Y-16240393D01*
X9751540Y-16240393D02*
X9732492Y-16230869D01*
X9961063Y-16345155D02*
X9846778Y-16345155D01*
X9903921Y-16345155D02*
X9903921Y-16145155D01*
X9903921Y-16145155D02*
X9884873Y-16173726D01*
X9884873Y-16173726D02*
X9865825Y-16192774D01*
X9865825Y-16192774D02*
X9846778Y-16202298D01*
X10037254Y-16145155D02*
X10037254Y-16183250D01*
X10113444Y-16145155D02*
X10113444Y-16183250D01*
X10408683Y-16421345D02*
X10399159Y-16411822D01*
X10399159Y-16411822D02*
X10380111Y-16383250D01*
X10380111Y-16383250D02*
X10370587Y-16364203D01*
X10370587Y-16364203D02*
X10361064Y-16335631D01*
X10361064Y-16335631D02*
X10351540Y-16288012D01*
X10351540Y-16288012D02*
X10351540Y-16249917D01*
X10351540Y-16249917D02*
X10361064Y-16202298D01*
X10361064Y-16202298D02*
X10370587Y-16173726D01*
X10370587Y-16173726D02*
X10380111Y-16154679D01*
X10380111Y-16154679D02*
X10399159Y-16126107D01*
X10399159Y-16126107D02*
X10408683Y-16116584D01*
X10580111Y-16145155D02*
X10484873Y-16145155D01*
X10484873Y-16145155D02*
X10475349Y-16240393D01*
X10475349Y-16240393D02*
X10484873Y-16230869D01*
X10484873Y-16230869D02*
X10503921Y-16221345D01*
X10503921Y-16221345D02*
X10551540Y-16221345D01*
X10551540Y-16221345D02*
X10570587Y-16230869D01*
X10570587Y-16230869D02*
X10580111Y-16240393D01*
X10580111Y-16240393D02*
X10589635Y-16259441D01*
X10589635Y-16259441D02*
X10589635Y-16307060D01*
X10589635Y-16307060D02*
X10580111Y-16326107D01*
X10580111Y-16326107D02*
X10570587Y-16335631D01*
X10570587Y-16335631D02*
X10551540Y-16345155D01*
X10551540Y-16345155D02*
X10503921Y-16345155D01*
X10503921Y-16345155D02*
X10484873Y-16335631D01*
X10484873Y-16335631D02*
X10475349Y-16326107D01*
X10713444Y-16145155D02*
X10732492Y-16145155D01*
X10732492Y-16145155D02*
X10751540Y-16154679D01*
X10751540Y-16154679D02*
X10761064Y-16164203D01*
X10761064Y-16164203D02*
X10770587Y-16183250D01*
X10770587Y-16183250D02*
X10780111Y-16221345D01*
X10780111Y-16221345D02*
X10780111Y-16268965D01*
X10780111Y-16268965D02*
X10770587Y-16307060D01*
X10770587Y-16307060D02*
X10761064Y-16326107D01*
X10761064Y-16326107D02*
X10751540Y-16335631D01*
X10751540Y-16335631D02*
X10732492Y-16345155D01*
X10732492Y-16345155D02*
X10713444Y-16345155D01*
X10713444Y-16345155D02*
X10694397Y-16335631D01*
X10694397Y-16335631D02*
X10684873Y-16326107D01*
X10684873Y-16326107D02*
X10675349Y-16307060D01*
X10675349Y-16307060D02*
X10665825Y-16268965D01*
X10665825Y-16268965D02*
X10665825Y-16221345D01*
X10665825Y-16221345D02*
X10675349Y-16183250D01*
X10675349Y-16183250D02*
X10684873Y-16164203D01*
X10684873Y-16164203D02*
X10694397Y-16154679D01*
X10694397Y-16154679D02*
X10713444Y-16145155D01*
X11018206Y-16345155D02*
X11018206Y-16145155D01*
X11103921Y-16345155D02*
X11103921Y-16240393D01*
X11103921Y-16240393D02*
X11094397Y-16221345D01*
X11094397Y-16221345D02*
X11075349Y-16211822D01*
X11075349Y-16211822D02*
X11046778Y-16211822D01*
X11046778Y-16211822D02*
X11027730Y-16221345D01*
X11027730Y-16221345D02*
X11018206Y-16230869D01*
X11227730Y-16345155D02*
X11208683Y-16335631D01*
X11208683Y-16335631D02*
X11199159Y-16326107D01*
X11199159Y-16326107D02*
X11189635Y-16307060D01*
X11189635Y-16307060D02*
X11189635Y-16249917D01*
X11189635Y-16249917D02*
X11199159Y-16230869D01*
X11199159Y-16230869D02*
X11208683Y-16221345D01*
X11208683Y-16221345D02*
X11227730Y-16211822D01*
X11227730Y-16211822D02*
X11256302Y-16211822D01*
X11256302Y-16211822D02*
X11275349Y-16221345D01*
X11275349Y-16221345D02*
X11284873Y-16230869D01*
X11284873Y-16230869D02*
X11294397Y-16249917D01*
X11294397Y-16249917D02*
X11294397Y-16307060D01*
X11294397Y-16307060D02*
X11284873Y-16326107D01*
X11284873Y-16326107D02*
X11275349Y-16335631D01*
X11275349Y-16335631D02*
X11256302Y-16345155D01*
X11256302Y-16345155D02*
X11227730Y-16345155D01*
X11408683Y-16345155D02*
X11389635Y-16335631D01*
X11389635Y-16335631D02*
X11380111Y-16316584D01*
X11380111Y-16316584D02*
X11380111Y-16145155D01*
X11561064Y-16335631D02*
X11542016Y-16345155D01*
X11542016Y-16345155D02*
X11503921Y-16345155D01*
X11503921Y-16345155D02*
X11484873Y-16335631D01*
X11484873Y-16335631D02*
X11475349Y-16316584D01*
X11475349Y-16316584D02*
X11475349Y-16240393D01*
X11475349Y-16240393D02*
X11484873Y-16221345D01*
X11484873Y-16221345D02*
X11503921Y-16211822D01*
X11503921Y-16211822D02*
X11542016Y-16211822D01*
X11542016Y-16211822D02*
X11561064Y-16221345D01*
X11561064Y-16221345D02*
X11570587Y-16240393D01*
X11570587Y-16240393D02*
X11570587Y-16259441D01*
X11570587Y-16259441D02*
X11475349Y-16278488D01*
X11646778Y-16335631D02*
X11665825Y-16345155D01*
X11665825Y-16345155D02*
X11703921Y-16345155D01*
X11703921Y-16345155D02*
X11722968Y-16335631D01*
X11722968Y-16335631D02*
X11732492Y-16316584D01*
X11732492Y-16316584D02*
X11732492Y-16307060D01*
X11732492Y-16307060D02*
X11722968Y-16288012D01*
X11722968Y-16288012D02*
X11703921Y-16278488D01*
X11703921Y-16278488D02*
X11675349Y-16278488D01*
X11675349Y-16278488D02*
X11656302Y-16268965D01*
X11656302Y-16268965D02*
X11646778Y-16249917D01*
X11646778Y-16249917D02*
X11646778Y-16240393D01*
X11646778Y-16240393D02*
X11656302Y-16221345D01*
X11656302Y-16221345D02*
X11675349Y-16211822D01*
X11675349Y-16211822D02*
X11703921Y-16211822D01*
X11703921Y-16211822D02*
X11722968Y-16221345D01*
X11799159Y-16421345D02*
X11808683Y-16411822D01*
X11808683Y-16411822D02*
X11827730Y-16383250D01*
X11827730Y-16383250D02*
X11837254Y-16364203D01*
X11837254Y-16364203D02*
X11846778Y-16335631D01*
X11846778Y-16335631D02*
X11856302Y-16288012D01*
X11856302Y-16288012D02*
X11856302Y-16249917D01*
X11856302Y-16249917D02*
X11846778Y-16202298D01*
X11846778Y-16202298D02*
X11837254Y-16173726D01*
X11837254Y-16173726D02*
X11827730Y-16154679D01*
X11827730Y-16154679D02*
X11808683Y-16126107D01*
X11808683Y-16126107D02*
X11799159Y-16116584D01*
X12161064Y-16421345D02*
X12151540Y-16411822D01*
X12151540Y-16411822D02*
X12132492Y-16383250D01*
X12132492Y-16383250D02*
X12122968Y-16364203D01*
X12122968Y-16364203D02*
X12113445Y-16335631D01*
X12113445Y-16335631D02*
X12103921Y-16288012D01*
X12103921Y-16288012D02*
X12103921Y-16249917D01*
X12103921Y-16249917D02*
X12113445Y-16202298D01*
X12113445Y-16202298D02*
X12122968Y-16173726D01*
X12122968Y-16173726D02*
X12132492Y-16154679D01*
X12132492Y-16154679D02*
X12151540Y-16126107D01*
X12151540Y-16126107D02*
X12161064Y-16116584D01*
X12237254Y-16211822D02*
X12237254Y-16345155D01*
X12237254Y-16230869D02*
X12246778Y-16221345D01*
X12246778Y-16221345D02*
X12265825Y-16211822D01*
X12265825Y-16211822D02*
X12294397Y-16211822D01*
X12294397Y-16211822D02*
X12313445Y-16221345D01*
X12313445Y-16221345D02*
X12322968Y-16240393D01*
X12322968Y-16240393D02*
X12322968Y-16345155D01*
X12446778Y-16345155D02*
X12427730Y-16335631D01*
X12427730Y-16335631D02*
X12418206Y-16326107D01*
X12418206Y-16326107D02*
X12408683Y-16307060D01*
X12408683Y-16307060D02*
X12408683Y-16249917D01*
X12408683Y-16249917D02*
X12418206Y-16230869D01*
X12418206Y-16230869D02*
X12427730Y-16221345D01*
X12427730Y-16221345D02*
X12446778Y-16211822D01*
X12446778Y-16211822D02*
X12475349Y-16211822D01*
X12475349Y-16211822D02*
X12494397Y-16221345D01*
X12494397Y-16221345D02*
X12503921Y-16230869D01*
X12503921Y-16230869D02*
X12513445Y-16249917D01*
X12513445Y-16249917D02*
X12513445Y-16307060D01*
X12513445Y-16307060D02*
X12503921Y-16326107D01*
X12503921Y-16326107D02*
X12494397Y-16335631D01*
X12494397Y-16335631D02*
X12475349Y-16345155D01*
X12475349Y-16345155D02*
X12446778Y-16345155D01*
X12570587Y-16211822D02*
X12646778Y-16211822D01*
X12599159Y-16145155D02*
X12599159Y-16316584D01*
X12599159Y-16316584D02*
X12608683Y-16335631D01*
X12608683Y-16335631D02*
X12627730Y-16345155D01*
X12627730Y-16345155D02*
X12646778Y-16345155D01*
X12865826Y-16211822D02*
X12865826Y-16411822D01*
X12865826Y-16221345D02*
X12884873Y-16211822D01*
X12884873Y-16211822D02*
X12922968Y-16211822D01*
X12922968Y-16211822D02*
X12942016Y-16221345D01*
X12942016Y-16221345D02*
X12951540Y-16230869D01*
X12951540Y-16230869D02*
X12961064Y-16249917D01*
X12961064Y-16249917D02*
X12961064Y-16307060D01*
X12961064Y-16307060D02*
X12951540Y-16326107D01*
X12951540Y-16326107D02*
X12942016Y-16335631D01*
X12942016Y-16335631D02*
X12922968Y-16345155D01*
X12922968Y-16345155D02*
X12884873Y-16345155D01*
X12884873Y-16345155D02*
X12865826Y-16335631D01*
X13075349Y-16345155D02*
X13056302Y-16335631D01*
X13056302Y-16335631D02*
X13046778Y-16316584D01*
X13046778Y-16316584D02*
X13046778Y-16145155D01*
X13237254Y-16345155D02*
X13237254Y-16240393D01*
X13237254Y-16240393D02*
X13227730Y-16221345D01*
X13227730Y-16221345D02*
X13208683Y-16211822D01*
X13208683Y-16211822D02*
X13170587Y-16211822D01*
X13170587Y-16211822D02*
X13151540Y-16221345D01*
X13237254Y-16335631D02*
X13218207Y-16345155D01*
X13218207Y-16345155D02*
X13170587Y-16345155D01*
X13170587Y-16345155D02*
X13151540Y-16335631D01*
X13151540Y-16335631D02*
X13142016Y-16316584D01*
X13142016Y-16316584D02*
X13142016Y-16297536D01*
X13142016Y-16297536D02*
X13151540Y-16278488D01*
X13151540Y-16278488D02*
X13170587Y-16268965D01*
X13170587Y-16268965D02*
X13218207Y-16268965D01*
X13218207Y-16268965D02*
X13237254Y-16259441D01*
X13303921Y-16211822D02*
X13380111Y-16211822D01*
X13332492Y-16145155D02*
X13332492Y-16316584D01*
X13332492Y-16316584D02*
X13342016Y-16335631D01*
X13342016Y-16335631D02*
X13361064Y-16345155D01*
X13361064Y-16345155D02*
X13380111Y-16345155D01*
X13522968Y-16335631D02*
X13503921Y-16345155D01*
X13503921Y-16345155D02*
X13465826Y-16345155D01*
X13465826Y-16345155D02*
X13446778Y-16335631D01*
X13446778Y-16335631D02*
X13437254Y-16316584D01*
X13437254Y-16316584D02*
X13437254Y-16240393D01*
X13437254Y-16240393D02*
X13446778Y-16221345D01*
X13446778Y-16221345D02*
X13465826Y-16211822D01*
X13465826Y-16211822D02*
X13503921Y-16211822D01*
X13503921Y-16211822D02*
X13522968Y-16221345D01*
X13522968Y-16221345D02*
X13532492Y-16240393D01*
X13532492Y-16240393D02*
X13532492Y-16259441D01*
X13532492Y-16259441D02*
X13437254Y-16278488D01*
X13703921Y-16345155D02*
X13703921Y-16145155D01*
X13703921Y-16335631D02*
X13684873Y-16345155D01*
X13684873Y-16345155D02*
X13646778Y-16345155D01*
X13646778Y-16345155D02*
X13627730Y-16335631D01*
X13627730Y-16335631D02*
X13618207Y-16326107D01*
X13618207Y-16326107D02*
X13608683Y-16307060D01*
X13608683Y-16307060D02*
X13608683Y-16249917D01*
X13608683Y-16249917D02*
X13618207Y-16230869D01*
X13618207Y-16230869D02*
X13627730Y-16221345D01*
X13627730Y-16221345D02*
X13646778Y-16211822D01*
X13646778Y-16211822D02*
X13684873Y-16211822D01*
X13684873Y-16211822D02*
X13703921Y-16221345D01*
X13780111Y-16421345D02*
X13789635Y-16411822D01*
X13789635Y-16411822D02*
X13808683Y-16383250D01*
X13808683Y-16383250D02*
X13818207Y-16364203D01*
X13818207Y-16364203D02*
X13827730Y-16335631D01*
X13827730Y-16335631D02*
X13837254Y-16288012D01*
X13837254Y-16288012D02*
X13837254Y-16249917D01*
X13837254Y-16249917D02*
X13827730Y-16202298D01*
X13827730Y-16202298D02*
X13818207Y-16173726D01*
X13818207Y-16173726D02*
X13808683Y-16154679D01*
X13808683Y-16154679D02*
X13789635Y-16126107D01*
X13789635Y-16126107D02*
X13780111Y-16116584D01*
X6733620Y-16473671D02*
X6733620Y-16673671D01*
X6633620Y-16573671D02*
X6833620Y-16573671D01*
X7075349Y-16465155D02*
X7199158Y-16465155D01*
X7199158Y-16465155D02*
X7132492Y-16541345D01*
X7132492Y-16541345D02*
X7161063Y-16541345D01*
X7161063Y-16541345D02*
X7180111Y-16550869D01*
X7180111Y-16550869D02*
X7189635Y-16560393D01*
X7189635Y-16560393D02*
X7199158Y-16579441D01*
X7199158Y-16579441D02*
X7199158Y-16627060D01*
X7199158Y-16627060D02*
X7189635Y-16646107D01*
X7189635Y-16646107D02*
X7180111Y-16655631D01*
X7180111Y-16655631D02*
X7161063Y-16665155D01*
X7161063Y-16665155D02*
X7103920Y-16665155D01*
X7103920Y-16665155D02*
X7084873Y-16655631D01*
X7084873Y-16655631D02*
X7075349Y-16646107D01*
X7284873Y-16646107D02*
X7294396Y-16655631D01*
X7294396Y-16655631D02*
X7284873Y-16665155D01*
X7284873Y-16665155D02*
X7275349Y-16655631D01*
X7275349Y-16655631D02*
X7284873Y-16646107D01*
X7284873Y-16646107D02*
X7284873Y-16665155D01*
X7465825Y-16531822D02*
X7465825Y-16665155D01*
X7418206Y-16455631D02*
X7370587Y-16598488D01*
X7370587Y-16598488D02*
X7494396Y-16598488D01*
X7561063Y-16484203D02*
X7570587Y-16474679D01*
X7570587Y-16474679D02*
X7589635Y-16465155D01*
X7589635Y-16465155D02*
X7637254Y-16465155D01*
X7637254Y-16465155D02*
X7656301Y-16474679D01*
X7656301Y-16474679D02*
X7665825Y-16484203D01*
X7665825Y-16484203D02*
X7675349Y-16503250D01*
X7675349Y-16503250D02*
X7675349Y-16522298D01*
X7675349Y-16522298D02*
X7665825Y-16550869D01*
X7665825Y-16550869D02*
X7551539Y-16665155D01*
X7551539Y-16665155D02*
X7675349Y-16665155D01*
X7770587Y-16665155D02*
X7808682Y-16665155D01*
X7808682Y-16665155D02*
X7827730Y-16655631D01*
X7827730Y-16655631D02*
X7837254Y-16646107D01*
X7837254Y-16646107D02*
X7856301Y-16617536D01*
X7856301Y-16617536D02*
X7865825Y-16579441D01*
X7865825Y-16579441D02*
X7865825Y-16503250D01*
X7865825Y-16503250D02*
X7856301Y-16484203D01*
X7856301Y-16484203D02*
X7846777Y-16474679D01*
X7846777Y-16474679D02*
X7827730Y-16465155D01*
X7827730Y-16465155D02*
X7789635Y-16465155D01*
X7789635Y-16465155D02*
X7770587Y-16474679D01*
X7770587Y-16474679D02*
X7761063Y-16484203D01*
X7761063Y-16484203D02*
X7751539Y-16503250D01*
X7751539Y-16503250D02*
X7751539Y-16550869D01*
X7751539Y-16550869D02*
X7761063Y-16569917D01*
X7761063Y-16569917D02*
X7770587Y-16579441D01*
X7770587Y-16579441D02*
X7789635Y-16588965D01*
X7789635Y-16588965D02*
X7827730Y-16588965D01*
X7827730Y-16588965D02*
X7846777Y-16579441D01*
X7846777Y-16579441D02*
X7856301Y-16569917D01*
X7856301Y-16569917D02*
X7865825Y-16550869D01*
X7951539Y-16665155D02*
X7951539Y-16531822D01*
X7951539Y-16550869D02*
X7961063Y-16541345D01*
X7961063Y-16541345D02*
X7980111Y-16531822D01*
X7980111Y-16531822D02*
X8008682Y-16531822D01*
X8008682Y-16531822D02*
X8027730Y-16541345D01*
X8027730Y-16541345D02*
X8037254Y-16560393D01*
X8037254Y-16560393D02*
X8037254Y-16665155D01*
X8037254Y-16560393D02*
X8046777Y-16541345D01*
X8046777Y-16541345D02*
X8065825Y-16531822D01*
X8065825Y-16531822D02*
X8094396Y-16531822D01*
X8094396Y-16531822D02*
X8113444Y-16541345D01*
X8113444Y-16541345D02*
X8122968Y-16560393D01*
X8122968Y-16560393D02*
X8122968Y-16665155D01*
X8218206Y-16665155D02*
X8218206Y-16531822D01*
X8218206Y-16550869D02*
X8227730Y-16541345D01*
X8227730Y-16541345D02*
X8246777Y-16531822D01*
X8246777Y-16531822D02*
X8275349Y-16531822D01*
X8275349Y-16531822D02*
X8294397Y-16541345D01*
X8294397Y-16541345D02*
X8303920Y-16560393D01*
X8303920Y-16560393D02*
X8303920Y-16665155D01*
X8303920Y-16560393D02*
X8313444Y-16541345D01*
X8313444Y-16541345D02*
X8332492Y-16531822D01*
X8332492Y-16531822D02*
X8361063Y-16531822D01*
X8361063Y-16531822D02*
X8380111Y-16541345D01*
X8380111Y-16541345D02*
X8389635Y-16560393D01*
X8389635Y-16560393D02*
X8389635Y-16665155D01*
X8780111Y-16455631D02*
X8608682Y-16712774D01*
X9037254Y-16465155D02*
X9056302Y-16465155D01*
X9056302Y-16465155D02*
X9075349Y-16474679D01*
X9075349Y-16474679D02*
X9084873Y-16484203D01*
X9084873Y-16484203D02*
X9094397Y-16503250D01*
X9094397Y-16503250D02*
X9103921Y-16541345D01*
X9103921Y-16541345D02*
X9103921Y-16588965D01*
X9103921Y-16588965D02*
X9094397Y-16627060D01*
X9094397Y-16627060D02*
X9084873Y-16646107D01*
X9084873Y-16646107D02*
X9075349Y-16655631D01*
X9075349Y-16655631D02*
X9056302Y-16665155D01*
X9056302Y-16665155D02*
X9037254Y-16665155D01*
X9037254Y-16665155D02*
X9018206Y-16655631D01*
X9018206Y-16655631D02*
X9008682Y-16646107D01*
X9008682Y-16646107D02*
X8999159Y-16627060D01*
X8999159Y-16627060D02*
X8989635Y-16588965D01*
X8989635Y-16588965D02*
X8989635Y-16541345D01*
X8989635Y-16541345D02*
X8999159Y-16503250D01*
X8999159Y-16503250D02*
X9008682Y-16484203D01*
X9008682Y-16484203D02*
X9018206Y-16474679D01*
X9018206Y-16474679D02*
X9037254Y-16465155D01*
X9189635Y-16646107D02*
X9199159Y-16655631D01*
X9199159Y-16655631D02*
X9189635Y-16665155D01*
X9189635Y-16665155D02*
X9180111Y-16655631D01*
X9180111Y-16655631D02*
X9189635Y-16646107D01*
X9189635Y-16646107D02*
X9189635Y-16665155D01*
X9389635Y-16665155D02*
X9275349Y-16665155D01*
X9332492Y-16665155D02*
X9332492Y-16465155D01*
X9332492Y-16465155D02*
X9313444Y-16493726D01*
X9313444Y-16493726D02*
X9294397Y-16512774D01*
X9294397Y-16512774D02*
X9275349Y-16522298D01*
X9456302Y-16465155D02*
X9580111Y-16465155D01*
X9580111Y-16465155D02*
X9513444Y-16541345D01*
X9513444Y-16541345D02*
X9542016Y-16541345D01*
X9542016Y-16541345D02*
X9561063Y-16550869D01*
X9561063Y-16550869D02*
X9570587Y-16560393D01*
X9570587Y-16560393D02*
X9580111Y-16579441D01*
X9580111Y-16579441D02*
X9580111Y-16627060D01*
X9580111Y-16627060D02*
X9570587Y-16646107D01*
X9570587Y-16646107D02*
X9561063Y-16655631D01*
X9561063Y-16655631D02*
X9542016Y-16665155D01*
X9542016Y-16665155D02*
X9484873Y-16665155D01*
X9484873Y-16665155D02*
X9465825Y-16655631D01*
X9465825Y-16655631D02*
X9456302Y-16646107D01*
X9761063Y-16465155D02*
X9665825Y-16465155D01*
X9665825Y-16465155D02*
X9656302Y-16560393D01*
X9656302Y-16560393D02*
X9665825Y-16550869D01*
X9665825Y-16550869D02*
X9684873Y-16541345D01*
X9684873Y-16541345D02*
X9732492Y-16541345D01*
X9732492Y-16541345D02*
X9751540Y-16550869D01*
X9751540Y-16550869D02*
X9761063Y-16560393D01*
X9761063Y-16560393D02*
X9770587Y-16579441D01*
X9770587Y-16579441D02*
X9770587Y-16627060D01*
X9770587Y-16627060D02*
X9761063Y-16646107D01*
X9761063Y-16646107D02*
X9751540Y-16655631D01*
X9751540Y-16655631D02*
X9732492Y-16665155D01*
X9732492Y-16665155D02*
X9684873Y-16665155D01*
X9684873Y-16665155D02*
X9665825Y-16655631D01*
X9665825Y-16655631D02*
X9656302Y-16646107D01*
X9894397Y-16465155D02*
X9913444Y-16465155D01*
X9913444Y-16465155D02*
X9932492Y-16474679D01*
X9932492Y-16474679D02*
X9942016Y-16484203D01*
X9942016Y-16484203D02*
X9951540Y-16503250D01*
X9951540Y-16503250D02*
X9961063Y-16541345D01*
X9961063Y-16541345D02*
X9961063Y-16588965D01*
X9961063Y-16588965D02*
X9951540Y-16627060D01*
X9951540Y-16627060D02*
X9942016Y-16646107D01*
X9942016Y-16646107D02*
X9932492Y-16655631D01*
X9932492Y-16655631D02*
X9913444Y-16665155D01*
X9913444Y-16665155D02*
X9894397Y-16665155D01*
X9894397Y-16665155D02*
X9875349Y-16655631D01*
X9875349Y-16655631D02*
X9865825Y-16646107D01*
X9865825Y-16646107D02*
X9856302Y-16627060D01*
X9856302Y-16627060D02*
X9846778Y-16588965D01*
X9846778Y-16588965D02*
X9846778Y-16541345D01*
X9846778Y-16541345D02*
X9856302Y-16503250D01*
X9856302Y-16503250D02*
X9865825Y-16484203D01*
X9865825Y-16484203D02*
X9875349Y-16474679D01*
X9875349Y-16474679D02*
X9894397Y-16465155D01*
X10037254Y-16465155D02*
X10037254Y-16503250D01*
X10113444Y-16465155D02*
X10113444Y-16503250D01*
X10408683Y-16741345D02*
X10399159Y-16731822D01*
X10399159Y-16731822D02*
X10380111Y-16703250D01*
X10380111Y-16703250D02*
X10370587Y-16684203D01*
X10370587Y-16684203D02*
X10361064Y-16655631D01*
X10361064Y-16655631D02*
X10351540Y-16608012D01*
X10351540Y-16608012D02*
X10351540Y-16569917D01*
X10351540Y-16569917D02*
X10361064Y-16522298D01*
X10361064Y-16522298D02*
X10370587Y-16493726D01*
X10370587Y-16493726D02*
X10380111Y-16474679D01*
X10380111Y-16474679D02*
X10399159Y-16446107D01*
X10399159Y-16446107D02*
X10408683Y-16436584D01*
X10475349Y-16484203D02*
X10484873Y-16474679D01*
X10484873Y-16474679D02*
X10503921Y-16465155D01*
X10503921Y-16465155D02*
X10551540Y-16465155D01*
X10551540Y-16465155D02*
X10570587Y-16474679D01*
X10570587Y-16474679D02*
X10580111Y-16484203D01*
X10580111Y-16484203D02*
X10589635Y-16503250D01*
X10589635Y-16503250D02*
X10589635Y-16522298D01*
X10589635Y-16522298D02*
X10580111Y-16550869D01*
X10580111Y-16550869D02*
X10465825Y-16665155D01*
X10465825Y-16665155D02*
X10589635Y-16665155D01*
X10770587Y-16465155D02*
X10675349Y-16465155D01*
X10675349Y-16465155D02*
X10665825Y-16560393D01*
X10665825Y-16560393D02*
X10675349Y-16550869D01*
X10675349Y-16550869D02*
X10694397Y-16541345D01*
X10694397Y-16541345D02*
X10742016Y-16541345D01*
X10742016Y-16541345D02*
X10761064Y-16550869D01*
X10761064Y-16550869D02*
X10770587Y-16560393D01*
X10770587Y-16560393D02*
X10780111Y-16579441D01*
X10780111Y-16579441D02*
X10780111Y-16627060D01*
X10780111Y-16627060D02*
X10770587Y-16646107D01*
X10770587Y-16646107D02*
X10761064Y-16655631D01*
X10761064Y-16655631D02*
X10742016Y-16665155D01*
X10742016Y-16665155D02*
X10694397Y-16665155D01*
X10694397Y-16665155D02*
X10675349Y-16655631D01*
X10675349Y-16655631D02*
X10665825Y-16646107D01*
X11018206Y-16665155D02*
X11018206Y-16465155D01*
X11103921Y-16665155D02*
X11103921Y-16560393D01*
X11103921Y-16560393D02*
X11094397Y-16541345D01*
X11094397Y-16541345D02*
X11075349Y-16531822D01*
X11075349Y-16531822D02*
X11046778Y-16531822D01*
X11046778Y-16531822D02*
X11027730Y-16541345D01*
X11027730Y-16541345D02*
X11018206Y-16550869D01*
X11227730Y-16665155D02*
X11208683Y-16655631D01*
X11208683Y-16655631D02*
X11199159Y-16646107D01*
X11199159Y-16646107D02*
X11189635Y-16627060D01*
X11189635Y-16627060D02*
X11189635Y-16569917D01*
X11189635Y-16569917D02*
X11199159Y-16550869D01*
X11199159Y-16550869D02*
X11208683Y-16541345D01*
X11208683Y-16541345D02*
X11227730Y-16531822D01*
X11227730Y-16531822D02*
X11256302Y-16531822D01*
X11256302Y-16531822D02*
X11275349Y-16541345D01*
X11275349Y-16541345D02*
X11284873Y-16550869D01*
X11284873Y-16550869D02*
X11294397Y-16569917D01*
X11294397Y-16569917D02*
X11294397Y-16627060D01*
X11294397Y-16627060D02*
X11284873Y-16646107D01*
X11284873Y-16646107D02*
X11275349Y-16655631D01*
X11275349Y-16655631D02*
X11256302Y-16665155D01*
X11256302Y-16665155D02*
X11227730Y-16665155D01*
X11408683Y-16665155D02*
X11389635Y-16655631D01*
X11389635Y-16655631D02*
X11380111Y-16636584D01*
X11380111Y-16636584D02*
X11380111Y-16465155D01*
X11561064Y-16655631D02*
X11542016Y-16665155D01*
X11542016Y-16665155D02*
X11503921Y-16665155D01*
X11503921Y-16665155D02*
X11484873Y-16655631D01*
X11484873Y-16655631D02*
X11475349Y-16636584D01*
X11475349Y-16636584D02*
X11475349Y-16560393D01*
X11475349Y-16560393D02*
X11484873Y-16541345D01*
X11484873Y-16541345D02*
X11503921Y-16531822D01*
X11503921Y-16531822D02*
X11542016Y-16531822D01*
X11542016Y-16531822D02*
X11561064Y-16541345D01*
X11561064Y-16541345D02*
X11570587Y-16560393D01*
X11570587Y-16560393D02*
X11570587Y-16579441D01*
X11570587Y-16579441D02*
X11475349Y-16598488D01*
X11646778Y-16655631D02*
X11665825Y-16665155D01*
X11665825Y-16665155D02*
X11703921Y-16665155D01*
X11703921Y-16665155D02*
X11722968Y-16655631D01*
X11722968Y-16655631D02*
X11732492Y-16636584D01*
X11732492Y-16636584D02*
X11732492Y-16627060D01*
X11732492Y-16627060D02*
X11722968Y-16608012D01*
X11722968Y-16608012D02*
X11703921Y-16598488D01*
X11703921Y-16598488D02*
X11675349Y-16598488D01*
X11675349Y-16598488D02*
X11656302Y-16588965D01*
X11656302Y-16588965D02*
X11646778Y-16569917D01*
X11646778Y-16569917D02*
X11646778Y-16560393D01*
X11646778Y-16560393D02*
X11656302Y-16541345D01*
X11656302Y-16541345D02*
X11675349Y-16531822D01*
X11675349Y-16531822D02*
X11703921Y-16531822D01*
X11703921Y-16531822D02*
X11722968Y-16541345D01*
X11799159Y-16741345D02*
X11808683Y-16731822D01*
X11808683Y-16731822D02*
X11827730Y-16703250D01*
X11827730Y-16703250D02*
X11837254Y-16684203D01*
X11837254Y-16684203D02*
X11846778Y-16655631D01*
X11846778Y-16655631D02*
X11856302Y-16608012D01*
X11856302Y-16608012D02*
X11856302Y-16569917D01*
X11856302Y-16569917D02*
X11846778Y-16522298D01*
X11846778Y-16522298D02*
X11837254Y-16493726D01*
X11837254Y-16493726D02*
X11827730Y-16474679D01*
X11827730Y-16474679D02*
X11808683Y-16446107D01*
X11808683Y-16446107D02*
X11799159Y-16436584D01*
X12161064Y-16741345D02*
X12151540Y-16731822D01*
X12151540Y-16731822D02*
X12132492Y-16703250D01*
X12132492Y-16703250D02*
X12122968Y-16684203D01*
X12122968Y-16684203D02*
X12113445Y-16655631D01*
X12113445Y-16655631D02*
X12103921Y-16608012D01*
X12103921Y-16608012D02*
X12103921Y-16569917D01*
X12103921Y-16569917D02*
X12113445Y-16522298D01*
X12113445Y-16522298D02*
X12122968Y-16493726D01*
X12122968Y-16493726D02*
X12132492Y-16474679D01*
X12132492Y-16474679D02*
X12151540Y-16446107D01*
X12151540Y-16446107D02*
X12161064Y-16436584D01*
X12237254Y-16531822D02*
X12237254Y-16665155D01*
X12237254Y-16550869D02*
X12246778Y-16541345D01*
X12246778Y-16541345D02*
X12265825Y-16531822D01*
X12265825Y-16531822D02*
X12294397Y-16531822D01*
X12294397Y-16531822D02*
X12313445Y-16541345D01*
X12313445Y-16541345D02*
X12322968Y-16560393D01*
X12322968Y-16560393D02*
X12322968Y-16665155D01*
X12446778Y-16665155D02*
X12427730Y-16655631D01*
X12427730Y-16655631D02*
X12418206Y-16646107D01*
X12418206Y-16646107D02*
X12408683Y-16627060D01*
X12408683Y-16627060D02*
X12408683Y-16569917D01*
X12408683Y-16569917D02*
X12418206Y-16550869D01*
X12418206Y-16550869D02*
X12427730Y-16541345D01*
X12427730Y-16541345D02*
X12446778Y-16531822D01*
X12446778Y-16531822D02*
X12475349Y-16531822D01*
X12475349Y-16531822D02*
X12494397Y-16541345D01*
X12494397Y-16541345D02*
X12503921Y-16550869D01*
X12503921Y-16550869D02*
X12513445Y-16569917D01*
X12513445Y-16569917D02*
X12513445Y-16627060D01*
X12513445Y-16627060D02*
X12503921Y-16646107D01*
X12503921Y-16646107D02*
X12494397Y-16655631D01*
X12494397Y-16655631D02*
X12475349Y-16665155D01*
X12475349Y-16665155D02*
X12446778Y-16665155D01*
X12570587Y-16531822D02*
X12646778Y-16531822D01*
X12599159Y-16465155D02*
X12599159Y-16636584D01*
X12599159Y-16636584D02*
X12608683Y-16655631D01*
X12608683Y-16655631D02*
X12627730Y-16665155D01*
X12627730Y-16665155D02*
X12646778Y-16665155D01*
X12865826Y-16531822D02*
X12865826Y-16731822D01*
X12865826Y-16541345D02*
X12884873Y-16531822D01*
X12884873Y-16531822D02*
X12922968Y-16531822D01*
X12922968Y-16531822D02*
X12942016Y-16541345D01*
X12942016Y-16541345D02*
X12951540Y-16550869D01*
X12951540Y-16550869D02*
X12961064Y-16569917D01*
X12961064Y-16569917D02*
X12961064Y-16627060D01*
X12961064Y-16627060D02*
X12951540Y-16646107D01*
X12951540Y-16646107D02*
X12942016Y-16655631D01*
X12942016Y-16655631D02*
X12922968Y-16665155D01*
X12922968Y-16665155D02*
X12884873Y-16665155D01*
X12884873Y-16665155D02*
X12865826Y-16655631D01*
X13075349Y-16665155D02*
X13056302Y-16655631D01*
X13056302Y-16655631D02*
X13046778Y-16636584D01*
X13046778Y-16636584D02*
X13046778Y-16465155D01*
X13237254Y-16665155D02*
X13237254Y-16560393D01*
X13237254Y-16560393D02*
X13227730Y-16541345D01*
X13227730Y-16541345D02*
X13208683Y-16531822D01*
X13208683Y-16531822D02*
X13170587Y-16531822D01*
X13170587Y-16531822D02*
X13151540Y-16541345D01*
X13237254Y-16655631D02*
X13218207Y-16665155D01*
X13218207Y-16665155D02*
X13170587Y-16665155D01*
X13170587Y-16665155D02*
X13151540Y-16655631D01*
X13151540Y-16655631D02*
X13142016Y-16636584D01*
X13142016Y-16636584D02*
X13142016Y-16617536D01*
X13142016Y-16617536D02*
X13151540Y-16598488D01*
X13151540Y-16598488D02*
X13170587Y-16588965D01*
X13170587Y-16588965D02*
X13218207Y-16588965D01*
X13218207Y-16588965D02*
X13237254Y-16579441D01*
X13303921Y-16531822D02*
X13380111Y-16531822D01*
X13332492Y-16465155D02*
X13332492Y-16636584D01*
X13332492Y-16636584D02*
X13342016Y-16655631D01*
X13342016Y-16655631D02*
X13361064Y-16665155D01*
X13361064Y-16665155D02*
X13380111Y-16665155D01*
X13522968Y-16655631D02*
X13503921Y-16665155D01*
X13503921Y-16665155D02*
X13465826Y-16665155D01*
X13465826Y-16665155D02*
X13446778Y-16655631D01*
X13446778Y-16655631D02*
X13437254Y-16636584D01*
X13437254Y-16636584D02*
X13437254Y-16560393D01*
X13437254Y-16560393D02*
X13446778Y-16541345D01*
X13446778Y-16541345D02*
X13465826Y-16531822D01*
X13465826Y-16531822D02*
X13503921Y-16531822D01*
X13503921Y-16531822D02*
X13522968Y-16541345D01*
X13522968Y-16541345D02*
X13532492Y-16560393D01*
X13532492Y-16560393D02*
X13532492Y-16579441D01*
X13532492Y-16579441D02*
X13437254Y-16598488D01*
X13703921Y-16665155D02*
X13703921Y-16465155D01*
X13703921Y-16655631D02*
X13684873Y-16665155D01*
X13684873Y-16665155D02*
X13646778Y-16665155D01*
X13646778Y-16665155D02*
X13627730Y-16655631D01*
X13627730Y-16655631D02*
X13618207Y-16646107D01*
X13618207Y-16646107D02*
X13608683Y-16627060D01*
X13608683Y-16627060D02*
X13608683Y-16569917D01*
X13608683Y-16569917D02*
X13618207Y-16550869D01*
X13618207Y-16550869D02*
X13627730Y-16541345D01*
X13627730Y-16541345D02*
X13646778Y-16531822D01*
X13646778Y-16531822D02*
X13684873Y-16531822D01*
X13684873Y-16531822D02*
X13703921Y-16541345D01*
X13780111Y-16741345D02*
X13789635Y-16731822D01*
X13789635Y-16731822D02*
X13808683Y-16703250D01*
X13808683Y-16703250D02*
X13818207Y-16684203D01*
X13818207Y-16684203D02*
X13827730Y-16655631D01*
X13827730Y-16655631D02*
X13837254Y-16608012D01*
X13837254Y-16608012D02*
X13837254Y-16569917D01*
X13837254Y-16569917D02*
X13827730Y-16522298D01*
X13827730Y-16522298D02*
X13818207Y-16493726D01*
X13818207Y-16493726D02*
X13808683Y-16474679D01*
X13808683Y-16474679D02*
X13789635Y-16446107D01*
X13789635Y-16446107D02*
X13780111Y-16436584D01*
X6804331Y-16964383D02*
X6804331Y-16822960D01*
X6662908Y-16822960D01*
X6662908Y-16964383D01*
X6804331Y-16964383D01*
X7075349Y-16785155D02*
X7199158Y-16785155D01*
X7199158Y-16785155D02*
X7132492Y-16861346D01*
X7132492Y-16861346D02*
X7161063Y-16861346D01*
X7161063Y-16861346D02*
X7180111Y-16870869D01*
X7180111Y-16870869D02*
X7189635Y-16880393D01*
X7189635Y-16880393D02*
X7199158Y-16899441D01*
X7199158Y-16899441D02*
X7199158Y-16947060D01*
X7199158Y-16947060D02*
X7189635Y-16966107D01*
X7189635Y-16966107D02*
X7180111Y-16975631D01*
X7180111Y-16975631D02*
X7161063Y-16985155D01*
X7161063Y-16985155D02*
X7103920Y-16985155D01*
X7103920Y-16985155D02*
X7084873Y-16975631D01*
X7084873Y-16975631D02*
X7075349Y-16966107D01*
X7284873Y-16966107D02*
X7294396Y-16975631D01*
X7294396Y-16975631D02*
X7284873Y-16985155D01*
X7284873Y-16985155D02*
X7275349Y-16975631D01*
X7275349Y-16975631D02*
X7284873Y-16966107D01*
X7284873Y-16966107D02*
X7284873Y-16985155D01*
X7475349Y-16785155D02*
X7380111Y-16785155D01*
X7380111Y-16785155D02*
X7370587Y-16880393D01*
X7370587Y-16880393D02*
X7380111Y-16870869D01*
X7380111Y-16870869D02*
X7399158Y-16861346D01*
X7399158Y-16861346D02*
X7446777Y-16861346D01*
X7446777Y-16861346D02*
X7465825Y-16870869D01*
X7465825Y-16870869D02*
X7475349Y-16880393D01*
X7475349Y-16880393D02*
X7484873Y-16899441D01*
X7484873Y-16899441D02*
X7484873Y-16947060D01*
X7484873Y-16947060D02*
X7475349Y-16966107D01*
X7475349Y-16966107D02*
X7465825Y-16975631D01*
X7465825Y-16975631D02*
X7446777Y-16985155D01*
X7446777Y-16985155D02*
X7399158Y-16985155D01*
X7399158Y-16985155D02*
X7380111Y-16975631D01*
X7380111Y-16975631D02*
X7370587Y-16966107D01*
X7608682Y-16785155D02*
X7627730Y-16785155D01*
X7627730Y-16785155D02*
X7646777Y-16794679D01*
X7646777Y-16794679D02*
X7656301Y-16804203D01*
X7656301Y-16804203D02*
X7665825Y-16823250D01*
X7665825Y-16823250D02*
X7675349Y-16861346D01*
X7675349Y-16861346D02*
X7675349Y-16908965D01*
X7675349Y-16908965D02*
X7665825Y-16947060D01*
X7665825Y-16947060D02*
X7656301Y-16966107D01*
X7656301Y-16966107D02*
X7646777Y-16975631D01*
X7646777Y-16975631D02*
X7627730Y-16985155D01*
X7627730Y-16985155D02*
X7608682Y-16985155D01*
X7608682Y-16985155D02*
X7589635Y-16975631D01*
X7589635Y-16975631D02*
X7580111Y-16966107D01*
X7580111Y-16966107D02*
X7570587Y-16947060D01*
X7570587Y-16947060D02*
X7561063Y-16908965D01*
X7561063Y-16908965D02*
X7561063Y-16861346D01*
X7561063Y-16861346D02*
X7570587Y-16823250D01*
X7570587Y-16823250D02*
X7580111Y-16804203D01*
X7580111Y-16804203D02*
X7589635Y-16794679D01*
X7589635Y-16794679D02*
X7608682Y-16785155D01*
X7799158Y-16785155D02*
X7818206Y-16785155D01*
X7818206Y-16785155D02*
X7837254Y-16794679D01*
X7837254Y-16794679D02*
X7846777Y-16804203D01*
X7846777Y-16804203D02*
X7856301Y-16823250D01*
X7856301Y-16823250D02*
X7865825Y-16861346D01*
X7865825Y-16861346D02*
X7865825Y-16908965D01*
X7865825Y-16908965D02*
X7856301Y-16947060D01*
X7856301Y-16947060D02*
X7846777Y-16966107D01*
X7846777Y-16966107D02*
X7837254Y-16975631D01*
X7837254Y-16975631D02*
X7818206Y-16985155D01*
X7818206Y-16985155D02*
X7799158Y-16985155D01*
X7799158Y-16985155D02*
X7780111Y-16975631D01*
X7780111Y-16975631D02*
X7770587Y-16966107D01*
X7770587Y-16966107D02*
X7761063Y-16947060D01*
X7761063Y-16947060D02*
X7751539Y-16908965D01*
X7751539Y-16908965D02*
X7751539Y-16861346D01*
X7751539Y-16861346D02*
X7761063Y-16823250D01*
X7761063Y-16823250D02*
X7770587Y-16804203D01*
X7770587Y-16804203D02*
X7780111Y-16794679D01*
X7780111Y-16794679D02*
X7799158Y-16785155D01*
X7951539Y-16985155D02*
X7951539Y-16851822D01*
X7951539Y-16870869D02*
X7961063Y-16861346D01*
X7961063Y-16861346D02*
X7980111Y-16851822D01*
X7980111Y-16851822D02*
X8008682Y-16851822D01*
X8008682Y-16851822D02*
X8027730Y-16861346D01*
X8027730Y-16861346D02*
X8037254Y-16880393D01*
X8037254Y-16880393D02*
X8037254Y-16985155D01*
X8037254Y-16880393D02*
X8046777Y-16861346D01*
X8046777Y-16861346D02*
X8065825Y-16851822D01*
X8065825Y-16851822D02*
X8094396Y-16851822D01*
X8094396Y-16851822D02*
X8113444Y-16861346D01*
X8113444Y-16861346D02*
X8122968Y-16880393D01*
X8122968Y-16880393D02*
X8122968Y-16985155D01*
X8218206Y-16985155D02*
X8218206Y-16851822D01*
X8218206Y-16870869D02*
X8227730Y-16861346D01*
X8227730Y-16861346D02*
X8246777Y-16851822D01*
X8246777Y-16851822D02*
X8275349Y-16851822D01*
X8275349Y-16851822D02*
X8294397Y-16861346D01*
X8294397Y-16861346D02*
X8303920Y-16880393D01*
X8303920Y-16880393D02*
X8303920Y-16985155D01*
X8303920Y-16880393D02*
X8313444Y-16861346D01*
X8313444Y-16861346D02*
X8332492Y-16851822D01*
X8332492Y-16851822D02*
X8361063Y-16851822D01*
X8361063Y-16851822D02*
X8380111Y-16861346D01*
X8380111Y-16861346D02*
X8389635Y-16880393D01*
X8389635Y-16880393D02*
X8389635Y-16985155D01*
X8780111Y-16775631D02*
X8608682Y-17032774D01*
X9037254Y-16785155D02*
X9056302Y-16785155D01*
X9056302Y-16785155D02*
X9075349Y-16794679D01*
X9075349Y-16794679D02*
X9084873Y-16804203D01*
X9084873Y-16804203D02*
X9094397Y-16823250D01*
X9094397Y-16823250D02*
X9103921Y-16861346D01*
X9103921Y-16861346D02*
X9103921Y-16908965D01*
X9103921Y-16908965D02*
X9094397Y-16947060D01*
X9094397Y-16947060D02*
X9084873Y-16966107D01*
X9084873Y-16966107D02*
X9075349Y-16975631D01*
X9075349Y-16975631D02*
X9056302Y-16985155D01*
X9056302Y-16985155D02*
X9037254Y-16985155D01*
X9037254Y-16985155D02*
X9018206Y-16975631D01*
X9018206Y-16975631D02*
X9008682Y-16966107D01*
X9008682Y-16966107D02*
X8999159Y-16947060D01*
X8999159Y-16947060D02*
X8989635Y-16908965D01*
X8989635Y-16908965D02*
X8989635Y-16861346D01*
X8989635Y-16861346D02*
X8999159Y-16823250D01*
X8999159Y-16823250D02*
X9008682Y-16804203D01*
X9008682Y-16804203D02*
X9018206Y-16794679D01*
X9018206Y-16794679D02*
X9037254Y-16785155D01*
X9189635Y-16966107D02*
X9199159Y-16975631D01*
X9199159Y-16975631D02*
X9189635Y-16985155D01*
X9189635Y-16985155D02*
X9180111Y-16975631D01*
X9180111Y-16975631D02*
X9189635Y-16966107D01*
X9189635Y-16966107D02*
X9189635Y-16985155D01*
X9389635Y-16985155D02*
X9275349Y-16985155D01*
X9332492Y-16985155D02*
X9332492Y-16785155D01*
X9332492Y-16785155D02*
X9313444Y-16813727D01*
X9313444Y-16813727D02*
X9294397Y-16832774D01*
X9294397Y-16832774D02*
X9275349Y-16842298D01*
X9456302Y-16785155D02*
X9580111Y-16785155D01*
X9580111Y-16785155D02*
X9513444Y-16861346D01*
X9513444Y-16861346D02*
X9542016Y-16861346D01*
X9542016Y-16861346D02*
X9561063Y-16870869D01*
X9561063Y-16870869D02*
X9570587Y-16880393D01*
X9570587Y-16880393D02*
X9580111Y-16899441D01*
X9580111Y-16899441D02*
X9580111Y-16947060D01*
X9580111Y-16947060D02*
X9570587Y-16966107D01*
X9570587Y-16966107D02*
X9561063Y-16975631D01*
X9561063Y-16975631D02*
X9542016Y-16985155D01*
X9542016Y-16985155D02*
X9484873Y-16985155D01*
X9484873Y-16985155D02*
X9465825Y-16975631D01*
X9465825Y-16975631D02*
X9456302Y-16966107D01*
X9646778Y-16785155D02*
X9780111Y-16785155D01*
X9780111Y-16785155D02*
X9694397Y-16985155D01*
X9884873Y-16870869D02*
X9865825Y-16861346D01*
X9865825Y-16861346D02*
X9856302Y-16851822D01*
X9856302Y-16851822D02*
X9846778Y-16832774D01*
X9846778Y-16832774D02*
X9846778Y-16823250D01*
X9846778Y-16823250D02*
X9856302Y-16804203D01*
X9856302Y-16804203D02*
X9865825Y-16794679D01*
X9865825Y-16794679D02*
X9884873Y-16785155D01*
X9884873Y-16785155D02*
X9922968Y-16785155D01*
X9922968Y-16785155D02*
X9942016Y-16794679D01*
X9942016Y-16794679D02*
X9951540Y-16804203D01*
X9951540Y-16804203D02*
X9961063Y-16823250D01*
X9961063Y-16823250D02*
X9961063Y-16832774D01*
X9961063Y-16832774D02*
X9951540Y-16851822D01*
X9951540Y-16851822D02*
X9942016Y-16861346D01*
X9942016Y-16861346D02*
X9922968Y-16870869D01*
X9922968Y-16870869D02*
X9884873Y-16870869D01*
X9884873Y-16870869D02*
X9865825Y-16880393D01*
X9865825Y-16880393D02*
X9856302Y-16889917D01*
X9856302Y-16889917D02*
X9846778Y-16908965D01*
X9846778Y-16908965D02*
X9846778Y-16947060D01*
X9846778Y-16947060D02*
X9856302Y-16966107D01*
X9856302Y-16966107D02*
X9865825Y-16975631D01*
X9865825Y-16975631D02*
X9884873Y-16985155D01*
X9884873Y-16985155D02*
X9922968Y-16985155D01*
X9922968Y-16985155D02*
X9942016Y-16975631D01*
X9942016Y-16975631D02*
X9951540Y-16966107D01*
X9951540Y-16966107D02*
X9961063Y-16947060D01*
X9961063Y-16947060D02*
X9961063Y-16908965D01*
X9961063Y-16908965D02*
X9951540Y-16889917D01*
X9951540Y-16889917D02*
X9942016Y-16880393D01*
X9942016Y-16880393D02*
X9922968Y-16870869D01*
X10037254Y-16785155D02*
X10037254Y-16823250D01*
X10113444Y-16785155D02*
X10113444Y-16823250D01*
X10408683Y-17061346D02*
X10399159Y-17051822D01*
X10399159Y-17051822D02*
X10380111Y-17023250D01*
X10380111Y-17023250D02*
X10370587Y-17004203D01*
X10370587Y-17004203D02*
X10361064Y-16975631D01*
X10361064Y-16975631D02*
X10351540Y-16928012D01*
X10351540Y-16928012D02*
X10351540Y-16889917D01*
X10351540Y-16889917D02*
X10361064Y-16842298D01*
X10361064Y-16842298D02*
X10370587Y-16813727D01*
X10370587Y-16813727D02*
X10380111Y-16794679D01*
X10380111Y-16794679D02*
X10399159Y-16766107D01*
X10399159Y-16766107D02*
X10408683Y-16756584D01*
X10570587Y-16851822D02*
X10570587Y-16985155D01*
X10522968Y-16775631D02*
X10475349Y-16918488D01*
X10475349Y-16918488D02*
X10599159Y-16918488D01*
X10827730Y-16985155D02*
X10827730Y-16785155D01*
X10913445Y-16985155D02*
X10913445Y-16880393D01*
X10913445Y-16880393D02*
X10903921Y-16861346D01*
X10903921Y-16861346D02*
X10884873Y-16851822D01*
X10884873Y-16851822D02*
X10856302Y-16851822D01*
X10856302Y-16851822D02*
X10837254Y-16861346D01*
X10837254Y-16861346D02*
X10827730Y-16870869D01*
X11037254Y-16985155D02*
X11018206Y-16975631D01*
X11018206Y-16975631D02*
X11008683Y-16966107D01*
X11008683Y-16966107D02*
X10999159Y-16947060D01*
X10999159Y-16947060D02*
X10999159Y-16889917D01*
X10999159Y-16889917D02*
X11008683Y-16870869D01*
X11008683Y-16870869D02*
X11018206Y-16861346D01*
X11018206Y-16861346D02*
X11037254Y-16851822D01*
X11037254Y-16851822D02*
X11065826Y-16851822D01*
X11065826Y-16851822D02*
X11084873Y-16861346D01*
X11084873Y-16861346D02*
X11094397Y-16870869D01*
X11094397Y-16870869D02*
X11103921Y-16889917D01*
X11103921Y-16889917D02*
X11103921Y-16947060D01*
X11103921Y-16947060D02*
X11094397Y-16966107D01*
X11094397Y-16966107D02*
X11084873Y-16975631D01*
X11084873Y-16975631D02*
X11065826Y-16985155D01*
X11065826Y-16985155D02*
X11037254Y-16985155D01*
X11218206Y-16985155D02*
X11199159Y-16975631D01*
X11199159Y-16975631D02*
X11189635Y-16956584D01*
X11189635Y-16956584D02*
X11189635Y-16785155D01*
X11370587Y-16975631D02*
X11351540Y-16985155D01*
X11351540Y-16985155D02*
X11313444Y-16985155D01*
X11313444Y-16985155D02*
X11294397Y-16975631D01*
X11294397Y-16975631D02*
X11284873Y-16956584D01*
X11284873Y-16956584D02*
X11284873Y-16880393D01*
X11284873Y-16880393D02*
X11294397Y-16861346D01*
X11294397Y-16861346D02*
X11313444Y-16851822D01*
X11313444Y-16851822D02*
X11351540Y-16851822D01*
X11351540Y-16851822D02*
X11370587Y-16861346D01*
X11370587Y-16861346D02*
X11380111Y-16880393D01*
X11380111Y-16880393D02*
X11380111Y-16899441D01*
X11380111Y-16899441D02*
X11284873Y-16918488D01*
X11456302Y-16975631D02*
X11475349Y-16985155D01*
X11475349Y-16985155D02*
X11513444Y-16985155D01*
X11513444Y-16985155D02*
X11532492Y-16975631D01*
X11532492Y-16975631D02*
X11542016Y-16956584D01*
X11542016Y-16956584D02*
X11542016Y-16947060D01*
X11542016Y-16947060D02*
X11532492Y-16928012D01*
X11532492Y-16928012D02*
X11513444Y-16918488D01*
X11513444Y-16918488D02*
X11484873Y-16918488D01*
X11484873Y-16918488D02*
X11465825Y-16908965D01*
X11465825Y-16908965D02*
X11456302Y-16889917D01*
X11456302Y-16889917D02*
X11456302Y-16880393D01*
X11456302Y-16880393D02*
X11465825Y-16861346D01*
X11465825Y-16861346D02*
X11484873Y-16851822D01*
X11484873Y-16851822D02*
X11513444Y-16851822D01*
X11513444Y-16851822D02*
X11532492Y-16861346D01*
X11608683Y-17061346D02*
X11618206Y-17051822D01*
X11618206Y-17051822D02*
X11637254Y-17023250D01*
X11637254Y-17023250D02*
X11646778Y-17004203D01*
X11646778Y-17004203D02*
X11656302Y-16975631D01*
X11656302Y-16975631D02*
X11665825Y-16928012D01*
X11665825Y-16928012D02*
X11665825Y-16889917D01*
X11665825Y-16889917D02*
X11656302Y-16842298D01*
X11656302Y-16842298D02*
X11646778Y-16813727D01*
X11646778Y-16813727D02*
X11637254Y-16794679D01*
X11637254Y-16794679D02*
X11618206Y-16766107D01*
X11618206Y-16766107D02*
X11608683Y-16756584D01*
X11970587Y-17061346D02*
X11961064Y-17051822D01*
X11961064Y-17051822D02*
X11942016Y-17023250D01*
X11942016Y-17023250D02*
X11932492Y-17004203D01*
X11932492Y-17004203D02*
X11922968Y-16975631D01*
X11922968Y-16975631D02*
X11913445Y-16928012D01*
X11913445Y-16928012D02*
X11913445Y-16889917D01*
X11913445Y-16889917D02*
X11922968Y-16842298D01*
X11922968Y-16842298D02*
X11932492Y-16813727D01*
X11932492Y-16813727D02*
X11942016Y-16794679D01*
X11942016Y-16794679D02*
X11961064Y-16766107D01*
X11961064Y-16766107D02*
X11970587Y-16756584D01*
X12046778Y-16851822D02*
X12046778Y-16985155D01*
X12046778Y-16870869D02*
X12056302Y-16861346D01*
X12056302Y-16861346D02*
X12075349Y-16851822D01*
X12075349Y-16851822D02*
X12103921Y-16851822D01*
X12103921Y-16851822D02*
X12122968Y-16861346D01*
X12122968Y-16861346D02*
X12132492Y-16880393D01*
X12132492Y-16880393D02*
X12132492Y-16985155D01*
X12256302Y-16985155D02*
X12237254Y-16975631D01*
X12237254Y-16975631D02*
X12227730Y-16966107D01*
X12227730Y-16966107D02*
X12218206Y-16947060D01*
X12218206Y-16947060D02*
X12218206Y-16889917D01*
X12218206Y-16889917D02*
X12227730Y-16870869D01*
X12227730Y-16870869D02*
X12237254Y-16861346D01*
X12237254Y-16861346D02*
X12256302Y-16851822D01*
X12256302Y-16851822D02*
X12284873Y-16851822D01*
X12284873Y-16851822D02*
X12303921Y-16861346D01*
X12303921Y-16861346D02*
X12313445Y-16870869D01*
X12313445Y-16870869D02*
X12322968Y-16889917D01*
X12322968Y-16889917D02*
X12322968Y-16947060D01*
X12322968Y-16947060D02*
X12313445Y-16966107D01*
X12313445Y-16966107D02*
X12303921Y-16975631D01*
X12303921Y-16975631D02*
X12284873Y-16985155D01*
X12284873Y-16985155D02*
X12256302Y-16985155D01*
X12380111Y-16851822D02*
X12456302Y-16851822D01*
X12408683Y-16785155D02*
X12408683Y-16956584D01*
X12408683Y-16956584D02*
X12418206Y-16975631D01*
X12418206Y-16975631D02*
X12437254Y-16985155D01*
X12437254Y-16985155D02*
X12456302Y-16985155D01*
X12675349Y-16851822D02*
X12675349Y-17051822D01*
X12675349Y-16861346D02*
X12694397Y-16851822D01*
X12694397Y-16851822D02*
X12732492Y-16851822D01*
X12732492Y-16851822D02*
X12751540Y-16861346D01*
X12751540Y-16861346D02*
X12761064Y-16870869D01*
X12761064Y-16870869D02*
X12770587Y-16889917D01*
X12770587Y-16889917D02*
X12770587Y-16947060D01*
X12770587Y-16947060D02*
X12761064Y-16966107D01*
X12761064Y-16966107D02*
X12751540Y-16975631D01*
X12751540Y-16975631D02*
X12732492Y-16985155D01*
X12732492Y-16985155D02*
X12694397Y-16985155D01*
X12694397Y-16985155D02*
X12675349Y-16975631D01*
X12884873Y-16985155D02*
X12865826Y-16975631D01*
X12865826Y-16975631D02*
X12856302Y-16956584D01*
X12856302Y-16956584D02*
X12856302Y-16785155D01*
X13046778Y-16985155D02*
X13046778Y-16880393D01*
X13046778Y-16880393D02*
X13037254Y-16861346D01*
X13037254Y-16861346D02*
X13018207Y-16851822D01*
X13018207Y-16851822D02*
X12980111Y-16851822D01*
X12980111Y-16851822D02*
X12961064Y-16861346D01*
X13046778Y-16975631D02*
X13027730Y-16985155D01*
X13027730Y-16985155D02*
X12980111Y-16985155D01*
X12980111Y-16985155D02*
X12961064Y-16975631D01*
X12961064Y-16975631D02*
X12951540Y-16956584D01*
X12951540Y-16956584D02*
X12951540Y-16937536D01*
X12951540Y-16937536D02*
X12961064Y-16918488D01*
X12961064Y-16918488D02*
X12980111Y-16908965D01*
X12980111Y-16908965D02*
X13027730Y-16908965D01*
X13027730Y-16908965D02*
X13046778Y-16899441D01*
X13113445Y-16851822D02*
X13189635Y-16851822D01*
X13142016Y-16785155D02*
X13142016Y-16956584D01*
X13142016Y-16956584D02*
X13151540Y-16975631D01*
X13151540Y-16975631D02*
X13170587Y-16985155D01*
X13170587Y-16985155D02*
X13189635Y-16985155D01*
X13332492Y-16975631D02*
X13313445Y-16985155D01*
X13313445Y-16985155D02*
X13275349Y-16985155D01*
X13275349Y-16985155D02*
X13256302Y-16975631D01*
X13256302Y-16975631D02*
X13246778Y-16956584D01*
X13246778Y-16956584D02*
X13246778Y-16880393D01*
X13246778Y-16880393D02*
X13256302Y-16861346D01*
X13256302Y-16861346D02*
X13275349Y-16851822D01*
X13275349Y-16851822D02*
X13313445Y-16851822D01*
X13313445Y-16851822D02*
X13332492Y-16861346D01*
X13332492Y-16861346D02*
X13342016Y-16880393D01*
X13342016Y-16880393D02*
X13342016Y-16899441D01*
X13342016Y-16899441D02*
X13246778Y-16918488D01*
X13513445Y-16985155D02*
X13513445Y-16785155D01*
X13513445Y-16975631D02*
X13494397Y-16985155D01*
X13494397Y-16985155D02*
X13456302Y-16985155D01*
X13456302Y-16985155D02*
X13437254Y-16975631D01*
X13437254Y-16975631D02*
X13427730Y-16966107D01*
X13427730Y-16966107D02*
X13418207Y-16947060D01*
X13418207Y-16947060D02*
X13418207Y-16889917D01*
X13418207Y-16889917D02*
X13427730Y-16870869D01*
X13427730Y-16870869D02*
X13437254Y-16861346D01*
X13437254Y-16861346D02*
X13456302Y-16851822D01*
X13456302Y-16851822D02*
X13494397Y-16851822D01*
X13494397Y-16851822D02*
X13513445Y-16861346D01*
X13589635Y-17061346D02*
X13599159Y-17051822D01*
X13599159Y-17051822D02*
X13618207Y-17023250D01*
X13618207Y-17023250D02*
X13627730Y-17004203D01*
X13627730Y-17004203D02*
X13637254Y-16975631D01*
X13637254Y-16975631D02*
X13646778Y-16928012D01*
X13646778Y-16928012D02*
X13646778Y-16889917D01*
X13646778Y-16889917D02*
X13637254Y-16842298D01*
X13637254Y-16842298D02*
X13627730Y-16813727D01*
X13627730Y-16813727D02*
X13618207Y-16794679D01*
X13618207Y-16794679D02*
X13599159Y-16766107D01*
X13599159Y-16766107D02*
X13589635Y-16756584D01*
M02*
