M48
; DRILL file {KiCad 8.0.5} date 2024-11-21T21:25:46+0100
; FORMAT={-:-/ absolute / metric / decimal}
; #@! TF.CreationDate,2024-11-21T21:25:46+01:00
; #@! TF.GenerationSoftware,Kicad,Pcbnew,8.0.5
; #@! TF.FileFunction,NonPlated,1,2,NPTH
FMAT,2
METRIC
; #@! TA.AperFunction,NonPlated,NPTH,ComponentDrill
T1C1.702
; #@! TA.AperFunction,NonPlated,NPTH,ComponentDrill
T2C3.000
; #@! TA.AperFunction,NonPlated,NPTH,ComponentDrill
T3C3.429
; #@! TA.AperFunction,NonPlated,NPTH,ComponentDrill
T4C3.500
%
G90
G05
T1
X74.927Y-106.764
X85.885Y-105.806
X89.863Y-59.483
X91.432Y-77.414
X93.001Y-95.346
X94.57Y-113.277
X100.821Y-58.524
X102.39Y-76.455
X103.959Y-94.387
X105.528Y-112.318
X113.549Y-46.798
X113.549Y-64.798
X113.549Y-82.798
X113.549Y-100.798
X124.549Y-46.798
X124.549Y-64.798
X124.549Y-82.798
X124.549Y-100.798
X132.549Y-41.798
X132.549Y-59.798
X132.549Y-77.798
X132.549Y-95.798
X143.549Y-41.798
X143.549Y-59.798
X143.549Y-77.798
X143.549Y-95.798
X149.549Y-125.798
X151.549Y-46.298
X151.549Y-64.298
X151.549Y-82.298
X151.549Y-100.298
X160.549Y-125.798
X162.549Y-46.298
X162.549Y-64.298
X162.549Y-82.298
X162.549Y-100.298
X168.549Y-125.798
X170.549Y-46.298
X170.549Y-64.298
X170.549Y-82.298
X170.549Y-100.298
X179.549Y-125.798
X181.549Y-46.298
X181.549Y-64.298
X181.549Y-82.298
X181.549Y-100.298
X190.251Y-127.685
X200.587Y-131.447
X209.998Y-136.881
X218.425Y-143.951
T2
X80.925Y-112.212
X85.714Y-109.585
X95.861Y-64.931
X97.43Y-82.862
X98.998Y-100.794
X100.567Y-118.725
X100.65Y-62.303
X102.219Y-80.235
X103.788Y-98.166
X105.356Y-116.098
X119.049Y-52.748
X119.049Y-70.748
X119.049Y-88.748
X119.049Y-106.748
X124.049Y-50.548
X124.049Y-68.548
X124.049Y-86.548
X124.049Y-104.548
X138.049Y-47.748
X138.049Y-65.748
X138.049Y-83.748
X138.049Y-101.748
X143.049Y-45.548
X143.049Y-63.548
X143.049Y-81.548
X143.049Y-99.548
X155.049Y-131.748
X157.049Y-52.248
X157.049Y-70.248
X157.049Y-88.248
X157.049Y-106.248
X160.049Y-129.548
X162.049Y-50.048
X162.049Y-68.048
X162.049Y-86.048
X162.049Y-104.048
X174.049Y-131.748
X176.049Y-52.248
X176.049Y-70.248
X176.049Y-88.248
X176.049Y-106.248
X179.049Y-129.548
X181.049Y-50.048
X181.049Y-68.048
X181.049Y-86.048
X181.049Y-104.048
X193.384Y-135.157
X198.835Y-134.8
X210.387Y-144.974
X215.631Y-146.503
T3
X80.406Y-106.285
X95.342Y-59.003
X96.911Y-76.935
X98.48Y-94.866
X100.049Y-112.798
X119.049Y-46.798
X119.049Y-64.798
X119.049Y-82.798
X119.049Y-100.798
X138.049Y-41.798
X138.049Y-59.798
X138.049Y-77.798
X138.049Y-95.798
X155.049Y-125.798
X157.049Y-46.298
X157.049Y-64.298
X157.049Y-82.298
X157.049Y-100.298
X174.049Y-125.798
X176.049Y-46.298
X176.049Y-64.298
X176.049Y-82.298
X176.049Y-100.298
X195.419Y-129.566
X214.212Y-140.416
T4
X81.203Y-42.324
X81.203Y-128.294
X211.542Y-41.775
X211.542Y-111.775
M30
